<?xml version="1.0" encoding="UTF-8" standalone="no"?>
<!DOCTYPE svg PUBLIC "-//W3C//DTD SVG 1.1//EN"
 "http://www.w3.org/Graphics/SVG/1.1/DTD/svg11.dtd">
<!-- Generated by graphviz version 12.0.0 (0)
 -->
<!-- Title: G Pages: 1 -->
<svg width="720pt" height="150pt"
 viewBox="0.00 0.00 720.00 150.26" xmlns="http://www.w3.org/2000/svg" xmlns:xlink="http://www.w3.org/1999/xlink">
<g id="graph0" class="graph" transform="scale(0.927512 0.927512) rotate(0) translate(36 126)">
<title>G</title>
<!-- Absorb -->
<g id="node1" class="node">
<title>Absorb</title>
<ellipse fill="white" stroke="lightgrey" cx="658.55" cy="-45" rx="45.72" ry="18"/>
<text text-anchor="middle" x="658.55" y="-38.05" font-family="Helvetica,Arial,sans-serif" font-size="16.00">Absorb</text>
</g>
<!-- IPV -->
<g id="node2" class="node">
<title>IPV</title>
<ellipse fill="white" stroke="lightgrey" cx="28.32" cy="-45" rx="28.32" ry="18"/>
<text text-anchor="middle" x="28.32" y="-38.05" font-family="Helvetica,Arial,sans-serif" font-size="16.00">IPV</text>
</g>
<!-- 1 -->
<g id="node3" class="node">
<title>1</title>
<ellipse fill="white" stroke="black" cx="173.34" cy="-45" rx="44.7" ry="18"/>
<text text-anchor="middle" x="173.34" y="-38.05" font-family="Helvetica,Arial,sans-serif" font-size="16.00">4,0,0,0</text>
</g>
<!-- IPV&#45;&gt;1 -->
<g id="edge1" class="edge">
<title>IPV&#45;&gt;1</title>
<path fill="none" stroke="#000000" d="M56.9,-45C73.87,-45 96.24,-45 116.76,-45"/>
<polygon fill="#000000" stroke="#000000" points="116.74,-48.5 126.74,-45 116.74,-41.5 116.74,-48.5"/>
<text text-anchor="middle" x="88.29" y="-29.8" font-family="Helvetica,Arial,sans-serif" font-size="16.00" fill="#000000">1</text>
</g>
<!-- 2 -->
<g id="node4" class="node">
<title>2</title>
<ellipse fill="white" stroke="black" cx="334.73" cy="-45" rx="44.7" ry="18"/>
<text text-anchor="middle" x="334.73" y="-38.05" font-family="Helvetica,Arial,sans-serif" font-size="16.00">2,1,0,0</text>
</g>
<!-- 1&#45;&gt;2 -->
<g id="edge2" class="edge">
<title>1&#45;&gt;2</title>
<path fill="none" stroke="#000000" d="M218.32,-45C236.88,-45 258.7,-45 278.35,-45"/>
<polygon fill="#000000" stroke="#000000" points="278.11,-48.5 288.11,-45 278.11,-41.5 278.11,-48.5"/>
<text text-anchor="middle" x="249.67" y="-29.8" font-family="Helvetica,Arial,sans-serif" font-size="16.00" fill="#000000">6</text>
</g>
<!-- 3 -->
<g id="node5" class="node">
<title>3</title>
<ellipse fill="white" stroke="black" cx="496.13" cy="-72" rx="44.7" ry="18"/>
<text text-anchor="middle" x="496.13" y="-65.05" font-family="Helvetica,Arial,sans-serif" font-size="16.00">0,2,0,0</text>
</g>
<!-- 2&#45;&gt;3 -->
<g id="edge3" class="edge">
<title>2&#45;&gt;3</title>
<path fill="none" stroke="#000000" d="M376.37,-51.88C396.62,-55.31 421.34,-59.5 442.97,-63.16"/>
<polygon fill="#000000" stroke="#000000" points="442.36,-66.61 452.8,-64.83 443.53,-59.71 442.36,-66.61"/>
<text text-anchor="middle" x="410.55" y="-43.23" font-family="Helvetica,Arial,sans-serif" font-size="16.00" fill="#000000">1</text>
</g>
<!-- 4 -->
<g id="node6" class="node">
<title>4</title>
<ellipse fill="white" stroke="black" cx="496.13" cy="-18" rx="44.7" ry="18"/>
<text text-anchor="middle" x="496.13" y="-11.05" font-family="Helvetica,Arial,sans-serif" font-size="16.00">1,0,1,0</text>
</g>
<!-- 2&#45;&gt;4 -->
<g id="edge4" class="edge">
<title>2&#45;&gt;4</title>
<path fill="none" stroke="#000000" d="M376.37,-38.12C396.62,-34.69 421.34,-30.5 442.97,-26.84"/>
<polygon fill="#000000" stroke="#000000" points="443.53,-30.29 452.8,-25.17 442.36,-23.39 443.53,-30.29"/>
<text text-anchor="middle" x="410.55" y="-16.37" font-family="Helvetica,Arial,sans-serif" font-size="16.00" fill="#000000">2</text>
</g>
<!-- 3&#45;&gt;Absorb -->
<g id="edge5" class="edge">
<title>3&#45;&gt;Absorb</title>
<path fill="none" stroke="#000000" d="M538.03,-65.12C558.25,-61.71 582.9,-57.56 604.55,-53.92"/>
<polygon fill="#000000" stroke="#000000" points="605.12,-57.37 614.4,-52.26 603.96,-50.47 605.12,-57.37"/>
<text text-anchor="middle" x="572.14" y="-43.42" font-family="Helvetica,Arial,sans-serif" font-size="16.00" fill="#000000">1</text>
</g>
<!-- 4&#45;&gt;Absorb -->
<g id="edge6" class="edge">
<title>4&#45;&gt;Absorb</title>
<path fill="none" stroke="#000000" d="M538.03,-24.88C558.25,-28.29 582.9,-32.44 604.55,-36.08"/>
<polygon fill="#000000" stroke="#000000" points="603.96,-39.53 614.4,-37.74 605.12,-32.63 603.96,-39.53"/>
<text text-anchor="middle" x="572.14" y="-16.18" font-family="Helvetica,Arial,sans-serif" font-size="16.00" fill="#000000">1</text>
</g>
</g>
</svg>
