<?xml version="1.0" encoding="UTF-8" standalone="no"?>
<!DOCTYPE svg PUBLIC "-//W3C//DTD SVG 1.1//EN"
 "http://www.w3.org/Graphics/SVG/1.1/DTD/svg11.dtd">
<!-- Generated by graphviz version 12.0.0 (0)
 -->
<!-- Title: G Pages: 1 -->
<svg width="720pt" height="186pt"
 viewBox="0.00 0.00 720.00 185.50" xmlns="http://www.w3.org/2000/svg" xmlns:xlink="http://www.w3.org/1999/xlink">
<g id="graph0" class="graph" transform="scale(0.927512 0.927512) rotate(0) translate(36 164)">
<title>G</title>
<!-- Absorb -->
<g id="node1" class="node">
<title>Absorb</title>
<ellipse fill="white" stroke="lightgrey" cx="658.55" cy="-64" rx="45.72" ry="18"/>
<text text-anchor="middle" x="658.55" y="-57.05" font-family="Helvetica,Arial,sans-serif" font-size="16.00">Absorb</text>
</g>
<!-- IPV -->
<g id="node2" class="node">
<title>IPV</title>
<ellipse fill="white" stroke="lightgrey" cx="28.32" cy="-64" rx="28.32" ry="18"/>
<text text-anchor="middle" x="28.32" y="-57.05" font-family="Helvetica,Arial,sans-serif" font-size="16.00">IPV</text>
</g>
<!-- 1 -->
<g id="node3" class="node">
<title>1</title>
<ellipse fill="white" stroke="black" cx="173.34" cy="-110" rx="44.7" ry="18"/>
<text text-anchor="middle" x="173.34" y="-103.05" font-family="Helvetica,Arial,sans-serif" font-size="16.00">0,0,0,0</text>
</g>
<!-- IPV&#45;&gt;1 -->
<g id="edge1" class="edge">
<title>IPV&#45;&gt;1</title>
<path fill="none" stroke="#000000" d="M54.23,-72.01C74.22,-78.44 102.81,-87.64 126.85,-95.37"/>
<polygon fill="#000000" stroke="#000000" points="125.5,-98.61 136.09,-98.34 127.65,-91.95 125.5,-98.61"/>
<text text-anchor="middle" x="84.33" y="-70.11" font-family="Helvetica,Arial,sans-serif" font-size="16.00" fill="#000000">0.4</text>
</g>
<!-- 2 -->
<g id="node4" class="node">
<title>2</title>
<ellipse fill="white" stroke="black" cx="334.73" cy="-18" rx="44.7" ry="18"/>
<text text-anchor="middle" x="334.73" y="-11.05" font-family="Helvetica,Arial,sans-serif" font-size="16.00">0,0,0,0</text>
</g>
<!-- IPV&#45;&gt;2 -->
<g id="edge2" class="edge">
<title>IPV&#45;&gt;2</title>
<path fill="none" stroke="#000000" d="M56.33,-59.92C106.71,-52.31 215.8,-35.82 281.16,-25.94"/>
<polygon fill="#000000" stroke="#000000" points="281.58,-29.42 290.94,-24.47 280.53,-22.5 281.58,-29.42"/>
<text text-anchor="middle" x="158.66" y="-26.87" font-family="Helvetica,Arial,sans-serif" font-size="16.00" fill="#000000">0.24</text>
</g>
<!-- 3 -->
<g id="node5" class="node">
<title>3</title>
<ellipse fill="white" stroke="black" cx="496.13" cy="-64" rx="44.7" ry="18"/>
<text text-anchor="middle" x="496.13" y="-57.05" font-family="Helvetica,Arial,sans-serif" font-size="16.00">0,0,0,0</text>
</g>
<!-- IPV&#45;&gt;3 -->
<g id="edge3" class="edge">
<title>IPV&#45;&gt;3</title>
<path fill="none" stroke="#000000" d="M57.06,-64C132.05,-64 339.82,-64 439.88,-64"/>
<polygon fill="#000000" stroke="#000000" points="439.73,-67.5 449.73,-64 439.73,-60.5 439.73,-67.5"/>
<text text-anchor="middle" x="238.49" y="-48.8" font-family="Helvetica,Arial,sans-serif" font-size="16.00" fill="#000000">0.12</text>
</g>
<!-- 1&#45;&gt;Absorb -->
<g id="edge7" class="edge">
<title>1&#45;&gt;Absorb</title>
<path fill="none" stroke="#000000" d="M218.32,-110.34C287.37,-110.3 425.29,-107.82 540.83,-91 563.49,-87.7 588.25,-82.24 609.11,-77.1"/>
<polygon fill="#000000" stroke="#000000" points="609.96,-80.49 618.8,-74.65 608.24,-73.71 609.96,-80.49"/>
<text text-anchor="middle" x="404.17" y="-88.37" font-family="Helvetica,Arial,sans-serif" font-size="16.00" fill="#000000">0.24</text>
</g>
<!-- 1&#45;&gt;2 -->
<g id="edge4" class="edge">
<title>1&#45;&gt;2</title>
<path fill="none" stroke="#000000" d="M199.95,-95.22C226.67,-79.79 268.76,-55.5 298.58,-38.29"/>
<polygon fill="#000000" stroke="#000000" points="299.97,-41.53 306.88,-33.5 296.47,-35.47 299.97,-41.53"/>
<text text-anchor="middle" x="222.01" y="-65.39" font-family="Helvetica,Arial,sans-serif" font-size="16.00" fill="#000000">2.40e&#45;01</text>
</g>
<!-- 1&#45;&gt;3 -->
<g id="edge5" class="edge">
<title>1&#45;&gt;3</title>
<path fill="none" stroke="#000000" d="M215.95,-104.03C273.88,-95.73 378.85,-80.67 442.26,-71.58"/>
<polygon fill="#000000" stroke="#000000" points="442.69,-75.05 452.1,-70.17 441.7,-68.13 442.69,-75.05"/>
<text text-anchor="middle" x="302.46" y="-71.86" font-family="Helvetica,Arial,sans-serif" font-size="16.00" fill="#000000">1.20e&#45;01</text>
</g>
<!-- 2&#45;&gt;Absorb -->
<g id="edge8" class="edge">
<title>2&#45;&gt;Absorb</title>
<path fill="none" stroke="#000000" d="M379.56,-20.34C421.23,-22.98 485.58,-28.09 540.83,-37 563.35,-40.63 588,-46.11 608.82,-51.18"/>
<polygon fill="#000000" stroke="#000000" points="607.94,-54.57 618.49,-53.58 609.62,-47.77 607.94,-54.57"/>
<text text-anchor="middle" x="488.96" y="-16.06" font-family="Helvetica,Arial,sans-serif" font-size="16.00" fill="#000000">0.4</text>
</g>
<!-- 2&#45;&gt;3 -->
<g id="edge6" class="edge">
<title>2&#45;&gt;3</title>
<path fill="none" stroke="#000000" d="M371.9,-28.44C394.52,-34.97 423.9,-43.44 448.29,-50.48"/>
<polygon fill="#000000" stroke="#000000" points="447.07,-53.77 457.65,-53.18 449.01,-47.05 447.07,-53.77"/>
<text text-anchor="middle" x="383.76" y="-42.36" font-family="Helvetica,Arial,sans-serif" font-size="16.00" fill="#000000">2.00e&#45;01</text>
</g>
<!-- 3&#45;&gt;Absorb -->
<g id="edge9" class="edge">
<title>3&#45;&gt;Absorb</title>
<path fill="none" stroke="#000000" d="M540.96,-64C559.5,-64 581.32,-64 601.04,-64"/>
<polygon fill="#000000" stroke="#000000" points="600.86,-67.5 610.86,-64 600.86,-60.5 600.86,-67.5"/>
<text text-anchor="middle" x="565.56" y="-48.8" font-family="Helvetica,Arial,sans-serif" font-size="16.00" fill="#000000">0.5</text>
</g>
</g>
</svg>
