<?xml version="1.0" encoding="UTF-8" standalone="no"?>
<!DOCTYPE svg PUBLIC "-//W3C//DTD SVG 1.1//EN"
 "http://www.w3.org/Graphics/SVG/1.1/DTD/svg11.dtd">
<!-- Generated by graphviz version 12.0.0 (0)
 -->
<!-- Pages: 1 -->
<svg width="504pt" height="369pt"
 viewBox="0.00 0.00 504.00 368.87" xmlns="http://www.w3.org/2000/svg" xmlns:xlink="http://www.w3.org/1999/xlink">
<g id="graph0" class="graph" transform="scale(0.683088 0.683088) rotate(0) translate(36 504)">
<!-- 0 -->
<g id="node1" class="node">
<title>0</title>
<ellipse fill="#eeeeee" stroke="black" cx="37.78" cy="-450" rx="27" ry="18"/>
<text text-anchor="middle" x="37.78" y="-444.98" font-family="Helvetica,Arial,sans-serif" font-size="12.00">S</text>
</g>
<!-- 1 -->
<g id="node2" class="node">
<title>1</title>
<ellipse fill="white" stroke="black" cx="185.35" cy="-342" rx="37.78" ry="18"/>
<text text-anchor="middle" x="185.35" y="-336.98" font-family="Helvetica,Arial,sans-serif" font-size="12.00">4,0,0,0,0</text>
</g>
<!-- 0&#45;&gt;1 -->
<g id="edge1" class="edge">
<title>0&#45;&gt;1</title>
<path fill="none" stroke="black" d="M56.63,-436.76C81.16,-418.56 125.58,-385.61 155.02,-363.76"/>
<polygon fill="black" stroke="black" points="156.85,-366.76 162.8,-357.99 152.68,-361.14 156.85,-366.76"/>
<text text-anchor="middle" x="98.65" y="-385.56" font-family="Helvetica,Arial,sans-serif" font-size="12.00">1.00</text>
</g>
<!-- 2 -->
<g id="node3" class="node">
<title>2</title>
<ellipse fill="white" stroke="black" cx="332.91" cy="-234" rx="37.78" ry="18"/>
<text text-anchor="middle" x="332.91" y="-228.97" font-family="Helvetica,Arial,sans-serif" font-size="12.00">2,1,0,0,0</text>
</g>
<!-- 1&#45;&gt;2 -->
<g id="edge2" class="edge">
<title>1&#45;&gt;2</title>
<path fill="none" stroke="black" d="M206.89,-326.76C231.82,-308.26 274.02,-276.95 302.41,-255.89"/>
<polygon fill="black" stroke="black" points="304.31,-258.84 310.25,-250.07 300.14,-253.22 304.31,-258.84"/>
<text text-anchor="middle" x="247.39" y="-276.69" font-family="Helvetica,Arial,sans-serif" font-size="12.00">1.00</text>
</g>
<!-- 3 -->
<g id="node4" class="node">
<title>3</title>
<ellipse fill="white" stroke="black" cx="480.48" cy="-288" rx="37.78" ry="18"/>
<text text-anchor="middle" x="480.48" y="-282.98" font-family="Helvetica,Arial,sans-serif" font-size="12.00">0,2,0,0,0</text>
</g>
<!-- 2&#45;&gt;3 -->
<g id="edge3" class="edge">
<title>2&#45;&gt;3</title>
<path fill="none" stroke="black" d="M363.37,-244.93C385.2,-253.03 415.2,-264.16 439.24,-273.07"/>
<polygon fill="black" stroke="black" points="437.8,-276.27 448.4,-276.47 440.24,-269.71 437.8,-276.27"/>
<text text-anchor="middle" x="430.32" y="-249.6" font-family="Helvetica,Arial,sans-serif" font-size="12.00">3.33e&#45;01</text>
</g>
<!-- 4 -->
<g id="node5" class="node">
<title>4</title>
<ellipse fill="white" stroke="black" cx="480.48" cy="-126" rx="37.78" ry="18"/>
<text text-anchor="middle" x="480.48" y="-120.97" font-family="Helvetica,Arial,sans-serif" font-size="12.00">1,0,1,0,0</text>
</g>
<!-- 2&#45;&gt;4 -->
<g id="edge4" class="edge">
<title>2&#45;&gt;4</title>
<path fill="none" stroke="black" d="M354.46,-218.76C379.39,-200.26 421.58,-168.95 449.98,-147.89"/>
<polygon fill="black" stroke="black" points="451.87,-150.84 457.82,-142.07 447.7,-145.22 451.87,-150.84"/>
<text text-anchor="middle" x="382.95" y="-168.69" font-family="Helvetica,Arial,sans-serif" font-size="12.00">6.67e&#45;01</text>
</g>
<!-- 5 -->
<g id="node6" class="node">
<title>5</title>
<ellipse fill="#eeeeee" stroke="black" cx="628.04" cy="-180" rx="37.78" ry="18"/>
<text text-anchor="middle" x="628.04" y="-174.97" font-family="Helvetica,Arial,sans-serif" font-size="12.00">0,0,0,1,0</text>
</g>
<!-- 3&#45;&gt;5 -->
<g id="edge5" class="edge">
<title>3&#45;&gt;5</title>
<path fill="none" stroke="black" d="M502.03,-272.76C526.95,-254.26 569.15,-222.95 597.55,-201.89"/>
<polygon fill="black" stroke="black" points="599.44,-204.84 605.39,-196.07 595.27,-199.22 599.44,-204.84"/>
<text text-anchor="middle" x="542.52" y="-222.69" font-family="Helvetica,Arial,sans-serif" font-size="12.00">1.00</text>
</g>
<!-- 4&#45;&gt;5 -->
<g id="edge6" class="edge">
<title>4&#45;&gt;5</title>
<path fill="none" stroke="black" d="M510.94,-136.93C532.76,-145.03 562.77,-156.16 586.81,-165.07"/>
<polygon fill="black" stroke="black" points="585.37,-168.27 595.96,-168.47 587.8,-161.71 585.37,-168.27"/>
<text text-anchor="middle" x="542.63" y="-141.6" font-family="Helvetica,Arial,sans-serif" font-size="12.00">1.00</text>
</g>
<!-- 6 -->
<g id="node7" class="node">
<title>6</title>
<ellipse fill="white" stroke="black" cx="37.78" cy="-342" rx="37.78" ry="18"/>
<text text-anchor="middle" x="37.78" y="-336.98" font-family="Helvetica,Arial,sans-serif" font-size="12.00">0,0,0,0,0</text>
</g>
<!-- 6&#45;&gt;1 -->
<g id="edge7" class="edge">
<title>6&#45;&gt;1</title>
<path fill="none" stroke="black" d="M53.01,-325.16C77.74,-313.13 128.98,-311.78 159.64,-321.13"/>
<polygon fill="black" stroke="black" points="158.28,-324.35 168.87,-324.69 160.8,-317.82 158.28,-324.35"/>
<text text-anchor="middle" x="86.87" y="-303.6" font-family="Helvetica,Arial,sans-serif" font-size="12.00">1.00e+00</text>
</g>
<!-- 6&#45;&gt;1 -->
<g id="edge8" class="edge">
<title>6&#45;&gt;1</title>
<path fill="none" stroke="black" d="M53.01,-358.84C77.74,-370.87 128.98,-372.22 159.64,-362.87"/>
<polygon fill="black" stroke="black" points="160.8,-366.18 168.87,-359.31 158.28,-359.65 160.8,-366.18"/>
<text text-anchor="middle" x="88.37" y="-370.35" font-family="Helvetica,Arial,sans-serif" font-size="12.00">4.00e&#45;08</text>
</g>
<!-- 7 -->
<g id="node8" class="node">
<title>7</title>
<ellipse fill="white" stroke="black" cx="185.35" cy="-234" rx="37.78" ry="18"/>
<text text-anchor="middle" x="185.35" y="-228.97" font-family="Helvetica,Arial,sans-serif" font-size="12.00">0,0,0,0,0</text>
</g>
<!-- 7&#45;&gt;2 -->
<g id="edge9" class="edge">
<title>7&#45;&gt;2</title>
<path fill="none" stroke="black" d="M200.57,-217.16C225.31,-205.13 276.55,-203.78 307.2,-213.13"/>
<polygon fill="black" stroke="black" points="305.85,-216.35 316.43,-216.69 308.36,-209.82 305.85,-216.35"/>
<text text-anchor="middle" x="234.43" y="-195.6" font-family="Helvetica,Arial,sans-serif" font-size="12.00">1.00e+00</text>
</g>
<!-- 7&#45;&gt;2 -->
<g id="edge10" class="edge">
<title>7&#45;&gt;2</title>
<path fill="none" stroke="black" d="M200.57,-250.84C225.31,-262.87 276.55,-264.22 307.2,-254.87"/>
<polygon fill="black" stroke="black" points="308.36,-258.18 316.43,-251.31 305.85,-251.65 308.36,-258.18"/>
<text text-anchor="middle" x="235.93" y="-262.35" font-family="Helvetica,Arial,sans-serif" font-size="12.00">2.00e&#45;08</text>
</g>
<!-- 8 -->
<g id="node9" class="node">
<title>8</title>
<ellipse fill="white" stroke="black" cx="185.35" cy="-126" rx="37.78" ry="18"/>
<text text-anchor="middle" x="185.35" y="-120.97" font-family="Helvetica,Arial,sans-serif" font-size="12.00">0,0,0,0,0</text>
</g>
<!-- 8&#45;&gt;2 -->
<g id="edge11" class="edge">
<title>8&#45;&gt;2</title>
<path fill="none" stroke="black" d="M222.7,-129.24C253.59,-146.11 296.26,-180.12 317.99,-206.97"/>
<polygon fill="black" stroke="black" points="315.1,-208.94 323.85,-214.91 320.73,-204.79 315.1,-208.94"/>
<text text-anchor="middle" x="252.68" y="-156.26" font-family="Helvetica,Arial,sans-serif" font-size="12.00">1.00e+00</text>
</g>
<!-- 8&#45;&gt;2 -->
<g id="edge12" class="edge">
<title>8&#45;&gt;2</title>
<path fill="none" stroke="black" d="M193.57,-143.95C210.22,-169.21 252.48,-204.79 285.94,-225.19"/>
<polygon fill="black" stroke="black" points="283.84,-228.02 294.25,-230.01 287.35,-221.96 283.84,-228.02"/>
<text text-anchor="middle" x="216.63" y="-180.77" font-family="Helvetica,Arial,sans-serif" font-size="12.00">1.00e&#45;08</text>
</g>
<!-- 9 -->
<g id="node10" class="node">
<title>9</title>
<ellipse fill="white" stroke="black" cx="332.91" cy="-342" rx="37.78" ry="18"/>
<text text-anchor="middle" x="332.91" y="-336.98" font-family="Helvetica,Arial,sans-serif" font-size="12.00">0,0,0,0,0</text>
</g>
<!-- 9&#45;&gt;3 -->
<g id="edge13" class="edge">
<title>9&#45;&gt;3</title>
<path fill="none" stroke="black" d="M343.46,-324.22C362.53,-304.85 406.3,-285.2 439.07,-278.52"/>
<polygon fill="black" stroke="black" points="439.34,-282.02 448.65,-276.96 438.22,-275.11 439.34,-282.02"/>
<text text-anchor="middle" x="368.44" y="-281.87" font-family="Helvetica,Arial,sans-serif" font-size="12.00">1.00e+00</text>
</g>
<!-- 9&#45;&gt;3 -->
<g id="edge14" class="edge">
<title>9&#45;&gt;3</title>
<path fill="none" stroke="black" d="M363.02,-353.31C392.45,-349.96 436.99,-332.23 461.59,-313.11"/>
<polygon fill="black" stroke="black" points="463.63,-315.98 468.83,-306.75 459,-310.72 463.63,-315.98"/>
<text text-anchor="middle" x="395.92" y="-325.46" font-family="Helvetica,Arial,sans-serif" font-size="12.00">2.00e&#45;08</text>
</g>
<!-- 10 -->
<g id="node11" class="node">
<title>10</title>
<ellipse fill="white" stroke="black" cx="332.91" cy="-126" rx="37.78" ry="18"/>
<text text-anchor="middle" x="332.91" y="-120.97" font-family="Helvetica,Arial,sans-serif" font-size="12.00">0,0,0,0,0</text>
</g>
<!-- 10&#45;&gt;4 -->
<g id="edge15" class="edge">
<title>10&#45;&gt;4</title>
<path fill="none" stroke="black" d="M348.14,-109.16C372.87,-97.13 424.11,-95.78 454.77,-105.13"/>
<polygon fill="black" stroke="black" points="453.41,-108.35 464,-108.69 455.93,-101.82 453.41,-108.35"/>
<text text-anchor="middle" x="382" y="-87.6" font-family="Helvetica,Arial,sans-serif" font-size="12.00">1.00e+00</text>
</g>
<!-- 10&#45;&gt;4 -->
<g id="edge16" class="edge">
<title>10&#45;&gt;4</title>
<path fill="none" stroke="black" d="M348.14,-142.84C372.87,-154.87 424.11,-156.22 454.77,-146.87"/>
<polygon fill="black" stroke="black" points="455.93,-150.18 464,-143.31 453.41,-143.65 455.93,-150.18"/>
<text text-anchor="middle" x="383.5" y="-154.35" font-family="Helvetica,Arial,sans-serif" font-size="12.00">1.00e&#45;08</text>
</g>
<!-- 11 -->
<g id="node12" class="node">
<title>11</title>
<ellipse fill="white" stroke="black" cx="332.91" cy="-18" rx="37.78" ry="18"/>
<text text-anchor="middle" x="332.91" y="-12.97" font-family="Helvetica,Arial,sans-serif" font-size="12.00">0,0,0,0,0</text>
</g>
<!-- 11&#45;&gt;4 -->
<g id="edge17" class="edge">
<title>11&#45;&gt;4</title>
<path fill="none" stroke="black" d="M370.27,-21.24C401.15,-38.11 443.83,-72.12 465.56,-98.97"/>
<polygon fill="black" stroke="black" points="462.66,-100.94 471.41,-106.91 468.29,-96.79 462.66,-100.94"/>
<text text-anchor="middle" x="400.24" y="-48.26" font-family="Helvetica,Arial,sans-serif" font-size="12.00">1.00e+00</text>
</g>
<!-- 11&#45;&gt;4 -->
<g id="edge18" class="edge">
<title>11&#45;&gt;4</title>
<path fill="none" stroke="black" d="M341.13,-35.95C357.79,-61.21 400.04,-96.79 433.51,-117.19"/>
<polygon fill="black" stroke="black" points="431.41,-120.02 441.82,-122.01 434.92,-113.96 431.41,-120.02"/>
<text text-anchor="middle" x="364.2" y="-72.77" font-family="Helvetica,Arial,sans-serif" font-size="12.00">1.00e&#45;08</text>
</g>
</g>
</svg>
