<?xml version="1.0" encoding="UTF-8" standalone="no"?>
<!DOCTYPE svg PUBLIC "-//W3C//DTD SVG 1.1//EN"
 "http://www.w3.org/Graphics/SVG/1.1/DTD/svg11.dtd">
<!-- Generated by graphviz version 12.0.0 (0)
 -->
<!-- Title: G Pages: 1 -->
<svg width="720pt" height="228pt"
 viewBox="0.00 0.00 720.00 228.17" xmlns="http://www.w3.org/2000/svg" xmlns:xlink="http://www.w3.org/1999/xlink">
<g id="graph0" class="graph" transform="scale(0.927512 0.927512) rotate(0) translate(36 210)">
<title>G</title>
<g id="clust5" class="cluster">
<title>cluster_4000</title>
<polygon fill="whitesmoke" stroke="whitesmoke" points="120.64,-49 120.64,-124 226.04,-124 226.04,-49 120.64,-49"/>
<text text-anchor="middle" x="173.34" y="-106.7" font-family="Helvetica,Arial,sans-serif" font-size="14.00">4000</text>
</g>
<g id="clust6" class="cluster">
<title>cluster_2100</title>
<polygon fill="whitesmoke" stroke="whitesmoke" points="282.04,-49 282.04,-124 387.43,-124 387.43,-49 282.04,-49"/>
<text text-anchor="middle" x="334.73" y="-106.7" font-family="Helvetica,Arial,sans-serif" font-size="14.00">2100</text>
</g>
<g id="clust7" class="cluster">
<title>cluster_0200</title>
<polygon fill="whitesmoke" stroke="whitesmoke" points="443.43,-91 443.43,-166 548.83,-166 548.83,-91 443.43,-91"/>
<text text-anchor="middle" x="496.13" y="-148.7" font-family="Helvetica,Arial,sans-serif" font-size="14.00">0200</text>
</g>
<g id="clust8" class="cluster">
<title>cluster_1010</title>
<polygon fill="whitesmoke" stroke="whitesmoke" points="443.43,-8 443.43,-83 548.83,-83 548.83,-8 443.43,-8"/>
<text text-anchor="middle" x="496.13" y="-65.7" font-family="Helvetica,Arial,sans-serif" font-size="14.00">1010</text>
</g>
<!-- Absorb -->
<g id="node1" class="node">
<title>Absorb</title>
<ellipse fill="white" stroke="lightgrey" cx="658.55" cy="-75" rx="45.72" ry="18"/>
<text text-anchor="middle" x="658.55" y="-68.05" font-family="Helvetica,Arial,sans-serif" font-size="16.00">Absorb</text>
</g>
<!-- IPV -->
<g id="node2" class="node">
<title>IPV</title>
<ellipse fill="white" stroke="lightgrey" cx="28.32" cy="-75" rx="28.32" ry="18"/>
<text text-anchor="middle" x="28.32" y="-68.05" font-family="Helvetica,Arial,sans-serif" font-size="16.00">IPV</text>
</g>
<!-- 1 -->
<g id="node3" class="node">
<title>1</title>
<ellipse fill="white" stroke="black" cx="173.34" cy="-75" rx="44.7" ry="18"/>
<text text-anchor="middle" x="173.34" y="-68.05" font-family="Helvetica,Arial,sans-serif" font-size="16.00">4,0,0,0</text>
</g>
<!-- IPV&#45;&gt;1 -->
<g id="edge1" class="edge">
<title>IPV&#45;&gt;1</title>
<path fill="none" stroke="#e35687" d="M56.9,-75C73.87,-75 96.24,-75 116.76,-75"/>
<polygon fill="#e35687" stroke="#e35687" points="116.74,-78.5 126.74,-75 116.74,-71.5 116.74,-78.5"/>
<text text-anchor="middle" x="88.29" y="-59.8" font-family="Helvetica,Arial,sans-serif" font-size="16.00" fill="#e35687">1</text>
</g>
<!-- 2 -->
<g id="node4" class="node">
<title>2</title>
<ellipse fill="white" stroke="black" cx="334.73" cy="-75" rx="44.7" ry="18"/>
<text text-anchor="middle" x="334.73" y="-68.05" font-family="Helvetica,Arial,sans-serif" font-size="16.00">2,1,0,0</text>
</g>
<!-- 1&#45;&gt;2 -->
<g id="edge2" class="edge">
<title>1&#45;&gt;2</title>
<path fill="none" stroke="#a22b36" d="M218.32,-75C236.88,-75 258.7,-75 278.35,-75"/>
<polygon fill="#a22b36" stroke="#a22b36" points="278.11,-78.5 288.11,-75 278.11,-71.5 278.11,-78.5"/>
<text text-anchor="middle" x="249.67" y="-59.8" font-family="Helvetica,Arial,sans-serif" font-size="16.00" fill="#a22b36">6</text>
</g>
<!-- 3 -->
<g id="node5" class="node">
<title>3</title>
<ellipse fill="white" stroke="black" cx="496.13" cy="-117" rx="44.7" ry="18"/>
<text text-anchor="middle" x="496.13" y="-110.05" font-family="Helvetica,Arial,sans-serif" font-size="16.00">0,2,0,0</text>
</g>
<!-- 2&#45;&gt;3 -->
<g id="edge3" class="edge">
<title>2&#45;&gt;3</title>
<path fill="none" stroke="#a71cae" d="M372.7,-84.74C394.85,-90.58 423.26,-98.06 447.13,-104.35"/>
<polygon fill="#a71cae" stroke="#a71cae" points="446.06,-107.69 456.62,-106.85 447.84,-100.92 446.06,-107.69"/>
<text text-anchor="middle" x="410.81" y="-80.77" font-family="Helvetica,Arial,sans-serif" font-size="16.00" fill="#a71cae">1</text>
</g>
<!-- 4 -->
<g id="node6" class="node">
<title>4</title>
<ellipse fill="white" stroke="black" cx="496.13" cy="-34" rx="44.7" ry="18"/>
<text text-anchor="middle" x="496.13" y="-27.05" font-family="Helvetica,Arial,sans-serif" font-size="16.00">1,0,1,0</text>
</g>
<!-- 2&#45;&gt;4 -->
<g id="edge4" class="edge">
<title>2&#45;&gt;4</title>
<path fill="none" stroke="#cb3f27" d="M373.11,-65.39C395.11,-59.73 423.18,-52.51 446.84,-46.42"/>
<polygon fill="#cb3f27" stroke="#cb3f27" points="447.44,-49.88 456.25,-44 445.69,-43.1 447.44,-49.88"/>
<text text-anchor="middle" x="410.83" y="-39.33" font-family="Helvetica,Arial,sans-serif" font-size="16.00" fill="#cb3f27">2</text>
</g>
<!-- 3&#45;&gt;Absorb -->
<g id="edge5" class="edge">
<title>3&#45;&gt;Absorb</title>
<path fill="none" stroke="#a4c164" d="M534.34,-107.26C556.47,-101.46 584.81,-94.05 608.72,-87.78"/>
<polygon fill="#a4c164" stroke="#a4c164" points="609.46,-91.21 618.25,-85.29 607.69,-84.44 609.46,-91.21"/>
<text text-anchor="middle" x="572.39" y="-80.92" font-family="Helvetica,Arial,sans-serif" font-size="16.00" fill="#a4c164">1</text>
</g>
<!-- 4&#45;&gt;Absorb -->
<g id="edge6" class="edge">
<title>4&#45;&gt;Absorb</title>
<path fill="none" stroke="#0a0483" d="M534.74,-43.61C556.73,-49.23 584.73,-56.39 608.44,-62.45"/>
<polygon fill="#0a0483" stroke="#0a0483" points="607.32,-65.77 617.87,-64.86 609.05,-58.99 607.32,-65.77"/>
<text text-anchor="middle" x="572.41" y="-39.19" font-family="Helvetica,Arial,sans-serif" font-size="16.00" fill="#0a0483">1</text>
</g>
</g>
</svg>
