<?xml version="1.0" encoding="UTF-8" standalone="no"?>
<!DOCTYPE svg PUBLIC "-//W3C//DTD SVG 1.1//EN"
 "http://www.w3.org/Graphics/SVG/1.1/DTD/svg11.dtd">
<!-- Generated by graphviz version 8.1.0 (0)
 -->
<!-- Title: G Pages: 1 -->
<svg width="720pt" height="166pt"
 viewBox="0.00 0.00 720.00 166.42" xmlns="http://www.w3.org/2000/svg" xmlns:xlink="http://www.w3.org/1999/xlink">
<g id="graph0" class="graph" transform="scale(0.67652 0.67652) rotate(0) translate(36 210)">
<title>G</title>
<g id="clust5" class="cluster">
<title>cluster_4000</title>
<polygon fill="whitesmoke" stroke="whitesmoke" points="192.64,-49 192.64,-124 298.04,-124 298.04,-49 192.64,-49"/>
<text text-anchor="middle" x="245.34" y="-106.7" font-family="Helvetica,Arial,sans-serif" font-size="14.00">4000</text>
</g>
<g id="clust6" class="cluster">
<title>cluster_2100</title>
<polygon fill="whitesmoke" stroke="whitesmoke" points="426.04,-49 426.04,-124 531.43,-124 531.43,-49 426.04,-49"/>
<text text-anchor="middle" x="478.73" y="-106.7" font-family="Helvetica,Arial,sans-serif" font-size="14.00">2100</text>
</g>
<g id="clust7" class="cluster">
<title>cluster_0200</title>
<polygon fill="whitesmoke" stroke="whitesmoke" points="659.43,-91 659.43,-166 764.83,-166 764.83,-91 659.43,-91"/>
<text text-anchor="middle" x="712.13" y="-148.7" font-family="Helvetica,Arial,sans-serif" font-size="14.00">0200</text>
</g>
<g id="clust8" class="cluster">
<title>cluster_1010</title>
<polygon fill="whitesmoke" stroke="whitesmoke" points="659.43,-8 659.43,-83 764.83,-83 764.83,-8 659.43,-8"/>
<text text-anchor="middle" x="712.13" y="-65.7" font-family="Helvetica,Arial,sans-serif" font-size="14.00">1010</text>
</g>
<!-- Absorb -->
<g id="node1" class="node">
<title>Absorb</title>
<ellipse fill="white" stroke="lightgrey" cx="946.55" cy="-75" rx="45.72" ry="18"/>
<text text-anchor="middle" x="946.55" y="-68.05" font-family="Helvetica,Arial,sans-serif" font-size="16.00">Absorb</text>
</g>
<!-- IPV -->
<g id="node2" class="node">
<title>IPV</title>
<ellipse fill="white" stroke="lightgrey" cx="28.32" cy="-75" rx="28.32" ry="18"/>
<text text-anchor="middle" x="28.32" y="-68.05" font-family="Helvetica,Arial,sans-serif" font-size="16.00">IPV</text>
</g>
<!-- 1 -->
<g id="node3" class="node">
<title>1</title>
<ellipse fill="white" stroke="black" cx="245.34" cy="-75" rx="44.7" ry="18"/>
<text text-anchor="middle" x="245.34" y="-68.05" font-family="Helvetica,Arial,sans-serif" font-size="16.00">4,0,0,0</text>
</g>
<!-- IPV&#45;&gt;1 -->
<g id="edge1" class="edge">
<title>IPV&#45;&gt;1</title>
<path fill="none" stroke="#000000" d="M56.99,-75C90.31,-75 147.06,-75 189.4,-75"/>
<polygon fill="#000000" stroke="#000000" points="189.37,-78.5 199.37,-75 189.37,-71.5 189.37,-78.5"/>
<text text-anchor="middle" x="118.69" y="-59.8" font-family="Helvetica,Arial,sans-serif" font-size="16.00" fill="#000000">1</text>
</g>
<!-- 2 -->
<g id="node4" class="node">
<title>2</title>
<ellipse fill="white" stroke="black" cx="478.73" cy="-75" rx="44.7" ry="18"/>
<text text-anchor="middle" x="478.73" y="-68.05" font-family="Helvetica,Arial,sans-serif" font-size="16.00">2,1,0,0</text>
</g>
<!-- 1&#45;&gt;2 -->
<g id="edge2" class="edge">
<title>1&#45;&gt;2</title>
<path fill="none" stroke="#000000" d="M290.41,-75C328.12,-75 382.58,-75 423.07,-75"/>
<polygon fill="#000000" stroke="#000000" points="422.83,-78.5 432.83,-75 422.83,-71.5 422.83,-78.5"/>
<text text-anchor="middle" x="352.24" y="-59.8" font-family="Helvetica,Arial,sans-serif" font-size="16.00" fill="#000000">6</text>
</g>
<!-- 3 -->
<g id="node5" class="node">
<title>3</title>
<ellipse fill="white" stroke="black" cx="712.13" cy="-117" rx="44.7" ry="18"/>
<text text-anchor="middle" x="712.13" y="-110.05" font-family="Helvetica,Arial,sans-serif" font-size="16.00">0,2,0,0</text>
</g>
<!-- 2&#45;&gt;3 -->
<g id="edge3" class="edge">
<title>2&#45;&gt;3</title>
<path fill="none" stroke="#000000" d="M520.04,-82.32C558.99,-89.39 618.13,-100.12 660.3,-107.77"/>
<polygon fill="#000000" stroke="#000000" points="659.43,-111.36 669.9,-109.7 660.68,-104.47 659.43,-111.36"/>
<text text-anchor="middle" x="585.67" y="-79.84" font-family="Helvetica,Arial,sans-serif" font-size="16.00" fill="#000000">1</text>
</g>
<!-- 4 -->
<g id="node6" class="node">
<title>4</title>
<ellipse fill="white" stroke="black" cx="712.13" cy="-34" rx="44.7" ry="18"/>
<text text-anchor="middle" x="712.13" y="-27.05" font-family="Helvetica,Arial,sans-serif" font-size="16.00">1,0,1,0</text>
</g>
<!-- 2&#45;&gt;4 -->
<g id="edge4" class="edge">
<title>2&#45;&gt;4</title>
<path fill="none" stroke="#000000" d="M520.3,-67.81C559.18,-60.92 617.98,-50.5 660.03,-43.05"/>
<polygon fill="#000000" stroke="#000000" points="660.37,-46.37 669.61,-41.18 659.15,-39.48 660.37,-46.37"/>
<text text-anchor="middle" x="585.67" y="-40.23" font-family="Helvetica,Arial,sans-serif" font-size="16.00" fill="#000000">2</text>
</g>
<!-- 3&#45;&gt;Absorb -->
<g id="edge5" class="edge">
<title>3&#45;&gt;Absorb</title>
<path fill="none" stroke="#000000" d="M753.61,-109.68C792.5,-102.66 851.42,-92.01 893.71,-84.37"/>
<polygon fill="#000000" stroke="#000000" points="894.14,-87.67 903.36,-82.44 892.89,-80.78 894.14,-87.67"/>
<text text-anchor="middle" x="819.16" y="-81.83" font-family="Helvetica,Arial,sans-serif" font-size="16.00" fill="#000000">1</text>
</g>
<!-- 4&#45;&gt;Absorb -->
<g id="edge6" class="edge">
<title>4&#45;&gt;Absorb</title>
<path fill="none" stroke="#000000" d="M753.61,-41.14C792.5,-48 851.42,-58.39 893.71,-65.86"/>
<polygon fill="#000000" stroke="#000000" points="892.9,-69.44 903.36,-67.73 894.12,-62.55 892.9,-69.44"/>
<text text-anchor="middle" x="819.16" y="-38.3" font-family="Helvetica,Arial,sans-serif" font-size="16.00" fill="#000000">1</text>
</g>
</g>
</svg>
