<?xml version="1.0" encoding="UTF-8" standalone="no"?>
<!DOCTYPE svg PUBLIC "-//W3C//DTD SVG 1.1//EN"
 "http://www.w3.org/Graphics/SVG/1.1/DTD/svg11.dtd">
<!-- Generated by graphviz version 2.49.1 (0)
 -->
<!-- Pages: 1 -->
<svg width="252pt" height="305pt"
 viewBox="0.00 0.00 252.00 305.00" xmlns="http://www.w3.org/2000/svg" xmlns:xlink="http://www.w3.org/1999/xlink">
<g id="graph0" class="graph" transform="scale(1 1) rotate(0) translate(4 301)">
<polygon fill="white" stroke="transparent" points="-4,4 -4,-301 248,-301 248,4 -4,4"/>
<!-- S -->
<g id="node1" class="node">
<title>S</title>
<ellipse fill="none" stroke="black" cx="68" cy="-279" rx="27" ry="18"/>
<text text-anchor="middle" x="68" y="-275.3" font-family="Times,serif" font-size="14.00">S</text>
</g>
<!-- 3 -->
<g id="node4" class="node">
<title>3</title>
<ellipse fill="none" stroke="black" cx="68" cy="-192" rx="27" ry="18"/>
<text text-anchor="middle" x="68" y="-188.3" font-family="Times,serif" font-size="14.00">[3]</text>
</g>
<!-- S&#45;&gt;3 -->
<g id="edge1" class="edge">
<title>S&#45;&gt;3</title>
<path fill="none" stroke="black" d="M68,-260.8C68,-249.16 68,-233.55 68,-220.24"/>
<polygon fill="black" stroke="black" points="71.5,-220.18 68,-210.18 64.5,-220.18 71.5,-220.18"/>
<text text-anchor="middle" x="77" y="-231.8" font-family="Times,serif" font-size="14.00">1.0</text>
</g>
<!-- 1 -->
<g id="node2" class="node">
<title>1</title>
<ellipse fill="none" stroke="black" cx="27" cy="-18" rx="27" ry="18"/>
<text text-anchor="middle" x="27" y="-14.3" font-family="Times,serif" font-size="14.00">[1]</text>
</g>
<!-- 1&#45;&gt;3 -->
<g id="edge2" class="edge">
<title>1&#45;&gt;3</title>
<path fill="none" stroke="black" d="M20.39,-35.7C13.1,-56.66 3.69,-93.45 14,-123 20.25,-140.92 33.41,-157.66 45.17,-170.04"/>
<polygon fill="black" stroke="black" points="42.71,-172.53 52.24,-177.16 47.68,-167.6 42.71,-172.53"/>
<text text-anchor="middle" x="23" y="-101.3" font-family="Times,serif" font-size="14.00">0.2</text>
</g>
<!-- 2 -->
<g id="node3" class="node">
<title>2</title>
<ellipse fill="none" stroke="black" cx="68" cy="-105" rx="27" ry="18"/>
<text text-anchor="middle" x="68" y="-101.3" font-family="Times,serif" font-size="14.00">[2]</text>
</g>
<!-- 2&#45;&gt;1 -->
<g id="edge3" class="edge">
<title>2&#45;&gt;1</title>
<path fill="none" stroke="black" d="M60.09,-87.61C54.2,-75.38 46.03,-58.44 39.28,-44.46"/>
<polygon fill="black" stroke="black" points="42.38,-42.82 34.88,-35.34 36.07,-45.87 42.38,-42.82"/>
<text text-anchor="middle" x="61.5" y="-57.8" font-family="Times,serif" font-size="14.00">0.25</text>
</g>
<!-- 4 -->
<g id="node5" class="node">
<title>4</title>
<ellipse fill="none" stroke="black" cx="103" cy="-18" rx="27" ry="18"/>
<text text-anchor="middle" x="103" y="-14.3" font-family="Times,serif" font-size="14.00">[4]</text>
</g>
<!-- 2&#45;&gt;4 -->
<g id="edge4" class="edge">
<title>2&#45;&gt;4</title>
<path fill="none" stroke="black" d="M74.91,-87.21C79.88,-75.14 86.68,-58.64 92.34,-44.89"/>
<polygon fill="black" stroke="black" points="95.65,-46.05 96.22,-35.47 89.17,-43.38 95.65,-46.05"/>
<text text-anchor="middle" x="99.5" y="-57.8" font-family="Times,serif" font-size="14.00">0.25</text>
</g>
<!-- 3&#45;&gt;2 -->
<g id="edge5" class="edge">
<title>3&#45;&gt;2</title>
<path fill="none" stroke="black" d="M68,-173.8C68,-162.16 68,-146.55 68,-133.24"/>
<polygon fill="black" stroke="black" points="71.5,-133.18 68,-123.18 64.5,-133.18 71.5,-133.18"/>
<text text-anchor="middle" x="80.5" y="-144.8" font-family="Times,serif" font-size="14.00">0.12</text>
</g>
<!-- 3&#45;&gt;4 -->
<g id="edge6" class="edge">
<title>3&#45;&gt;4</title>
<path fill="none" stroke="black" d="M82.43,-176.78C87.73,-170.81 93.34,-163.52 97,-156 114.34,-120.42 111.75,-108.35 116,-69 116.72,-62.37 117.18,-60.56 116,-54 115.47,-51.07 114.72,-48.06 113.83,-45.1"/>
<polygon fill="black" stroke="black" points="117.05,-43.69 110.46,-35.39 110.43,-45.99 117.05,-43.69"/>
<text text-anchor="middle" x="179" y="-101.3" font-family="Times,serif" font-size="14.00">0.08000000000000002</text>
</g>
</g>
</svg>
