<?xml version="1.0" encoding="UTF-8" standalone="no"?>
<!DOCTYPE svg PUBLIC "-//W3C//DTD SVG 1.1//EN"
 "http://www.w3.org/Graphics/SVG/1.1/DTD/svg11.dtd">
<!-- Generated by graphviz version 2.49.1 (0)
 -->
<!-- Pages: 1 -->
<svg width="323pt" height="479pt"
 viewBox="0.00 0.00 322.95 479.00" xmlns="http://www.w3.org/2000/svg" xmlns:xlink="http://www.w3.org/1999/xlink">
<g id="graph0" class="graph" transform="scale(1 1) rotate(0) translate(4 475)">
<polygon fill="white" stroke="transparent" points="-4,4 -4,-475 318.95,-475 318.95,4 -4,4"/>
<!-- S -->
<g id="node1" class="node">
<title>S</title>
<ellipse fill="none" stroke="black" cx="220.95" cy="-453" rx="27" ry="18"/>
<text text-anchor="middle" x="220.95" y="-449.3" font-family="Times,serif" font-size="14.00">S</text>
</g>
<!-- 1 -->
<g id="node2" class="node">
<title>1</title>
<ellipse fill="none" stroke="black" cx="220.95" cy="-366" rx="27.9" ry="18"/>
<text text-anchor="middle" x="220.95" y="-362.3" font-family="Times,serif" font-size="14.00">[2 0]</text>
</g>
<!-- S&#45;&gt;1 -->
<g id="edge1" class="edge">
<title>S&#45;&gt;1</title>
<path fill="none" stroke="black" d="M220.95,-434.8C220.95,-423.16 220.95,-407.55 220.95,-394.24"/>
<polygon fill="black" stroke="black" points="224.45,-394.18 220.95,-384.18 217.45,-394.18 224.45,-394.18"/>
<text text-anchor="middle" x="229.95" y="-405.8" font-family="Times,serif" font-size="14.00">1.0</text>
</g>
<!-- 4 -->
<g id="node5" class="node">
<title>4</title>
<ellipse fill="none" stroke="black" cx="143.95" cy="-279" rx="27.9" ry="18"/>
<text text-anchor="middle" x="143.95" y="-275.3" font-family="Times,serif" font-size="14.00">[0 2]</text>
</g>
<!-- 1&#45;&gt;4 -->
<g id="edge2" class="edge">
<title>1&#45;&gt;4</title>
<path fill="none" stroke="black" d="M207.54,-350.19C195.57,-336.99 177.89,-317.47 164.2,-302.36"/>
<polygon fill="black" stroke="black" points="166.77,-299.98 157.46,-294.92 161.58,-304.68 166.77,-299.98"/>
<text text-anchor="middle" x="195.95" y="-318.8" font-family="Times,serif" font-size="14.00">1.0</text>
</g>
<!-- 7 -->
<g id="node8" class="node">
<title>7</title>
<ellipse fill="none" stroke="black" cx="135.95" cy="-18" rx="27.9" ry="18"/>
<text text-anchor="middle" x="135.95" y="-14.3" font-family="Times,serif" font-size="14.00">[1 0]</text>
</g>
<!-- 1&#45;&gt;7 -->
<g id="edge3" class="edge">
<title>1&#45;&gt;7</title>
<path fill="none" stroke="black" d="M241.71,-353.56C264.22,-339.47 296.95,-313.26 296.95,-280 296.95,-280 296.95,-280 296.95,-104 296.95,-48.49 221.18,-29.14 173.6,-22.46"/>
<polygon fill="black" stroke="black" points="173.99,-18.98 163.62,-21.19 173.1,-25.92 173.99,-18.98"/>
<text text-anchor="middle" x="305.95" y="-188.3" font-family="Times,serif" font-size="14.00">2.0</text>
</g>
<!-- 2 -->
<g id="node3" class="node">
<title>2</title>
<ellipse fill="none" stroke="black" cx="102.95" cy="-192" rx="27.9" ry="18"/>
<text text-anchor="middle" x="102.95" y="-188.3" font-family="Times,serif" font-size="14.00">[1 1]</text>
</g>
<!-- 2&#45;&gt;4 -->
<g id="edge4" class="edge">
<title>2&#45;&gt;4</title>
<path fill="none" stroke="black" d="M99.97,-209.98C99,-220.04 99.18,-232.77 103.95,-243 106.88,-249.29 111.54,-254.91 116.67,-259.71"/>
<polygon fill="black" stroke="black" points="114.44,-262.41 124.36,-266.13 118.93,-257.03 114.44,-262.41"/>
<text text-anchor="middle" x="112.95" y="-231.8" font-family="Times,serif" font-size="14.00">1.0</text>
</g>
<!-- 2&#45;&gt;7 -->
<g id="edge5" class="edge">
<title>2&#45;&gt;7</title>
<path fill="none" stroke="black" d="M98.46,-174.09C93.67,-153.23 87.82,-116.86 95.95,-87 100.26,-71.15 109.31,-55.24 117.71,-42.79"/>
<polygon fill="black" stroke="black" points="120.73,-44.58 123.64,-34.39 115.01,-40.54 120.73,-44.58"/>
<text text-anchor="middle" x="104.95" y="-101.3" font-family="Times,serif" font-size="14.00">2.0</text>
</g>
<!-- 3 -->
<g id="node4" class="node">
<title>3</title>
<ellipse fill="none" stroke="black" cx="27.95" cy="-192" rx="27.9" ry="18"/>
<text text-anchor="middle" x="27.95" y="-188.3" font-family="Times,serif" font-size="14.00">[0 0]</text>
</g>
<!-- 3&#45;&gt;4 -->
<g id="edge6" class="edge">
<title>3&#45;&gt;4</title>
<path fill="none" stroke="black" d="M41.26,-208.15C51.03,-218.72 64.97,-232.71 78.95,-243 89.35,-250.66 101.63,-257.71 112.71,-263.45"/>
<polygon fill="black" stroke="black" points="111.15,-266.58 121.66,-267.94 114.29,-260.33 111.15,-266.58"/>
<text text-anchor="middle" x="87.95" y="-231.8" font-family="Times,serif" font-size="14.00">1.0</text>
</g>
<!-- 3&#45;&gt;7 -->
<g id="edge7" class="edge">
<title>3&#45;&gt;7</title>
<path fill="none" stroke="black" d="M32.79,-173.92C39.3,-152.56 52.13,-115.36 69.95,-87 80.49,-70.21 86.17,-68.25 99.95,-54 104.22,-49.58 108.86,-44.95 113.36,-40.55"/>
<polygon fill="black" stroke="black" points="115.94,-42.92 120.68,-33.44 111.07,-37.89 115.94,-42.92"/>
<text text-anchor="middle" x="78.95" y="-101.3" font-family="Times,serif" font-size="14.00">4.0</text>
</g>
<!-- 4&#45;&gt;2 -->
<g id="edge8" class="edge">
<title>4&#45;&gt;2</title>
<path fill="none" stroke="black" d="M136.96,-261.17C132.79,-251.4 127.29,-238.9 121.95,-228 120.38,-224.8 118.67,-221.47 116.94,-218.19"/>
<polygon fill="black" stroke="black" points="119.95,-216.38 112.12,-209.24 113.78,-219.7 119.95,-216.38"/>
<text text-anchor="middle" x="138.95" y="-231.8" font-family="Times,serif" font-size="14.00">1.0</text>
</g>
<!-- 4&#45;&gt;3 -->
<g id="edge9" class="edge">
<title>4&#45;&gt;3</title>
<path fill="none" stroke="black" d="M116.44,-275.78C93.14,-272.42 60.49,-264.03 40.95,-243 35.19,-236.81 31.92,-228.4 30.07,-220.25"/>
<polygon fill="black" stroke="black" points="33.5,-219.54 28.42,-210.25 26.59,-220.68 33.5,-219.54"/>
<text text-anchor="middle" x="49.95" y="-231.8" font-family="Times,serif" font-size="14.00">1.0</text>
</g>
<!-- 5 -->
<g id="node6" class="node">
<title>5</title>
<ellipse fill="none" stroke="black" cx="177.95" cy="-192" rx="27.9" ry="18"/>
<text text-anchor="middle" x="177.95" y="-188.3" font-family="Times,serif" font-size="14.00">[0 1]</text>
</g>
<!-- 4&#45;&gt;5 -->
<g id="edge10" class="edge">
<title>4&#45;&gt;5</title>
<path fill="none" stroke="black" d="M153.56,-261.96C156.81,-256.12 160.29,-249.38 162.95,-243 166.01,-235.64 168.74,-227.43 171.01,-219.82"/>
<polygon fill="black" stroke="black" points="174.44,-220.54 173.79,-209.97 167.7,-218.64 174.44,-220.54"/>
<text text-anchor="middle" x="177.95" y="-231.8" font-family="Times,serif" font-size="14.00">4.0</text>
</g>
<!-- 6 -->
<g id="node7" class="node">
<title>6</title>
<ellipse fill="none" stroke="black" cx="204.95" cy="-105" rx="27.9" ry="18"/>
<text text-anchor="middle" x="204.95" y="-101.3" font-family="Times,serif" font-size="14.00">[2 0]</text>
</g>
<!-- 4&#45;&gt;6 -->
<g id="edge11" class="edge">
<title>4&#45;&gt;6</title>
<path fill="none" stroke="black" d="M164.22,-266.57C182.15,-255.03 206.71,-235.32 214.95,-210 223.24,-184.5 218.62,-153.78 213.24,-132.36"/>
<polygon fill="black" stroke="black" points="216.6,-131.38 210.59,-122.66 209.85,-133.23 216.6,-131.38"/>
<text text-anchor="middle" x="227.95" y="-188.3" font-family="Times,serif" font-size="14.00">2.0</text>
</g>
<!-- 5&#45;&gt;6 -->
<g id="edge12" class="edge">
<title>5&#45;&gt;6</title>
<path fill="none" stroke="black" d="M183.28,-174.21C187.05,-162.33 192.19,-146.17 196.51,-132.56"/>
<polygon fill="black" stroke="black" points="199.93,-133.35 199.62,-122.76 193.26,-131.23 199.93,-133.35"/>
<text text-anchor="middle" x="201.95" y="-144.8" font-family="Times,serif" font-size="14.00">1.0</text>
</g>
<!-- 5&#45;&gt;7 -->
<g id="edge13" class="edge">
<title>5&#45;&gt;7</title>
<path fill="none" stroke="black" d="M169.54,-174.82C166.65,-168.96 163.5,-162.26 160.95,-156 155.11,-141.68 153.44,-138.06 149.95,-123 143.99,-97.31 140.3,-67.42 138.21,-46.29"/>
<polygon fill="black" stroke="black" points="141.67,-45.74 137.26,-36.11 134.7,-46.39 141.67,-45.74"/>
<text text-anchor="middle" x="158.95" y="-101.3" font-family="Times,serif" font-size="14.00">2.0</text>
</g>
<!-- 6&#45;&gt;5 -->
<g id="edge14" class="edge">
<title>6&#45;&gt;5</title>
<path fill="none" stroke="black" d="M185.83,-118.35C178.48,-124.23 170.91,-131.96 166.95,-141 163.63,-148.55 164.17,-157.2 166.2,-165.16"/>
<polygon fill="black" stroke="black" points="162.91,-166.35 169.39,-174.73 169.55,-164.14 162.91,-166.35"/>
<text text-anchor="middle" x="175.95" y="-144.8" font-family="Times,serif" font-size="14.00">1.0</text>
</g>
<!-- 6&#45;&gt;7 -->
<g id="edge15" class="edge">
<title>6&#45;&gt;7</title>
<path fill="none" stroke="black" d="M192.61,-88.8C182.08,-75.83 166.77,-56.97 154.72,-42.12"/>
<polygon fill="black" stroke="black" points="157.43,-39.91 148.41,-34.35 151.99,-44.32 157.43,-39.91"/>
<text text-anchor="middle" x="183.95" y="-57.8" font-family="Times,serif" font-size="14.00">4.0</text>
</g>
</g>
</svg>
