<?xml version="1.0" encoding="UTF-8" standalone="no"?>
<!DOCTYPE svg PUBLIC "-//W3C//DTD SVG 1.1//EN"
 "http://www.w3.org/Graphics/SVG/1.1/DTD/svg11.dtd">
<!-- Generated by graphviz version 12.0.0 (0)
 -->
<!-- Pages: 1 -->
<svg width="569pt" height="576pt"
 viewBox="0.00 0.00 568.61 576.00" xmlns="http://www.w3.org/2000/svg" xmlns:xlink="http://www.w3.org/1999/xlink">
<g id="graph0" class="graph" transform="scale(0.351434 0.351434) rotate(0) translate(36 1603)">
<polygon fill="#1f1f1f" stroke="none" points="-36,36 -36,-1603 1581.97,-1603 1581.97,36 -36,36"/>
<!-- 0 -->
<g id="node1" class="node">
<title>0</title>
<ellipse fill="#aaaaaa" stroke="black" cx="27" cy="-128" rx="27" ry="18"/>
<text text-anchor="middle" x="27" y="-122.97" font-family="Helvetica,Arial,sans-serif" font-size="12.00">S</text>
</g>
<!-- 1 -->
<g id="node2" class="node">
<title>1</title>
<ellipse fill="#dddddd" stroke="black" cx="157.82" cy="-92" rx="31.82" ry="18"/>
<text text-anchor="middle" x="157.82" y="-86.97" font-family="Helvetica,Arial,sans-serif" font-size="12.00">1,0,0,0</text>
</g>
<!-- 0&#45;&gt;1 -->
<g id="edge1" class="edge">
<title>0&#45;&gt;1</title>
<path fill="none" stroke="#d28ef6" d="M52.53,-121.14C70.97,-115.99 96.6,-108.83 117.84,-102.89"/>
<polygon fill="#d28ef6" stroke="#d28ef6" points="118.65,-106.3 127.33,-100.24 116.76,-99.56 118.65,-106.3"/>
<text text-anchor="middle" x="66.93" y="-99.12" font-family="Helvetica,Arial,sans-serif" font-size="12.00" fill="#d28ef6">5.00e&#45;01</text>
</g>
<!-- 2 -->
<g id="node3" class="node">
<title>2</title>
<ellipse fill="#dddddd" stroke="black" cx="293.45" cy="-165" rx="31.82" ry="18"/>
<text text-anchor="middle" x="293.45" y="-159.97" font-family="Helvetica,Arial,sans-serif" font-size="12.00">0,1,0,0</text>
</g>
<!-- 0&#45;&gt;2 -->
<g id="edge2" class="edge">
<title>0&#45;&gt;2</title>
<path fill="none" stroke="#f780d2" d="M53.84,-131.62C99.7,-138.03 195.7,-151.46 250.93,-159.19"/>
<polygon fill="#f780d2" stroke="#f780d2" points="250.18,-162.62 260.57,-160.54 251.15,-155.69 250.18,-162.62"/>
<text text-anchor="middle" x="134.28" y="-134.78" font-family="Helvetica,Arial,sans-serif" font-size="12.00" fill="#f780d2">5.00e&#45;01</text>
</g>
<!-- 1&#45;&gt;2 -->
<g id="edge3" class="edge">
<title>1&#45;&gt;2</title>
<path fill="none" stroke="#f8889a" d="M188.81,-96.9C213.21,-107.24 247.14,-126.11 269.43,-141.93"/>
<polygon fill="#f8889a" stroke="#f8889a" points="267.18,-144.62 277.29,-147.82 271.38,-139.02 267.18,-144.62"/>
<text text-anchor="middle" x="258.55" y="-108.79" font-family="Helvetica,Arial,sans-serif" font-size="12.00" fill="#f8889a">3.33e&#45;01</text>
</g>
<!-- 3 -->
<g id="node4" class="node">
<title>3</title>
<ellipse fill="#dddddd" stroke="black" cx="1242.89" cy="-18" rx="31.82" ry="18"/>
<text text-anchor="middle" x="1242.89" y="-12.97" font-family="Helvetica,Arial,sans-serif" font-size="12.00">9,9,0,0</text>
</g>
<!-- 1&#45;&gt;3 -->
<g id="edge4" class="edge">
<title>1&#45;&gt;3</title>
<path fill="none" stroke="#ee9537" d="M182.7,-80.61C228.94,-59.63 334.43,-17 428.08,-17 428.08,-17 428.08,-17 972.62,-17 1052.81,-17 1146.42,-17.45 1199.47,-17.75"/>
<polygon fill="#ee9537" stroke="#ee9537" points="1199.26,-21.24 1209.28,-17.8 1199.3,-14.24 1199.26,-21.24"/>
<text text-anchor="middle" x="472.52" y="-5.6" font-family="Helvetica,Arial,sans-serif" font-size="12.00" fill="#ee9537">3.33e&#45;01</text>
</g>
<!-- 19 -->
<g id="node5" class="node">
<title>19</title>
<ellipse fill="#dddddd" stroke="black" cx="1378.52" cy="-938" rx="31.82" ry="18"/>
<text text-anchor="middle" x="1378.52" y="-932.98" font-family="Helvetica,Arial,sans-serif" font-size="12.00">0,0,0,0</text>
</g>
<!-- 1&#45;&gt;19 -->
<g id="edge5" class="edge">
<title>1&#45;&gt;19</title>
<path fill="none" stroke="#bcaa36" d="M189.91,-91.81C240.04,-91.52 341.83,-91 428.08,-91 428.08,-91 428.08,-91 1108.25,-91 1197.17,-91 1227.42,-126.7 1274.7,-202 1350.74,-323.08 1372.18,-786.18 1376.57,-908.32"/>
<polygon fill="#bcaa36" stroke="#bcaa36" points="1373.07,-908.29 1376.91,-918.16 1380.06,-908.05 1373.07,-908.29"/>
<text text-anchor="middle" x="1084.63" y="-79.6" font-family="Helvetica,Arial,sans-serif" font-size="12.00" fill="#bcaa36">3.33e&#45;01</text>
</g>
<!-- 2&#45;&gt;1 -->
<g id="edge6" class="edge">
<title>2&#45;&gt;1</title>
<path fill="none" stroke="#82b936" d="M262.48,-160.11C238.02,-149.74 203.97,-130.81 181.67,-114.95"/>
<polygon fill="#82b936" stroke="#82b936" points="183.92,-112.26 173.83,-109.06 179.72,-117.86 183.92,-112.26"/>
<text text-anchor="middle" x="192.61" y="-125.35" font-family="Helvetica,Arial,sans-serif" font-size="12.00" fill="#82b936">3.33e&#45;01</text>
</g>
<!-- 2&#45;&gt;3 -->
<g id="edge7" class="edge">
<title>2&#45;&gt;3</title>
<path fill="none" stroke="#38bf85" d="M325.55,-165C375.68,-165 477.47,-165 563.72,-165 563.72,-165 563.72,-165 972.62,-165 1074.48,-165 1174.43,-82.96 1218.47,-41.46"/>
<polygon fill="#38bf85" stroke="#38bf85" points="1220.64,-44.23 1225.43,-34.78 1215.79,-39.18 1220.64,-44.23"/>
<text text-anchor="middle" x="949" y="-153.6" font-family="Helvetica,Arial,sans-serif" font-size="12.00" fill="#38bf85">3.33e&#45;01</text>
</g>
<!-- 2&#45;&gt;19 -->
<g id="edge9" class="edge">
<title>2&#45;&gt;19</title>
<path fill="none" stroke="#3db7d6" d="M295.94,-183.24C309.58,-347.58 415.78,-1567 563.72,-1567 563.72,-1567 563.72,-1567 1108.25,-1567 1192.57,-1567 1225.06,-1544.14 1274.7,-1476 1335.11,-1393.09 1366.73,-1067.8 1375.18,-967.57"/>
<polygon fill="#3db7d6" stroke="#3db7d6" points="1378.65,-967.99 1375.99,-957.74 1371.68,-967.42 1378.65,-967.99"/>
<text text-anchor="middle" x="328.19" y="-614.77" font-family="Helvetica,Arial,sans-serif" font-size="12.00" fill="#3db7d6">0.00</text>
</g>
<!-- 4 -->
<g id="node6" class="node">
<title>4</title>
<ellipse fill="#dddddd" stroke="black" cx="429.08" cy="-499" rx="31.82" ry="18"/>
<text text-anchor="middle" x="429.08" y="-493.98" font-family="Helvetica,Arial,sans-serif" font-size="12.00">0,1,0,1</text>
</g>
<!-- 2&#45;&gt;4 -->
<g id="edge8" class="edge">
<title>2&#45;&gt;4</title>
<path fill="none" stroke="#3bbbb2" d="M301.45,-182.49C323.23,-236.92 389.95,-403.7 416.76,-470.7"/>
<polygon fill="#3bbbb2" stroke="#3bbbb2" points="413.47,-471.89 420.43,-479.88 419.97,-469.29 413.47,-471.89"/>
<text text-anchor="middle" x="337.6" y="-320.49" font-family="Helvetica,Arial,sans-serif" font-size="12.00" fill="#3bbbb2">3.33e&#45;01</text>
</g>
<!-- 3&#45;&gt;19 -->
<g id="edge10" class="edge">
<title>3&#45;&gt;19</title>
<path fill="none" stroke="#86a8f6" d="M1257.68,-34.01C1263.93,-42.16 1270.78,-52.54 1274.7,-63 1334.91,-223.58 1368.53,-774.25 1375.95,-908.37"/>
<polygon fill="#86a8f6" stroke="#86a8f6" points="1372.44,-908.38 1376.48,-918.18 1379.43,-908 1372.44,-908.38"/>
<text text-anchor="middle" x="1319.39" y="-462.73" font-family="Helvetica,Arial,sans-serif" font-size="12.00" fill="#86a8f6">9.47e&#45;01</text>
</g>
<!-- 21 -->
<g id="node7" class="node">
<title>21</title>
<ellipse fill="#9f9f9f" stroke="black" cx="1378.52" cy="-422" rx="31.82" ry="18"/>
<text text-anchor="middle" x="1378.52" y="-416.98" font-family="Helvetica,Arial,sans-serif" font-size="12.00">0,0,0,0</text>
</g>
<!-- 3&#45;&gt;21 -->
<g id="edge11" class="edge">
<title>3&#45;&gt;21</title>
<path fill="none" stroke="#d28ef6" d="M1256.95,-34.32C1263.03,-42.54 1269.95,-52.89 1274.7,-63 1329.28,-179.01 1360.89,-330.02 1372.45,-392.72"/>
<polygon fill="#d28ef6" stroke="#d28ef6" points="1368.95,-393 1374.17,-402.22 1375.83,-391.76 1368.95,-393"/>
<text text-anchor="middle" x="1306.74" y="-203.14" font-family="Helvetica,Arial,sans-serif" font-size="12.00" fill="#d28ef6">5.26e&#45;02</text>
</g>
<!-- 20 -->
<g id="node22" class="node">
<title>20</title>
<ellipse fill="#dddddd" stroke="black" cx="1514.16" cy="-938" rx="31.82" ry="18"/>
<text text-anchor="middle" x="1514.16" y="-932.98" font-family="Helvetica,Arial,sans-serif" font-size="12.00">0,0,0,0</text>
</g>
<!-- 19&#45;&gt;20 -->
<g id="edge56" class="edge">
<title>19&#45;&gt;20</title>
<path fill="none" stroke="#82b936" d="M1404.66,-927.18C1425,-924.13 1453.93,-923.68 1476.8,-925.83"/>
<polygon fill="#82b936" stroke="#82b936" points="1476.28,-929.3 1486.63,-927.01 1477.12,-922.35 1476.28,-929.3"/>
<text text-anchor="middle" x="1434.69" y="-913.1" font-family="Helvetica,Arial,sans-serif" font-size="12.00" fill="#82b936">1.00</text>
</g>
<!-- 4&#45;&gt;19 -->
<g id="edge15" class="edge">
<title>4&#45;&gt;19</title>
<path fill="none" stroke="#bcaa36" d="M430.94,-517.1C437.77,-651.82 488.83,-1493 699.35,-1493 699.35,-1493 699.35,-1493 1108.25,-1493 1188.86,-1493 1223.64,-1483.36 1274.7,-1421 1332.67,-1350.22 1365.44,-1061.77 1374.74,-967.77"/>
<polygon fill="#bcaa36" stroke="#bcaa36" points="1378.23,-968.12 1375.71,-957.83 1371.26,-967.44 1378.23,-968.12"/>
<text text-anchor="middle" x="434.53" y="-715.02" font-family="Helvetica,Arial,sans-serif" font-size="12.00" fill="#bcaa36">0.00</text>
</g>
<!-- 5 -->
<g id="node8" class="node">
<title>5</title>
<ellipse fill="#dddddd" stroke="black" cx="564.72" cy="-535" rx="31.82" ry="18"/>
<text text-anchor="middle" x="564.72" y="-529.98" font-family="Helvetica,Arial,sans-serif" font-size="12.00">1,0,0,1</text>
</g>
<!-- 4&#45;&gt;5 -->
<g id="edge12" class="edge">
<title>4&#45;&gt;5</title>
<path fill="none" stroke="#f780d2" d="M460.74,-495.7C483.02,-499.04 512.98,-507.19 534.84,-515.88"/>
<polygon fill="#f780d2" stroke="#f780d2" points="533.19,-518.98 543.76,-519.71 535.95,-512.55 533.19,-518.98"/>
<text text-anchor="middle" x="527.05" y="-493.92" font-family="Helvetica,Arial,sans-serif" font-size="12.00" fill="#f780d2">3.33e&#45;01</text>
</g>
<!-- 6 -->
<g id="node9" class="node">
<title>6</title>
<ellipse fill="#dddddd" stroke="black" cx="1107.25" cy="-386" rx="31.82" ry="18"/>
<text text-anchor="middle" x="1107.25" y="-380.98" font-family="Helvetica,Arial,sans-serif" font-size="12.00">9,9,0,1</text>
</g>
<!-- 4&#45;&gt;6 -->
<g id="edge13" class="edge">
<title>4&#45;&gt;6</title>
<path fill="none" stroke="#f8889a" d="M446.29,-483.36C465.3,-466.11 498.61,-439.18 532.9,-427 721.81,-359.93 967.27,-372.87 1064.22,-381.55"/>
<polygon fill="#f8889a" stroke="#f8889a" points="1063.77,-385.03 1074.06,-382.47 1064.42,-378.06 1063.77,-385.03"/>
<text text-anchor="middle" x="732.17" y="-369.71" font-family="Helvetica,Arial,sans-serif" font-size="12.00" fill="#f8889a">3.33e&#45;01</text>
</g>
<!-- 7 -->
<g id="node10" class="node">
<title>7</title>
<ellipse fill="#dddddd" stroke="black" cx="564.72" cy="-463" rx="31.82" ry="18"/>
<text text-anchor="middle" x="564.72" y="-457.98" font-family="Helvetica,Arial,sans-serif" font-size="12.00">0,1,0,2</text>
</g>
<!-- 4&#45;&gt;7 -->
<g id="edge14" class="edge">
<title>4&#45;&gt;7</title>
<path fill="none" stroke="#ee9537" d="M458.42,-491.37C477.65,-486.19 503.32,-479.27 524.5,-473.57"/>
<polygon fill="#ee9537" stroke="#ee9537" points="525.21,-477 533.96,-471.02 523.39,-470.24 525.21,-477"/>
<text text-anchor="middle" x="473.03" y="-469.67" font-family="Helvetica,Arial,sans-serif" font-size="12.00" fill="#ee9537">3.33e&#45;01</text>
</g>
<!-- 5&#45;&gt;19 -->
<g id="edge18" class="edge">
<title>5&#45;&gt;19</title>
<path fill="none" stroke="#3bbbb2" d="M566.75,-553.26C573.51,-669.94 612.9,-1308.48 668.54,-1373 718.66,-1431.12 758.23,-1419 834.99,-1419 834.99,-1419 834.99,-1419 1108.25,-1419 1185,-1419 1221.46,-1428.28 1274.7,-1373 1331.65,-1313.88 1364.69,-1055.42 1374.45,-967.44"/>
<polygon fill="#3bbbb2" stroke="#3bbbb2" points="1377.91,-968.02 1375.51,-957.7 1370.95,-967.27 1377.91,-968.02"/>
<text text-anchor="middle" x="558.71" y="-773.16" font-family="Helvetica,Arial,sans-serif" font-size="12.00" fill="#3bbbb2">3.33e&#45;01</text>
</g>
<!-- 5&#45;&gt;4 -->
<g id="edge16" class="edge">
<title>5&#45;&gt;4</title>
<path fill="none" stroke="#82b936" d="M532.98,-538.29C510.7,-534.94 480.79,-526.8 458.96,-518.12"/>
<polygon fill="#82b936" stroke="#82b936" points="460.63,-515.03 450.06,-514.29 457.86,-521.46 460.63,-515.03"/>
<text text-anchor="middle" x="466.71" y="-530.02" font-family="Helvetica,Arial,sans-serif" font-size="12.00" fill="#82b936">3.33e&#45;01</text>
</g>
<!-- 5&#45;&gt;6 -->
<g id="edge17" class="edge">
<title>5&#45;&gt;6</title>
<path fill="none" stroke="#38bf85" d="M595.34,-529.09C628.74,-522.27 684.61,-510.39 732.17,-498 856.2,-465.69 1001.07,-420.02 1068.34,-398.34"/>
<polygon fill="#38bf85" stroke="#38bf85" points="1069.34,-401.7 1077.78,-395.29 1067.19,-395.04 1069.34,-401.7"/>
<text text-anchor="middle" x="815.58" y="-457.11" font-family="Helvetica,Arial,sans-serif" font-size="12.00" fill="#38bf85">3.33e&#45;01</text>
</g>
<!-- 6&#45;&gt;19 -->
<g id="edge19" class="edge">
<title>6&#45;&gt;19</title>
<path fill="none" stroke="#3db7d6" d="M1139.54,-385.24C1177.18,-386.13 1239.68,-393.67 1274.7,-431 1340.7,-501.36 1368.33,-810.62 1375.52,-908.32"/>
<polygon fill="#3db7d6" stroke="#3db7d6" points="1372.02,-908.42 1376.22,-918.14 1379,-907.92 1372.02,-908.42"/>
<text text-anchor="middle" x="1319.84" y="-626.19" font-family="Helvetica,Arial,sans-serif" font-size="12.00" fill="#3db7d6">9.47e&#45;01</text>
</g>
<!-- 6&#45;&gt;21 -->
<g id="edge20" class="edge">
<title>6&#45;&gt;21</title>
<path fill="none" stroke="#86a8f6" d="M1132.89,-374.84C1165.72,-361.52 1225.4,-342.72 1274.7,-357 1303.47,-365.33 1331.91,-384.37 1351.56,-399.71"/>
<polygon fill="#86a8f6" stroke="#86a8f6" points="1349.31,-402.38 1359.29,-405.92 1353.69,-396.93 1349.31,-402.38"/>
<text text-anchor="middle" x="1251.09" y="-345.6" font-family="Helvetica,Arial,sans-serif" font-size="12.00" fill="#86a8f6">5.26e&#45;02</text>
</g>
<!-- 7&#45;&gt;19 -->
<g id="edge24" class="edge">
<title>7&#45;&gt;19</title>
<path fill="none" stroke="#ee9537" d="M582.18,-478.53C587.54,-484.45 593.01,-491.57 596.54,-499 763.85,-852.01 444.34,-1345 834.99,-1345 834.99,-1345 834.99,-1345 1108.25,-1345 1289.46,-1345 1355.83,-1060.92 1372.77,-967.43"/>
<polygon fill="#ee9537" stroke="#ee9537" points="1376.18,-968.22 1374.45,-957.77 1369.29,-967.02 1376.18,-968.22"/>
<text text-anchor="middle" x="636.9" y="-720.36" font-family="Helvetica,Arial,sans-serif" font-size="12.00" fill="#ee9537">0.00</text>
</g>
<!-- 8 -->
<g id="node11" class="node">
<title>8</title>
<ellipse fill="#dddddd" stroke="black" cx="700.35" cy="-462" rx="31.82" ry="18"/>
<text text-anchor="middle" x="700.35" y="-456.98" font-family="Helvetica,Arial,sans-serif" font-size="12.00">1,0,0,2</text>
</g>
<!-- 7&#45;&gt;8 -->
<g id="edge21" class="edge">
<title>7&#45;&gt;8</title>
<path fill="none" stroke="#d28ef6" d="M590.54,-452.04C610.85,-448.81 639.87,-448.12 662.83,-450.09"/>
<polygon fill="#d28ef6" stroke="#d28ef6" points="662.38,-453.56 672.71,-451.2 663.16,-446.61 662.38,-453.56"/>
<text text-anchor="middle" x="608.62" y="-437.6" font-family="Helvetica,Arial,sans-serif" font-size="12.00" fill="#d28ef6">3.33e&#45;01</text>
</g>
<!-- 9 -->
<g id="node12" class="node">
<title>9</title>
<ellipse fill="#dddddd" stroke="black" cx="1242.89" cy="-238" rx="31.82" ry="18"/>
<text text-anchor="middle" x="1242.89" y="-232.97" font-family="Helvetica,Arial,sans-serif" font-size="12.00">9,9,0,2</text>
</g>
<!-- 7&#45;&gt;9 -->
<g id="edge22" class="edge">
<title>7&#45;&gt;9</title>
<path fill="none" stroke="#f780d2" d="M575.21,-445.8C605.54,-393.34 705.77,-239 834.99,-239 834.99,-239 834.99,-239 972.62,-239 1052.81,-239 1146.42,-238.55 1199.47,-238.25"/>
<polygon fill="#f780d2" stroke="#f780d2" points="1199.3,-241.76 1209.28,-238.2 1199.26,-234.76 1199.3,-241.76"/>
<text text-anchor="middle" x="828.56" y="-227.6" font-family="Helvetica,Arial,sans-serif" font-size="12.00" fill="#f780d2">3.33e&#45;01</text>
</g>
<!-- 10 -->
<g id="node13" class="node">
<title>10</title>
<ellipse fill="#dddddd" stroke="black" cx="700.35" cy="-865" rx="31.82" ry="18"/>
<text text-anchor="middle" x="700.35" y="-859.98" font-family="Helvetica,Arial,sans-serif" font-size="12.00">0,1,0,3</text>
</g>
<!-- 7&#45;&gt;10 -->
<g id="edge23" class="edge">
<title>7&#45;&gt;10</title>
<path fill="none" stroke="#f8889a" d="M581.46,-478.37C586.88,-484.38 592.58,-491.6 596.54,-499 658.36,-614.65 686.15,-771.26 695.5,-835.58"/>
<polygon fill="#f8889a" stroke="#f8889a" points="692.01,-835.91 696.87,-845.33 698.94,-834.94 692.01,-835.91"/>
<text text-anchor="middle" x="634.26" y="-646.21" font-family="Helvetica,Arial,sans-serif" font-size="12.00" fill="#f8889a">3.33e&#45;01</text>
</g>
<!-- 8&#45;&gt;19 -->
<g id="edge27" class="edge">
<title>8&#45;&gt;19</title>
<path fill="none" stroke="#38bf85" d="M732.34,-460.11C827.2,-456.09 1116.73,-457.25 1274.7,-607 1361.68,-689.45 1375.56,-843.95 1377.43,-908.49"/>
<polygon fill="#38bf85" stroke="#38bf85" points="1373.93,-908.36 1377.63,-918.29 1380.92,-908.22 1373.93,-908.36"/>
<text text-anchor="middle" x="1251.08" y="-595.6" font-family="Helvetica,Arial,sans-serif" font-size="12.00" fill="#38bf85">3.33e&#45;01</text>
</g>
<!-- 8&#45;&gt;7 -->
<g id="edge25" class="edge">
<title>8&#45;&gt;7</title>
<path fill="none" stroke="#bcaa36" d="M674.78,-472.92C654.47,-476.19 625.33,-476.89 602.27,-474.91"/>
<polygon fill="#bcaa36" stroke="#bcaa36" points="602.69,-471.44 592.36,-473.8 601.91,-478.39 602.69,-471.44"/>
<text text-anchor="middle" x="656.61" y="-477.35" font-family="Helvetica,Arial,sans-serif" font-size="12.00" fill="#bcaa36">3.33e&#45;01</text>
</g>
<!-- 8&#45;&gt;9 -->
<g id="edge26" class="edge">
<title>8&#45;&gt;9</title>
<path fill="none" stroke="#82b936" d="M726.7,-451.5C814.3,-415.19 1104.47,-294.94 1206.24,-252.77"/>
<polygon fill="#82b936" stroke="#82b936" points="1207.3,-256.12 1215.2,-249.06 1204.62,-249.66 1207.3,-256.12"/>
<text text-anchor="middle" x="948.25" y="-338.49" font-family="Helvetica,Arial,sans-serif" font-size="12.00" fill="#82b936">3.33e&#45;01</text>
</g>
<!-- 9&#45;&gt;19 -->
<g id="edge28" class="edge">
<title>9&#45;&gt;19</title>
<path fill="none" stroke="#3bbbb2" d="M1249.03,-256.04C1255.54,-279.26 1266.85,-320.92 1274.7,-357 1320.38,-566.88 1360.21,-822.74 1373.13,-908.44"/>
<polygon fill="#3bbbb2" stroke="#3bbbb2" points="1369.67,-908.96 1374.61,-918.33 1376.59,-907.92 1369.67,-908.96"/>
<text text-anchor="middle" x="1296.28" y="-575.25" font-family="Helvetica,Arial,sans-serif" font-size="12.00" fill="#3bbbb2">9.47e&#45;01</text>
</g>
<!-- 9&#45;&gt;21 -->
<g id="edge29" class="edge">
<title>9&#45;&gt;21</title>
<path fill="none" stroke="#3db7d6" d="M1255.98,-254.65C1279.38,-286.87 1330.97,-357.91 1358.82,-396.25"/>
<polygon fill="#3db7d6" stroke="#3db7d6" points="1355.76,-397.99 1364.47,-404.03 1361.42,-393.88 1355.76,-397.99"/>
<text text-anchor="middle" x="1287.09" y="-318.62" font-family="Helvetica,Arial,sans-serif" font-size="12.00" fill="#3db7d6">5.26e&#45;02</text>
</g>
<!-- 10&#45;&gt;19 -->
<g id="edge33" class="edge">
<title>10&#45;&gt;19</title>
<path fill="none" stroke="#f8889a" d="M704.17,-883.23C717.53,-962.23 781.8,-1271 970.62,-1271 970.62,-1271 970.62,-1271 1108.25,-1271 1264.15,-1271 1345.32,-1047.59 1369.58,-966.75"/>
<polygon fill="#f8889a" stroke="#f8889a" points="1372.88,-967.94 1372.32,-957.36 1366.16,-965.97 1372.88,-967.94"/>
<text text-anchor="middle" x="724.58" y="-1004.29" font-family="Helvetica,Arial,sans-serif" font-size="12.00" fill="#f8889a">0.00</text>
</g>
<!-- 11 -->
<g id="node14" class="node">
<title>11</title>
<ellipse fill="#dddddd" stroke="black" cx="835.99" cy="-865" rx="31.82" ry="18"/>
<text text-anchor="middle" x="835.99" y="-859.98" font-family="Helvetica,Arial,sans-serif" font-size="12.00">1,0,0,3</text>
</g>
<!-- 10&#45;&gt;11 -->
<g id="edge30" class="edge">
<title>10&#45;&gt;11</title>
<path fill="none" stroke="#86a8f6" d="M726.49,-854.18C746.83,-851.13 775.76,-850.68 798.63,-852.83"/>
<polygon fill="#86a8f6" stroke="#86a8f6" points="798.11,-856.3 808.46,-854.01 798.95,-849.35 798.11,-856.3"/>
<text text-anchor="middle" x="791.77" y="-840.1" font-family="Helvetica,Arial,sans-serif" font-size="12.00" fill="#86a8f6">3.33e&#45;01</text>
</g>
<!-- 12 -->
<g id="node15" class="node">
<title>12</title>
<ellipse fill="#dddddd" stroke="black" cx="971.62" cy="-645" rx="31.82" ry="18"/>
<text text-anchor="middle" x="971.62" y="-639.98" font-family="Helvetica,Arial,sans-serif" font-size="12.00">9,9,0,3</text>
</g>
<!-- 10&#45;&gt;12 -->
<g id="edge31" class="edge">
<title>10&#45;&gt;12</title>
<path fill="none" stroke="#d28ef6" d="M719.44,-850.22C765.81,-812.34 889.13,-711.58 943.84,-666.88"/>
<polygon fill="#d28ef6" stroke="#d28ef6" points="945.91,-669.71 951.44,-660.67 941.48,-664.29 945.91,-669.71"/>
<text text-anchor="middle" x="812.53" y="-743.46" font-family="Helvetica,Arial,sans-serif" font-size="12.00" fill="#d28ef6">3.33e&#45;01</text>
</g>
<!-- 13 -->
<g id="node16" class="node">
<title>13</title>
<ellipse fill="#dddddd" stroke="black" cx="835.99" cy="-1086" rx="31.82" ry="18"/>
<text text-anchor="middle" x="835.99" y="-1080.97" font-family="Helvetica,Arial,sans-serif" font-size="12.00">0,1,0,4</text>
</g>
<!-- 10&#45;&gt;13 -->
<g id="edge32" class="edge">
<title>10&#45;&gt;13</title>
<path fill="none" stroke="#f780d2" d="M711.62,-881.97C734.74,-920.22 791.07,-1013.37 818.89,-1059.38"/>
<polygon fill="#f780d2" stroke="#f780d2" points="815.73,-1060.93 823.9,-1067.67 821.72,-1057.3 815.73,-1060.93"/>
<text text-anchor="middle" x="744.43" y="-963.91" font-family="Helvetica,Arial,sans-serif" font-size="12.00" fill="#f780d2">3.33e&#45;01</text>
</g>
<!-- 11&#45;&gt;19 -->
<g id="edge36" class="edge">
<title>11&#45;&gt;19</title>
<path fill="none" stroke="#82b936" d="M867.21,-869.08C958.4,-881.4 1231.02,-918.21 1335.83,-932.37"/>
<polygon fill="#82b936" stroke="#82b936" points="1335.3,-935.83 1345.68,-933.7 1336.24,-928.89 1335.3,-935.83"/>
<text text-anchor="middle" x="1083.65" y="-890.1" font-family="Helvetica,Arial,sans-serif" font-size="12.00" fill="#82b936">3.33e&#45;01</text>
</g>
<!-- 11&#45;&gt;10 -->
<g id="edge34" class="edge">
<title>11&#45;&gt;10</title>
<path fill="none" stroke="#ee9537" d="M809.96,-875.81C789.65,-878.86 760.72,-879.32 737.83,-877.18"/>
<polygon fill="#ee9537" stroke="#ee9537" points="738.34,-873.71 727.99,-876 737.5,-880.66 738.34,-873.71"/>
<text text-anchor="middle" x="744.71" y="-879.85" font-family="Helvetica,Arial,sans-serif" font-size="12.00" fill="#ee9537">3.33e&#45;01</text>
</g>
<!-- 11&#45;&gt;12 -->
<g id="edge35" class="edge">
<title>11&#45;&gt;12</title>
<path fill="none" stroke="#bcaa36" d="M847.47,-847.74C870.65,-809.58 926.37,-717.84 954.21,-672.01"/>
<polygon fill="#bcaa36" stroke="#bcaa36" points="957.2,-673.84 959.4,-663.48 951.21,-670.21 957.2,-673.84"/>
<text text-anchor="middle" x="880.23" y="-743.51" font-family="Helvetica,Arial,sans-serif" font-size="12.00" fill="#bcaa36">3.33e&#45;01</text>
</g>
<!-- 12&#45;&gt;19 -->
<g id="edge37" class="edge">
<title>12&#45;&gt;19</title>
<path fill="none" stroke="#38bf85" d="M999.07,-635.61C1055.62,-617.37 1190.02,-583.9 1274.7,-644 1361.73,-705.76 1375.68,-847.01 1377.51,-908.5"/>
<polygon fill="#38bf85" stroke="#38bf85" points="1374,-908.24 1377.7,-918.17 1381,-908.1 1374,-908.24"/>
<text text-anchor="middle" x="1339.25" y="-673.67" font-family="Helvetica,Arial,sans-serif" font-size="12.00" fill="#38bf85">9.47e&#45;01</text>
</g>
<!-- 12&#45;&gt;21 -->
<g id="edge38" class="edge">
<title>12&#45;&gt;21</title>
<path fill="none" stroke="#3bbbb2" d="M992.76,-631.29C1013.25,-617.54 1046.07,-596.01 1075.44,-579 1170.57,-523.9 1286.94,-465.98 1343.46,-438.43"/>
<polygon fill="#3bbbb2" stroke="#3bbbb2" points="1344.8,-441.67 1352.26,-434.15 1341.74,-435.38 1344.8,-441.67"/>
<text text-anchor="middle" x="1146.51" y="-515.19" font-family="Helvetica,Arial,sans-serif" font-size="12.00" fill="#3bbbb2">5.26e&#45;02</text>
</g>
<!-- 13&#45;&gt;19 -->
<g id="edge42" class="edge">
<title>13&#45;&gt;19</title>
<path fill="none" stroke="#f780d2" d="M852.7,-1101.77C871.52,-1119.42 904.89,-1146.99 939.8,-1158 1025.04,-1184.88 1052.82,-1154.41 1139.07,-1131 1200.64,-1114.29 1223.74,-1122.38 1274.7,-1084 1316.76,-1052.33 1348.26,-998.44 1364.7,-965.74"/>
<polygon fill="#f780d2" stroke="#f780d2" points="1367.79,-967.41 1369.03,-956.88 1361.5,-964.33 1367.79,-967.41"/>
<text text-anchor="middle" x="1127.81" y="-1119.5" font-family="Helvetica,Arial,sans-serif" font-size="12.00" fill="#f780d2">0.00</text>
</g>
<!-- 14 -->
<g id="node17" class="node">
<title>14</title>
<ellipse fill="#dddddd" stroke="black" cx="971.62" cy="-1122" rx="31.82" ry="18"/>
<text text-anchor="middle" x="971.62" y="-1116.97" font-family="Helvetica,Arial,sans-serif" font-size="12.00">1,0,0,4</text>
</g>
<!-- 13&#45;&gt;14 -->
<g id="edge39" class="edge">
<title>13&#45;&gt;14</title>
<path fill="none" stroke="#3db7d6" d="M867.64,-1082.7C889.93,-1086.04 919.88,-1094.19 941.74,-1102.88"/>
<polygon fill="#3db7d6" stroke="#3db7d6" points="940.09,-1105.98 950.66,-1106.71 942.85,-1099.55 940.09,-1105.98"/>
<text text-anchor="middle" x="933.95" y="-1080.92" font-family="Helvetica,Arial,sans-serif" font-size="12.00" fill="#3db7d6">3.33e&#45;01</text>
</g>
<!-- 15 -->
<g id="node18" class="node">
<title>15</title>
<ellipse fill="#dddddd" stroke="black" cx="1107.25" cy="-1049" rx="31.82" ry="18"/>
<text text-anchor="middle" x="1107.25" y="-1043.97" font-family="Helvetica,Arial,sans-serif" font-size="12.00">9,9,0,4</text>
</g>
<!-- 13&#45;&gt;15 -->
<g id="edge40" class="edge">
<title>13&#45;&gt;15</title>
<path fill="none" stroke="#86a8f6" d="M867.35,-1081.83C915.66,-1075.19 1010.11,-1062.21 1064.67,-1054.71"/>
<polygon fill="#86a8f6" stroke="#86a8f6" points="1065.07,-1058.19 1074.5,-1053.36 1064.12,-1051.26 1065.07,-1058.19"/>
<text text-anchor="middle" x="948.17" y="-1056.08" font-family="Helvetica,Arial,sans-serif" font-size="12.00" fill="#86a8f6">3.33e&#45;01</text>
</g>
<!-- 16 -->
<g id="node19" class="node">
<title>16</title>
<ellipse fill="#dddddd" stroke="black" cx="971.62" cy="-754" rx="31.82" ry="18"/>
<text text-anchor="middle" x="971.62" y="-748.98" font-family="Helvetica,Arial,sans-serif" font-size="12.00">0,1,0,5</text>
</g>
<!-- 13&#45;&gt;16 -->
<g id="edge41" class="edge">
<title>13&#45;&gt;16</title>
<path fill="none" stroke="#d28ef6" d="M844.17,-1068.15C866.16,-1013.53 932.64,-848.35 959.34,-782.01"/>
<polygon fill="#d28ef6" stroke="#d28ef6" points="962.51,-783.52 963,-772.94 956.02,-780.91 962.51,-783.52"/>
<text text-anchor="middle" x="880.36" y="-908.15" font-family="Helvetica,Arial,sans-serif" font-size="12.00" fill="#d28ef6">3.33e&#45;01</text>
</g>
<!-- 14&#45;&gt;19 -->
<g id="edge45" class="edge">
<title>14&#45;&gt;19</title>
<path fill="none" stroke="#bcaa36" d="M1003.61,-1119.65C1061.01,-1114.09 1186.08,-1096.22 1274.7,-1042 1308.59,-1021.27 1339.46,-987.04 1358.34,-963.55"/>
<polygon fill="#bcaa36" stroke="#bcaa36" points="1361.08,-965.73 1364.5,-955.7 1355.57,-961.4 1361.08,-965.73"/>
<text text-anchor="middle" x="1175.87" y="-1066.13" font-family="Helvetica,Arial,sans-serif" font-size="12.00" fill="#bcaa36">3.33e&#45;01</text>
</g>
<!-- 14&#45;&gt;13 -->
<g id="edge43" class="edge">
<title>14&#45;&gt;13</title>
<path fill="none" stroke="#f8889a" d="M939.88,-1125.29C917.6,-1121.94 887.69,-1113.8 865.86,-1105.12"/>
<polygon fill="#f8889a" stroke="#f8889a" points="867.53,-1102.03 856.96,-1101.29 864.76,-1108.46 867.53,-1102.03"/>
<text text-anchor="middle" x="873.61" y="-1117.02" font-family="Helvetica,Arial,sans-serif" font-size="12.00" fill="#f8889a">3.33e&#45;01</text>
</g>
<!-- 14&#45;&gt;15 -->
<g id="edge44" class="edge">
<title>14&#45;&gt;15</title>
<path fill="none" stroke="#ee9537" d="M995.29,-1109.62C1016.79,-1097.87 1049.33,-1080.09 1073.62,-1066.82"/>
<polygon fill="#ee9537" stroke="#ee9537" points="1075.05,-1070.04 1082.15,-1062.17 1071.69,-1063.89 1075.05,-1070.04"/>
<text text-anchor="middle" x="1015.65" y="-1074.19" font-family="Helvetica,Arial,sans-serif" font-size="12.00" fill="#ee9537">3.33e&#45;01</text>
</g>
<!-- 15&#45;&gt;19 -->
<g id="edge46" class="edge">
<title>15&#45;&gt;19</title>
<path fill="none" stroke="#82b936" d="M1138.02,-1043.53C1172.04,-1036.67 1228.92,-1023.26 1274.7,-1003 1301.59,-991.1 1329.64,-972.92 1349.64,-958.81"/>
<polygon fill="#82b936" stroke="#82b936" points="1351.46,-961.81 1357.54,-953.14 1347.37,-956.13 1351.46,-961.81"/>
<text text-anchor="middle" x="1251.09" y="-991.6" font-family="Helvetica,Arial,sans-serif" font-size="12.00" fill="#82b936">9.47e&#45;01</text>
</g>
<!-- 15&#45;&gt;21 -->
<g id="edge47" class="edge">
<title>15&#45;&gt;21</title>
<path fill="none" stroke="#38bf85" d="M1117.9,-1031.68C1144.82,-982.95 1222.23,-840.12 1274.7,-716 1314.93,-620.85 1352.38,-503.97 1368.79,-450.8"/>
<polygon fill="#38bf85" stroke="#38bf85" points="1372.12,-451.89 1371.7,-441.31 1365.43,-449.84 1372.12,-451.89"/>
<text text-anchor="middle" x="1251.08" y="-704.6" font-family="Helvetica,Arial,sans-serif" font-size="12.00" fill="#38bf85">5.26e&#45;02</text>
</g>
<!-- 16&#45;&gt;19 -->
<g id="edge50" class="edge">
<title>16&#45;&gt;19</title>
<path fill="none" stroke="#86a8f6" d="M995.28,-766.35C1037.23,-789.01 1130.13,-838.18 1211.07,-874 1254.69,-893.31 1306.1,-912.56 1340.12,-924.83"/>
<polygon fill="#86a8f6" stroke="#86a8f6" points="1338.94,-928.12 1349.53,-928.2 1341.3,-921.53 1338.94,-928.12"/>
<text text-anchor="middle" x="1145.94" y="-843.61" font-family="Helvetica,Arial,sans-serif" font-size="12.00" fill="#86a8f6">3.33e&#45;01</text>
</g>
<!-- 17 -->
<g id="node20" class="node">
<title>17</title>
<ellipse fill="#dddddd" stroke="black" cx="1107.25" cy="-754" rx="31.82" ry="18"/>
<text text-anchor="middle" x="1107.25" y="-748.98" font-family="Helvetica,Arial,sans-serif" font-size="12.00">1,0,0,5</text>
</g>
<!-- 16&#45;&gt;17 -->
<g id="edge48" class="edge">
<title>16&#45;&gt;17</title>
<path fill="none" stroke="#3bbbb2" d="M997.76,-743.18C1018.1,-740.13 1047.03,-739.68 1069.9,-741.83"/>
<polygon fill="#3bbbb2" stroke="#3bbbb2" points="1069.38,-745.3 1079.73,-743.01 1070.22,-738.35 1069.38,-745.3"/>
<text text-anchor="middle" x="1015.79" y="-729.1" font-family="Helvetica,Arial,sans-serif" font-size="12.00" fill="#3bbbb2">3.33e&#45;01</text>
</g>
<!-- 18 -->
<g id="node21" class="node">
<title>18</title>
<ellipse fill="#dddddd" stroke="black" cx="1242.89" cy="-680" rx="31.82" ry="18"/>
<text text-anchor="middle" x="1242.89" y="-674.98" font-family="Helvetica,Arial,sans-serif" font-size="12.00">9,9,0,5</text>
</g>
<!-- 16&#45;&gt;18 -->
<g id="edge49" class="edge">
<title>16&#45;&gt;18</title>
<path fill="none" stroke="#3db7d6" d="M998.56,-744.01C1019.19,-736.28 1048.9,-725.65 1075.44,-718 1117.91,-705.76 1167.39,-694.88 1201.3,-687.94"/>
<polygon fill="#3db7d6" stroke="#3db7d6" points="1201.58,-691.45 1210.68,-686.04 1200.19,-684.59 1201.58,-691.45"/>
<text text-anchor="middle" x="1080.72" y="-698.72" font-family="Helvetica,Arial,sans-serif" font-size="12.00" fill="#3db7d6">3.33e&#45;01</text>
</g>
<!-- 17&#45;&gt;19 -->
<g id="edge53" class="edge">
<title>17&#45;&gt;19</title>
<path fill="none" stroke="#f8889a" d="M1128.49,-767.83C1175.68,-800.08 1293.17,-880.36 1348.21,-917.97"/>
<polygon fill="#f8889a" stroke="#f8889a" points="1345.93,-920.65 1356.17,-923.41 1349.88,-914.87 1345.93,-920.65"/>
<text text-anchor="middle" x="1219.2" y="-834.56" font-family="Helvetica,Arial,sans-serif" font-size="12.00" fill="#f8889a">3.33e&#45;01</text>
</g>
<!-- 17&#45;&gt;16 -->
<g id="edge51" class="edge">
<title>17&#45;&gt;16</title>
<path fill="none" stroke="#d28ef6" d="M1081.23,-764.81C1060.92,-767.86 1031.99,-768.32 1009.1,-766.18"/>
<polygon fill="#d28ef6" stroke="#d28ef6" points="1009.6,-762.71 999.26,-765 1008.77,-769.66 1009.6,-762.71"/>
<text text-anchor="middle" x="1015.97" y="-768.85" font-family="Helvetica,Arial,sans-serif" font-size="12.00" fill="#d28ef6">3.33e&#45;01</text>
</g>
<!-- 17&#45;&gt;18 -->
<g id="edge52" class="edge">
<title>17&#45;&gt;18</title>
<path fill="none" stroke="#f780d2" d="M1130.92,-741.45C1152.56,-729.47 1185.36,-711.3 1209.7,-697.82"/>
<polygon fill="#f780d2" stroke="#f780d2" points="1211.18,-701.01 1218.23,-693.1 1207.79,-694.88 1211.18,-701.01"/>
<text text-anchor="middle" x="1151.57" y="-705.53" font-family="Helvetica,Arial,sans-serif" font-size="12.00" fill="#f780d2">3.33e&#45;01</text>
</g>
<!-- 18&#45;&gt;19 -->
<g id="edge54" class="edge">
<title>18&#45;&gt;19</title>
<path fill="none" stroke="#ee9537" d="M1256.22,-696.7C1262.12,-705.02 1269.1,-715.33 1274.7,-725 1311.85,-789.12 1347.72,-868.68 1365.65,-910.05"/>
<polygon fill="#ee9537" stroke="#ee9537" points="1362.35,-911.24 1369.52,-919.04 1368.78,-908.47 1362.35,-911.24"/>
<text text-anchor="middle" x="1294.21" y="-795" font-family="Helvetica,Arial,sans-serif" font-size="12.00" fill="#ee9537">9.47e&#45;01</text>
</g>
<!-- 18&#45;&gt;21 -->
<g id="edge55" class="edge">
<title>18&#45;&gt;21</title>
<path fill="none" stroke="#bcaa36" d="M1252.86,-662.67C1275.64,-618.7 1335.82,-502.52 1363.38,-449.31"/>
<polygon fill="#bcaa36" stroke="#bcaa36" points="1366.4,-451.09 1367.89,-440.6 1360.18,-447.87 1366.4,-451.09"/>
<text text-anchor="middle" x="1286.96" y="-539.84" font-family="Helvetica,Arial,sans-serif" font-size="12.00" fill="#bcaa36">5.26e&#45;02</text>
</g>
<!-- 20&#45;&gt;19 -->
<g id="edge57" class="edge">
<title>20&#45;&gt;19</title>
<path fill="none" stroke="#38bf85" d="M1488.13,-948.81C1467.82,-951.86 1438.89,-952.32 1416,-950.18"/>
<polygon fill="#38bf85" stroke="#38bf85" points="1416.5,-946.71 1406.16,-949 1415.67,-953.66 1416.5,-946.71"/>
<text text-anchor="middle" x="1434.88" y="-940.1" font-family="Helvetica,Arial,sans-serif" font-size="12.00" fill="#38bf85">1.00</text>
</g>
</g>
</svg>
