<?xml version="1.0" encoding="UTF-8" standalone="no"?>
<!DOCTYPE svg PUBLIC "-//W3C//DTD SVG 1.1//EN"
 "http://www.w3.org/Graphics/SVG/1.1/DTD/svg11.dtd">
<!-- Generated by graphviz version 12.0.0 (0)
 -->
<!-- Pages: 1 -->
<svg width="504pt" height="383pt"
 viewBox="0.00 0.00 504.00 382.71" xmlns="http://www.w3.org/2000/svg" xmlns:xlink="http://www.w3.org/1999/xlink">
<g id="graph0" class="graph" transform="scale(0.571429 0.571429) rotate(0) translate(36 633.75)">
<polygon fill="#1f1f1f" stroke="none" points="-36,36 -36,-633.75 846,-633.75 846,36 -36,36"/>
<!-- 0 -->
<g id="node1" class="node">
<title>0</title>
<ellipse fill="#aaaaaa" stroke="black" cx="27" cy="-39.75" rx="27" ry="18"/>
<text text-anchor="middle" x="27" y="-34.72" font-family="Helvetica,Arial,sans-serif" font-size="12.00">S</text>
</g>
<!-- 1 -->
<g id="node2" class="node">
<title>1</title>
<ellipse fill="#dddddd" stroke="black" cx="153" cy="-39.75" rx="27" ry="18"/>
<text text-anchor="middle" x="153" y="-34.72" font-family="Helvetica,Arial,sans-serif" font-size="12.00">1,0,0</text>
</g>
<!-- 0&#45;&gt;1 -->
<g id="edge1" class="edge">
<title>0&#45;&gt;1</title>
<path fill="none" stroke="#3bbbb2" d="M54.3,-39.75C71.72,-39.75 94.86,-39.75 114.24,-39.75"/>
<polygon fill="#3bbbb2" stroke="#3bbbb2" points="114.23,-43.25 124.23,-39.75 114.23,-36.25 114.23,-43.25"/>
<text text-anchor="middle" x="78.26" y="-28.35" font-family="Helvetica,Arial,sans-serif" font-size="12.00" fill="#3bbbb2">1.00</text>
</g>
<!-- 2 -->
<g id="node3" class="node">
<title>2</title>
<ellipse fill="#dddddd" stroke="black" cx="279" cy="-147.75" rx="27" ry="18"/>
<text text-anchor="middle" x="279" y="-142.72" font-family="Helvetica,Arial,sans-serif" font-size="12.00">0,1,1</text>
</g>
<!-- 1&#45;&gt;2 -->
<g id="edge2" class="edge">
<title>1&#45;&gt;2</title>
<path fill="none" stroke="#3db7d6" d="M170.21,-53.87C191.38,-72.3 228.63,-104.75 253.31,-126.25"/>
<polygon fill="#3db7d6" stroke="#3db7d6" points="250.8,-128.7 260.64,-132.63 255.4,-123.43 250.8,-128.7"/>
<text text-anchor="middle" x="192.12" y="-82.13" font-family="Helvetica,Arial,sans-serif" font-size="12.00" fill="#3db7d6">5.00e&#45;01</text>
</g>
<!-- 7 -->
<g id="node4" class="node">
<title>7</title>
<ellipse fill="#dddddd" stroke="black" cx="279" cy="-39.75" rx="27" ry="18"/>
<text text-anchor="middle" x="279" y="-34.72" font-family="Helvetica,Arial,sans-serif" font-size="12.00">0,0,0</text>
</g>
<!-- 1&#45;&gt;7 -->
<g id="edge3" class="edge">
<title>1&#45;&gt;7</title>
<path fill="none" stroke="#86a8f6" d="M165.44,-23.3C186.11,-10.99 229.98,-9.45 256.43,-18.69"/>
<polygon fill="#86a8f6" stroke="#86a8f6" points="254.66,-21.73 265.21,-22.69 257.55,-15.36 254.66,-21.73"/>
<text text-anchor="middle" x="192.28" y="-1.35" font-family="Helvetica,Arial,sans-serif" font-size="12.00" fill="#86a8f6">5.00e&#45;01</text>
</g>
<!-- 3 -->
<g id="node5" class="node">
<title>3</title>
<ellipse fill="#dddddd" stroke="black" cx="405" cy="-255.75" rx="27" ry="18"/>
<text text-anchor="middle" x="405" y="-250.72" font-family="Helvetica,Arial,sans-serif" font-size="12.00">1,0,2</text>
</g>
<!-- 2&#45;&gt;3 -->
<g id="edge4" class="edge">
<title>2&#45;&gt;3</title>
<path fill="none" stroke="#d28ef6" d="M296.21,-161.87C317.38,-180.3 354.63,-212.75 379.31,-234.25"/>
<polygon fill="#d28ef6" stroke="#d28ef6" points="376.8,-236.7 386.64,-240.63 381.4,-231.43 376.8,-236.7"/>
<text text-anchor="middle" x="318.12" y="-190.13" font-family="Helvetica,Arial,sans-serif" font-size="12.00" fill="#d28ef6">5.00e&#45;01</text>
</g>
<!-- 8 -->
<g id="node6" class="node">
<title>8</title>
<ellipse fill="#dddddd" stroke="black" cx="405" cy="-147.75" rx="27" ry="18"/>
<text text-anchor="middle" x="405" y="-142.72" font-family="Helvetica,Arial,sans-serif" font-size="12.00">0,0,0</text>
</g>
<!-- 2&#45;&gt;8 -->
<g id="edge5" class="edge">
<title>2&#45;&gt;8</title>
<path fill="none" stroke="#f780d2" d="M291.44,-131.3C312.11,-118.99 355.98,-117.45 382.43,-126.69"/>
<polygon fill="#f780d2" stroke="#f780d2" points="380.66,-129.73 391.21,-130.69 383.55,-123.36 380.66,-129.73"/>
<text text-anchor="middle" x="318.28" y="-109.35" font-family="Helvetica,Arial,sans-serif" font-size="12.00" fill="#f780d2">5.00e&#45;01</text>
</g>
<!-- 7&#45;&gt;1 -->
<g id="edge12" class="edge">
<title>7&#45;&gt;1</title>
<path fill="none" stroke="#3db7d6" d="M266.58,-56.19C245.94,-68.51 202.07,-70.05 175.6,-60.82"/>
<polygon fill="#3db7d6" stroke="#3db7d6" points="177.37,-57.78 166.82,-56.83 174.48,-64.15 177.37,-57.78"/>
<text text-anchor="middle" x="204.51" y="-55.35" font-family="Helvetica,Arial,sans-serif" font-size="12.00" fill="#3db7d6">1.00</text>
</g>
<!-- 4 -->
<g id="node7" class="node">
<title>4</title>
<ellipse fill="#dddddd" stroke="black" cx="531" cy="-363.75" rx="27" ry="18"/>
<text text-anchor="middle" x="531" y="-358.72" font-family="Helvetica,Arial,sans-serif" font-size="12.00">0,1,3</text>
</g>
<!-- 3&#45;&gt;4 -->
<g id="edge6" class="edge">
<title>3&#45;&gt;4</title>
<path fill="none" stroke="#f8889a" d="M422.21,-269.87C443.38,-288.3 480.63,-320.75 505.31,-342.25"/>
<polygon fill="#f8889a" stroke="#f8889a" points="502.8,-344.7 512.64,-348.63 507.4,-339.43 502.8,-344.7"/>
<text text-anchor="middle" x="444.12" y="-298.13" font-family="Helvetica,Arial,sans-serif" font-size="12.00" fill="#f8889a">5.00e&#45;01</text>
</g>
<!-- 9 -->
<g id="node8" class="node">
<title>9</title>
<ellipse fill="#dddddd" stroke="black" cx="531" cy="-255.75" rx="27" ry="18"/>
<text text-anchor="middle" x="531" y="-250.72" font-family="Helvetica,Arial,sans-serif" font-size="12.00">0,0,0</text>
</g>
<!-- 3&#45;&gt;9 -->
<g id="edge7" class="edge">
<title>3&#45;&gt;9</title>
<path fill="none" stroke="#ee9537" d="M417.44,-239.3C438.11,-226.99 481.98,-225.45 508.43,-234.69"/>
<polygon fill="#ee9537" stroke="#ee9537" points="506.66,-237.73 517.21,-238.69 509.55,-231.36 506.66,-237.73"/>
<text text-anchor="middle" x="444.28" y="-217.35" font-family="Helvetica,Arial,sans-serif" font-size="12.00" fill="#ee9537">5.00e&#45;01</text>
</g>
<!-- 8&#45;&gt;2 -->
<g id="edge13" class="edge">
<title>8&#45;&gt;2</title>
<path fill="none" stroke="#86a8f6" d="M392.58,-164.19C371.94,-176.51 328.07,-178.05 301.6,-168.82"/>
<polygon fill="#86a8f6" stroke="#86a8f6" points="303.37,-165.78 292.82,-164.83 300.48,-172.15 303.37,-165.78"/>
<text text-anchor="middle" x="330.51" y="-163.35" font-family="Helvetica,Arial,sans-serif" font-size="12.00" fill="#86a8f6">1.00</text>
</g>
<!-- 5 -->
<g id="node9" class="node">
<title>5</title>
<ellipse fill="#dddddd" stroke="black" cx="657" cy="-471.75" rx="27" ry="18"/>
<text text-anchor="middle" x="657" y="-466.72" font-family="Helvetica,Arial,sans-serif" font-size="12.00">1,0,4</text>
</g>
<!-- 4&#45;&gt;5 -->
<g id="edge8" class="edge">
<title>4&#45;&gt;5</title>
<path fill="none" stroke="#bcaa36" d="M548.21,-377.87C569.38,-396.3 606.63,-428.75 631.31,-450.25"/>
<polygon fill="#bcaa36" stroke="#bcaa36" points="628.8,-452.7 638.64,-456.63 633.4,-447.43 628.8,-452.7"/>
<text text-anchor="middle" x="570.12" y="-406.13" font-family="Helvetica,Arial,sans-serif" font-size="12.00" fill="#bcaa36">5.00e&#45;01</text>
</g>
<!-- 10 -->
<g id="node10" class="node">
<title>10</title>
<ellipse fill="#dddddd" stroke="black" cx="657" cy="-363.75" rx="27" ry="18"/>
<text text-anchor="middle" x="657" y="-358.72" font-family="Helvetica,Arial,sans-serif" font-size="12.00">0,0,0</text>
</g>
<!-- 4&#45;&gt;10 -->
<g id="edge9" class="edge">
<title>4&#45;&gt;10</title>
<path fill="none" stroke="#82b936" d="M543.44,-347.3C564.11,-334.99 607.98,-333.45 634.43,-342.69"/>
<polygon fill="#82b936" stroke="#82b936" points="632.66,-345.73 643.21,-346.69 635.55,-339.36 632.66,-345.73"/>
<text text-anchor="middle" x="570.28" y="-325.35" font-family="Helvetica,Arial,sans-serif" font-size="12.00" fill="#82b936">5.00e&#45;01</text>
</g>
<!-- 9&#45;&gt;3 -->
<g id="edge14" class="edge">
<title>9&#45;&gt;3</title>
<path fill="none" stroke="#d28ef6" d="M518.58,-272.19C497.94,-284.51 454.07,-286.05 427.6,-276.82"/>
<polygon fill="#d28ef6" stroke="#d28ef6" points="429.37,-273.78 418.82,-272.83 426.48,-280.15 429.37,-273.78"/>
<text text-anchor="middle" x="456.51" y="-271.35" font-family="Helvetica,Arial,sans-serif" font-size="12.00" fill="#d28ef6">1.00</text>
</g>
<!-- 6 -->
<g id="node11" class="node">
<title>6</title>
<ellipse fill="#9f9f9f" stroke="black" cx="783" cy="-579.75" rx="27" ry="18"/>
<text text-anchor="middle" x="783" y="-574.72" font-family="Helvetica,Arial,sans-serif" font-size="12.00">0,1,5</text>
</g>
<!-- 5&#45;&gt;6 -->
<g id="edge10" class="edge">
<title>5&#45;&gt;6</title>
<path fill="none" stroke="#38bf85" d="M674.21,-485.87C695.38,-504.3 732.63,-536.75 757.31,-558.25"/>
<polygon fill="#38bf85" stroke="#38bf85" points="754.8,-560.7 764.64,-564.63 759.4,-555.43 754.8,-560.7"/>
<text text-anchor="middle" x="696.12" y="-514.13" font-family="Helvetica,Arial,sans-serif" font-size="12.00" fill="#38bf85">5.00e&#45;01</text>
</g>
<!-- 11 -->
<g id="node12" class="node">
<title>11</title>
<ellipse fill="#dddddd" stroke="black" cx="783" cy="-471.75" rx="27" ry="18"/>
<text text-anchor="middle" x="783" y="-466.72" font-family="Helvetica,Arial,sans-serif" font-size="12.00">0,0,0</text>
</g>
<!-- 5&#45;&gt;11 -->
<g id="edge11" class="edge">
<title>5&#45;&gt;11</title>
<path fill="none" stroke="#3bbbb2" d="M669.44,-455.3C690.11,-442.99 733.98,-441.45 760.43,-450.69"/>
<polygon fill="#3bbbb2" stroke="#3bbbb2" points="758.66,-453.73 769.21,-454.69 761.55,-447.36 758.66,-453.73"/>
<text text-anchor="middle" x="696.28" y="-433.35" font-family="Helvetica,Arial,sans-serif" font-size="12.00" fill="#3bbbb2">5.00e&#45;01</text>
</g>
<!-- 10&#45;&gt;4 -->
<g id="edge15" class="edge">
<title>10&#45;&gt;4</title>
<path fill="none" stroke="#f780d2" d="M644.58,-380.19C623.94,-392.51 580.07,-394.05 553.6,-384.82"/>
<polygon fill="#f780d2" stroke="#f780d2" points="555.37,-381.78 544.82,-380.83 552.48,-388.15 555.37,-381.78"/>
<text text-anchor="middle" x="582.51" y="-379.35" font-family="Helvetica,Arial,sans-serif" font-size="12.00" fill="#f780d2">1.00</text>
</g>
<!-- 11&#45;&gt;5 -->
<g id="edge16" class="edge">
<title>11&#45;&gt;5</title>
<path fill="none" stroke="#f8889a" d="M770.58,-488.19C749.94,-500.51 706.07,-502.05 679.6,-492.82"/>
<polygon fill="#f8889a" stroke="#f8889a" points="681.37,-489.78 670.82,-488.83 678.48,-496.15 681.37,-489.78"/>
<text text-anchor="middle" x="708.51" y="-487.35" font-family="Helvetica,Arial,sans-serif" font-size="12.00" fill="#f8889a">1.00</text>
</g>
</g>
</svg>
