<?xml version="1.0" encoding="UTF-8" standalone="no"?>
<!DOCTYPE svg PUBLIC "-//W3C//DTD SVG 1.1//EN"
 "http://www.w3.org/Graphics/SVG/1.1/DTD/svg11.dtd">
<!-- Generated by graphviz version 12.0.0 (0)
 -->
<!-- Title: G Pages: 1 -->
<svg width="720pt" height="237pt"
 viewBox="0.00 0.00 720.00 237.07" xmlns="http://www.w3.org/2000/svg" xmlns:xlink="http://www.w3.org/1999/xlink">
<g id="graph0" class="graph" transform="scale(0.711938 0.711938) rotate(0) translate(36 296.99)">
<title>G</title>
<g id="clust8" class="cluster">
<title>cluster_1</title>
<polygon fill="whitesmoke" stroke="whitesmoke" points="120.64,-117 120.64,-246 281.31,-246 281.31,-117 120.64,-117"/>
<text text-anchor="middle" x="200.98" y="-228.7" font-family="Helvetica,Arial,sans-serif" font-size="14.00">1</text>
</g>
<g id="clust9" class="cluster">
<title>cluster_2</title>
<polygon fill="whitesmoke" stroke="whitesmoke" points="337.31,-84 337.31,-213 497.98,-213 497.98,-84 337.31,-84"/>
<text text-anchor="middle" x="417.65" y="-195.7" font-family="Helvetica,Arial,sans-serif" font-size="14.00">2</text>
</g>
<g id="clust10" class="cluster">
<title>cluster_3</title>
<polygon fill="whitesmoke" stroke="whitesmoke" points="553.98,-84 553.98,-213 714.65,-213 714.65,-84 553.98,-84"/>
<text text-anchor="middle" x="634.32" y="-195.7" font-family="Helvetica,Arial,sans-serif" font-size="14.00">3</text>
</g>
<g id="clust11" class="cluster">
<title>cluster_4</title>
<polygon fill="whitesmoke" stroke="whitesmoke" points="770.65,-8 770.65,-137 931.32,-137 931.32,-8 770.65,-8"/>
<text text-anchor="middle" x="850.99" y="-119.7" font-family="Helvetica,Arial,sans-serif" font-size="14.00">4</text>
</g>
<!-- Absorb -->
<g id="node1" class="node">
<title>Absorb</title>
<ellipse fill="white" stroke="lightgrey" cx="850.99" cy="-186" rx="45.72" ry="18"/>
<text text-anchor="middle" x="850.99" y="-179.05" font-family="Helvetica,Arial,sans-serif" font-size="16.00">Absorb</text>
</g>
<!-- IPV -->
<g id="node2" class="node">
<title>IPV</title>
<ellipse fill="white" stroke="lightgrey" cx="28.32" cy="-143" rx="28.32" ry="18"/>
<text text-anchor="middle" x="28.32" y="-136.05" font-family="Helvetica,Arial,sans-serif" font-size="16.00">IPV</text>
</g>
<!-- 1 -->
<g id="node3" class="node">
<title>1</title>
<ellipse fill="white" stroke="black" cx="200.98" cy="-143" rx="72.34" ry="18"/>
<text text-anchor="middle" x="200.98" y="-136.05" font-family="Helvetica,Arial,sans-serif" font-size="16.00">3,0,0,0,0,0,0</text>
</g>
<!-- IPV&#45;&gt;1 -->
<g id="edge1" class="edge">
<title>IPV&#45;&gt;1</title>
<path fill="none" stroke="#f5b4f6" d="M57.12,-143C73.61,-143 95.46,-143 117.1,-143"/>
<polygon fill="#f5b4f6" stroke="#f5b4f6" points="116.85,-146.5 126.85,-143 116.85,-139.5 116.85,-146.5"/>
<text text-anchor="middle" x="87.97" y="-127.8" font-family="Helvetica,Arial,sans-serif" font-size="16.00" fill="#f5b4f6">1</text>
</g>
<!-- 2 -->
<g id="node4" class="node">
<title>2</title>
<ellipse fill="white" stroke="black" cx="200.98" cy="-197" rx="72.34" ry="18"/>
<text text-anchor="middle" x="200.98" y="-190.05" font-family="Helvetica,Arial,sans-serif" font-size="16.00">1,1,0,0,0,0,0</text>
</g>
<!-- 1&#45;&gt;2 -->
<g id="edge2" class="edge">
<title>1&#45;&gt;2</title>
<path fill="none" stroke="#18292e" d="M200.98,-161.14C200.98,-163.13 200.98,-165.12 200.98,-167.11"/>
<polygon fill="#18292e" stroke="#18292e" points="197.48,-167 200.98,-177 204.48,-167 197.48,-167"/>
<text text-anchor="middle" x="205.48" y="-164.24" font-family="Helvetica,Arial,sans-serif" font-size="16.00" fill="#18292e">3</text>
</g>
<!-- 3 -->
<g id="node5" class="node">
<title>3</title>
<ellipse fill="white" stroke="black" cx="417.65" cy="-110" rx="72.34" ry="18"/>
<text text-anchor="middle" x="417.65" y="-103.05" font-family="Helvetica,Arial,sans-serif" font-size="16.00">3,0,0,1,0,0,0</text>
</g>
<!-- 1&#45;&gt;3 -->
<g id="edge3" class="edge">
<title>1&#45;&gt;3</title>
<path fill="none" stroke="#fa0cb3" d="M263.49,-133.54C288.53,-129.69 317.66,-125.22 343.76,-121.2"/>
<polygon fill="#fa0cb3" stroke="#fa0cb3" points="344.27,-124.67 353.63,-119.69 343.21,-117.75 344.27,-124.67"/>
<text text-anchor="middle" x="304.5" y="-111.35" font-family="Helvetica,Arial,sans-serif" font-size="16.00" fill="#fa0cb3">3</text>
</g>
<!-- 2&#45;&gt;Absorb -->
<g id="edge15" class="edge">
<title>2&#45;&gt;Absorb</title>
<path fill="none" stroke="#870822" d="M238.51,-212.71C265.29,-223.34 302.85,-236.42 337.31,-242 502.89,-268.81 549.93,-266.65 714.65,-235 747.76,-228.64 783.56,-215.37 810.02,-204.25"/>
<polygon fill="#870822" stroke="#870822" points="811.19,-207.55 819,-200.39 808.43,-201.12 811.19,-207.55"/>
<text text-anchor="middle" x="526.16" y="-245.11" font-family="Helvetica,Arial,sans-serif" font-size="16.00" fill="#870822">1</text>
</g>
<!-- 4 -->
<g id="node6" class="node">
<title>4</title>
<ellipse fill="white" stroke="black" cx="417.65" cy="-164" rx="72.34" ry="18"/>
<text text-anchor="middle" x="417.65" y="-157.05" font-family="Helvetica,Arial,sans-serif" font-size="16.00">1,1,0,0,1,0,0</text>
</g>
<!-- 2&#45;&gt;4 -->
<g id="edge4" class="edge">
<title>2&#45;&gt;4</title>
<path fill="none" stroke="#65cb9c" d="M263.49,-187.54C288.53,-183.69 317.66,-179.22 343.76,-175.2"/>
<polygon fill="#65cb9c" stroke="#65cb9c" points="344.27,-178.67 353.63,-173.69 343.21,-171.75 344.27,-178.67"/>
<text text-anchor="middle" x="304.5" y="-165.35" font-family="Helvetica,Arial,sans-serif" font-size="16.00" fill="#65cb9c">1</text>
</g>
<!-- 5 -->
<g id="node7" class="node">
<title>5</title>
<ellipse fill="white" stroke="black" cx="634.32" cy="-110" rx="72.34" ry="18"/>
<text text-anchor="middle" x="634.32" y="-103.05" font-family="Helvetica,Arial,sans-serif" font-size="16.00">1,1,0,1,0,0,0</text>
</g>
<!-- 2&#45;&gt;5 -->
<g id="edge5" class="edge">
<title>2&#45;&gt;5</title>
<path fill="none" stroke="#cbcb63" d="M242.02,-212.23C301.56,-232.23 415.29,-260.05 497.98,-217 536.48,-196.96 519.28,-163.06 553.98,-137 559.13,-133.14 564.86,-129.81 570.82,-126.93"/>
<polygon fill="#cbcb63" stroke="#cbcb63" points="571.84,-130.31 579.63,-123.12 569.06,-123.88 571.84,-130.31"/>
<text text-anchor="middle" x="412.76" y="-223.55" font-family="Helvetica,Arial,sans-serif" font-size="16.00" fill="#cbcb63">1</text>
</g>
<!-- 3&#45;&gt;5 -->
<g id="edge6" class="edge">
<title>3&#45;&gt;5</title>
<path fill="none" stroke="#7085f9" d="M490.43,-110C509.58,-110 530.44,-110 550.15,-110"/>
<polygon fill="#7085f9" stroke="#7085f9" points="550.09,-113.5 560.09,-110 550.09,-106.5 550.09,-113.5"/>
<text text-anchor="middle" x="521.73" y="-94.8" font-family="Helvetica,Arial,sans-serif" font-size="16.00" fill="#7085f9">3</text>
</g>
<!-- 8 -->
<g id="node10" class="node">
<title>8</title>
<ellipse fill="white" stroke="black" cx="850.99" cy="-88" rx="72.34" ry="18"/>
<text text-anchor="middle" x="850.99" y="-81.05" font-family="Helvetica,Arial,sans-serif" font-size="16.00">0,0,0,0,0,0,0</text>
</g>
<!-- 3&#45;&gt;8 -->
<g id="edge7" class="edge">
<title>3&#45;&gt;8</title>
<path fill="none" stroke="#7dea7f" d="M447.02,-93.2C473.62,-78.51 515.01,-58.25 553.98,-50 623.84,-35.21 643.91,-40.26 714.65,-50 742.43,-53.83 772.54,-61.87 797.29,-69.58"/>
<polygon fill="#7dea7f" stroke="#7dea7f" points="796.22,-72.91 806.81,-72.62 798.35,-66.25 796.22,-72.91"/>
<text text-anchor="middle" x="623.13" y="-25.5" font-family="Helvetica,Arial,sans-serif" font-size="16.00" fill="#7dea7f">3</text>
</g>
<!-- 4&#45;&gt;Absorb -->
<g id="edge16" class="edge">
<title>4&#45;&gt;Absorb</title>
<path fill="none" stroke="#5fd000" d="M450.45,-180.38C477.25,-193.21 517.04,-210.02 553.98,-217 624.15,-230.25 643.7,-225.02 714.65,-217 744.28,-213.65 776.87,-206.3 802.65,-199.6"/>
<polygon fill="#5fd000" stroke="#5fd000" points="803.39,-203.02 812.15,-197.07 801.59,-196.26 803.39,-203.02"/>
<text text-anchor="middle" x="628.47" y="-226.31" font-family="Helvetica,Arial,sans-serif" font-size="16.00" fill="#5fd000">1</text>
</g>
<!-- 6 -->
<g id="node8" class="node">
<title>6</title>
<ellipse fill="white" stroke="black" cx="634.32" cy="-164" rx="72.34" ry="18"/>
<text text-anchor="middle" x="634.32" y="-157.05" font-family="Helvetica,Arial,sans-serif" font-size="16.00">1,1,0,1,1,0,0</text>
</g>
<!-- 4&#45;&gt;6 -->
<g id="edge8" class="edge">
<title>4&#45;&gt;6</title>
<path fill="none" stroke="#0d6a78" d="M490.43,-164C509.58,-164 530.44,-164 550.15,-164"/>
<polygon fill="#0d6a78" stroke="#0d6a78" points="550.09,-167.5 560.09,-164 550.09,-160.5 550.09,-167.5"/>
<text text-anchor="middle" x="521.73" y="-148.8" font-family="Helvetica,Arial,sans-serif" font-size="16.00" fill="#0d6a78">1</text>
</g>
<!-- 4&#45;&gt;8 -->
<g id="edge9" class="edge">
<title>4&#45;&gt;8</title>
<path fill="none" stroke="#636b05" d="M468.52,-151C478.68,-147.28 488.99,-142.65 497.98,-137 528.05,-118.1 521.23,-93.74 553.98,-80 630.3,-47.99 727.68,-59.4 789.46,-72.28"/>
<polygon fill="#636b05" stroke="#636b05" points="788.58,-75.67 799.09,-74.37 790.06,-68.83 788.58,-75.67"/>
<text text-anchor="middle" x="624.49" y="-46.34" font-family="Helvetica,Arial,sans-serif" font-size="16.00" fill="#636b05">1</text>
</g>
<!-- 5&#45;&gt;Absorb -->
<g id="edge17" class="edge">
<title>5&#45;&gt;Absorb</title>
<path fill="none" stroke="#a28243" d="M678.6,-124.56C690.32,-128.55 702.98,-132.9 714.65,-137 745.19,-147.72 779.46,-160.13 805.88,-169.78"/>
<polygon fill="#a28243" stroke="#a28243" points="804.67,-173.07 815.26,-173.22 807.07,-166.5 804.67,-173.07"/>
<text text-anchor="middle" x="743.24" y="-133.54" font-family="Helvetica,Arial,sans-serif" font-size="16.00" fill="#a28243">1</text>
</g>
<!-- 5&#45;&gt;6 -->
<g id="edge10" class="edge">
<title>5&#45;&gt;6</title>
<path fill="none" stroke="#fdbe41" d="M634.32,-128.14C634.32,-130.13 634.32,-132.12 634.32,-134.11"/>
<polygon fill="#fdbe41" stroke="#fdbe41" points="630.82,-134 634.32,-144 637.82,-134 630.82,-134"/>
<text text-anchor="middle" x="638.82" y="-131.24" font-family="Helvetica,Arial,sans-serif" font-size="16.00" fill="#fdbe41">1</text>
</g>
<!-- 5&#45;&gt;8 -->
<g id="edge11" class="edge">
<title>5&#45;&gt;8</title>
<path fill="none" stroke="#9f624c" d="M701.77,-103.19C724.1,-100.9 749.2,-98.33 772.32,-95.96"/>
<polygon fill="#9f624c" stroke="#9f624c" points="772.38,-99.47 781.97,-94.97 771.67,-92.51 772.38,-99.47"/>
<text text-anchor="middle" x="738.42" y="-83.77" font-family="Helvetica,Arial,sans-serif" font-size="16.00" fill="#9f624c">1</text>
</g>
<!-- 6&#45;&gt;Absorb -->
<g id="edge18" class="edge">
<title>6&#45;&gt;Absorb</title>
<path fill="none" stroke="#107690" d="M701.77,-170.81C731.64,-173.87 766.48,-177.44 794.87,-180.35"/>
<polygon fill="#107690" stroke="#107690" points="794.4,-183.82 804.7,-181.36 795.11,-176.86 794.4,-183.82"/>
<text text-anchor="middle" x="749.61" y="-160.97" font-family="Helvetica,Arial,sans-serif" font-size="16.00" fill="#107690">1</text>
</g>
<!-- 6&#45;&gt;8 -->
<g id="edge12" class="edge">
<title>6&#45;&gt;8</title>
<path fill="none" stroke="#54bfb1" d="M678.6,-149.44C690.32,-145.45 702.98,-141.1 714.65,-137 742.38,-127.26 773.19,-116.13 798.4,-106.94"/>
<polygon fill="#54bfb1" stroke="#54bfb1" points="799.58,-110.24 807.78,-103.52 797.18,-103.66 799.58,-110.24"/>
<text text-anchor="middle" x="739.49" y="-111.4" font-family="Helvetica,Arial,sans-serif" font-size="16.00" fill="#54bfb1">2</text>
</g>
<!-- 7 -->
<g id="node9" class="node">
<title>7</title>
<ellipse fill="white" stroke="black" cx="850.99" cy="-34" rx="72.34" ry="18"/>
<text text-anchor="middle" x="850.99" y="-27.05" font-family="Helvetica,Arial,sans-serif" font-size="16.00">0,0,0,0,0,0,0</text>
</g>
<!-- 7&#45;&gt;8 -->
<g id="edge13" class="edge">
<title>7&#45;&gt;8</title>
<path fill="none" stroke="#ad0267" d="M894.1,-48.77C904.73,-54.6 907.75,-60.44 903.17,-66.28"/>
<polygon fill="#ad0267" stroke="#ad0267" points="901.26,-63.33 895.48,-72.21 905.54,-68.87 901.26,-63.33"/>
<text text-anchor="middle" x="907.77" y="-55.07" font-family="Helvetica,Arial,sans-serif" font-size="16.00" fill="#ad0267">1</text>
</g>
<!-- 8&#45;&gt;7 -->
<g id="edge14" class="edge">
<title>8&#45;&gt;7</title>
<path fill="none" stroke="#8c1216" d="M807.69,-73.13C797.15,-67.3 794.22,-61.46 798.89,-55.62"/>
<polygon fill="#8c1216" stroke="#8c1216" points="800.84,-58.53 806.67,-49.68 796.6,-52.97 800.84,-58.53"/>
<text text-anchor="middle" x="803.34" y="-52.86" font-family="Helvetica,Arial,sans-serif" font-size="16.00" fill="#8c1216">1</text>
</g>
</g>
</svg>
