<?xml version="1.0" encoding="UTF-8" standalone="no"?>
<!DOCTYPE svg PUBLIC "-//W3C//DTD SVG 1.1//EN"
 "http://www.w3.org/Graphics/SVG/1.1/DTD/svg11.dtd">
<!-- Generated by graphviz version 12.0.0 (0)
 -->
<!-- Pages: 1 -->
<svg width="576pt" height="369pt"
 viewBox="0.00 0.00 576.00 368.70" xmlns="http://www.w3.org/2000/svg" xmlns:xlink="http://www.w3.org/1999/xlink">
<g id="graph0" class="graph" transform="scale(0.30346 0.30346) rotate(0) translate(36 1179)">
<polygon fill="#1f1f1f" stroke="none" points="-36,36 -36,-1179 1862.11,-1179 1862.11,36 -36,36"/>
<g id="clust1" class="cluster">
<title>cluster_4,0,0,0</title>
<polygon fill="#3f3f3f" stroke="#3f3f3f" points="262,-944 262,-1077 413.22,-1077 413.22,-944 262,-944"/>
<text text-anchor="middle" x="337.61" y="-1059.7" font-family="Helvetica,Arial,sans-serif" font-size="14.00" fill="#e6e6e6">4,0,0,0</text>
</g>
<g id="clust2" class="cluster">
<title>cluster_2,1,0,0</title>
<polygon fill="#3f3f3f" stroke="#3f3f3f" points="613.22,-886 613.22,-1077 764.44,-1077 764.44,-886 613.22,-886"/>
<text text-anchor="middle" x="688.83" y="-1059.7" font-family="Helvetica,Arial,sans-serif" font-size="14.00" fill="#e6e6e6">2,1,0,0</text>
</g>
<g id="clust3" class="cluster">
<title>cluster_0,2,0,0</title>
<polygon fill="#3f3f3f" stroke="#3f3f3f" points="964.44,-886 964.44,-1135 1115.67,-1135 1115.67,-886 964.44,-886"/>
<text text-anchor="middle" x="1040.05" y="-1117.7" font-family="Helvetica,Arial,sans-serif" font-size="14.00" fill="#e6e6e6">0,2,0,0</text>
</g>
<g id="clust4" class="cluster">
<title>cluster_1,0,1,0</title>
<polygon fill="#3f3f3f" stroke="#3f3f3f" points="964.44,-571 964.44,-878 1115.67,-878 1115.67,-571 964.44,-571"/>
<text text-anchor="middle" x="1040.05" y="-860.7" font-family="Helvetica,Arial,sans-serif" font-size="14.00" fill="#e6e6e6">1,0,1,0</text>
</g>
<g id="clust5" class="cluster">
<title>cluster_0,0,0,1</title>
<polygon fill="#3f3f3f" stroke="#3f3f3f" points="1315.67,-8 1315.67,-721 1466.89,-721 1466.89,-8 1315.67,-8"/>
<text text-anchor="middle" x="1391.28" y="-703.7" font-family="Helvetica,Arial,sans-serif" font-size="14.00" fill="#e6e6e6">0,0,0,1</text>
</g>
<g id="clust6" class="cluster">
<title>cluster_0,0,0,0</title>
<polygon fill="#3f3f3f" stroke="#3f3f3f" points="1666.89,-738 1666.89,-871 1818.11,-871 1818.11,-738 1666.89,-738"/>
<text text-anchor="middle" x="1742.5" y="-853.7" font-family="Helvetica,Arial,sans-serif" font-size="14.00" fill="#e6e6e6">0,0,0,0</text>
</g>
<!-- 0 -->
<g id="node1" class="node">
<title>0</title>
<ellipse fill="#aaaaaa" stroke="black" cx="27" cy="-1028" rx="27" ry="18"/>
<text text-anchor="middle" x="27" y="-1022.98" font-family="Helvetica,Arial,sans-serif" font-size="12.00">S</text>
</g>
<!-- 1 -->
<g id="node2" class="node">
<title>1</title>
<ellipse fill="#dddddd" stroke="black" cx="337.61" cy="-1028" rx="67.61" ry="18"/>
<text text-anchor="middle" x="337.61" y="-1022.98" font-family="Helvetica,Arial,sans-serif" font-size="12.00">4,0,0,0,0,0,0,0,0,0</text>
</g>
<!-- 0&#45;&gt;1 -->
<g id="edge1" class="edge">
<title>0&#45;&gt;1</title>
<path fill="none" stroke="#d28ef6" d="M54.31,-1028C99.03,-1028 191.49,-1028 258.44,-1028"/>
<polygon fill="#d28ef6" stroke="#d28ef6" points="258.28,-1031.5 268.28,-1028 258.28,-1024.5 258.28,-1031.5"/>
<text text-anchor="middle" x="144.75" y="-1016.6" font-family="Helvetica,Arial,sans-serif" font-size="12.00" fill="#d28ef6">1.00</text>
</g>
<!-- 2 -->
<g id="node3" class="node">
<title>2</title>
<ellipse fill="#dddddd" stroke="black" cx="688.83" cy="-970" rx="67.61" ry="18"/>
<text text-anchor="middle" x="688.83" y="-964.98" font-family="Helvetica,Arial,sans-serif" font-size="12.00">2,1,0,0,0,0,0,0,0,0</text>
</g>
<!-- 1&#45;&gt;2 -->
<g id="edge2" class="edge">
<title>1&#45;&gt;2</title>
<path fill="none" stroke="#f780d2" d="M395.89,-1018.49C457.17,-1008.31 554.33,-992.17 619.54,-981.34"/>
<polygon fill="#f780d2" stroke="#f780d2" points="619.74,-984.86 629.03,-979.77 618.59,-977.95 619.74,-984.86"/>
<text text-anchor="middle" x="484.09" y="-988.51" font-family="Helvetica,Arial,sans-serif" font-size="12.00" fill="#f780d2">6.00e&#45;01</text>
</g>
<!-- 3 -->
<g id="node4" class="node">
<title>3</title>
<ellipse fill="#dddddd" stroke="black" cx="337.61" cy="-970" rx="67.61" ry="18"/>
<text text-anchor="middle" x="337.61" y="-964.98" font-family="Helvetica,Arial,sans-serif" font-size="12.00">4,0,0,0,0,1,0,0,0,0</text>
</g>
<!-- 1&#45;&gt;3 -->
<g id="edge3" class="edge">
<title>1&#45;&gt;3</title>
<path fill="none" stroke="#f8889a" d="M337.61,-1009.62C337.61,-1006.26 337.61,-1002.9 337.61,-999.54"/>
<polygon fill="#f8889a" stroke="#f8889a" points="341.11,-999.64 337.61,-989.64 334.11,-999.64 341.11,-999.64"/>
<text text-anchor="middle" x="313.99" y="-993.18" font-family="Helvetica,Arial,sans-serif" font-size="12.00" fill="#f8889a">4.00e&#45;01</text>
</g>
<!-- 27 -->
<g id="node5" class="node">
<title>27</title>
<ellipse fill="#dddddd" stroke="black" cx="1742.5" cy="-764" rx="67.61" ry="18"/>
<text text-anchor="middle" x="1742.5" y="-758.98" font-family="Helvetica,Arial,sans-serif" font-size="12.00">0,0,0,0,0,0,0,0,0,0</text>
</g>
<!-- 1&#45;&gt;27 -->
<g id="edge4" class="edge">
<title>1&#45;&gt;27</title>
<path fill="none" stroke="#ee9537" d="M393.55,-1017.49C615.72,-975.74 1435.32,-821.72 1675.77,-776.54"/>
<polygon fill="#ee9537" stroke="#ee9537" points="1676.11,-780.04 1685.29,-774.75 1674.82,-773.16 1676.11,-780.04"/>
<text text-anchor="middle" x="1023.04" y="-885.61" font-family="Helvetica,Arial,sans-serif" font-size="12.00" fill="#ee9537">0.00</text>
</g>
<!-- 2&#45;&gt;27 -->
<g id="edge9" class="edge">
<title>2&#45;&gt;27</title>
<path fill="none" stroke="#3db7d6" d="M744,-959.21C922.31,-924.35 1482.77,-814.78 1676.13,-776.98"/>
<polygon fill="#3db7d6" stroke="#3db7d6" points="1676.62,-780.45 1685.76,-775.09 1675.27,-773.58 1676.62,-780.45"/>
<text text-anchor="middle" x="1198.44" y="-856.69" font-family="Helvetica,Arial,sans-serif" font-size="12.00" fill="#3db7d6">0.00</text>
</g>
<!-- 4 -->
<g id="node6" class="node">
<title>4</title>
<ellipse fill="#dddddd" stroke="black" cx="1040.05" cy="-970" rx="67.61" ry="18"/>
<text text-anchor="middle" x="1040.05" y="-964.98" font-family="Helvetica,Arial,sans-serif" font-size="12.00">0,2,0,0,0,0,0,0,0,0</text>
</g>
<!-- 2&#45;&gt;4 -->
<g id="edge5" class="edge">
<title>2&#45;&gt;4</title>
<path fill="none" stroke="#bcaa36" d="M756.75,-970C815.02,-970 899.53,-970 960.89,-970"/>
<polygon fill="#bcaa36" stroke="#bcaa36" points="960.55,-973.5 970.55,-970 960.55,-966.5 960.55,-973.5"/>
<text text-anchor="middle" x="835.2" y="-958.6" font-family="Helvetica,Arial,sans-serif" font-size="12.00" fill="#bcaa36">1.67e&#45;01</text>
</g>
<!-- 5 -->
<g id="node7" class="node">
<title>5</title>
<ellipse fill="#dddddd" stroke="black" cx="1040.05" cy="-771" rx="67.61" ry="18"/>
<text text-anchor="middle" x="1040.05" y="-765.98" font-family="Helvetica,Arial,sans-serif" font-size="12.00">1,0,1,0,0,0,0,0,0,0</text>
</g>
<!-- 2&#45;&gt;5 -->
<g id="edge6" class="edge">
<title>2&#45;&gt;5</title>
<path fill="none" stroke="#82b936" d="M718.71,-953.55C781.32,-917.87 929.63,-833.36 1000.3,-793.08"/>
<polygon fill="#82b936" stroke="#82b936" points="1001.87,-796.21 1008.83,-788.22 998.41,-790.13 1001.87,-796.21"/>
<text text-anchor="middle" x="835.88" y="-861.91" font-family="Helvetica,Arial,sans-serif" font-size="12.00" fill="#82b936">3.33e&#45;01</text>
</g>
<!-- 6 -->
<g id="node8" class="node">
<title>6</title>
<ellipse fill="#dddddd" stroke="black" cx="688.83" cy="-912" rx="67.61" ry="18"/>
<text text-anchor="middle" x="688.83" y="-906.98" font-family="Helvetica,Arial,sans-serif" font-size="12.00">2,1,0,0,0,1,0,0,0,0</text>
</g>
<!-- 2&#45;&gt;6 -->
<g id="edge7" class="edge">
<title>2&#45;&gt;6</title>
<path fill="none" stroke="#38bf85" d="M688.83,-951.62C688.83,-948.26 688.83,-944.9 688.83,-941.54"/>
<polygon fill="#38bf85" stroke="#38bf85" points="692.33,-941.64 688.83,-931.64 685.33,-941.64 692.33,-941.64"/>
<text text-anchor="middle" x="665.21" y="-935.18" font-family="Helvetica,Arial,sans-serif" font-size="12.00" fill="#38bf85">3.33e&#45;01</text>
</g>
<!-- 7 -->
<g id="node9" class="node">
<title>7</title>
<ellipse fill="#dddddd" stroke="black" cx="688.83" cy="-1028" rx="67.61" ry="18"/>
<text text-anchor="middle" x="688.83" y="-1022.98" font-family="Helvetica,Arial,sans-serif" font-size="12.00">2,1,0,0,0,1,1,0,0,0</text>
</g>
<!-- 2&#45;&gt;7 -->
<g id="edge8" class="edge">
<title>2&#45;&gt;7</title>
<path fill="none" stroke="#3bbbb2" d="M688.83,-988.12C688.83,-991.48 688.83,-994.84 688.83,-998.2"/>
<polygon fill="#3bbbb2" stroke="#3bbbb2" points="685.33,-998.11 688.83,-1008.11 692.33,-998.11 685.33,-998.11"/>
<text text-anchor="middle" x="665.21" y="-994.51" font-family="Helvetica,Arial,sans-serif" font-size="12.00" fill="#3bbbb2">1.67e&#45;01</text>
</g>
<!-- 3&#45;&gt;27 -->
<g id="edge11" class="edge">
<title>3&#45;&gt;27</title>
<path fill="none" stroke="#d28ef6" d="M397.53,-961.21C623.98,-928.01 1427.17,-810.24 1671.48,-774.41"/>
<polygon fill="#d28ef6" stroke="#d28ef6" points="1671.8,-777.9 1681.19,-772.99 1670.79,-770.98 1671.8,-777.9"/>
<text text-anchor="middle" x="1010.88" y="-869.16" font-family="Helvetica,Arial,sans-serif" font-size="12.00" fill="#d28ef6">4.00e&#45;01</text>
</g>
<!-- 3&#45;&gt;6 -->
<g id="edge10" class="edge">
<title>3&#45;&gt;6</title>
<path fill="none" stroke="#86a8f6" d="M395.89,-960.49C457.17,-950.31 554.33,-934.17 619.54,-923.34"/>
<polygon fill="#86a8f6" stroke="#86a8f6" points="619.74,-926.86 629.03,-921.77 618.59,-919.95 619.74,-926.86"/>
<text text-anchor="middle" x="484.09" y="-930.51" font-family="Helvetica,Arial,sans-serif" font-size="12.00" fill="#86a8f6">6.00e&#45;01</text>
</g>
<!-- 28 -->
<g id="node30" class="node">
<title>28</title>
<ellipse fill="#dddddd" stroke="black" cx="1742.5" cy="-822" rx="67.61" ry="18"/>
<text text-anchor="middle" x="1742.5" y="-816.98" font-family="Helvetica,Arial,sans-serif" font-size="12.00">0,0,0,0,0,0,0,0,0,0</text>
</g>
<!-- 27&#45;&gt;28 -->
<g id="edge67" class="edge">
<title>27&#45;&gt;28</title>
<path fill="none" stroke="#38bf85" d="M1781.31,-778.95C1793.13,-785.93 1796.14,-792.91 1790.35,-799.89"/>
<polygon fill="#38bf85" stroke="#38bf85" points="1788.42,-796.94 1782.8,-805.92 1792.79,-802.41 1788.42,-796.94"/>
<text text-anchor="middle" x="1774.2" y="-790.77" font-family="Helvetica,Arial,sans-serif" font-size="12.00" fill="#38bf85">1.00</text>
</g>
<!-- 4&#45;&gt;27 -->
<g id="edge14" class="edge">
<title>4&#45;&gt;27</title>
<path fill="none" stroke="#ee9537" d="M1086.14,-956.48C1209.94,-920.18 1549.5,-820.6 1685.28,-780.78"/>
<polygon fill="#ee9537" stroke="#ee9537" points="1686.18,-784.16 1694.79,-777.99 1684.21,-777.45 1686.18,-784.16"/>
<text text-anchor="middle" x="1374.09" y="-857.23" font-family="Helvetica,Arial,sans-serif" font-size="12.00" fill="#ee9537">0.00</text>
</g>
<!-- 8 -->
<g id="node10" class="node">
<title>8</title>
<ellipse fill="#dddddd" stroke="black" cx="1391.28" cy="-208" rx="67.61" ry="18"/>
<text text-anchor="middle" x="1391.28" y="-202.97" font-family="Helvetica,Arial,sans-serif" font-size="12.00">0,0,0,1,0,0,0,0,0,0</text>
</g>
<!-- 4&#45;&gt;8 -->
<g id="edge12" class="edge">
<title>4&#45;&gt;8</title>
<path fill="none" stroke="#f780d2" d="M1049.34,-951.92C1095.46,-851.28 1320.45,-360.36 1377.24,-236.45"/>
<polygon fill="#f780d2" stroke="#f780d2" points="1380.3,-238.18 1381.28,-227.63 1373.93,-235.26 1380.3,-238.18"/>
<text text-anchor="middle" x="1189.67" y="-582.78" font-family="Helvetica,Arial,sans-serif" font-size="12.00" fill="#f780d2">3.33e&#45;01</text>
</g>
<!-- 9 -->
<g id="node11" class="node">
<title>9</title>
<ellipse fill="#dddddd" stroke="black" cx="1040.05" cy="-1086" rx="67.61" ry="18"/>
<text text-anchor="middle" x="1040.05" y="-1080.97" font-family="Helvetica,Arial,sans-serif" font-size="12.00">0,2,0,0,0,0,1,0,0,0</text>
</g>
<!-- 4&#45;&gt;9 -->
<g id="edge13" class="edge">
<title>4&#45;&gt;9</title>
<path fill="none" stroke="#f8889a" d="M1040.05,-988.12C1040.05,-1010.8 1040.05,-1033.48 1040.05,-1056.15"/>
<polygon fill="#f8889a" stroke="#f8889a" points="1036.55,-1056.13 1040.05,-1066.13 1043.55,-1056.13 1036.55,-1056.13"/>
<text text-anchor="middle" x="1016.43" y="-1010.74" font-family="Helvetica,Arial,sans-serif" font-size="12.00" fill="#f8889a">6.67e&#45;01</text>
</g>
<!-- 5&#45;&gt;27 -->
<g id="edge18" class="edge">
<title>5&#45;&gt;27</title>
<path fill="none" stroke="#3bbbb2" d="M1108.05,-770.32C1238.66,-769.02 1523.99,-766.18 1663.09,-764.79"/>
<polygon fill="#3bbbb2" stroke="#3bbbb2" points="1662.99,-768.29 1672.96,-764.69 1662.92,-761.29 1662.99,-768.29"/>
<text text-anchor="middle" x="1373.94" y="-756.16" font-family="Helvetica,Arial,sans-serif" font-size="12.00" fill="#3bbbb2">0.00</text>
</g>
<!-- 5&#45;&gt;8 -->
<g id="edge15" class="edge">
<title>5&#45;&gt;8</title>
<path fill="none" stroke="#bcaa36" d="M1052.28,-752.91C1103.08,-671.01 1311.63,-334.79 1373.13,-235.64"/>
<polygon fill="#bcaa36" stroke="#bcaa36" points="1376,-237.66 1378.3,-227.31 1370.05,-233.97 1376,-237.66"/>
<text text-anchor="middle" x="1189.08" y="-482.87" font-family="Helvetica,Arial,sans-serif" font-size="12.00" fill="#bcaa36">3.33e&#45;01</text>
</g>
<!-- 10 -->
<g id="node12" class="node">
<title>10</title>
<ellipse fill="#dddddd" stroke="black" cx="1040.05" cy="-713" rx="67.61" ry="18"/>
<text text-anchor="middle" x="1040.05" y="-707.98" font-family="Helvetica,Arial,sans-serif" font-size="12.00">1,0,1,0,0,1,0,0,0,0</text>
</g>
<!-- 5&#45;&gt;10 -->
<g id="edge16" class="edge">
<title>5&#45;&gt;10</title>
<path fill="none" stroke="#82b936" d="M1040.05,-752.62C1040.05,-749.26 1040.05,-745.9 1040.05,-742.54"/>
<polygon fill="#82b936" stroke="#82b936" points="1043.55,-742.64 1040.05,-732.64 1036.55,-742.64 1043.55,-742.64"/>
<text text-anchor="middle" x="1016.43" y="-736.18" font-family="Helvetica,Arial,sans-serif" font-size="12.00" fill="#82b936">3.33e&#45;01</text>
</g>
<!-- 11 -->
<g id="node13" class="node">
<title>11</title>
<ellipse fill="#dddddd" stroke="black" cx="1040.05" cy="-655" rx="67.61" ry="18"/>
<text text-anchor="middle" x="1040.05" y="-649.98" font-family="Helvetica,Arial,sans-serif" font-size="12.00">1,0,1,0,0,1,0,1,0,0</text>
</g>
<!-- 5&#45;&gt;11 -->
<g id="edge17" class="edge">
<title>5&#45;&gt;11</title>
<path fill="none" stroke="#38bf85" d="M1040.05,-752.65C1040.05,-729.97 1040.05,-707.3 1040.05,-684.62"/>
<polygon fill="#38bf85" stroke="#38bf85" points="1043.55,-684.64 1040.05,-674.64 1036.55,-684.64 1043.55,-684.64"/>
<text text-anchor="middle" x="1063.68" y="-710.42" font-family="Helvetica,Arial,sans-serif" font-size="12.00" fill="#38bf85">3.33e&#45;01</text>
</g>
<!-- 6&#45;&gt;27 -->
<g id="edge22" class="edge">
<title>6&#45;&gt;27</title>
<path fill="none" stroke="#f780d2" d="M749.27,-903.51C931.48,-877.92 1474.99,-801.57 1671.01,-774.04"/>
<polygon fill="#f780d2" stroke="#f780d2" points="1671.39,-777.52 1680.81,-772.66 1670.42,-770.59 1671.39,-777.52"/>
<text text-anchor="middle" x="1186.52" y="-827.38" font-family="Helvetica,Arial,sans-serif" font-size="12.00" fill="#f780d2">3.33e&#45;01</text>
</g>
<!-- 6&#45;&gt;7 -->
<g id="edge21" class="edge">
<title>6&#45;&gt;7</title>
<path fill="none" stroke="#d28ef6" d="M688.83,-930.12C688.83,-952.8 688.83,-975.48 688.83,-998.15"/>
<polygon fill="#d28ef6" stroke="#d28ef6" points="685.33,-998.13 688.83,-1008.13 692.33,-998.13 685.33,-998.13"/>
<text text-anchor="middle" x="665.21" y="-952.74" font-family="Helvetica,Arial,sans-serif" font-size="12.00" fill="#d28ef6">1.67e&#45;01</text>
</g>
<!-- 6&#45;&gt;10 -->
<g id="edge20" class="edge">
<title>6&#45;&gt;10</title>
<path fill="none" stroke="#86a8f6" d="M718.71,-895.55C781.32,-859.87 929.63,-775.36 1000.3,-735.08"/>
<polygon fill="#86a8f6" stroke="#86a8f6" points="1001.87,-738.21 1008.83,-730.22 998.41,-732.13 1001.87,-738.21"/>
<text text-anchor="middle" x="835.88" y="-803.91" font-family="Helvetica,Arial,sans-serif" font-size="12.00" fill="#86a8f6">3.33e&#45;01</text>
</g>
<!-- 12 -->
<g id="node14" class="node">
<title>12</title>
<ellipse fill="#dddddd" stroke="black" cx="1040.05" cy="-912" rx="67.61" ry="18"/>
<text text-anchor="middle" x="1040.05" y="-906.98" font-family="Helvetica,Arial,sans-serif" font-size="12.00">0,2,0,0,0,1,0,0,0,0</text>
</g>
<!-- 6&#45;&gt;12 -->
<g id="edge19" class="edge">
<title>6&#45;&gt;12</title>
<path fill="none" stroke="#3db7d6" d="M756.75,-912C815.02,-912 899.53,-912 960.89,-912"/>
<polygon fill="#3db7d6" stroke="#3db7d6" points="960.55,-915.5 970.55,-912 960.55,-908.5 960.55,-915.5"/>
<text text-anchor="middle" x="835.2" y="-900.6" font-family="Helvetica,Arial,sans-serif" font-size="12.00" fill="#3db7d6">1.67e&#45;01</text>
</g>
<!-- 7&#45;&gt;27 -->
<g id="edge25" class="edge">
<title>7&#45;&gt;27</title>
<path fill="none" stroke="#bcaa36" d="M738.59,-1015.53C912.29,-972.01 1491.41,-826.91 1681.49,-779.29"/>
<polygon fill="#bcaa36" stroke="#bcaa36" points="1682.32,-782.69 1691.17,-776.86 1680.62,-775.9 1682.32,-782.69"/>
<text text-anchor="middle" x="1186.41" y="-886.01" font-family="Helvetica,Arial,sans-serif" font-size="12.00" fill="#bcaa36">5.00e&#45;01</text>
</g>
<!-- 13 -->
<g id="node15" class="node">
<title>13</title>
<ellipse fill="#dddddd" stroke="black" cx="1040.05" cy="-1028" rx="67.61" ry="18"/>
<text text-anchor="middle" x="1040.05" y="-1022.98" font-family="Helvetica,Arial,sans-serif" font-size="12.00">0,2,0,0,0,1,1,0,0,0</text>
</g>
<!-- 7&#45;&gt;13 -->
<g id="edge23" class="edge">
<title>7&#45;&gt;13</title>
<path fill="none" stroke="#f8889a" d="M756.75,-1028C815.02,-1028 899.53,-1028 960.89,-1028"/>
<polygon fill="#f8889a" stroke="#f8889a" points="960.55,-1031.5 970.55,-1028 960.55,-1024.5 960.55,-1031.5"/>
<text text-anchor="middle" x="835.2" y="-1016.6" font-family="Helvetica,Arial,sans-serif" font-size="12.00" fill="#f8889a">1.67e&#45;01</text>
</g>
<!-- 14 -->
<g id="node16" class="node">
<title>14</title>
<ellipse fill="#dddddd" stroke="black" cx="1040.05" cy="-829" rx="67.61" ry="18"/>
<text text-anchor="middle" x="1040.05" y="-823.98" font-family="Helvetica,Arial,sans-serif" font-size="12.00">1,0,1,0,0,1,1,0,0,0</text>
</g>
<!-- 7&#45;&gt;14 -->
<g id="edge24" class="edge">
<title>7&#45;&gt;14</title>
<path fill="none" stroke="#ee9537" d="M718.71,-1011.55C781.32,-975.87 929.63,-891.36 1000.3,-851.08"/>
<polygon fill="#ee9537" stroke="#ee9537" points="1001.87,-854.21 1008.83,-846.22 998.41,-848.13 1001.87,-854.21"/>
<text text-anchor="middle" x="835.88" y="-919.91" font-family="Helvetica,Arial,sans-serif" font-size="12.00" fill="#ee9537">3.33e&#45;01</text>
</g>
<!-- 8&#45;&gt;27 -->
<g id="edge27" class="edge">
<title>8&#45;&gt;27</title>
<path fill="none" stroke="#38bf85" d="M1403.7,-226.18C1454.79,-307.52 1662.55,-638.31 1724.18,-736.43"/>
<polygon fill="#38bf85" stroke="#38bf85" points="1721.08,-738.07 1729.36,-744.67 1727,-734.34 1721.08,-738.07"/>
<text text-anchor="middle" x="1552.32" y="-469.91" font-family="Helvetica,Arial,sans-serif" font-size="12.00" fill="#38bf85">0.00</text>
</g>
<!-- 15 -->
<g id="node17" class="node">
<title>15</title>
<ellipse fill="#dddddd" stroke="black" cx="1391.28" cy="-382" rx="67.61" ry="18"/>
<text text-anchor="middle" x="1391.28" y="-376.98" font-family="Helvetica,Arial,sans-serif" font-size="12.00">0,0,0,1,0,0,0,0,1,0</text>
</g>
<!-- 8&#45;&gt;15 -->
<g id="edge26" class="edge">
<title>8&#45;&gt;15</title>
<path fill="none" stroke="#82b936" d="M1391.28,-226.35C1391.28,-268.4 1391.28,-310.44 1391.28,-352.49"/>
<polygon fill="#82b936" stroke="#82b936" points="1387.78,-352.25 1391.28,-362.25 1394.78,-352.25 1387.78,-352.25"/>
<text text-anchor="middle" x="1367.65" y="-290.77" font-family="Helvetica,Arial,sans-serif" font-size="12.00" fill="#82b936">5.00e&#45;01</text>
</g>
<!-- 29 -->
<g id="node18" class="node">
<title>29</title>
<ellipse fill="#9f9f9f" stroke="black" cx="1742.5" cy="-179" rx="67.61" ry="18"/>
<text text-anchor="middle" x="1742.5" y="-173.97" font-family="Helvetica,Arial,sans-serif" font-size="12.00">0,0,0,0,0,0,0,0,0,0</text>
</g>
<!-- 8&#45;&gt;29 -->
<g id="edge28" class="edge">
<title>8&#45;&gt;29</title>
<path fill="none" stroke="#3bbbb2" d="M1456.33,-202.68C1515.56,-197.76 1603.61,-190.45 1666.18,-185.25"/>
<polygon fill="#3bbbb2" stroke="#3bbbb2" points="1666.37,-188.75 1676.05,-184.44 1665.79,-181.77 1666.37,-188.75"/>
<text text-anchor="middle" x="1537.63" y="-182.57" font-family="Helvetica,Arial,sans-serif" font-size="12.00" fill="#3bbbb2">5.00e&#45;01</text>
</g>
<!-- 9&#45;&gt;27 -->
<g id="edge30" class="edge">
<title>9&#45;&gt;27</title>
<path fill="none" stroke="#86a8f6" d="M1074.41,-1070.25C1190.28,-1017.13 1566.76,-844.56 1697.37,-784.69"/>
<polygon fill="#86a8f6" stroke="#86a8f6" points="1698.79,-787.89 1706.42,-780.54 1695.87,-781.52 1698.79,-787.89"/>
<text text-anchor="middle" x="1362.27" y="-916.07" font-family="Helvetica,Arial,sans-serif" font-size="12.00" fill="#86a8f6">6.67e&#45;01</text>
</g>
<!-- 16 -->
<g id="node19" class="node">
<title>16</title>
<ellipse fill="#dddddd" stroke="black" cx="1391.28" cy="-324" rx="67.61" ry="18"/>
<text text-anchor="middle" x="1391.28" y="-318.98" font-family="Helvetica,Arial,sans-serif" font-size="12.00">0,0,0,1,0,0,1,0,0,0</text>
</g>
<!-- 9&#45;&gt;16 -->
<g id="edge29" class="edge">
<title>9&#45;&gt;16</title>
<path fill="none" stroke="#3db7d6" d="M1049.34,-1067.92C1095.46,-967.28 1320.45,-476.36 1377.24,-352.45"/>
<polygon fill="#3db7d6" stroke="#3db7d6" points="1380.3,-354.18 1381.28,-343.63 1373.93,-351.26 1380.3,-354.18"/>
<text text-anchor="middle" x="1189.67" y="-698.78" font-family="Helvetica,Arial,sans-serif" font-size="12.00" fill="#3db7d6">3.33e&#45;01</text>
</g>
<!-- 10&#45;&gt;27 -->
<g id="edge33" class="edge">
<title>10&#45;&gt;27</title>
<path fill="none" stroke="#f8889a" d="M1105.82,-717.78C1236.11,-727.23 1526.41,-748.31 1665.42,-758.4"/>
<polygon fill="#f8889a" stroke="#f8889a" points="1665.04,-761.89 1675.26,-759.12 1665.54,-754.9 1665.04,-761.89"/>
<text text-anchor="middle" x="1361.99" y="-726.69" font-family="Helvetica,Arial,sans-serif" font-size="12.00" fill="#f8889a">3.33e&#45;01</text>
</g>
<!-- 10&#45;&gt;11 -->
<g id="edge32" class="edge">
<title>10&#45;&gt;11</title>
<path fill="none" stroke="#f780d2" d="M1040.05,-694.62C1040.05,-691.26 1040.05,-687.9 1040.05,-684.54"/>
<polygon fill="#f780d2" stroke="#f780d2" points="1043.55,-684.64 1040.05,-674.64 1036.55,-684.64 1043.55,-684.64"/>
<text text-anchor="middle" x="1016.43" y="-678.18" font-family="Helvetica,Arial,sans-serif" font-size="12.00" fill="#f780d2">3.33e&#45;01</text>
</g>
<!-- 17 -->
<g id="node20" class="node">
<title>17</title>
<ellipse fill="#dddddd" stroke="black" cx="1391.28" cy="-150" rx="67.61" ry="18"/>
<text text-anchor="middle" x="1391.28" y="-144.97" font-family="Helvetica,Arial,sans-serif" font-size="12.00">0,0,0,1,0,1,0,0,0,0</text>
</g>
<!-- 10&#45;&gt;17 -->
<g id="edge31" class="edge">
<title>10&#45;&gt;17</title>
<path fill="none" stroke="#d28ef6" d="M1052.28,-694.91C1103.08,-613.01 1311.63,-276.79 1373.13,-177.64"/>
<polygon fill="#d28ef6" stroke="#d28ef6" points="1376,-179.66 1378.3,-169.31 1370.05,-175.97 1376,-179.66"/>
<text text-anchor="middle" x="1189.08" y="-424.87" font-family="Helvetica,Arial,sans-serif" font-size="12.00" fill="#d28ef6">3.33e&#45;01</text>
</g>
<!-- 11&#45;&gt;27 -->
<g id="edge35" class="edge">
<title>11&#45;&gt;27</title>
<path fill="none" stroke="#bcaa36" d="M1099.04,-664.15C1227.85,-684.14 1533.82,-731.62 1672.28,-753.1"/>
<polygon fill="#bcaa36" stroke="#bcaa36" points="1671.64,-756.55 1682.06,-754.62 1672.71,-749.63 1671.64,-756.55"/>
<text text-anchor="middle" x="1362.03" y="-697.23" font-family="Helvetica,Arial,sans-serif" font-size="12.00" fill="#bcaa36">6.67e&#45;01</text>
</g>
<!-- 18 -->
<g id="node21" class="node">
<title>18</title>
<ellipse fill="#dddddd" stroke="black" cx="1391.28" cy="-92" rx="67.61" ry="18"/>
<text text-anchor="middle" x="1391.28" y="-86.97" font-family="Helvetica,Arial,sans-serif" font-size="12.00">0,0,0,1,0,1,0,1,0,0</text>
</g>
<!-- 11&#45;&gt;18 -->
<g id="edge34" class="edge">
<title>11&#45;&gt;18</title>
<path fill="none" stroke="#ee9537" d="M1052.28,-636.91C1103.08,-555.01 1311.63,-218.79 1373.13,-119.64"/>
<polygon fill="#ee9537" stroke="#ee9537" points="1376,-121.66 1378.3,-111.31 1370.05,-117.97 1376,-121.66"/>
<text text-anchor="middle" x="1189.08" y="-366.87" font-family="Helvetica,Arial,sans-serif" font-size="12.00" fill="#ee9537">3.33e&#45;01</text>
</g>
<!-- 12&#45;&gt;27 -->
<g id="edge38" class="edge">
<title>12&#45;&gt;27</title>
<path fill="none" stroke="#3bbbb2" d="M1093.72,-900.69C1220.84,-873.91 1539.95,-806.68 1677.61,-777.67"/>
<polygon fill="#3bbbb2" stroke="#3bbbb2" points="1678.24,-781.12 1687.3,-775.63 1676.8,-774.27 1678.24,-781.12"/>
<text text-anchor="middle" x="1374.04" y="-827.78" font-family="Helvetica,Arial,sans-serif" font-size="12.00" fill="#3bbbb2">0.00</text>
</g>
<!-- 12&#45;&gt;13 -->
<g id="edge37" class="edge">
<title>12&#45;&gt;13</title>
<path fill="none" stroke="#38bf85" d="M1040.05,-930.12C1040.05,-952.8 1040.05,-975.48 1040.05,-998.15"/>
<polygon fill="#38bf85" stroke="#38bf85" points="1036.55,-998.13 1040.05,-1008.13 1043.55,-998.13 1036.55,-998.13"/>
<text text-anchor="middle" x="1016.43" y="-952.74" font-family="Helvetica,Arial,sans-serif" font-size="12.00" fill="#38bf85">6.67e&#45;01</text>
</g>
<!-- 12&#45;&gt;17 -->
<g id="edge36" class="edge">
<title>12&#45;&gt;17</title>
<path fill="none" stroke="#82b936" d="M1049.34,-893.92C1095.46,-793.28 1320.45,-302.36 1377.24,-178.45"/>
<polygon fill="#82b936" stroke="#82b936" points="1380.3,-180.18 1381.28,-169.63 1373.93,-177.26 1380.3,-180.18"/>
<text text-anchor="middle" x="1189.67" y="-524.78" font-family="Helvetica,Arial,sans-serif" font-size="12.00" fill="#82b936">3.33e&#45;01</text>
</g>
<!-- 13&#45;&gt;27 -->
<g id="edge40" class="edge">
<title>13&#45;&gt;27</title>
<path fill="none" stroke="#86a8f6" d="M1079.83,-1013.05C1199.95,-967.91 1558.86,-833.02 1692.04,-782.97"/>
<polygon fill="#86a8f6" stroke="#86a8f6" points="1693.18,-786.28 1701.3,-779.48 1690.71,-779.72 1693.18,-786.28"/>
<text text-anchor="middle" x="1362.31" y="-886.61" font-family="Helvetica,Arial,sans-serif" font-size="12.00" fill="#86a8f6">6.67e&#45;01</text>
</g>
<!-- 19 -->
<g id="node22" class="node">
<title>19</title>
<ellipse fill="#dddddd" stroke="black" cx="1391.28" cy="-266" rx="67.61" ry="18"/>
<text text-anchor="middle" x="1391.28" y="-260.98" font-family="Helvetica,Arial,sans-serif" font-size="12.00">0,0,0,1,0,1,1,0,0,0</text>
</g>
<!-- 13&#45;&gt;19 -->
<g id="edge39" class="edge">
<title>13&#45;&gt;19</title>
<path fill="none" stroke="#3db7d6" d="M1049.34,-1009.92C1095.46,-909.28 1320.45,-418.36 1377.24,-294.45"/>
<polygon fill="#3db7d6" stroke="#3db7d6" points="1380.3,-296.18 1381.28,-285.63 1373.93,-293.26 1380.3,-296.18"/>
<text text-anchor="middle" x="1189.67" y="-640.78" font-family="Helvetica,Arial,sans-serif" font-size="12.00" fill="#3db7d6">3.33e&#45;01</text>
</g>
<!-- 14&#45;&gt;27 -->
<g id="edge43" class="edge">
<title>14&#45;&gt;27</title>
<path fill="none" stroke="#f8889a" d="M1104.25,-823.06C1234.21,-811.03 1527.85,-783.86 1666.85,-771"/>
<polygon fill="#f8889a" stroke="#f8889a" points="1667.05,-774.5 1676.69,-770.09 1666.41,-767.53 1667.05,-774.5"/>
<text text-anchor="middle" x="1361.93" y="-785.63" font-family="Helvetica,Arial,sans-serif" font-size="12.00" fill="#f8889a">3.33e&#45;01</text>
</g>
<!-- 14&#45;&gt;19 -->
<g id="edge41" class="edge">
<title>14&#45;&gt;19</title>
<path fill="none" stroke="#d28ef6" d="M1052.28,-810.91C1103.08,-729.01 1311.63,-392.79 1373.13,-293.64"/>
<polygon fill="#d28ef6" stroke="#d28ef6" points="1376,-295.66 1378.3,-285.31 1370.05,-291.97 1376,-295.66"/>
<text text-anchor="middle" x="1189.08" y="-540.87" font-family="Helvetica,Arial,sans-serif" font-size="12.00" fill="#d28ef6">3.33e&#45;01</text>
</g>
<!-- 20 -->
<g id="node23" class="node">
<title>20</title>
<ellipse fill="#dddddd" stroke="black" cx="1040.05" cy="-597" rx="67.61" ry="18"/>
<text text-anchor="middle" x="1040.05" y="-591.98" font-family="Helvetica,Arial,sans-serif" font-size="12.00">1,0,1,0,0,1,1,1,0,0</text>
</g>
<!-- 14&#45;&gt;20 -->
<g id="edge42" class="edge">
<title>14&#45;&gt;20</title>
<path fill="none" stroke="#f780d2" d="M1040.05,-810.62C1040.05,-749.27 1040.05,-687.93 1040.05,-626.58"/>
<polygon fill="#f780d2" stroke="#f780d2" points="1043.55,-626.64 1040.05,-616.64 1036.55,-626.64 1043.55,-626.64"/>
<text text-anchor="middle" x="1016.43" y="-707.2" font-family="Helvetica,Arial,sans-serif" font-size="12.00" fill="#f780d2">3.33e&#45;01</text>
</g>
<!-- 15&#45;&gt;27 -->
<g id="edge44" class="edge">
<title>15&#45;&gt;27</title>
<path fill="none" stroke="#ee9537" d="M1408.42,-399.66C1464.62,-461.14 1651.88,-665.97 1718.07,-738.37"/>
<polygon fill="#ee9537" stroke="#ee9537" points="1715.17,-740.39 1724.51,-745.41 1720.34,-735.67 1715.17,-740.39"/>
<text text-anchor="middle" x="1551.62" y="-557.62" font-family="Helvetica,Arial,sans-serif" font-size="12.00" fill="#ee9537">1.00</text>
</g>
<!-- 16&#45;&gt;27 -->
<g id="edge46" class="edge">
<title>16&#45;&gt;27</title>
<path fill="none" stroke="#82b936" d="M1406.4,-341.79C1460.58,-410.06 1655.39,-655.51 1720.29,-737.28"/>
<polygon fill="#82b936" stroke="#82b936" points="1717.3,-739.14 1726.26,-744.8 1722.78,-734.79 1717.3,-739.14"/>
<text text-anchor="middle" x="1551.72" y="-528.14" font-family="Helvetica,Arial,sans-serif" font-size="12.00" fill="#82b936">0.00</text>
</g>
<!-- 16&#45;&gt;29 -->
<g id="edge47" class="edge">
<title>16&#45;&gt;29</title>
<path fill="none" stroke="#38bf85" d="M1428.99,-308.76C1492.79,-282.27 1624.01,-227.78 1694.41,-198.55"/>
<polygon fill="#38bf85" stroke="#38bf85" points="1695.46,-201.9 1703.36,-194.84 1692.78,-195.44 1695.46,-201.9"/>
<text text-anchor="middle" x="1538.07" y="-242.25" font-family="Helvetica,Arial,sans-serif" font-size="12.00" fill="#38bf85">5.00e&#45;01</text>
</g>
<!-- 21 -->
<g id="node24" class="node">
<title>21</title>
<ellipse fill="#dddddd" stroke="black" cx="1391.28" cy="-440" rx="67.61" ry="18"/>
<text text-anchor="middle" x="1391.28" y="-434.98" font-family="Helvetica,Arial,sans-serif" font-size="12.00">0,0,0,1,0,0,1,0,1,0</text>
</g>
<!-- 16&#45;&gt;21 -->
<g id="edge45" class="edge">
<title>16&#45;&gt;21</title>
<path fill="none" stroke="#bcaa36" d="M1391.28,-342.12C1391.28,-364.8 1391.28,-387.48 1391.28,-410.15"/>
<polygon fill="#bcaa36" stroke="#bcaa36" points="1387.78,-410.13 1391.28,-420.13 1394.78,-410.13 1387.78,-410.13"/>
<text text-anchor="middle" x="1414.9" y="-377.49" font-family="Helvetica,Arial,sans-serif" font-size="12.00" fill="#bcaa36">5.00e&#45;01</text>
</g>
<!-- 17&#45;&gt;27 -->
<g id="edge49" class="edge">
<title>17&#45;&gt;27</title>
<path fill="none" stroke="#3db7d6" d="M1402.54,-168.04C1451.94,-254.89 1665.29,-630.02 1725.58,-736.01"/>
<polygon fill="#3db7d6" stroke="#3db7d6" points="1722.5,-737.68 1730.49,-744.64 1728.59,-734.22 1722.5,-737.68"/>
<text text-anchor="middle" x="1552.43" y="-440.63" font-family="Helvetica,Arial,sans-serif" font-size="12.00" fill="#3db7d6">0.00</text>
</g>
<!-- 17&#45;&gt;29 -->
<g id="edge50" class="edge">
<title>17&#45;&gt;29</title>
<path fill="none" stroke="#86a8f6" d="M1456.33,-155.32C1515.56,-160.24 1603.61,-167.55 1666.18,-172.75"/>
<polygon fill="#86a8f6" stroke="#86a8f6" points="1665.79,-176.23 1676.05,-173.56 1666.37,-169.25 1665.79,-176.23"/>
<text text-anchor="middle" x="1537.63" y="-152.63" font-family="Helvetica,Arial,sans-serif" font-size="12.00" fill="#86a8f6">5.00e&#45;01</text>
</g>
<!-- 22 -->
<g id="node25" class="node">
<title>22</title>
<ellipse fill="#dddddd" stroke="black" cx="1391.28" cy="-498" rx="67.61" ry="18"/>
<text text-anchor="middle" x="1391.28" y="-492.98" font-family="Helvetica,Arial,sans-serif" font-size="12.00">0,0,0,1,0,1,0,0,1,0</text>
</g>
<!-- 17&#45;&gt;22 -->
<g id="edge48" class="edge">
<title>17&#45;&gt;22</title>
<path fill="none" stroke="#3bbbb2" d="M1391.28,-168.35C1391.28,-268.37 1391.28,-368.39 1391.28,-468.4"/>
<polygon fill="#3bbbb2" stroke="#3bbbb2" points="1387.78,-468.14 1391.28,-478.14 1394.78,-468.14 1387.78,-468.14"/>
<text text-anchor="middle" x="1414.9" y="-316.54" font-family="Helvetica,Arial,sans-serif" font-size="12.00" fill="#3bbbb2">5.00e&#45;01</text>
</g>
<!-- 18&#45;&gt;27 -->
<g id="edge52" class="edge">
<title>18&#45;&gt;27</title>
<path fill="none" stroke="#f780d2" d="M1401.62,-109.97C1449.59,-202.28 1668.26,-623.06 1726.96,-736.02"/>
<polygon fill="#f780d2" stroke="#f780d2" points="1723.71,-737.37 1731.43,-744.63 1729.93,-734.14 1723.71,-737.37"/>
<text text-anchor="middle" x="1552.66" y="-411.6" font-family="Helvetica,Arial,sans-serif" font-size="12.00" fill="#f780d2">0.00</text>
</g>
<!-- 18&#45;&gt;29 -->
<g id="edge53" class="edge">
<title>18&#45;&gt;29</title>
<path fill="none" stroke="#f8889a" d="M1441.57,-104.28C1504.44,-119.94 1613.12,-147.02 1680.96,-163.92"/>
<polygon fill="#f8889a" stroke="#f8889a" points="1679.87,-167.25 1690.42,-166.28 1681.56,-160.46 1679.87,-167.25"/>
<text text-anchor="middle" x="1537.64" y="-122.7" font-family="Helvetica,Arial,sans-serif" font-size="12.00" fill="#f8889a">5.00e&#45;01</text>
</g>
<!-- 23 -->
<g id="node26" class="node">
<title>23</title>
<ellipse fill="#dddddd" stroke="black" cx="1391.28" cy="-556" rx="67.61" ry="18"/>
<text text-anchor="middle" x="1391.28" y="-550.98" font-family="Helvetica,Arial,sans-serif" font-size="12.00">0,0,0,1,0,1,0,1,1,0</text>
</g>
<!-- 18&#45;&gt;23 -->
<g id="edge51" class="edge">
<title>18&#45;&gt;23</title>
<path fill="none" stroke="#d28ef6" d="M1391.28,-110.12C1391.28,-248.9 1391.28,-387.67 1391.28,-526.44"/>
<polygon fill="#d28ef6" stroke="#d28ef6" points="1387.78,-526.2 1391.28,-536.2 1394.78,-526.2 1387.78,-526.2"/>
<text text-anchor="middle" x="1367.65" y="-306.88" font-family="Helvetica,Arial,sans-serif" font-size="12.00" fill="#d28ef6">5.00e&#45;01</text>
</g>
<!-- 19&#45;&gt;27 -->
<g id="edge55" class="edge">
<title>19&#45;&gt;27</title>
<path fill="none" stroke="#bcaa36" d="M1404.91,-284.02C1457.48,-358.98 1659.05,-646.43 1722.36,-736.71"/>
<polygon fill="#bcaa36" stroke="#bcaa36" points="1719.4,-738.59 1728.01,-744.77 1725.14,-734.57 1719.4,-738.59"/>
<text text-anchor="middle" x="1552.01" y="-498.96" font-family="Helvetica,Arial,sans-serif" font-size="12.00" fill="#bcaa36">0.00</text>
</g>
<!-- 19&#45;&gt;29 -->
<g id="edge56" class="edge">
<title>19&#45;&gt;29</title>
<path fill="none" stroke="#82b936" d="M1441.57,-253.72C1504.44,-238.06 1613.12,-210.98 1680.96,-194.08"/>
<polygon fill="#82b936" stroke="#82b936" points="1681.56,-197.54 1690.42,-191.72 1679.87,-190.75 1681.56,-197.54"/>
<text text-anchor="middle" x="1537.64" y="-212.5" font-family="Helvetica,Arial,sans-serif" font-size="12.00" fill="#82b936">5.00e&#45;01</text>
</g>
<!-- 24 -->
<g id="node27" class="node">
<title>24</title>
<ellipse fill="#dddddd" stroke="black" cx="1391.28" cy="-614" rx="67.61" ry="18"/>
<text text-anchor="middle" x="1391.28" y="-608.98" font-family="Helvetica,Arial,sans-serif" font-size="12.00">0,0,0,1,0,1,1,0,1,0</text>
</g>
<!-- 19&#45;&gt;24 -->
<g id="edge54" class="edge">
<title>19&#45;&gt;24</title>
<path fill="none" stroke="#ee9537" d="M1391.28,-284.35C1391.28,-384.37 1391.28,-484.39 1391.28,-584.4"/>
<polygon fill="#ee9537" stroke="#ee9537" points="1387.78,-584.14 1391.28,-594.14 1394.78,-584.14 1387.78,-584.14"/>
<text text-anchor="middle" x="1414.9" y="-422.98" font-family="Helvetica,Arial,sans-serif" font-size="12.00" fill="#ee9537">5.00e&#45;01</text>
</g>
<!-- 20&#45;&gt;27 -->
<g id="edge58" class="edge">
<title>20&#45;&gt;27</title>
<path fill="none" stroke="#3bbbb2" d="M1091.14,-609.14C1217.35,-639.15 1543.56,-716.7 1680.51,-749.26"/>
<polygon fill="#3bbbb2" stroke="#3bbbb2" points="1679.6,-752.64 1690.13,-751.55 1681.21,-745.83 1679.6,-752.64"/>
<text text-anchor="middle" x="1362.2" y="-680.55" font-family="Helvetica,Arial,sans-serif" font-size="12.00" fill="#3bbbb2">6.67e&#45;01</text>
</g>
<!-- 25 -->
<g id="node28" class="node">
<title>25</title>
<ellipse fill="#dddddd" stroke="black" cx="1391.28" cy="-34" rx="67.61" ry="18"/>
<text text-anchor="middle" x="1391.28" y="-28.98" font-family="Helvetica,Arial,sans-serif" font-size="12.00">0,0,0,1,0,1,1,1,0,0</text>
</g>
<!-- 20&#45;&gt;25 -->
<g id="edge57" class="edge">
<title>20&#45;&gt;25</title>
<path fill="none" stroke="#38bf85" d="M1052.28,-578.91C1103.08,-497.01 1311.63,-160.79 1373.13,-61.64"/>
<polygon fill="#38bf85" stroke="#38bf85" points="1376,-63.66 1378.3,-53.31 1370.05,-59.97 1376,-63.66"/>
<text text-anchor="middle" x="1189.08" y="-308.87" font-family="Helvetica,Arial,sans-serif" font-size="12.00" fill="#38bf85">3.33e&#45;01</text>
</g>
<!-- 21&#45;&gt;27 -->
<g id="edge59" class="edge">
<title>21&#45;&gt;27</title>
<path fill="none" stroke="#3db7d6" d="M1411.3,-457.65C1469.72,-511.85 1646.68,-676.03 1714.57,-739.02"/>
<polygon fill="#3db7d6" stroke="#3db7d6" points="1711.85,-741.27 1721.56,-745.5 1716.61,-736.14 1711.85,-741.27"/>
<text text-anchor="middle" x="1551.31" y="-586.94" font-family="Helvetica,Arial,sans-serif" font-size="12.00" fill="#3db7d6">1.00</text>
</g>
<!-- 22&#45;&gt;27 -->
<g id="edge60" class="edge">
<title>22&#45;&gt;27</title>
<path fill="none" stroke="#86a8f6" d="M1414.92,-515.25C1475.38,-561.3 1640.73,-687.25 1710.15,-740.12"/>
<polygon fill="#86a8f6" stroke="#86a8f6" points="1707.63,-742.6 1717.7,-745.87 1711.87,-737.03 1707.63,-742.6"/>
<text text-anchor="middle" x="1550.91" y="-616.29" font-family="Helvetica,Arial,sans-serif" font-size="12.00" fill="#86a8f6">1.00</text>
</g>
<!-- 23&#45;&gt;27 -->
<g id="edge61" class="edge">
<title>23&#45;&gt;27</title>
<path fill="none" stroke="#d28ef6" d="M1420.26,-572.67C1482.74,-609.88 1633.61,-699.74 1704.07,-741.71"/>
<polygon fill="#d28ef6" stroke="#d28ef6" points="1702.18,-744.65 1712.56,-746.76 1705.76,-738.64 1702.18,-744.65"/>
<text text-anchor="middle" x="1550.54" y="-645.79" font-family="Helvetica,Arial,sans-serif" font-size="12.00" fill="#d28ef6">1.00</text>
</g>
<!-- 24&#45;&gt;27 -->
<g id="edge62" class="edge">
<title>24&#45;&gt;27</title>
<path fill="none" stroke="#f780d2" d="M1428.33,-629.49C1492.15,-656.9 1624.88,-713.91 1695.3,-744.16"/>
<polygon fill="#f780d2" stroke="#f780d2" points="1693.68,-747.27 1704.25,-748 1696.44,-740.84 1693.68,-747.27"/>
<text text-anchor="middle" x="1550.19" y="-675.42" font-family="Helvetica,Arial,sans-serif" font-size="12.00" fill="#f780d2">1.00</text>
</g>
<!-- 25&#45;&gt;27 -->
<g id="edge64" class="edge">
<title>25&#45;&gt;27</title>
<path fill="none" stroke="#ee9537" d="M1400.91,-52.05C1447.66,-149.77 1670.53,-615.65 1727.97,-735.72"/>
<polygon fill="#ee9537" stroke="#ee9537" points="1724.73,-737.06 1732.2,-744.57 1731.04,-734.04 1724.73,-737.06"/>
<text text-anchor="middle" x="1552.81" y="-382.48" font-family="Helvetica,Arial,sans-serif" font-size="12.00" fill="#ee9537">0.00</text>
</g>
<!-- 25&#45;&gt;29 -->
<g id="edge65" class="edge">
<title>25&#45;&gt;29</title>
<path fill="none" stroke="#bcaa36" d="M1428.99,-49.24C1492.79,-75.73 1624.01,-130.22 1694.41,-159.45"/>
<polygon fill="#bcaa36" stroke="#bcaa36" points="1692.78,-162.56 1703.36,-163.16 1695.46,-156.1 1692.78,-162.56"/>
<text text-anchor="middle" x="1538.07" y="-92.95" font-family="Helvetica,Arial,sans-serif" font-size="12.00" fill="#bcaa36">5.00e&#45;01</text>
</g>
<!-- 26 -->
<g id="node29" class="node">
<title>26</title>
<ellipse fill="#dddddd" stroke="black" cx="1391.28" cy="-672" rx="67.61" ry="18"/>
<text text-anchor="middle" x="1391.28" y="-666.98" font-family="Helvetica,Arial,sans-serif" font-size="12.00">0,0,0,1,0,1,1,1,1,0</text>
</g>
<!-- 25&#45;&gt;26 -->
<g id="edge63" class="edge">
<title>25&#45;&gt;26</title>
<path fill="none" stroke="#f8889a" d="M1391.28,-52.38C1391.28,-248.95 1391.28,-445.52 1391.28,-642.1"/>
<polygon fill="#f8889a" stroke="#f8889a" points="1387.78,-642.03 1391.28,-652.03 1394.78,-642.03 1387.78,-642.03"/>
<text text-anchor="middle" x="1367.65" y="-348.59" font-family="Helvetica,Arial,sans-serif" font-size="12.00" fill="#f8889a">5.00e&#45;01</text>
</g>
<!-- 26&#45;&gt;27 -->
<g id="edge66" class="edge">
<title>26&#45;&gt;27</title>
<path fill="none" stroke="#82b936" d="M1440.47,-684.7C1503.57,-701.32 1614.14,-730.45 1682.27,-748.4"/>
<polygon fill="#82b936" stroke="#82b936" points="1681.22,-751.74 1691.78,-750.9 1683,-744.97 1681.22,-751.74"/>
<text text-anchor="middle" x="1549.74" y="-705.15" font-family="Helvetica,Arial,sans-serif" font-size="12.00" fill="#82b936">1.00</text>
</g>
<!-- 28&#45;&gt;27 -->
<g id="edge68" class="edge">
<title>28&#45;&gt;27</title>
<path fill="none" stroke="#3bbbb2" d="M1703.38,-806.87C1691.71,-799.89 1688.85,-792.91 1694.8,-785.93"/>
<polygon fill="#3bbbb2" stroke="#3bbbb2" points="1696.79,-788.82 1702.5,-779.89 1692.47,-783.31 1696.79,-788.82"/>
<text text-anchor="middle" x="1687.47" y="-785" font-family="Helvetica,Arial,sans-serif" font-size="12.00" fill="#3bbbb2">1.00</text>
</g>
</g>
</svg>
