<?xml version="1.0" encoding="UTF-8" standalone="no"?>
<!DOCTYPE svg PUBLIC "-//W3C//DTD SVG 1.1//EN"
 "http://www.w3.org/Graphics/SVG/1.1/DTD/svg11.dtd">
<!-- Generated by graphviz version 12.0.0 (0)
 -->
<!-- Pages: 1 -->
<svg width="576pt" height="412pt"
 viewBox="0.00 0.00 576.00 411.92" xmlns="http://www.w3.org/2000/svg" xmlns:xlink="http://www.w3.org/1999/xlink">
<g id="graph0" class="graph" transform="scale(0.301852 0.301852) rotate(0) translate(36 1328.63)">
<polygon fill="#1f1f1f" stroke="none" points="-36,36 -36,-1328.63 1872.22,-1328.63 1872.22,36 -36,36"/>
<!-- 0 -->
<g id="node1" class="node">
<title>0</title>
<ellipse fill="#aaaaaa" stroke="black" cx="27" cy="-1156.43" rx="27" ry="18"/>
<text text-anchor="middle" x="27" y="-1151.41" font-family="Helvetica,Arial,sans-serif" font-size="12.00">S</text>
</g>
<!-- 1 -->
<g id="node2" class="node">
<title>1</title>
<ellipse fill="#dddddd" stroke="black" cx="164.61" cy="-1156.43" rx="67.61" ry="18"/>
<text text-anchor="middle" x="164.61" y="-1151.41" font-family="Helvetica,Arial,sans-serif" font-size="12.00">4,0,0,0,0,0,0,0,0,0</text>
</g>
<!-- 0&#45;&gt;1 -->
<g id="edge1" class="edge">
<title>0&#45;&gt;1</title>
<path fill="none" stroke="#f8889a" d="M54.47,-1156.43C63.6,-1156.43 74.36,-1156.43 85.49,-1156.43"/>
<polygon fill="#f8889a" stroke="#f8889a" points="85.19,-1159.93 95.19,-1156.43 85.19,-1152.93 85.19,-1159.93"/>
<text text-anchor="middle" x="64.08" y="-1157.78" font-family="Helvetica,Arial,sans-serif" font-size="12.00" fill="#f8889a">1.00</text>
</g>
<!-- 2 -->
<g id="node3" class="node">
<title>2</title>
<ellipse fill="#dddddd" stroke="black" cx="342.83" cy="-714.43" rx="67.61" ry="18"/>
<text text-anchor="middle" x="342.83" y="-709.41" font-family="Helvetica,Arial,sans-serif" font-size="12.00">2,1,0,0,0,0,0,0,0,0</text>
</g>
<!-- 1&#45;&gt;2 -->
<g id="edge2" class="edge">
<title>1&#45;&gt;2</title>
<path fill="none" stroke="#ee9537" d="M172.85,-1138.28C200.15,-1069.79 297.08,-826.68 330.45,-742.99"/>
<polygon fill="#ee9537" stroke="#ee9537" points="333.62,-744.48 334.07,-733.9 327.12,-741.89 333.62,-744.48"/>
<text text-anchor="middle" x="230.04" y="-924.17" font-family="Helvetica,Arial,sans-serif" font-size="12.00" fill="#ee9537">6.00e&#45;01</text>
</g>
<!-- 3 -->
<g id="node4" class="node">
<title>3</title>
<ellipse fill="#dddddd" stroke="black" cx="342.83" cy="-1156.43" rx="67.61" ry="18"/>
<text text-anchor="middle" x="342.83" y="-1151.41" font-family="Helvetica,Arial,sans-serif" font-size="12.00">4,0,0,0,0,1,0,0,0,0</text>
</g>
<!-- 1&#45;&gt;3 -->
<g id="edge3" class="edge">
<title>1&#45;&gt;3</title>
<path fill="none" stroke="#bcaa36" d="M232.48,-1156.43C242.71,-1156.43 253.34,-1156.43 263.78,-1156.43"/>
<polygon fill="#bcaa36" stroke="#bcaa36" points="263.49,-1159.93 273.49,-1156.43 263.49,-1152.93 263.49,-1159.93"/>
<text text-anchor="middle" x="277.09" y="-1157.78" font-family="Helvetica,Arial,sans-serif" font-size="12.00" fill="#bcaa36">4.00e&#45;01</text>
</g>
<!-- 27 -->
<g id="node5" class="node">
<title>27</title>
<ellipse fill="#dddddd" stroke="black" cx="1590.39" cy="-678.43" rx="67.61" ry="18"/>
<text text-anchor="middle" x="1590.39" y="-673.41" font-family="Helvetica,Arial,sans-serif" font-size="12.00">0,0,0,0,0,0,0,0,0,0</text>
</g>
<!-- 1&#45;&gt;27 -->
<g id="edge4" class="edge">
<title>1&#45;&gt;27</title>
<path fill="none" stroke="#82b936" d="M191.53,-1173.16C248.51,-1208.27 389.95,-1286.43 520.05,-1286.43 520.05,-1286.43 520.05,-1286.43 1234.94,-1286.43 1345.91,-1286.43 1401.46,-1316.05 1479.77,-1237.43 1555.55,-1161.36 1581.64,-812.13 1587.81,-707.89"/>
<polygon fill="#82b936" stroke="#82b936" points="1591.29,-708.38 1588.37,-698.2 1584.3,-707.98 1591.29,-708.38"/>
<text text-anchor="middle" x="1223.32" y="-1275.03" font-family="Helvetica,Arial,sans-serif" font-size="12.00" fill="#82b936">0.00</text>
</g>
<!-- 2&#45;&gt;27 -->
<g id="edge9" class="edge">
<title>2&#45;&gt;27</title>
<path fill="none" stroke="#d28ef6" d="M344.21,-696.22C347.52,-585.4 380.06,-6.43 698.28,-6.43 698.28,-6.43 698.28,-6.43 1234.94,-6.43 1345.91,-6.43 1402.23,23.95 1479.77,-55.43 1563.82,-141.47 1584.29,-536.36 1588.45,-648.6"/>
<polygon fill="#d28ef6" stroke="#d28ef6" points="1584.95,-648.62 1588.8,-658.49 1591.94,-648.37 1584.95,-648.62"/>
<text text-anchor="middle" x="335.65" y="-623.98" font-family="Helvetica,Arial,sans-serif" font-size="12.00" fill="#d28ef6">0.00</text>
</g>
<!-- 4 -->
<g id="node6" class="node">
<title>4</title>
<ellipse fill="#dddddd" stroke="black" cx="877.5" cy="-268.43" rx="67.61" ry="18"/>
<text text-anchor="middle" x="877.5" y="-263.41" font-family="Helvetica,Arial,sans-serif" font-size="12.00">0,2,0,0,0,0,0,0,0,0</text>
</g>
<!-- 2&#45;&gt;4 -->
<g id="edge5" class="edge">
<title>2&#45;&gt;4</title>
<path fill="none" stroke="#38bf85" d="M364.71,-696.95C447.26,-627.83 750.99,-373.52 847.12,-293.03"/>
<polygon fill="#38bf85" stroke="#38bf85" points="849.18,-295.87 854.6,-286.77 844.69,-290.5 849.18,-295.87"/>
<text text-anchor="middle" x="586.7" y="-479.9" font-family="Helvetica,Arial,sans-serif" font-size="12.00" fill="#38bf85">1.67e&#45;01</text>
</g>
<!-- 5 -->
<g id="node7" class="node">
<title>5</title>
<ellipse fill="#dddddd" stroke="black" cx="699.28" cy="-802.43" rx="67.61" ry="18"/>
<text text-anchor="middle" x="699.28" y="-797.41" font-family="Helvetica,Arial,sans-serif" font-size="12.00">1,0,1,0,0,0,0,0,0,0</text>
</g>
<!-- 2&#45;&gt;5 -->
<g id="edge6" class="edge">
<title>2&#45;&gt;5</title>
<path fill="none" stroke="#3bbbb2" d="M393.49,-726.76C457.47,-742.64 568.63,-770.24 637.57,-787.36"/>
<polygon fill="#3bbbb2" stroke="#3bbbb2" points="636.65,-790.74 647.2,-789.75 638.34,-783.94 636.65,-790.74"/>
<text text-anchor="middle" x="497.33" y="-747.01" font-family="Helvetica,Arial,sans-serif" font-size="12.00" fill="#3bbbb2">3.33e&#45;01</text>
</g>
<!-- 6 -->
<g id="node8" class="node">
<title>6</title>
<ellipse fill="#dddddd" stroke="black" cx="521.05" cy="-1038.43" rx="67.61" ry="18"/>
<text text-anchor="middle" x="521.05" y="-1033.41" font-family="Helvetica,Arial,sans-serif" font-size="12.00">2,1,0,0,0,1,0,0,0,0</text>
</g>
<!-- 2&#45;&gt;6 -->
<g id="edge7" class="edge">
<title>2&#45;&gt;6</title>
<path fill="none" stroke="#3db7d6" d="M353.56,-732.31C382.68,-785.85 469.32,-945.15 504.72,-1010.25"/>
<polygon fill="#3db7d6" stroke="#3db7d6" points="501.57,-1011.76 509.42,-1018.88 507.72,-1008.42 501.57,-1011.76"/>
<text text-anchor="middle" x="408.21" y="-864.84" font-family="Helvetica,Arial,sans-serif" font-size="12.00" fill="#3db7d6">3.33e&#45;01</text>
</g>
<!-- 7 -->
<g id="node9" class="node">
<title>7</title>
<ellipse fill="#dddddd" stroke="black" cx="699.28" cy="-652.43" rx="67.61" ry="18"/>
<text text-anchor="middle" x="699.28" y="-647.41" font-family="Helvetica,Arial,sans-serif" font-size="12.00">2,1,0,0,0,1,1,0,0,0</text>
</g>
<!-- 2&#45;&gt;7 -->
<g id="edge8" class="edge">
<title>2&#45;&gt;7</title>
<path fill="none" stroke="#86a8f6" d="M400.39,-704.54C463.02,-693.58 563.95,-675.93 630.7,-664.25"/>
<polygon fill="#86a8f6" stroke="#86a8f6" points="631.19,-667.72 640.43,-662.55 629.98,-660.83 631.19,-667.72"/>
<text text-anchor="middle" x="497.66" y="-671.99" font-family="Helvetica,Arial,sans-serif" font-size="12.00" fill="#86a8f6">1.67e&#45;01</text>
</g>
<!-- 3&#45;&gt;27 -->
<g id="edge11" class="edge">
<title>3&#45;&gt;27</title>
<path fill="none" stroke="#f8889a" d="M381.68,-1171.55C445.76,-1195.73 580.18,-1240.43 698.28,-1240.43 698.28,-1240.43 698.28,-1240.43 1234.94,-1240.43 1345.58,-1240.43 1400.49,-1272.59 1479.77,-1195.43 1550.63,-1126.48 1579.87,-807.22 1587.34,-707.96"/>
<polygon fill="#f8889a" stroke="#f8889a" points="1590.82,-708.46 1588.06,-698.23 1583.84,-707.95 1590.82,-708.46"/>
<text text-anchor="middle" x="1211.32" y="-1229.03" font-family="Helvetica,Arial,sans-serif" font-size="12.00" fill="#f8889a">4.00e&#45;01</text>
</g>
<!-- 3&#45;&gt;6 -->
<g id="edge10" class="edge">
<title>3&#45;&gt;6</title>
<path fill="none" stroke="#f780d2" d="M369.08,-1139.52C399.7,-1119.02 451.46,-1084.36 485.69,-1061.44"/>
<polygon fill="#f780d2" stroke="#f780d2" points="487.23,-1064.62 493.6,-1056.15 483.34,-1058.8 487.23,-1064.62"/>
<text text-anchor="middle" x="408.33" y="-1086.02" font-family="Helvetica,Arial,sans-serif" font-size="12.00" fill="#f780d2">6.00e&#45;01</text>
</g>
<!-- 28 -->
<g id="node30" class="node">
<title>28</title>
<ellipse fill="#dddddd" stroke="black" cx="1768.61" cy="-678.43" rx="67.61" ry="18"/>
<text text-anchor="middle" x="1768.61" y="-673.41" font-family="Helvetica,Arial,sans-serif" font-size="12.00">0,0,0,0,0,0,0,0,0,0</text>
</g>
<!-- 27&#45;&gt;28 -->
<g id="edge67" class="edge">
<title>27&#45;&gt;28</title>
<path fill="none" stroke="#3db7d6" d="M1651.54,-670.56C1665.84,-670.16 1681.24,-670.08 1696,-670.31"/>
<polygon fill="#3db7d6" stroke="#3db7d6" points="1695.54,-673.8 1705.61,-670.52 1695.69,-666.8 1695.54,-673.8"/>
<text text-anchor="middle" x="1667.94" y="-658.78" font-family="Helvetica,Arial,sans-serif" font-size="12.00" fill="#3db7d6">1.00</text>
</g>
<!-- 4&#45;&gt;27 -->
<g id="edge14" class="edge">
<title>4&#45;&gt;27</title>
<path fill="none" stroke="#82b936" d="M894.59,-250.59C914.83,-228.9 951.4,-192.14 988.11,-167.43 1060.75,-118.53 1081.21,-104 1166.33,-83.43 1243.37,-64.82 1265.31,-78.77 1344.55,-77.43 1404.64,-76.42 1433.62,-38.94 1479.77,-77.43 1568.88,-151.75 1585.74,-538.05 1588.76,-648.75"/>
<polygon fill="#82b936" stroke="#82b936" points="1585.25,-648.59 1589.01,-658.5 1592.25,-648.41 1585.25,-648.59"/>
<text text-anchor="middle" x="1563.27" y="-411.29" font-family="Helvetica,Arial,sans-serif" font-size="12.00" fill="#82b936">0.00</text>
</g>
<!-- 8 -->
<g id="node10" class="node">
<title>8</title>
<ellipse fill="#dddddd" stroke="black" cx="1233.94" cy="-496.43" rx="67.61" ry="18"/>
<text text-anchor="middle" x="1233.94" y="-491.41" font-family="Helvetica,Arial,sans-serif" font-size="12.00">0,0,0,1,0,0,0,0,0,0</text>
</g>
<!-- 4&#45;&gt;8 -->
<g id="edge12" class="edge">
<title>4&#45;&gt;8</title>
<path fill="none" stroke="#ee9537" d="M886.04,-286.77C900.65,-320 936.03,-390.17 988.11,-427.43 1038.3,-463.34 1106.65,-480.6 1158.38,-488.88"/>
<polygon fill="#ee9537" stroke="#ee9537" points="1157.58,-492.3 1167.99,-490.34 1158.63,-485.38 1157.58,-492.3"/>
<text text-anchor="middle" x="1021.96" y="-422.94" font-family="Helvetica,Arial,sans-serif" font-size="12.00" fill="#ee9537">3.33e&#45;01</text>
</g>
<!-- 9 -->
<g id="node11" class="node">
<title>9</title>
<ellipse fill="#dddddd" stroke="black" cx="1055.72" cy="-196.43" rx="67.61" ry="18"/>
<text text-anchor="middle" x="1055.72" y="-191.41" font-family="Helvetica,Arial,sans-serif" font-size="12.00">0,2,0,0,0,0,1,0,0,0</text>
</g>
<!-- 4&#45;&gt;9 -->
<g id="edge13" class="edge">
<title>4&#45;&gt;9</title>
<path fill="none" stroke="#bcaa36" d="M915.87,-253.16C942.39,-242.33 978.21,-227.69 1006.82,-216"/>
<polygon fill="#bcaa36" stroke="#bcaa36" points="1008.07,-219.27 1016,-212.25 1005.42,-212.79 1008.07,-219.27"/>
<text text-anchor="middle" x="943.26" y="-220.92" font-family="Helvetica,Arial,sans-serif" font-size="12.00" fill="#bcaa36">6.67e&#45;01</text>
</g>
<!-- 5&#45;&gt;27 -->
<g id="edge18" class="edge">
<title>5&#45;&gt;27</title>
<path fill="none" stroke="#86a8f6" d="M767.24,-802.43C838.51,-802.43 954.57,-802.43 1054.72,-802.43 1054.72,-802.43 1054.72,-802.43 1234.94,-802.43 1345.35,-802.43 1378.35,-804.04 1479.77,-760.43 1511.49,-746.8 1542.5,-722.24 1563.4,-703.54"/>
<polygon fill="#86a8f6" stroke="#86a8f6" points="1565.58,-706.29 1570.59,-696.95 1560.85,-701.12 1565.58,-706.29"/>
<text text-anchor="middle" x="1223.32" y="-791.03" font-family="Helvetica,Arial,sans-serif" font-size="12.00" fill="#86a8f6">0.00</text>
</g>
<!-- 5&#45;&gt;8 -->
<g id="edge15" class="edge">
<title>5&#45;&gt;8</title>
<path fill="none" stroke="#38bf85" d="M728.91,-785.98C818.33,-734.61 1092.43,-577.15 1194.29,-518.64"/>
<polygon fill="#38bf85" stroke="#38bf85" points="1195.92,-521.73 1202.85,-513.72 1192.44,-515.67 1195.92,-521.73"/>
<text text-anchor="middle" x="943.06" y="-637.99" font-family="Helvetica,Arial,sans-serif" font-size="12.00" fill="#38bf85">3.33e&#45;01</text>
</g>
<!-- 10 -->
<g id="node12" class="node">
<title>10</title>
<ellipse fill="#dddddd" stroke="black" cx="877.5" cy="-998.43" rx="67.61" ry="18"/>
<text text-anchor="middle" x="877.5" y="-993.41" font-family="Helvetica,Arial,sans-serif" font-size="12.00">1,0,1,0,0,1,0,0,0,0</text>
</g>
<!-- 5&#45;&gt;10 -->
<g id="edge16" class="edge">
<title>5&#45;&gt;10</title>
<path fill="none" stroke="#3bbbb2" d="M716.23,-820.17C747.34,-854.78 816.27,-931.44 852.76,-972.03"/>
<polygon fill="#3bbbb2" stroke="#3bbbb2" points="850.16,-974.37 859.45,-979.47 855.36,-969.69 850.16,-974.37"/>
<text text-anchor="middle" x="764.58" y="-888.83" font-family="Helvetica,Arial,sans-serif" font-size="12.00" fill="#3bbbb2">3.33e&#45;01</text>
</g>
<!-- 11 -->
<g id="node13" class="node">
<title>11</title>
<ellipse fill="#dddddd" stroke="black" cx="1055.72" cy="-923.43" rx="67.61" ry="18"/>
<text text-anchor="middle" x="1055.72" y="-918.41" font-family="Helvetica,Arial,sans-serif" font-size="12.00">1,0,1,0,0,1,0,1,0,0</text>
</g>
<!-- 5&#45;&gt;11 -->
<g id="edge17" class="edge">
<title>5&#45;&gt;11</title>
<path fill="none" stroke="#3db7d6" d="M741.98,-816.67C806.68,-838.76 931.17,-881.25 1002.01,-905.44"/>
<polygon fill="#3db7d6" stroke="#3db7d6" points="1000.88,-908.75 1011.47,-908.67 1003.14,-902.12 1000.88,-908.75"/>
<text text-anchor="middle" x="853.96" y="-851.56" font-family="Helvetica,Arial,sans-serif" font-size="12.00" fill="#3db7d6">3.33e&#45;01</text>
</g>
<!-- 6&#45;&gt;27 -->
<g id="edge22" class="edge">
<title>6&#45;&gt;27</title>
<path fill="none" stroke="#ee9537" d="M543.79,-1055.72C597.11,-1096.34 740.02,-1194.43 876.5,-1194.43 876.5,-1194.43 876.5,-1194.43 1234.94,-1194.43 1345.13,-1194.43 1399.26,-1230.66 1479.77,-1155.43 1546.17,-1093.4 1578.13,-802.08 1586.85,-707.89"/>
<polygon fill="#ee9537" stroke="#ee9537" points="1590.32,-708.46 1587.73,-698.18 1583.34,-707.83 1590.32,-708.46"/>
<text text-anchor="middle" x="1211.32" y="-1183.03" font-family="Helvetica,Arial,sans-serif" font-size="12.00" fill="#ee9537">3.33e&#45;01</text>
</g>
<!-- 6&#45;&gt;7 -->
<g id="edge21" class="edge">
<title>6&#45;&gt;7</title>
<path fill="none" stroke="#f8889a" d="M528.82,-1020.13C545.05,-976.67 588.13,-864.09 631.67,-773.43 647.31,-740.86 667.62,-704.7 681.68,-680.47"/>
<polygon fill="#f8889a" stroke="#f8889a" points="684.69,-682.26 686.71,-671.86 678.65,-678.73 684.69,-682.26"/>
<text text-anchor="middle" x="576.74" y="-830.75" font-family="Helvetica,Arial,sans-serif" font-size="12.00" fill="#f8889a">1.67e&#45;01</text>
</g>
<!-- 6&#45;&gt;10 -->
<g id="edge20" class="edge">
<title>6&#45;&gt;10</title>
<path fill="none" stroke="#f780d2" d="M583.79,-1031.46C644.88,-1024.57 738.4,-1014.02 803.22,-1006.7"/>
<polygon fill="#f780d2" stroke="#f780d2" points="803.53,-1010.19 813.07,-1005.59 802.74,-1003.23 803.53,-1010.19"/>
<text text-anchor="middle" x="675.36" y="-1007.06" font-family="Helvetica,Arial,sans-serif" font-size="12.00" fill="#f780d2">3.33e&#45;01</text>
</g>
<!-- 12 -->
<g id="node14" class="node">
<title>12</title>
<ellipse fill="#dddddd" stroke="black" cx="877.5" cy="-1073.43" rx="67.61" ry="18"/>
<text text-anchor="middle" x="877.5" y="-1068.41" font-family="Helvetica,Arial,sans-serif" font-size="12.00">0,2,0,0,0,1,0,0,0,0</text>
</g>
<!-- 6&#45;&gt;12 -->
<g id="edge19" class="edge">
<title>6&#45;&gt;12</title>
<path fill="none" stroke="#d28ef6" d="M585.01,-1044.65C645.82,-1050.65 737.9,-1059.75 802.25,-1066.1"/>
<polygon fill="#d28ef6" stroke="#d28ef6" points="801.73,-1069.57 812.02,-1067.06 802.42,-1062.6 801.73,-1069.57"/>
<text text-anchor="middle" x="675.48" y="-1044.51" font-family="Helvetica,Arial,sans-serif" font-size="12.00" fill="#d28ef6">1.67e&#45;01</text>
</g>
<!-- 7&#45;&gt;27 -->
<g id="edge25" class="edge">
<title>7&#45;&gt;27</title>
<path fill="none" stroke="#38bf85" d="M732.1,-636.41C793.06,-607.24 931.27,-548.43 1054.72,-548.43 1054.72,-548.43 1054.72,-548.43 1234.94,-548.43 1344.24,-548.43 1380.59,-525.52 1479.77,-571.43 1518.08,-589.16 1551.02,-626.04 1570.53,-651.5"/>
<polygon fill="#38bf85" stroke="#38bf85" points="1567.64,-653.49 1576.42,-659.43 1573.26,-649.32 1567.64,-653.49"/>
<text text-anchor="middle" x="1211.32" y="-537.03" font-family="Helvetica,Arial,sans-serif" font-size="12.00" fill="#38bf85">5.00e&#45;01</text>
</g>
<!-- 13 -->
<g id="node15" class="node">
<title>13</title>
<ellipse fill="#dddddd" stroke="black" cx="1055.72" cy="-750.43" rx="67.61" ry="18"/>
<text text-anchor="middle" x="1055.72" y="-745.41" font-family="Helvetica,Arial,sans-serif" font-size="12.00">0,2,0,0,0,1,1,0,0,0</text>
</g>
<!-- 7&#45;&gt;13 -->
<g id="edge23" class="edge">
<title>7&#45;&gt;13</title>
<path fill="none" stroke="#bcaa36" d="M747.34,-665.45C811.78,-683.26 927.39,-715.23 996.98,-734.47"/>
<polygon fill="#bcaa36" stroke="#bcaa36" points="995.71,-737.75 1006.28,-737.04 997.58,-731 995.71,-737.75"/>
<text text-anchor="middle" x="854.1" y="-690.09" font-family="Helvetica,Arial,sans-serif" font-size="12.00" fill="#bcaa36">1.67e&#45;01</text>
</g>
<!-- 14 -->
<g id="node16" class="node">
<title>14</title>
<ellipse fill="#dddddd" stroke="black" cx="877.5" cy="-447.43" rx="67.61" ry="18"/>
<text text-anchor="middle" x="877.5" y="-442.41" font-family="Helvetica,Arial,sans-serif" font-size="12.00">1,0,1,0,0,1,1,0,0,0</text>
</g>
<!-- 7&#45;&gt;14 -->
<g id="edge24" class="edge">
<title>7&#45;&gt;14</title>
<path fill="none" stroke="#82b936" d="M715.61,-634.6C746.66,-598.48 817.12,-516.51 853.62,-474.05"/>
<polygon fill="#82b936" stroke="#82b936" points="856.23,-476.38 860.09,-466.52 850.92,-471.82 856.23,-476.38"/>
<text text-anchor="middle" x="764.75" y="-538.54" font-family="Helvetica,Arial,sans-serif" font-size="12.00" fill="#82b936">3.33e&#45;01</text>
</g>
<!-- 8&#45;&gt;27 -->
<g id="edge27" class="edge">
<title>8&#45;&gt;27</title>
<path fill="none" stroke="#3db7d6" d="M1300.26,-492.53C1352.34,-492.39 1425.32,-499.09 1479.77,-531.43 1526.7,-559.31 1559.93,-615.78 1576.77,-650.04"/>
<polygon fill="#3db7d6" stroke="#3db7d6" points="1573.55,-651.42 1581.01,-658.95 1579.87,-648.42 1573.55,-651.42"/>
<text text-anchor="middle" x="1468.17" y="-520.04" font-family="Helvetica,Arial,sans-serif" font-size="12.00" fill="#3db7d6">0.00</text>
</g>
<!-- 15 -->
<g id="node17" class="node">
<title>15</title>
<ellipse fill="#dddddd" stroke="black" cx="1412.16" cy="-450.43" rx="67.61" ry="18"/>
<text text-anchor="middle" x="1412.16" y="-445.41" font-family="Helvetica,Arial,sans-serif" font-size="12.00">0,0,0,1,0,0,0,0,1,0</text>
</g>
<!-- 8&#45;&gt;15 -->
<g id="edge26" class="edge">
<title>8&#45;&gt;15</title>
<path fill="none" stroke="#3bbbb2" d="M1283.1,-483.86C1304.28,-478.33 1329.37,-471.78 1351.71,-465.95"/>
<polygon fill="#3bbbb2" stroke="#3bbbb2" points="1352.51,-469.36 1361.3,-463.45 1350.74,-462.59 1352.51,-469.36"/>
<text text-anchor="middle" x="1299.39" y="-462.04" font-family="Helvetica,Arial,sans-serif" font-size="12.00" fill="#3bbbb2">5.00e&#45;01</text>
</g>
<!-- 29 -->
<g id="node18" class="node">
<title>29</title>
<ellipse fill="#9f9f9f" stroke="black" cx="1412.16" cy="-600.43" rx="67.61" ry="18"/>
<text text-anchor="middle" x="1412.16" y="-595.41" font-family="Helvetica,Arial,sans-serif" font-size="12.00">0,0,0,0,0,0,0,0,0,0</text>
</g>
<!-- 8&#45;&gt;29 -->
<g id="edge28" class="edge">
<title>8&#45;&gt;29</title>
<path fill="none" stroke="#86a8f6" d="M1262.87,-512.91C1292.68,-530.51 1340.11,-558.5 1373.28,-578.07"/>
<polygon fill="#86a8f6" stroke="#86a8f6" points="1371.39,-581.02 1381.78,-583.09 1374.94,-574.99 1371.39,-581.02"/>
<text text-anchor="middle" x="1299.21" y="-536.9" font-family="Helvetica,Arial,sans-serif" font-size="12.00" fill="#86a8f6">5.00e&#45;01</text>
</g>
<!-- 9&#45;&gt;27 -->
<g id="edge30" class="edge">
<title>9&#45;&gt;27</title>
<path fill="none" stroke="#f780d2" d="M1082.6,-179.44C1154.57,-134.52 1359.65,-22.64 1479.77,-121.43 1562.52,-189.48 1583.77,-543.62 1588.3,-648.89"/>
<polygon fill="#f780d2" stroke="#f780d2" points="1584.8,-648.83 1588.7,-658.68 1591.79,-648.54 1584.8,-648.83"/>
<text text-anchor="middle" x="1539.74" y="-359.79" font-family="Helvetica,Arial,sans-serif" font-size="12.00" fill="#f780d2">6.67e&#45;01</text>
</g>
<!-- 16 -->
<g id="node19" class="node">
<title>16</title>
<ellipse fill="#dddddd" stroke="black" cx="1233.94" cy="-196.43" rx="67.61" ry="18"/>
<text text-anchor="middle" x="1233.94" y="-191.41" font-family="Helvetica,Arial,sans-serif" font-size="12.00">0,0,0,1,0,0,1,0,0,0</text>
</g>
<!-- 9&#45;&gt;16 -->
<g id="edge29" class="edge">
<title>9&#45;&gt;16</title>
<path fill="none" stroke="#d28ef6" d="M1123.59,-196.43C1133.82,-196.43 1144.45,-196.43 1154.89,-196.43"/>
<polygon fill="#d28ef6" stroke="#d28ef6" points="1154.6,-199.93 1164.6,-196.43 1154.6,-192.93 1154.6,-199.93"/>
<text text-anchor="middle" x="1168.2" y="-185.03" font-family="Helvetica,Arial,sans-serif" font-size="12.00" fill="#d28ef6">3.33e&#45;01</text>
</g>
<!-- 10&#45;&gt;27 -->
<g id="edge33" class="edge">
<title>10&#45;&gt;27</title>
<path fill="none" stroke="#bcaa36" d="M942.53,-1003.8C1079.79,-1013.97 1396.61,-1029.78 1479.77,-967.43 1563.92,-904.34 1583.47,-768.45 1588.01,-708.22"/>
<polygon fill="#bcaa36" stroke="#bcaa36" points="1591.49,-708.62 1588.65,-698.41 1584.51,-708.16 1591.49,-708.62"/>
<text text-anchor="middle" x="1250.18" y="-999.87" font-family="Helvetica,Arial,sans-serif" font-size="12.00" fill="#bcaa36">3.33e&#45;01</text>
</g>
<!-- 10&#45;&gt;11 -->
<g id="edge32" class="edge">
<title>10&#45;&gt;11</title>
<path fill="none" stroke="#ee9537" d="M914.58,-983.07C941.58,-971.58 978.72,-955.78 1007.99,-943.32"/>
<polygon fill="#ee9537" stroke="#ee9537" points="1009.16,-946.63 1016.99,-939.49 1006.42,-940.19 1009.16,-946.63"/>
<text text-anchor="middle" x="942.55" y="-949.71" font-family="Helvetica,Arial,sans-serif" font-size="12.00" fill="#ee9537">3.33e&#45;01</text>
</g>
<!-- 17 -->
<g id="node20" class="node">
<title>17</title>
<ellipse fill="#dddddd" stroke="black" cx="1233.94" cy="-1050.43" rx="67.61" ry="18"/>
<text text-anchor="middle" x="1233.94" y="-1045.41" font-family="Helvetica,Arial,sans-serif" font-size="12.00">0,0,0,1,0,1,0,0,0,0</text>
</g>
<!-- 10&#45;&gt;17 -->
<g id="edge31" class="edge">
<title>10&#45;&gt;17</title>
<path fill="none" stroke="#f8889a" d="M936.5,-1007.56C953.16,-1010.14 971.35,-1012.93 988.11,-1015.43 1046.72,-1024.17 1113.28,-1033.65 1162.2,-1040.54"/>
<polygon fill="#f8889a" stroke="#f8889a" points="1161.41,-1043.97 1171.8,-1041.9 1162.38,-1037.04 1161.41,-1043.97"/>
<text text-anchor="middle" x="1031.35" y="-1013.84" font-family="Helvetica,Arial,sans-serif" font-size="12.00" fill="#f8889a">3.33e&#45;01</text>
</g>
<!-- 11&#45;&gt;27 -->
<g id="edge35" class="edge">
<title>11&#45;&gt;27</title>
<path fill="none" stroke="#38bf85" d="M1097.85,-937.95C1178.6,-963.67 1360.39,-1007.57 1479.77,-929.43 1556.34,-879.32 1579.73,-762.71 1586.63,-707.89"/>
<polygon fill="#38bf85" stroke="#38bf85" points="1590.09,-708.41 1587.76,-698.08 1583.14,-707.61 1590.09,-708.41"/>
<text text-anchor="middle" x="1503.4" y="-918.03" font-family="Helvetica,Arial,sans-serif" font-size="12.00" fill="#38bf85">6.67e&#45;01</text>
</g>
<!-- 18 -->
<g id="node21" class="node">
<title>18</title>
<ellipse fill="#dddddd" stroke="black" cx="1233.94" cy="-877.43" rx="67.61" ry="18"/>
<text text-anchor="middle" x="1233.94" y="-872.41" font-family="Helvetica,Arial,sans-serif" font-size="12.00">0,0,0,1,0,1,0,1,0,0</text>
</g>
<!-- 11&#45;&gt;18 -->
<g id="edge34" class="edge">
<title>11&#45;&gt;18</title>
<path fill="none" stroke="#82b936" d="M1104.87,-910.86C1126.06,-905.33 1151.15,-898.78 1173.49,-892.95"/>
<polygon fill="#82b936" stroke="#82b936" points="1174.28,-896.36 1183.08,-890.45 1172.52,-889.59 1174.28,-896.36"/>
<text text-anchor="middle" x="1121.17" y="-889.04" font-family="Helvetica,Arial,sans-serif" font-size="12.00" fill="#82b936">3.33e&#45;01</text>
</g>
<!-- 12&#45;&gt;27 -->
<g id="edge38" class="edge">
<title>12&#45;&gt;27</title>
<path fill="none" stroke="#86a8f6" d="M927.24,-1085.89C1054.8,-1117.24 1394.55,-1192.28 1479.77,-1125.43 1546.57,-1073.04 1578,-799.67 1586.75,-708.25"/>
<polygon fill="#86a8f6" stroke="#86a8f6" points="1590.23,-708.62 1587.68,-698.34 1583.26,-707.97 1590.23,-708.62"/>
<text text-anchor="middle" x="1214.94" y="-1131.99" font-family="Helvetica,Arial,sans-serif" font-size="12.00" fill="#86a8f6">0.00</text>
</g>
<!-- 12&#45;&gt;13 -->
<g id="edge37" class="edge">
<title>12&#45;&gt;13</title>
<path fill="none" stroke="#3db7d6" d="M910.46,-1057.3C922.78,-1049.7 936.05,-1039.61 945.11,-1027.43 982.19,-977.59 965.47,-952.28 988.11,-894.43 1004.22,-853.26 1026.31,-807.11 1040.55,-778.41"/>
<polygon fill="#3db7d6" stroke="#3db7d6" points="1043.58,-780.18 1044.92,-769.67 1037.32,-777.05 1043.58,-780.18"/>
<text text-anchor="middle" x="964.49" y="-883.02" font-family="Helvetica,Arial,sans-serif" font-size="12.00" fill="#3db7d6">6.67e&#45;01</text>
</g>
<!-- 12&#45;&gt;17 -->
<g id="edge36" class="edge">
<title>12&#45;&gt;17</title>
<path fill="none" stroke="#3bbbb2" d="M945.06,-1071.09C994.33,-1069.13 1063.07,-1065.93 1123.33,-1061.43 1134.97,-1060.56 1147.28,-1059.48 1159.29,-1058.34"/>
<polygon fill="#3bbbb2" stroke="#3bbbb2" points="1159.56,-1061.83 1169.17,-1057.38 1158.88,-1054.87 1159.56,-1061.83"/>
<text text-anchor="middle" x="1034.22" y="-1054.3" font-family="Helvetica,Arial,sans-serif" font-size="12.00" fill="#3bbbb2">3.33e&#45;01</text>
</g>
<!-- 13&#45;&gt;27 -->
<g id="edge40" class="edge">
<title>13&#45;&gt;27</title>
<path fill="none" stroke="#f780d2" d="M1120.29,-756.11C1204.13,-761.74 1355.58,-765.49 1479.77,-733.43 1505.99,-726.66 1533.22,-713.04 1553.97,-701.05"/>
<polygon fill="#f780d2" stroke="#f780d2" points="1555.5,-704.22 1562.31,-696.11 1551.92,-698.2 1555.5,-704.22"/>
<text text-anchor="middle" x="1320.72" y="-743.91" font-family="Helvetica,Arial,sans-serif" font-size="12.00" fill="#f780d2">6.67e&#45;01</text>
</g>
<!-- 19 -->
<g id="node22" class="node">
<title>19</title>
<ellipse fill="#dddddd" stroke="black" cx="1233.94" cy="-652.43" rx="67.61" ry="18"/>
<text text-anchor="middle" x="1233.94" y="-647.41" font-family="Helvetica,Arial,sans-serif" font-size="12.00">0,0,0,1,0,1,1,0,0,0</text>
</g>
<!-- 13&#45;&gt;19 -->
<g id="edge39" class="edge">
<title>13&#45;&gt;19</title>
<path fill="none" stroke="#d28ef6" d="M1088.03,-734.29C1099.22,-728.44 1111.88,-721.73 1123.33,-715.43 1147.3,-702.25 1173.9,-686.98 1194.9,-674.77"/>
<polygon fill="#d28ef6" stroke="#d28ef6" points="1196.54,-677.87 1203.41,-669.81 1193.01,-671.82 1196.54,-677.87"/>
<text text-anchor="middle" x="1123.28" y="-690.89" font-family="Helvetica,Arial,sans-serif" font-size="12.00" fill="#d28ef6">3.33e&#45;01</text>
</g>
<!-- 14&#45;&gt;27 -->
<g id="edge43" class="edge">
<title>14&#45;&gt;27</title>
<path fill="none" stroke="#bcaa36" d="M900.16,-429.99C983.87,-364.81 1290.9,-146.42 1479.77,-289.43 1538.36,-333.79 1574.46,-566.01 1585.65,-648.95"/>
<polygon fill="#bcaa36" stroke="#bcaa36" points="1582.16,-649.33 1586.94,-658.78 1589.1,-648.41 1582.16,-649.33"/>
<text text-anchor="middle" x="1126.92" y="-270.23" font-family="Helvetica,Arial,sans-serif" font-size="12.00" fill="#bcaa36">3.33e&#45;01</text>
</g>
<!-- 14&#45;&gt;19 -->
<g id="edge41" class="edge">
<title>14&#45;&gt;19</title>
<path fill="none" stroke="#f8889a" d="M907.2,-464.03C970.66,-500.74 1122.91,-588.79 1194.51,-630.2"/>
<polygon fill="#f8889a" stroke="#f8889a" points="1192.74,-633.23 1203.15,-635.2 1196.25,-627.17 1192.74,-633.23"/>
<text text-anchor="middle" x="1032.23" y="-538.61" font-family="Helvetica,Arial,sans-serif" font-size="12.00" fill="#f8889a">3.33e&#45;01</text>
</g>
<!-- 20 -->
<g id="node23" class="node">
<title>20</title>
<ellipse fill="#dddddd" stroke="black" cx="1055.72" cy="-398.43" rx="67.61" ry="18"/>
<text text-anchor="middle" x="1055.72" y="-393.41" font-family="Helvetica,Arial,sans-serif" font-size="12.00">1,0,1,0,0,1,1,1,0,0</text>
</g>
<!-- 14&#45;&gt;20 -->
<g id="edge42" class="edge">
<title>14&#45;&gt;20</title>
<path fill="none" stroke="#ee9537" d="M925.26,-434.43C947.17,-428.34 973.48,-421.02 996.65,-414.58"/>
<polygon fill="#ee9537" stroke="#ee9537" points="997.59,-417.95 1006.28,-411.9 995.71,-411.21 997.59,-417.95"/>
<text text-anchor="middle" x="943.16" y="-411.48" font-family="Helvetica,Arial,sans-serif" font-size="12.00" fill="#ee9537">3.33e&#45;01</text>
</g>
<!-- 15&#45;&gt;27 -->
<g id="edge44" class="edge">
<title>15&#45;&gt;27</title>
<path fill="none" stroke="#82b936" d="M1450.9,-465.54C1461.06,-470.8 1471.51,-477.44 1479.77,-485.43 1529.38,-533.44 1563.24,-608.78 1579.1,-649.68"/>
<polygon fill="#82b936" stroke="#82b936" points="1575.75,-650.72 1582.55,-658.84 1582.29,-648.24 1575.75,-650.72"/>
<text text-anchor="middle" x="1520.87" y="-542.28" font-family="Helvetica,Arial,sans-serif" font-size="12.00" fill="#82b936">1.00</text>
</g>
<!-- 16&#45;&gt;27 -->
<g id="edge46" class="edge">
<title>16&#45;&gt;27</title>
<path fill="none" stroke="#3bbbb2" d="M1294.05,-187.78C1349.05,-183.26 1429.82,-186.17 1479.77,-231.43 1542.61,-288.37 1576.6,-558.15 1586.38,-648.71"/>
<polygon fill="#3bbbb2" stroke="#3bbbb2" points="1582.89,-648.94 1587.42,-658.52 1589.85,-648.21 1582.89,-648.94"/>
<text text-anchor="middle" x="1535.45" y="-388.59" font-family="Helvetica,Arial,sans-serif" font-size="12.00" fill="#3bbbb2">0.00</text>
</g>
<!-- 16&#45;&gt;29 -->
<g id="edge47" class="edge">
<title>16&#45;&gt;29</title>
<path fill="none" stroke="#3db7d6" d="M1246.54,-214.2C1261.12,-237.21 1286.11,-278.93 1301.55,-317.43 1329.28,-386.57 1316.83,-410.29 1344.55,-479.43 1358.06,-513.12 1378.89,-549.28 1393.65,-573.2"/>
<polygon fill="#3db7d6" stroke="#3db7d6" points="1390.49,-574.76 1398.76,-581.38 1396.43,-571.05 1390.49,-574.76"/>
<text text-anchor="middle" x="1299.43" y="-387.03" font-family="Helvetica,Arial,sans-serif" font-size="12.00" fill="#3db7d6">5.00e&#45;01</text>
</g>
<!-- 21 -->
<g id="node24" class="node">
<title>21</title>
<ellipse fill="#dddddd" stroke="black" cx="1412.16" cy="-150.43" rx="67.61" ry="18"/>
<text text-anchor="middle" x="1412.16" y="-145.41" font-family="Helvetica,Arial,sans-serif" font-size="12.00">0,0,0,1,0,0,1,0,1,0</text>
</g>
<!-- 16&#45;&gt;21 -->
<g id="edge45" class="edge">
<title>16&#45;&gt;21</title>
<path fill="none" stroke="#38bf85" d="M1283.1,-183.86C1304.28,-178.33 1329.37,-171.78 1351.71,-165.95"/>
<polygon fill="#38bf85" stroke="#38bf85" points="1352.51,-169.36 1361.3,-163.45 1350.74,-162.59 1352.51,-169.36"/>
<text text-anchor="middle" x="1299.39" y="-162.04" font-family="Helvetica,Arial,sans-serif" font-size="12.00" fill="#38bf85">5.00e&#45;01</text>
</g>
<!-- 17&#45;&gt;27 -->
<g id="edge49" class="edge">
<title>17&#45;&gt;27</title>
<path fill="none" stroke="#d28ef6" d="M1295.41,-1058.39C1349.83,-1062.06 1428.84,-1058.26 1479.77,-1015.43 1574.2,-936.04 1587.95,-774.26 1589.48,-707.87"/>
<polygon fill="#d28ef6" stroke="#d28ef6" points="1592.97,-708.18 1589.62,-698.14 1585.97,-708.09 1592.97,-708.18"/>
<text text-anchor="middle" x="1557.48" y="-912.88" font-family="Helvetica,Arial,sans-serif" font-size="12.00" fill="#d28ef6">0.00</text>
</g>
<!-- 17&#45;&gt;29 -->
<g id="edge50" class="edge">
<title>17&#45;&gt;29</title>
<path fill="none" stroke="#f780d2" d="M1245.09,-1032.38C1259.68,-1005.67 1286.49,-953.67 1301.55,-906.43 1333.28,-806.94 1298.65,-769.23 1344.55,-675.43 1353.75,-656.65 1368.97,-638.99 1382.54,-625.52"/>
<polygon fill="#f780d2" stroke="#f780d2" points="1384.81,-628.2 1389.62,-618.76 1379.97,-623.14 1384.81,-628.2"/>
<text text-anchor="middle" x="1292.87" y="-813.72" font-family="Helvetica,Arial,sans-serif" font-size="12.00" fill="#f780d2">5.00e&#45;01</text>
</g>
<!-- 22 -->
<g id="node25" class="node">
<title>22</title>
<ellipse fill="#dddddd" stroke="black" cx="1412.16" cy="-1096.43" rx="67.61" ry="18"/>
<text text-anchor="middle" x="1412.16" y="-1091.41" font-family="Helvetica,Arial,sans-serif" font-size="12.00">0,0,0,1,0,1,0,0,1,0</text>
</g>
<!-- 17&#45;&gt;22 -->
<g id="edge48" class="edge">
<title>17&#45;&gt;22</title>
<path fill="none" stroke="#86a8f6" d="M1283.1,-1063C1304.28,-1068.53 1329.37,-1075.08 1351.71,-1080.91"/>
<polygon fill="#86a8f6" stroke="#86a8f6" points="1350.74,-1084.28 1361.3,-1083.41 1352.51,-1077.5 1350.74,-1084.28"/>
<text text-anchor="middle" x="1346.64" y="-1062.02" font-family="Helvetica,Arial,sans-serif" font-size="12.00" fill="#86a8f6">5.00e&#45;01</text>
</g>
<!-- 18&#45;&gt;27 -->
<g id="edge52" class="edge">
<title>18&#45;&gt;27</title>
<path fill="none" stroke="#ee9537" d="M1300.66,-873.75C1352.8,-868.17 1425.67,-854.21 1479.77,-819.43 1523.83,-791.11 1557.47,-738.78 1575.25,-706.45"/>
<polygon fill="#ee9537" stroke="#ee9537" points="1578.33,-708.12 1579.96,-697.65 1572.16,-704.82 1578.33,-708.12"/>
<text text-anchor="middle" x="1468.16" y="-808.03" font-family="Helvetica,Arial,sans-serif" font-size="12.00" fill="#ee9537">0.00</text>
</g>
<!-- 18&#45;&gt;29 -->
<g id="edge53" class="edge">
<title>18&#45;&gt;29</title>
<path fill="none" stroke="#bcaa36" d="M1243.04,-859.34C1259.66,-822.99 1299.87,-739.13 1344.55,-675.43 1356.81,-657.96 1372.6,-640.02 1385.73,-626.08"/>
<polygon fill="#bcaa36" stroke="#bcaa36" points="1388.07,-628.69 1392.46,-619.04 1383.02,-623.85 1388.07,-628.69"/>
<text text-anchor="middle" x="1284.48" y="-721.46" font-family="Helvetica,Arial,sans-serif" font-size="12.00" fill="#bcaa36">5.00e&#45;01</text>
</g>
<!-- 23 -->
<g id="node26" class="node">
<title>23</title>
<ellipse fill="#dddddd" stroke="black" cx="1412.16" cy="-900.43" rx="67.61" ry="18"/>
<text text-anchor="middle" x="1412.16" y="-895.41" font-family="Helvetica,Arial,sans-serif" font-size="12.00">0,0,0,1,0,1,0,1,1,0</text>
</g>
<!-- 18&#45;&gt;23 -->
<g id="edge51" class="edge">
<title>18&#45;&gt;23</title>
<path fill="none" stroke="#f8889a" d="M1295.09,-885.28C1309.4,-887.15 1324.79,-889.16 1339.55,-891.08"/>
<polygon fill="#f8889a" stroke="#f8889a" points="1338.81,-894.52 1349.18,-892.34 1339.72,-887.58 1338.81,-894.52"/>
<text text-anchor="middle" x="1346.75" y="-877.54" font-family="Helvetica,Arial,sans-serif" font-size="12.00" fill="#f8889a">5.00e&#45;01</text>
</g>
<!-- 19&#45;&gt;27 -->
<g id="edge55" class="edge">
<title>19&#45;&gt;27</title>
<path fill="none" stroke="#38bf85" d="M1299.54,-657.17C1359.82,-661.59 1449.77,-668.19 1513.46,-672.86"/>
<polygon fill="#38bf85" stroke="#38bf85" points="1512.89,-676.33 1523.12,-673.57 1513.41,-669.35 1512.89,-676.33"/>
<text text-anchor="middle" x="1400.28" y="-654.01" font-family="Helvetica,Arial,sans-serif" font-size="12.00" fill="#38bf85">0.00</text>
</g>
<!-- 19&#45;&gt;29 -->
<g id="edge56" class="edge">
<title>19&#45;&gt;29</title>
<path fill="none" stroke="#3bbbb2" d="M1280.32,-639.04C1303.05,-632.33 1330.78,-624.15 1354.86,-617.05"/>
<polygon fill="#3bbbb2" stroke="#3bbbb2" points="1355.58,-620.48 1364.18,-614.3 1353.6,-613.77 1355.58,-620.48"/>
<text text-anchor="middle" x="1299.46" y="-615.02" font-family="Helvetica,Arial,sans-serif" font-size="12.00" fill="#3bbbb2">5.00e&#45;01</text>
</g>
<!-- 24 -->
<g id="node27" class="node">
<title>24</title>
<ellipse fill="#dddddd" stroke="black" cx="1412.16" cy="-704.43" rx="67.61" ry="18"/>
<text text-anchor="middle" x="1412.16" y="-699.41" font-family="Helvetica,Arial,sans-serif" font-size="12.00">0,0,0,1,0,1,1,0,1,0</text>
</g>
<!-- 19&#45;&gt;24 -->
<g id="edge54" class="edge">
<title>19&#45;&gt;24</title>
<path fill="none" stroke="#82b936" d="M1280.32,-665.82C1303.05,-672.53 1330.78,-680.71 1354.86,-687.82"/>
<polygon fill="#82b936" stroke="#82b936" points="1353.6,-691.09 1364.18,-690.57 1355.58,-684.38 1353.6,-691.09"/>
<text text-anchor="middle" x="1346.71" y="-667.04" font-family="Helvetica,Arial,sans-serif" font-size="12.00" fill="#82b936">5.00e&#45;01</text>
</g>
<!-- 20&#45;&gt;27 -->
<g id="edge58" class="edge">
<title>20&#45;&gt;27</title>
<path fill="none" stroke="#86a8f6" d="M1121.33,-393.87C1225.27,-387.84 1423.67,-382.14 1479.77,-421.43 1556.4,-475.1 1579.78,-593.75 1586.65,-649.03"/>
<polygon fill="#86a8f6" stroke="#86a8f6" points="1583.14,-649.08 1587.74,-658.62 1590.09,-648.29 1583.14,-649.08"/>
<text text-anchor="middle" x="1392.83" y="-382.46" font-family="Helvetica,Arial,sans-serif" font-size="12.00" fill="#86a8f6">6.67e&#45;01</text>
</g>
<!-- 25 -->
<g id="node28" class="node">
<title>25</title>
<ellipse fill="#dddddd" stroke="black" cx="1233.94" cy="-346.43" rx="67.61" ry="18"/>
<text text-anchor="middle" x="1233.94" y="-341.41" font-family="Helvetica,Arial,sans-serif" font-size="12.00">0,0,0,1,0,1,1,1,0,0</text>
</g>
<!-- 20&#45;&gt;25 -->
<g id="edge57" class="edge">
<title>20&#45;&gt;25</title>
<path fill="none" stroke="#3db7d6" d="M1102.1,-385.04C1124.83,-378.33 1152.56,-370.15 1176.64,-363.05"/>
<polygon fill="#3db7d6" stroke="#3db7d6" points="1177.36,-366.48 1185.96,-360.3 1175.38,-359.77 1177.36,-366.48"/>
<text text-anchor="middle" x="1121.24" y="-361.02" font-family="Helvetica,Arial,sans-serif" font-size="12.00" fill="#3db7d6">3.33e&#45;01</text>
</g>
<!-- 21&#45;&gt;27 -->
<g id="edge59" class="edge">
<title>21&#45;&gt;27</title>
<path fill="none" stroke="#d28ef6" d="M1453.94,-164.8C1463.65,-169.95 1473.11,-176.71 1479.77,-185.43 1536.73,-259.91 1575.03,-554.05 1586.09,-648.83"/>
<polygon fill="#d28ef6" stroke="#d28ef6" points="1582.59,-649.07 1587.21,-658.6 1589.54,-648.27 1582.59,-649.07"/>
<text text-anchor="middle" x="1561.24" y="-395.34" font-family="Helvetica,Arial,sans-serif" font-size="12.00" fill="#d28ef6">1.00</text>
</g>
<!-- 22&#45;&gt;27 -->
<g id="edge60" class="edge">
<title>22&#45;&gt;27</title>
<path fill="none" stroke="#f780d2" d="M1453.59,-1081.79C1463.3,-1076.64 1472.85,-1069.94 1479.77,-1061.43 1567.88,-953.12 1585.19,-777.46 1588.57,-708.02"/>
<polygon fill="#f780d2" stroke="#f780d2" points="1592.06,-708.35 1588.98,-698.22 1585.07,-708.06 1592.06,-708.35"/>
<text text-anchor="middle" x="1546.58" y="-888.45" font-family="Helvetica,Arial,sans-serif" font-size="12.00" fill="#f780d2">1.00</text>
</g>
<!-- 23&#45;&gt;27 -->
<g id="edge61" class="edge">
<title>23&#45;&gt;27</title>
<path fill="none" stroke="#f8889a" d="M1450.83,-885.25C1460.99,-879.99 1471.46,-873.37 1479.77,-865.43 1528.19,-819.21 1562.24,-746.95 1578.52,-707.14"/>
<polygon fill="#f8889a" stroke="#f8889a" points="1581.71,-708.58 1582.16,-698 1575.21,-705.99 1581.71,-708.58"/>
<text text-anchor="middle" x="1519.81" y="-788.73" font-family="Helvetica,Arial,sans-serif" font-size="12.00" fill="#f8889a">1.00</text>
</g>
<!-- 24&#45;&gt;27 -->
<g id="edge62" class="edge">
<title>24&#45;&gt;27</title>
<path fill="none" stroke="#ee9537" d="M1471.84,-695.77C1486.99,-693.54 1503.45,-691.11 1519.12,-688.8"/>
<polygon fill="#ee9537" stroke="#ee9537" points="1519.48,-692.28 1528.86,-687.36 1518.46,-685.36 1519.48,-692.28"/>
<text text-anchor="middle" x="1512.52" y="-692.84" font-family="Helvetica,Arial,sans-serif" font-size="12.00" fill="#ee9537">1.00</text>
</g>
<!-- 25&#45;&gt;27 -->
<g id="edge64" class="edge">
<title>25&#45;&gt;27</title>
<path fill="none" stroke="#82b936" d="M1265.91,-330.29C1316.09,-306.61 1415.99,-270.14 1479.77,-317.43 1534.45,-357.97 1572.59,-570.62 1585.01,-649.2"/>
<polygon fill="#82b936" stroke="#82b936" points="1581.49,-649.37 1586.49,-658.71 1588.41,-648.29 1581.49,-649.37"/>
<text text-anchor="middle" x="1535.03" y="-451.68" font-family="Helvetica,Arial,sans-serif" font-size="12.00" fill="#82b936">0.00</text>
</g>
<!-- 25&#45;&gt;29 -->
<g id="edge65" class="edge">
<title>25&#45;&gt;29</title>
<path fill="none" stroke="#38bf85" d="M1247.33,-364.29C1277.73,-408.11 1356.14,-521.12 1392.34,-573.3"/>
<polygon fill="#38bf85" stroke="#38bf85" points="1389.35,-575.13 1397.92,-581.35 1395.1,-571.14 1389.35,-575.13"/>
<text text-anchor="middle" x="1346.85" y="-475.04" font-family="Helvetica,Arial,sans-serif" font-size="12.00" fill="#38bf85">5.00e&#45;01</text>
</g>
<!-- 26 -->
<g id="node29" class="node">
<title>26</title>
<ellipse fill="#dddddd" stroke="black" cx="1412.16" cy="-346.43" rx="67.61" ry="18"/>
<text text-anchor="middle" x="1412.16" y="-341.41" font-family="Helvetica,Arial,sans-serif" font-size="12.00">0,0,0,1,0,1,1,1,1,0</text>
</g>
<!-- 25&#45;&gt;26 -->
<g id="edge63" class="edge">
<title>25&#45;&gt;26</title>
<path fill="none" stroke="#bcaa36" d="M1301.82,-346.43C1312.04,-346.43 1322.67,-346.43 1333.11,-346.43"/>
<polygon fill="#bcaa36" stroke="#bcaa36" points="1332.82,-349.93 1342.82,-346.43 1332.82,-342.93 1332.82,-349.93"/>
<text text-anchor="middle" x="1346.42" y="-335.03" font-family="Helvetica,Arial,sans-serif" font-size="12.00" fill="#bcaa36">5.00e&#45;01</text>
</g>
<!-- 26&#45;&gt;27 -->
<g id="edge66" class="edge">
<title>26&#45;&gt;27</title>
<path fill="none" stroke="#3bbbb2" d="M1452.82,-361.25C1462.65,-366.42 1472.45,-373.09 1479.77,-381.43 1550.17,-461.65 1576.84,-591.06 1585.61,-648.88"/>
<polygon fill="#3bbbb2" stroke="#3bbbb2" points="1582.12,-649.19 1587.01,-658.59 1589.05,-648.19 1582.12,-649.19"/>
<text text-anchor="middle" x="1535.95" y="-489.05" font-family="Helvetica,Arial,sans-serif" font-size="12.00" fill="#3bbbb2">1.00</text>
</g>
<!-- 28&#45;&gt;27 -->
<g id="edge68" class="edge">
<title>28&#45;&gt;27</title>
<path fill="none" stroke="#86a8f6" d="M1707.13,-686.31C1692.81,-686.71 1677.41,-686.79 1662.66,-686.55"/>
<polygon fill="#86a8f6" stroke="#86a8f6" points="1663.13,-683.06 1653.05,-686.33 1662.97,-690.05 1663.13,-683.06"/>
<text text-anchor="middle" x="1667.46" y="-688.03" font-family="Helvetica,Arial,sans-serif" font-size="12.00" fill="#86a8f6">1.00</text>
</g>
</g>
</svg>
