<?xml version="1.0" encoding="UTF-8" standalone="no"?>
<!DOCTYPE svg PUBLIC "-//W3C//DTD SVG 1.1//EN"
 "http://www.w3.org/Graphics/SVG/1.1/DTD/svg11.dtd">
<!-- Generated by graphviz version 13.1.2 (0)
 -->
<!-- Pages: 1 -->
<svg width="378pt" height="108pt"
 viewBox="0.00 0.00 378.00 108.00" xmlns="http://www.w3.org/2000/svg" xmlns:xlink="http://www.w3.org/1999/xlink">
<g id="graph0" class="graph" transform="scale(1 1) rotate(0) translate(36 72)">
<!-- 0 -->
<g id="node1" class="node">
<title>0</title>
<ellipse fill="#eeeeee" stroke="black" cx="27" cy="-18" rx="27" ry="18"/>
<text xml:space="preserve" text-anchor="middle" x="27" y="-12.97" font-family="Helvetica,Arial,sans-serif" font-size="12.00">S</text>
</g>
<!-- 1 -->
<g id="node2" class="node">
<title>1</title>
<ellipse fill="#eeeeee" stroke="black" cx="153" cy="-18" rx="27" ry="18"/>
<text xml:space="preserve" text-anchor="middle" x="153" y="-12.97" font-family="Helvetica,Arial,sans-serif" font-size="12.00">2</text>
</g>
<!-- 0&#45;&gt;1 -->
<g id="edge1" class="edge">
<title>0&#45;&gt;1</title>
<path fill="none" stroke="#b41c46" d="M54.3,-18C71.72,-18 94.86,-18 114.24,-18"/>
<polygon fill="#b41c46" stroke="#b41c46" points="114.23,-21.5 124.23,-18 114.23,-14.5 114.23,-21.5"/>
<text xml:space="preserve" text-anchor="middle" x="78.26" y="-6.6" font-family="Helvetica,Arial,sans-serif" font-size="12.00" fill="#b41c46">1.00</text>
</g>
<!-- 2 -->
<g id="node3" class="node">
<title>2</title>
<ellipse fill="#eeeeee" stroke="black" cx="279" cy="-18" rx="27" ry="18"/>
<text xml:space="preserve" text-anchor="middle" x="279" y="-12.97" font-family="Helvetica,Arial,sans-serif" font-size="12.00">1</text>
</g>
<!-- 1&#45;&gt;2 -->
<g id="edge2" class="edge">
<title>1&#45;&gt;2</title>
<path fill="none" stroke="#85511a" d="M180.3,-18C197.72,-18 220.86,-18 240.24,-18"/>
<polygon fill="#85511a" stroke="#85511a" points="240.23,-21.5 250.23,-18 240.23,-14.5 240.23,-21.5"/>
<text xml:space="preserve" text-anchor="middle" x="204.26" y="-6.6" font-family="Helvetica,Arial,sans-serif" font-size="12.00" fill="#85511a">1.00</text>
</g>
</g>
</svg>
