<?xml version="1.0" encoding="UTF-8" standalone="no"?>
<!DOCTYPE svg PUBLIC "-//W3C//DTD SVG 1.1//EN"
 "http://www.w3.org/Graphics/SVG/1.1/DTD/svg11.dtd">
<!-- Generated by graphviz version 12.0.0 (0)
 -->
<!-- Pages: 1 -->
<svg width="504pt" height="257pt"
 viewBox="0.00 0.00 504.00 256.78" xmlns="http://www.w3.org/2000/svg" xmlns:xlink="http://www.w3.org/1999/xlink">
<g id="graph0" class="graph" transform="scale(0.666667 0.666667) rotate(0) translate(36 349.18)">
<!-- 0 -->
<g id="node1" class="node">
<title>0</title>
<ellipse fill="#eeeeee" stroke="black" cx="27" cy="-187.18" rx="27" ry="18"/>
<text text-anchor="middle" x="27" y="-182.15" font-family="Helvetica,Arial,sans-serif" font-size="12.00">S</text>
</g>
<!-- 1 -->
<g id="node2" class="node">
<title>1</title>
<ellipse fill="white" stroke="black" cx="153" cy="-187.18" rx="27" ry="18"/>
<text text-anchor="middle" x="153" y="-182.15" font-family="Helvetica,Arial,sans-serif" font-size="12.00">2,0</text>
</g>
<!-- 0&#45;&gt;1 -->
<g id="edge1" class="edge">
<title>0&#45;&gt;1</title>
<path fill="none" stroke="black" d="M54.3,-187.18C71.72,-187.18 94.86,-187.18 114.24,-187.18"/>
<polygon fill="black" stroke="black" points="114.23,-190.68 124.23,-187.18 114.23,-183.68 114.23,-190.68"/>
<text text-anchor="middle" x="78.26" y="-175.78" font-family="Helvetica,Arial,sans-serif" font-size="12.00">1.00</text>
</g>
<!-- 2 -->
<g id="node3" class="node">
<title>2</title>
<ellipse fill="white" stroke="black" cx="279" cy="-187.18" rx="27" ry="18"/>
<text text-anchor="middle" x="279" y="-182.15" font-family="Helvetica,Arial,sans-serif" font-size="12.00">1,1</text>
</g>
<!-- 1&#45;&gt;2 -->
<g id="edge2" class="edge">
<title>1&#45;&gt;2</title>
<path fill="none" stroke="black" d="M165.44,-170.72C186.11,-158.41 229.98,-156.88 256.43,-166.12"/>
<polygon fill="black" stroke="black" points="254.66,-169.16 265.21,-170.11 257.55,-162.79 254.66,-169.16"/>
<text text-anchor="middle" x="204.28" y="-148.78" font-family="Helvetica,Arial,sans-serif" font-size="12.00">1.00</text>
</g>
<!-- 3 -->
<g id="node4" class="node">
<title>3</title>
<ellipse fill="#eeeeee" stroke="black" cx="657" cy="-123.18" rx="27" ry="18"/>
<text text-anchor="middle" x="657" y="-118.15" font-family="Helvetica,Arial,sans-serif" font-size="12.00">0,0</text>
</g>
<!-- 1&#45;&gt;3 -->
<g id="edge3" class="edge">
<title>1&#45;&gt;3</title>
<path fill="none" stroke="black" d="M171.7,-173.94C221.03,-138.01 365.57,-39.09 504,-6.18 527.35,-0.63 536.25,3.98 558,-6.18 597.39,-24.56 626.54,-67.43 642.4,-95.85"/>
<polygon fill="black" stroke="black" points="639.29,-97.46 647.1,-104.62 645.46,-94.15 639.29,-97.46"/>
<text text-anchor="middle" x="358.1" y="-43.75" font-family="Helvetica,Arial,sans-serif" font-size="12.00">2.00</text>
</g>
<!-- 2&#45;&gt;1 -->
<g id="edge6" class="edge">
<title>2&#45;&gt;1</title>
<path fill="none" stroke="black" d="M266.58,-203.61C245.94,-215.93 202.07,-217.48 175.6,-208.25"/>
<polygon fill="black" stroke="black" points="177.37,-205.21 166.82,-204.26 174.48,-211.58 177.37,-205.21"/>
<text text-anchor="middle" x="204.51" y="-202.78" font-family="Helvetica,Arial,sans-serif" font-size="12.00">1.00</text>
</g>
<!-- 4 -->
<g id="node5" class="node">
<title>4</title>
<ellipse fill="white" stroke="black" cx="405" cy="-295.18" rx="27" ry="18"/>
<text text-anchor="middle" x="405" y="-290.15" font-family="Helvetica,Arial,sans-serif" font-size="12.00">0,2</text>
</g>
<!-- 2&#45;&gt;4 -->
<g id="edge4" class="edge">
<title>2&#45;&gt;4</title>
<path fill="none" stroke="black" d="M306.3,-187.54C332.75,-203.1 372.36,-239.53 392.03,-267.99"/>
<polygon fill="black" stroke="black" points="389.02,-269.78 397.3,-276.4 394.95,-266.06 389.02,-269.78"/>
<text text-anchor="middle" x="345.19" y="-216.38" font-family="Helvetica,Arial,sans-serif" font-size="12.00">1.00</text>
</g>
<!-- 5 -->
<g id="node6" class="node">
<title>5</title>
<ellipse fill="white" stroke="black" cx="405" cy="-187.18" rx="27" ry="18"/>
<text text-anchor="middle" x="405" y="-182.15" font-family="Helvetica,Arial,sans-serif" font-size="12.00">0,1</text>
</g>
<!-- 2&#45;&gt;5 -->
<g id="edge5" class="edge">
<title>2&#45;&gt;5</title>
<path fill="none" stroke="black" d="M306.3,-187.18C323.72,-187.18 346.86,-187.18 366.24,-187.18"/>
<polygon fill="black" stroke="black" points="366.23,-190.68 376.23,-187.18 366.23,-183.68 366.23,-190.68"/>
<text text-anchor="middle" x="330.26" y="-175.78" font-family="Helvetica,Arial,sans-serif" font-size="12.00">2.00</text>
</g>
<!-- 6 -->
<g id="node7" class="node">
<title>6</title>
<ellipse fill="white" stroke="black" cx="531" cy="-60.18" rx="27" ry="18"/>
<text text-anchor="middle" x="531" y="-55.15" font-family="Helvetica,Arial,sans-serif" font-size="12.00">1,0</text>
</g>
<!-- 2&#45;&gt;6 -->
<g id="edge7" class="edge">
<title>2&#45;&gt;6</title>
<path fill="none" stroke="black" d="M300.09,-175.67C319.78,-164.51 350.71,-147.23 378,-133.18 418.97,-112.07 467.04,-89.31 497.98,-74.92"/>
<polygon fill="black" stroke="black" points="499.19,-78.21 506.79,-70.83 496.25,-71.86 499.19,-78.21"/>
<text text-anchor="middle" x="391.52" y="-109.04" font-family="Helvetica,Arial,sans-serif" font-size="12.00">4.00</text>
</g>
<!-- 4&#45;&gt;2 -->
<g id="edge8" class="edge">
<title>4&#45;&gt;2</title>
<path fill="none" stroke="black" d="M377.51,-294.7C351.1,-279.1 311.71,-242.86 292.05,-214.49"/>
<polygon fill="black" stroke="black" points="295.07,-212.71 286.79,-206.11 289.15,-216.43 295.07,-212.71"/>
<text text-anchor="middle" x="315.54" y="-243.15" font-family="Helvetica,Arial,sans-serif" font-size="12.00">1.00</text>
</g>
<!-- 4&#45;&gt;3 -->
<g id="edge9" class="edge">
<title>4&#45;&gt;3</title>
<path fill="none" stroke="black" d="M427.77,-284.87C458.1,-270.11 514.26,-241.27 558,-210.18 585.5,-190.63 614.02,-164.54 633.16,-146.04"/>
<polygon fill="black" stroke="black" points="635.46,-148.68 640.17,-139.18 630.57,-143.67 635.46,-148.68"/>
<text text-anchor="middle" x="546.39" y="-198.77" font-family="Helvetica,Arial,sans-serif" font-size="12.00">4.00</text>
</g>
<!-- 5&#45;&gt;3 -->
<g id="edge11" class="edge">
<title>5&#45;&gt;3</title>
<path fill="none" stroke="black" d="M430.43,-180.92C474.86,-169.55 569.07,-145.43 620.56,-132.25"/>
<polygon fill="black" stroke="black" points="621.19,-135.7 630.01,-129.83 619.45,-128.92 621.19,-135.7"/>
<text text-anchor="middle" x="519.14" y="-143.84" font-family="Helvetica,Arial,sans-serif" font-size="12.00">4.00</text>
</g>
<!-- 5&#45;&gt;6 -->
<g id="edge10" class="edge">
<title>5&#45;&gt;6</title>
<path fill="none" stroke="black" d="M411.65,-169.26C426.25,-140.3 466.14,-95.33 495.59,-70.95"/>
<polygon fill="black" stroke="black" points="497.45,-73.94 503.17,-65.02 493.14,-68.43 497.45,-73.94"/>
<text text-anchor="middle" x="441.57" y="-101.14" font-family="Helvetica,Arial,sans-serif" font-size="12.00">1.00</text>
</g>
<!-- 6&#45;&gt;3 -->
<g id="edge13" class="edge">
<title>6&#45;&gt;3</title>
<path fill="none" stroke="black" d="M553.03,-70.86C572.72,-80.86 602.38,-95.93 624.81,-107.33"/>
<polygon fill="black" stroke="black" points="623.01,-110.34 633.51,-111.75 626.18,-104.1 623.01,-110.34"/>
<text text-anchor="middle" x="582.23" y="-80.2" font-family="Helvetica,Arial,sans-serif" font-size="12.00">2.00</text>
</g>
<!-- 6&#45;&gt;5 -->
<g id="edge12" class="edge">
<title>6&#45;&gt;5</title>
<path fill="none" stroke="black" d="M524.5,-77.78C510.05,-106.7 470.04,-151.85 440.49,-176.34"/>
<polygon fill="black" stroke="black" points="438.59,-173.37 432.88,-182.3 442.91,-178.88 438.59,-173.37"/>
<text text-anchor="middle" x="471.38" y="-123.19" font-family="Helvetica,Arial,sans-serif" font-size="12.00">1.00</text>
</g>
</g>
</svg>
