<?xml version="1.0" encoding="UTF-8" standalone="no"?>
<!DOCTYPE svg PUBLIC "-//W3C//DTD SVG 1.1//EN"
 "http://www.w3.org/Graphics/SVG/1.1/DTD/svg11.dtd">
<!-- Generated by graphviz version 13.1.1 (0)
 -->
<!-- Pages: 1 -->
<svg width="504pt" height="229pt"
 viewBox="0.00 0.00 504.00 229.00" xmlns="http://www.w3.org/2000/svg" xmlns:xlink="http://www.w3.org/1999/xlink">
<g id="graph0" class="graph" transform="scale(0.666667 0.666667) rotate(0) translate(36 307.2)">
<polygon fill="#1f1f1f" stroke="none" points="-36,36 -36,-307.2 720,-307.2 720,36 -36,36"/>
<!-- 0 -->
<g id="node1" class="node">
<title>0</title>
<ellipse fill="#777777" stroke="black" cx="27" cy="-184.74" rx="27" ry="18"/>
<text xml:space="preserve" text-anchor="middle" x="27" y="-179.72" font-family="Helvetica,Arial,sans-serif" font-size="12.00">S</text>
</g>
<!-- 3 -->
<g id="node2" class="node">
<title>3</title>
<ellipse fill="#c6c6c6" stroke="black" cx="153" cy="-184.74" rx="27" ry="18"/>
<text xml:space="preserve" text-anchor="middle" x="153" y="-179.72" font-family="Helvetica,Arial,sans-serif" font-size="12.00">2,0</text>
</g>
<!-- 0&#45;&gt;3 -->
<g id="edge1" class="edge">
<title>0&#45;&gt;3</title>
<path fill="none" stroke="#f8889a" d="M54.3,-184.74C71.72,-184.74 94.86,-184.74 114.24,-184.74"/>
<polygon fill="#f8889a" stroke="#f8889a" points="114.23,-188.24 124.23,-184.74 114.23,-181.24 114.23,-188.24"/>
<text xml:space="preserve" text-anchor="middle" x="78.26" y="-173.34" font-family="Helvetica,Arial,sans-serif" font-size="12.00" fill="#f8889a">1.00</text>
</g>
<!-- 2 -->
<g id="node4" class="node">
<title>2</title>
<ellipse fill="#c6c6c6" stroke="black" cx="279" cy="-130.74" rx="27" ry="18"/>
<text xml:space="preserve" text-anchor="middle" x="279" y="-125.72" font-family="Helvetica,Arial,sans-serif" font-size="12.00">1,1</text>
</g>
<!-- 3&#45;&gt;2 -->
<g id="edge8" class="edge">
<title>3&#45;&gt;2</title>
<path fill="none" stroke="#86a8f6" d="M161.76,-167.42C178.37,-147.2 218.16,-126.57 246.56,-120.59"/>
<polygon fill="#86a8f6" stroke="#86a8f6" points="247.03,-124.06 256.43,-119.18 246.04,-117.13 247.03,-124.06"/>
<text xml:space="preserve" text-anchor="middle" x="194.39" y="-124.01" font-family="Helvetica,Arial,sans-serif" font-size="12.00" fill="#86a8f6">1.00</text>
</g>
<!-- 6 -->
<g id="node5" class="node">
<title>6</title>
<ellipse fill="#777777" stroke="black" cx="657" cy="-129.74" rx="27" ry="18"/>
<text xml:space="preserve" text-anchor="middle" x="657" y="-124.72" font-family="Helvetica,Arial,sans-serif" font-size="12.00">0,0</text>
</g>
<!-- 3&#45;&gt;6 -->
<g id="edge9" class="edge">
<title>3&#45;&gt;6</title>
<path fill="none" stroke="#d28ef6" d="M174.49,-195.8C235.88,-227.32 422.41,-311.39 558,-247.74 597.72,-229.1 626.91,-185.57 642.67,-156.92"/>
<polygon fill="#d28ef6" stroke="#d28ef6" points="645.57,-158.92 647.15,-148.45 639.38,-155.65 645.57,-158.92"/>
<text xml:space="preserve" text-anchor="middle" x="389.07" y="-257.07" font-family="Helvetica,Arial,sans-serif" font-size="12.00" fill="#d28ef6">2.00</text>
</g>
<!-- 1 -->
<g id="node3" class="node">
<title>1</title>
<ellipse fill="#c6c6c6" stroke="black" cx="153" cy="-76.74" rx="27" ry="18"/>
<text xml:space="preserve" text-anchor="middle" x="153" y="-71.72" font-family="Helvetica,Arial,sans-serif" font-size="12.00">0,2</text>
</g>
<!-- 1&#45;&gt;2 -->
<g id="edge2" class="edge">
<title>1&#45;&gt;2</title>
<path fill="none" stroke="#ee9537" d="M174.2,-64.98C198.92,-66.54 240.23,-85.19 262.55,-105.45"/>
<polygon fill="#ee9537" stroke="#ee9537" points="259.85,-107.69 269.31,-112.47 264.9,-102.83 259.85,-107.69"/>
<text xml:space="preserve" text-anchor="middle" x="214.46" y="-70.05" font-family="Helvetica,Arial,sans-serif" font-size="12.00" fill="#ee9537">1.00</text>
</g>
<!-- 1&#45;&gt;6 -->
<g id="edge3" class="edge">
<title>1&#45;&gt;6</title>
<path fill="none" stroke="#bcaa36" d="M174.58,-65.49C220.69,-41.73 335.77,9.65 432,-12.74 509.18,-30.7 588.95,-81.56 629.24,-109.95"/>
<polygon fill="#bcaa36" stroke="#bcaa36" points="626.98,-112.64 637.15,-115.61 631.05,-106.94 626.98,-112.64"/>
<text xml:space="preserve" text-anchor="middle" x="420.4" y="-1.35" font-family="Helvetica,Arial,sans-serif" font-size="12.00" fill="#bcaa36">4.00</text>
</g>
<!-- 2&#45;&gt;3 -->
<g id="edge5" class="edge">
<title>2&#45;&gt;3</title>
<path fill="none" stroke="#38bf85" d="M270.36,-147.93C253.77,-168.24 213.69,-189.01 185.22,-194.94"/>
<polygon fill="#38bf85" stroke="#38bf85" points="185.1,-191.42 175.7,-196.3 186.09,-198.35 185.1,-191.42"/>
<text xml:space="preserve" text-anchor="middle" x="214.32" y="-168.7" font-family="Helvetica,Arial,sans-serif" font-size="12.00" fill="#38bf85">1.00</text>
</g>
<!-- 2&#45;&gt;1 -->
<g id="edge4" class="edge">
<title>2&#45;&gt;1</title>
<path fill="none" stroke="#82b936" d="M257.93,-142.52C233.28,-141.01 191.99,-122.41 169.59,-102.18"/>
<polygon fill="#82b936" stroke="#82b936" points="172.28,-99.91 162.81,-95.16 167.24,-104.78 172.28,-99.91"/>
<text xml:space="preserve" text-anchor="middle" x="217.74" y="-114.73" font-family="Helvetica,Arial,sans-serif" font-size="12.00" fill="#82b936">1.00</text>
</g>
<!-- 4 -->
<g id="node6" class="node">
<title>4</title>
<ellipse fill="#c6c6c6" stroke="black" cx="405" cy="-66.74" rx="27" ry="18"/>
<text xml:space="preserve" text-anchor="middle" x="405" y="-61.72" font-family="Helvetica,Arial,sans-serif" font-size="12.00">1,0</text>
</g>
<!-- 2&#45;&gt;4 -->
<g id="edge6" class="edge">
<title>2&#45;&gt;4</title>
<path fill="none" stroke="#3bbbb2" d="M301.03,-119.89C320.72,-109.73 350.38,-94.42 372.81,-82.84"/>
<polygon fill="#3bbbb2" stroke="#3bbbb2" points="374.24,-86.04 381.52,-78.35 371.03,-79.82 374.24,-86.04"/>
<text xml:space="preserve" text-anchor="middle" x="330.23" y="-87.42" font-family="Helvetica,Arial,sans-serif" font-size="12.00" fill="#3bbbb2">4.00</text>
</g>
<!-- 5 -->
<g id="node7" class="node">
<title>5</title>
<ellipse fill="#c6c6c6" stroke="black" cx="531" cy="-193.74" rx="27" ry="18"/>
<text xml:space="preserve" text-anchor="middle" x="531" y="-188.72" font-family="Helvetica,Arial,sans-serif" font-size="12.00">0,1</text>
</g>
<!-- 2&#45;&gt;5 -->
<g id="edge7" class="edge">
<title>2&#45;&gt;5</title>
<path fill="none" stroke="#3db7d6" d="M304.43,-136.9C348.86,-148.1 443.07,-171.84 494.56,-184.81"/>
<polygon fill="#3db7d6" stroke="#3db7d6" points="493.45,-188.14 504.01,-187.19 495.17,-181.36 493.45,-188.14"/>
<text xml:space="preserve" text-anchor="middle" x="393.14" y="-150.79" font-family="Helvetica,Arial,sans-serif" font-size="12.00" fill="#3db7d6">2.00</text>
</g>
<!-- 4&#45;&gt;6 -->
<g id="edge11" class="edge">
<title>4&#45;&gt;6</title>
<path fill="none" stroke="#f8889a" d="M430.43,-72.9C474.86,-84.1 569.07,-107.84 620.56,-120.81"/>
<polygon fill="#f8889a" stroke="#f8889a" points="619.45,-124.14 630.01,-123.19 621.17,-117.36 619.45,-124.14"/>
<text xml:space="preserve" text-anchor="middle" x="519.14" y="-86.79" font-family="Helvetica,Arial,sans-serif" font-size="12.00" fill="#f8889a">2.00</text>
</g>
<!-- 4&#45;&gt;5 -->
<g id="edge10" class="edge">
<title>4&#45;&gt;5</title>
<path fill="none" stroke="#f780d2" d="M431.69,-70.69C458.58,-90.42 499.52,-134.42 518.99,-166.27"/>
<polygon fill="#f780d2" stroke="#f780d2" points="515.83,-167.8 523.77,-174.82 521.94,-164.38 515.83,-167.8"/>
<text xml:space="preserve" text-anchor="middle" x="471.35" y="-107.89" font-family="Helvetica,Arial,sans-serif" font-size="12.00" fill="#f780d2">1.00</text>
</g>
<!-- 5&#45;&gt;6 -->
<g id="edge13" class="edge">
<title>5&#45;&gt;6</title>
<path fill="none" stroke="#bcaa36" d="M553.03,-182.89C572.72,-172.73 602.38,-157.42 624.81,-145.84"/>
<polygon fill="#bcaa36" stroke="#bcaa36" points="626.24,-149.04 633.52,-141.35 623.03,-142.82 626.24,-149.04"/>
<text xml:space="preserve" text-anchor="middle" x="582.23" y="-150.42" font-family="Helvetica,Arial,sans-serif" font-size="12.00" fill="#bcaa36">4.00</text>
</g>
<!-- 5&#45;&gt;4 -->
<g id="edge12" class="edge">
<title>5&#45;&gt;4</title>
<path fill="none" stroke="#ee9537" d="M504.36,-189.84C477.56,-170.19 436.76,-126.38 417.21,-94.53"/>
<polygon fill="#ee9537" stroke="#ee9537" points="420.35,-92.98 412.39,-85.98 414.25,-96.41 420.35,-92.98"/>
<text xml:space="preserve" text-anchor="middle" x="441.6" y="-130.02" font-family="Helvetica,Arial,sans-serif" font-size="12.00" fill="#ee9537">1.00</text>
</g>
</g>
</svg>
