<?xml version="1.0" encoding="UTF-8" standalone="no"?>
<!DOCTYPE svg PUBLIC "-//W3C//DTD SVG 1.1//EN"
 "http://www.w3.org/Graphics/SVG/1.1/DTD/svg11.dtd">
<!-- Generated by graphviz version 2.49.1 (0)
 -->
<!-- Pages: 1 -->
<svg width="424pt" height="566pt"
 viewBox="0.00 0.00 424.49 566.00" xmlns="http://www.w3.org/2000/svg" xmlns:xlink="http://www.w3.org/1999/xlink">
<g id="graph0" class="graph" transform="scale(1 1) rotate(0) translate(4 562)">
<polygon fill="white" stroke="transparent" points="-4,4 -4,-562 420.49,-562 420.49,4 -4,4"/>
<!-- S -->
<g id="node1" class="node">
<title>S</title>
<ellipse fill="none" stroke="black" cx="168.25" cy="-540" rx="27" ry="18"/>
<text text-anchor="middle" x="168.25" y="-536.3" font-family="Times,serif" font-size="14.00">S</text>
</g>
<!-- 1 -->
<g id="node2" class="node">
<title>1</title>
<ellipse fill="none" stroke="black" cx="168.25" cy="-453" rx="55.49" ry="18"/>
<text text-anchor="middle" x="168.25" y="-449.3" font-family="Times,serif" font-size="14.00">[6 0 0 0 0 0]</text>
</g>
<!-- S&#45;&gt;1 -->
<g id="edge1" class="edge">
<title>S&#45;&gt;1</title>
<path fill="none" stroke="black" d="M168.25,-521.8C168.25,-510.16 168.25,-494.55 168.25,-481.24"/>
<polygon fill="black" stroke="black" points="171.75,-481.18 168.25,-471.18 164.75,-481.18 171.75,-481.18"/>
<text text-anchor="middle" x="177.25" y="-492.8" font-family="Times,serif" font-size="14.00">1.0</text>
</g>
<!-- 2 -->
<g id="node3" class="node">
<title>2</title>
<ellipse fill="none" stroke="black" cx="168.25" cy="-366" rx="55.49" ry="18"/>
<text text-anchor="middle" x="168.25" y="-362.3" font-family="Times,serif" font-size="14.00">[4 1 0 0 0 0]</text>
</g>
<!-- 1&#45;&gt;2 -->
<g id="edge2" class="edge">
<title>1&#45;&gt;2</title>
<path fill="none" stroke="black" d="M168.25,-434.8C168.25,-423.16 168.25,-407.55 168.25,-394.24"/>
<polygon fill="black" stroke="black" points="171.75,-394.18 168.25,-384.18 164.75,-394.18 171.75,-394.18"/>
<text text-anchor="middle" x="180.75" y="-405.8" font-family="Times,serif" font-size="14.00">15.0</text>
</g>
<!-- 3 -->
<g id="node4" class="node">
<title>3</title>
<ellipse fill="none" stroke="black" cx="233.25" cy="-279" rx="55.49" ry="18"/>
<text text-anchor="middle" x="233.25" y="-275.3" font-family="Times,serif" font-size="14.00">[2 2 0 0 0 0]</text>
</g>
<!-- 2&#45;&gt;3 -->
<g id="edge3" class="edge">
<title>2&#45;&gt;3</title>
<path fill="none" stroke="black" d="M181.09,-348.21C190.52,-335.87 203.5,-318.89 214.15,-304.97"/>
<polygon fill="black" stroke="black" points="217.14,-306.83 220.43,-296.76 211.58,-302.58 217.14,-306.83"/>
<text text-anchor="middle" x="213.25" y="-318.8" font-family="Times,serif" font-size="14.00">6.0</text>
</g>
<!-- 4 -->
<g id="node5" class="node">
<title>4</title>
<ellipse fill="none" stroke="black" cx="105.25" cy="-279" rx="55.49" ry="18"/>
<text text-anchor="middle" x="105.25" y="-275.3" font-family="Times,serif" font-size="14.00">[3 0 1 0 0 0]</text>
</g>
<!-- 2&#45;&gt;4 -->
<g id="edge4" class="edge">
<title>2&#45;&gt;4</title>
<path fill="none" stroke="black" d="M155.8,-348.21C146.65,-335.87 134.07,-318.89 123.75,-304.97"/>
<polygon fill="black" stroke="black" points="126.43,-302.71 117.67,-296.76 120.81,-306.88 126.43,-302.71"/>
<text text-anchor="middle" x="149.25" y="-318.8" font-family="Times,serif" font-size="14.00">4.0</text>
</g>
<!-- 5 -->
<g id="node6" class="node">
<title>5</title>
<ellipse fill="none" stroke="black" cx="361.25" cy="-192" rx="55.49" ry="18"/>
<text text-anchor="middle" x="361.25" y="-188.3" font-family="Times,serif" font-size="14.00">[0 3 0 0 0 0]</text>
</g>
<!-- 3&#45;&gt;5 -->
<g id="edge5" class="edge">
<title>3&#45;&gt;5</title>
<path fill="none" stroke="black" d="M256.42,-262.61C276.78,-249.09 306.58,-229.3 329.21,-214.27"/>
<polygon fill="black" stroke="black" points="331.41,-217.01 337.81,-208.57 327.54,-211.18 331.41,-217.01"/>
<text text-anchor="middle" x="313.25" y="-231.8" font-family="Times,serif" font-size="14.00">1.0</text>
</g>
<!-- 6 -->
<g id="node7" class="node">
<title>6</title>
<ellipse fill="none" stroke="black" cx="105.25" cy="-192" rx="55.49" ry="18"/>
<text text-anchor="middle" x="105.25" y="-188.3" font-family="Times,serif" font-size="14.00">[1 1 1 0 0 0]</text>
</g>
<!-- 3&#45;&gt;6 -->
<g id="edge6" class="edge">
<title>3&#45;&gt;6</title>
<path fill="none" stroke="black" d="M214.53,-262.06C202.08,-251.79 185.15,-238.46 169.25,-228 161,-222.58 151.84,-217.21 143.1,-212.37"/>
<polygon fill="black" stroke="black" points="144.64,-209.23 134.18,-207.54 141.3,-215.38 144.64,-209.23"/>
<text text-anchor="middle" x="198.25" y="-231.8" font-family="Times,serif" font-size="14.00">4.0</text>
</g>
<!-- 7 -->
<g id="node8" class="node">
<title>7</title>
<ellipse fill="none" stroke="black" cx="233.25" cy="-192" rx="55.49" ry="18"/>
<text text-anchor="middle" x="233.25" y="-188.3" font-family="Times,serif" font-size="14.00">[2 0 0 1 0 0]</text>
</g>
<!-- 3&#45;&gt;7 -->
<g id="edge7" class="edge">
<title>3&#45;&gt;7</title>
<path fill="none" stroke="black" d="M233.25,-260.8C233.25,-249.16 233.25,-233.55 233.25,-220.24"/>
<polygon fill="black" stroke="black" points="236.75,-220.18 233.25,-210.18 229.75,-220.18 236.75,-220.18"/>
<text text-anchor="middle" x="242.25" y="-231.8" font-family="Times,serif" font-size="14.00">1.0</text>
</g>
<!-- 4&#45;&gt;6 -->
<g id="edge8" class="edge">
<title>4&#45;&gt;6</title>
<path fill="none" stroke="black" d="M105.25,-260.8C105.25,-249.16 105.25,-233.55 105.25,-220.24"/>
<polygon fill="black" stroke="black" points="108.75,-220.18 105.25,-210.18 101.75,-220.18 108.75,-220.18"/>
<text text-anchor="middle" x="114.25" y="-231.8" font-family="Times,serif" font-size="14.00">3.0</text>
</g>
<!-- 4&#45;&gt;7 -->
<g id="edge9" class="edge">
<title>4&#45;&gt;7</title>
<path fill="none" stroke="black" d="M116.06,-261.32C123.71,-250.62 134.78,-237.07 147.25,-228 158.25,-219.99 171.36,-213.45 183.98,-208.29"/>
<polygon fill="black" stroke="black" points="185.43,-211.48 193.5,-204.61 182.91,-204.95 185.43,-211.48"/>
<text text-anchor="middle" x="156.25" y="-231.8" font-family="Times,serif" font-size="14.00">3.0</text>
</g>
<!-- 9 -->
<g id="node10" class="node">
<title>9</title>
<ellipse fill="none" stroke="black" cx="311.25" cy="-105" rx="55.49" ry="18"/>
<text text-anchor="middle" x="311.25" y="-101.3" font-family="Times,serif" font-size="14.00">[0 0 2 0 0 0]</text>
</g>
<!-- 5&#45;&gt;9 -->
<g id="edge10" class="edge">
<title>5&#45;&gt;9</title>
<path fill="none" stroke="black" d="M351.37,-174.21C344.24,-162.1 334.5,-145.53 326.4,-131.76"/>
<polygon fill="black" stroke="black" points="329.19,-129.6 321.1,-122.76 323.16,-133.15 329.19,-129.6"/>
<text text-anchor="middle" x="347.25" y="-144.8" font-family="Times,serif" font-size="14.00">3.0</text>
</g>
<!-- 8 -->
<g id="node9" class="node">
<title>8</title>
<ellipse fill="none" stroke="black" cx="55.25" cy="-105" rx="55.49" ry="18"/>
<text text-anchor="middle" x="55.25" y="-101.3" font-family="Times,serif" font-size="14.00">[0 1 0 1 0 0]</text>
</g>
<!-- 6&#45;&gt;8 -->
<g id="edge11" class="edge">
<title>6&#45;&gt;8</title>
<path fill="none" stroke="black" d="M95.37,-174.21C88.24,-162.1 78.5,-145.53 70.4,-131.76"/>
<polygon fill="black" stroke="black" points="73.19,-129.6 65.1,-122.76 67.16,-133.15 73.19,-129.6"/>
<text text-anchor="middle" x="92.25" y="-144.8" font-family="Times,serif" font-size="14.00">1.0</text>
</g>
<!-- 6&#45;&gt;9 -->
<g id="edge12" class="edge">
<title>6&#45;&gt;9</title>
<path fill="none" stroke="black" d="M131.31,-176.02C141.65,-169.95 153.6,-162.78 164.25,-156 174.23,-149.64 175.52,-145.99 186.25,-141 189.83,-139.33 227.12,-128.95 260.04,-119.93"/>
<polygon fill="black" stroke="black" points="261.35,-123.2 270.08,-117.18 259.51,-116.45 261.35,-123.2"/>
<text text-anchor="middle" x="195.25" y="-144.8" font-family="Times,serif" font-size="14.00">1.0</text>
</g>
<!-- 10 -->
<g id="node11" class="node">
<title>10</title>
<ellipse fill="none" stroke="black" cx="183.25" cy="-105" rx="55.49" ry="18"/>
<text text-anchor="middle" x="183.25" y="-101.3" font-family="Times,serif" font-size="14.00">[1 0 0 0 1 0]</text>
</g>
<!-- 6&#45;&gt;10 -->
<g id="edge13" class="edge">
<title>6&#45;&gt;10</title>
<path fill="none" stroke="black" d="M118.04,-174.35C125.88,-164.4 136.3,-151.68 146.25,-141 149.84,-137.14 153.78,-133.17 157.69,-129.36"/>
<polygon fill="black" stroke="black" points="160.28,-131.73 165.11,-122.29 155.46,-126.66 160.28,-131.73"/>
<text text-anchor="middle" x="155.25" y="-144.8" font-family="Times,serif" font-size="14.00">1.0</text>
</g>
<!-- 7&#45;&gt;9 -->
<g id="edge14" class="edge">
<title>7&#45;&gt;9</title>
<path fill="none" stroke="black" d="M248.28,-174.61C259.94,-161.91 276.25,-144.13 289.35,-129.86"/>
<polygon fill="black" stroke="black" points="292.07,-132.07 296.25,-122.34 286.91,-127.34 292.07,-132.07"/>
<text text-anchor="middle" x="285.25" y="-144.8" font-family="Times,serif" font-size="14.00">1.0</text>
</g>
<!-- 7&#45;&gt;10 -->
<g id="edge15" class="edge">
<title>7&#45;&gt;10</title>
<path fill="none" stroke="black" d="M225.55,-173.98C220.9,-164.14 214.65,-151.64 208.25,-141 206.28,-137.74 204.11,-134.39 201.88,-131.11"/>
<polygon fill="black" stroke="black" points="204.61,-128.9 196,-122.73 198.88,-132.92 204.61,-128.9"/>
<text text-anchor="middle" x="225.25" y="-144.8" font-family="Times,serif" font-size="14.00">2.0</text>
</g>
<!-- 11 -->
<g id="node12" class="node">
<title>11</title>
<ellipse fill="none" stroke="black" cx="183.25" cy="-18" rx="55.49" ry="18"/>
<text text-anchor="middle" x="183.25" y="-14.3" font-family="Times,serif" font-size="14.00">[0 0 0 0 0 1]</text>
</g>
<!-- 8&#45;&gt;11 -->
<g id="edge16" class="edge">
<title>8&#45;&gt;11</title>
<path fill="none" stroke="black" d="M78.42,-88.61C98.78,-75.09 128.58,-55.3 151.21,-40.27"/>
<polygon fill="black" stroke="black" points="153.41,-43.01 159.81,-34.57 149.54,-37.18 153.41,-43.01"/>
<text text-anchor="middle" x="135.25" y="-57.8" font-family="Times,serif" font-size="14.00">1.0</text>
</g>
<!-- 9&#45;&gt;11 -->
<g id="edge17" class="edge">
<title>9&#45;&gt;11</title>
<path fill="none" stroke="black" d="M288.07,-88.61C267.71,-75.09 237.91,-55.3 215.28,-40.27"/>
<polygon fill="black" stroke="black" points="216.95,-37.18 206.69,-34.57 213.08,-43.01 216.95,-37.18"/>
<text text-anchor="middle" x="263.25" y="-57.8" font-family="Times,serif" font-size="14.00">1.0</text>
</g>
<!-- 10&#45;&gt;11 -->
<g id="edge18" class="edge">
<title>10&#45;&gt;11</title>
<path fill="none" stroke="black" d="M183.25,-86.8C183.25,-75.16 183.25,-59.55 183.25,-46.24"/>
<polygon fill="black" stroke="black" points="186.75,-46.18 183.25,-36.18 179.75,-46.18 186.75,-46.18"/>
<text text-anchor="middle" x="192.25" y="-57.8" font-family="Times,serif" font-size="14.00">1.0</text>
</g>
</g>
</svg>
