<?xml version="1.0" encoding="UTF-8" standalone="no"?>
<!DOCTYPE svg PUBLIC "-//W3C//DTD SVG 1.1//EN"
 "http://www.w3.org/Graphics/SVG/1.1/DTD/svg11.dtd">
<!-- Generated by graphviz version 13.1.2 (0)
 -->
<!-- Pages: 1 -->
<svg width="504pt" height="366pt"
 viewBox="0.00 0.00 504.00 366.00" xmlns="http://www.w3.org/2000/svg" xmlns:xlink="http://www.w3.org/1999/xlink">
<g id="graph0" class="graph" transform="scale(0.965517 0.965517) rotate(0) translate(36 343)">
<g id="clust1" class="cluster">
<title>cluster_#rabbits: 2</title>
<polygon fill="whitesmoke" stroke="whitesmoke" points="118,-8 118,-299 197,-299 197,-8 118,-8"/>
<text xml:space="preserve" text-anchor="middle" x="157.5" y="-281.7" font-family="Helvetica,Arial,sans-serif" font-size="14.00">#rabbits: 2</text>
</g>
<g id="clust2" class="cluster">
<title>cluster_#rabbits: 1</title>
<polygon fill="whitesmoke" stroke="whitesmoke" points="253,-62 253,-245 332,-245 332,-62 253,-62"/>
<text xml:space="preserve" text-anchor="middle" x="292.5" y="-227.7" font-family="Helvetica,Arial,sans-serif" font-size="14.00">#rabbits: 1</text>
</g>
<!-- 0 -->
<g id="node1" class="node">
<title>0</title>
<ellipse fill="#eeeeee" stroke="black" cx="27" cy="-250" rx="27" ry="18"/>
<text xml:space="preserve" text-anchor="middle" x="27" y="-244.97" font-family="Helvetica,Arial,sans-serif" font-size="12.00">S</text>
</g>
<!-- 1 -->
<g id="node2" class="node">
<title>1</title>
<ellipse fill="#eeeeee" stroke="black" cx="157" cy="-250" rx="27" ry="18"/>
<text xml:space="preserve" text-anchor="middle" x="157" y="-244.97" font-family="Helvetica,Arial,sans-serif" font-size="12.00">2,0</text>
</g>
<!-- 0&#45;&gt;1 -->
<g id="edge1" class="edge">
<title>0&#45;&gt;1</title>
<path fill="none" stroke="#b41c46" d="M54.21,-250C72.76,-250 97.91,-250 118.57,-250"/>
<polygon fill="#b41c46" stroke="#b41c46" points="118.31,-253.5 128.31,-250 118.31,-246.5 118.31,-253.5"/>
<text xml:space="preserve" text-anchor="middle" x="80.29" y="-238.6" font-family="Helvetica,Arial,sans-serif" font-size="12.00" fill="#b41c46">1.00</text>
</g>
<!-- 2 -->
<g id="node3" class="node">
<title>2</title>
<ellipse fill="#eeeeee" stroke="black" cx="157" cy="-142" rx="27" ry="18"/>
<text xml:space="preserve" text-anchor="middle" x="157" y="-136.97" font-family="Helvetica,Arial,sans-serif" font-size="12.00">1,1</text>
</g>
<!-- 1&#45;&gt;2 -->
<g id="edge2" class="edge">
<title>1&#45;&gt;2</title>
<path fill="none" stroke="#85511a" d="M167.6,-233.27C178.64,-211.96 180.2,-190.65 172.31,-169.34"/>
<polygon fill="#85511a" stroke="#85511a" points="175.54,-167.98 168.29,-160.26 169.14,-170.82 175.54,-167.98"/>
<text xml:space="preserve" text-anchor="middle" x="165.62" y="-184.91" font-family="Helvetica,Arial,sans-serif" font-size="12.00" fill="#85511a">1.00</text>
</g>
<!-- 3 -->
<g id="node4" class="node">
<title>3</title>
<ellipse fill="#eeeeee" stroke="black" cx="423" cy="-142" rx="27" ry="18"/>
<text xml:space="preserve" text-anchor="middle" x="423" y="-136.97" font-family="Helvetica,Arial,sans-serif" font-size="12.00">0,0</text>
</g>
<!-- 1&#45;&gt;3 -->
<g id="edge3" class="edge">
<title>1&#45;&gt;3</title>
<path fill="none" stroke="#685e1a" d="M180.86,-258.84C215.57,-270.74 282.74,-287.75 332,-263 370.58,-243.61 396.81,-198.98 410.58,-169.68"/>
<polygon fill="#685e1a" stroke="#685e1a" points="413.73,-171.23 414.63,-160.67 407.34,-168.36 413.73,-171.23"/>
<text xml:space="preserve" text-anchor="middle" x="320.4" y="-251.59" font-family="Helvetica,Arial,sans-serif" font-size="12.00" fill="#685e1a">2.00</text>
</g>
<!-- 2&#45;&gt;1 -->
<g id="edge6" class="edge">
<title>2&#45;&gt;1</title>
<path fill="none" stroke="#1d6862" d="M146.32,-158.88C135.33,-180.19 133.81,-201.5 141.74,-222.81"/>
<polygon fill="#1d6862" stroke="#1d6862" points="138.52,-224.17 145.78,-231.89 144.91,-221.33 138.52,-224.17"/>
<text xml:space="preserve" text-anchor="middle" x="125.13" y="-184.44" font-family="Helvetica,Arial,sans-serif" font-size="12.00" fill="#1d6862">1.00</text>
</g>
<!-- 4 -->
<g id="node5" class="node">
<title>4</title>
<ellipse fill="#eeeeee" stroke="black" cx="157" cy="-34" rx="27" ry="18"/>
<text xml:space="preserve" text-anchor="middle" x="157" y="-28.98" font-family="Helvetica,Arial,sans-serif" font-size="12.00">0,2</text>
</g>
<!-- 2&#45;&gt;4 -->
<g id="edge4" class="edge">
<title>2&#45;&gt;4</title>
<path fill="none" stroke="#46671a" d="M167.6,-125.27C178.64,-103.96 180.2,-82.65 172.31,-61.34"/>
<polygon fill="#46671a" stroke="#46671a" points="175.54,-59.98 168.29,-52.26 169.14,-62.82 175.54,-59.98"/>
<text xml:space="preserve" text-anchor="middle" x="165.62" y="-76.91" font-family="Helvetica,Arial,sans-serif" font-size="12.00" fill="#46671a">1.00</text>
</g>
<!-- 5 -->
<g id="node6" class="node">
<title>5</title>
<ellipse fill="#eeeeee" stroke="black" cx="292" cy="-88" rx="27" ry="18"/>
<text xml:space="preserve" text-anchor="middle" x="292" y="-82.97" font-family="Helvetica,Arial,sans-serif" font-size="12.00">0,1</text>
</g>
<!-- 2&#45;&gt;5 -->
<g id="edge5" class="edge">
<title>2&#45;&gt;5</title>
<path fill="none" stroke="#1b6a48" d="M180.56,-132.84C201.77,-124.23 233.77,-111.24 257.88,-101.45"/>
<polygon fill="#1b6a48" stroke="#1b6a48" points="258.98,-104.78 266.93,-97.77 256.34,-98.29 258.98,-104.78"/>
<text xml:space="preserve" text-anchor="middle" x="212.93" y="-103.58" font-family="Helvetica,Arial,sans-serif" font-size="12.00" fill="#1b6a48">2.00</text>
</g>
<!-- 6 -->
<g id="node7" class="node">
<title>6</title>
<ellipse fill="#eeeeee" stroke="black" cx="292" cy="-196" rx="27" ry="18"/>
<text xml:space="preserve" text-anchor="middle" x="292" y="-190.97" font-family="Helvetica,Arial,sans-serif" font-size="12.00">1,0</text>
</g>
<!-- 2&#45;&gt;6 -->
<g id="edge7" class="edge">
<title>2&#45;&gt;6</title>
<path fill="none" stroke="#1e6577" d="M180.56,-151.16C201.77,-159.77 233.77,-172.76 257.88,-182.55"/>
<polygon fill="#1e6577" stroke="#1e6577" points="256.34,-185.71 266.93,-186.23 258.98,-179.22 256.34,-185.71"/>
<text xml:space="preserve" text-anchor="middle" x="212.93" y="-157.62" font-family="Helvetica,Arial,sans-serif" font-size="12.00" fill="#1e6577">4.00</text>
</g>
<!-- 4&#45;&gt;2 -->
<g id="edge8" class="edge">
<title>4&#45;&gt;2</title>
<path fill="none" stroke="#235cad" d="M146.32,-50.88C135.33,-72.19 133.81,-93.5 141.74,-114.81"/>
<polygon fill="#235cad" stroke="#235cad" points="138.52,-116.17 145.78,-123.89 144.91,-113.33 138.52,-116.17"/>
<text xml:space="preserve" text-anchor="middle" x="125.13" y="-76.44" font-family="Helvetica,Arial,sans-serif" font-size="12.00" fill="#235cad">1.00</text>
</g>
<!-- 4&#45;&gt;3 -->
<g id="edge9" class="edge">
<title>4&#45;&gt;3</title>
<path fill="none" stroke="#9225ba" d="M183.66,-29.72C218.95,-25.06 283.61,-21.06 332,-44 364.51,-59.41 390.78,-92.34 406.36,-115.78"/>
<polygon fill="#9225ba" stroke="#9225ba" points="403.21,-117.35 411.56,-123.88 409.11,-113.57 403.21,-117.35"/>
<text xml:space="preserve" text-anchor="middle" x="320.39" y="-32.61" font-family="Helvetica,Arial,sans-serif" font-size="12.00" fill="#9225ba">4.00</text>
</g>
<!-- 5&#45;&gt;3 -->
<g id="edge11" class="edge">
<title>5&#45;&gt;3</title>
<path fill="none" stroke="#b41c46" d="M315.47,-97.41C335.91,-105.96 366.32,-118.69 389.43,-128.37"/>
<polygon fill="#b41c46" stroke="#b41c46" points="387.82,-131.48 398.39,-132.12 390.52,-125.03 387.82,-131.48"/>
<text xml:space="preserve" text-anchor="middle" x="345.96" y="-103.63" font-family="Helvetica,Arial,sans-serif" font-size="12.00" fill="#b41c46">4.00</text>
</g>
<!-- 5&#45;&gt;6 -->
<g id="edge10" class="edge">
<title>5&#45;&gt;6</title>
<path fill="none" stroke="#a72086" d="M302.68,-104.88C313.67,-126.19 315.19,-147.5 307.26,-168.81"/>
<polygon fill="#a72086" stroke="#a72086" points="304.09,-167.33 303.22,-177.89 310.48,-170.17 304.09,-167.33"/>
<text xml:space="preserve" text-anchor="middle" x="300.62" y="-130.44" font-family="Helvetica,Arial,sans-serif" font-size="12.00" fill="#a72086">1.00</text>
</g>
<!-- 6&#45;&gt;3 -->
<g id="edge13" class="edge">
<title>6&#45;&gt;3</title>
<path fill="none" stroke="#685e1a" d="M315.47,-186.59C335.91,-178.04 366.32,-165.31 389.43,-155.63"/>
<polygon fill="#685e1a" stroke="#685e1a" points="390.52,-158.97 398.39,-151.88 387.82,-152.52 390.52,-158.97"/>
<text xml:space="preserve" text-anchor="middle" x="345.96" y="-157.57" font-family="Helvetica,Arial,sans-serif" font-size="12.00" fill="#685e1a">2.00</text>
</g>
<!-- 6&#45;&gt;5 -->
<g id="edge12" class="edge">
<title>6&#45;&gt;5</title>
<path fill="none" stroke="#85511a" d="M281.4,-179.27C270.36,-157.96 268.8,-136.65 276.69,-115.34"/>
<polygon fill="#85511a" stroke="#85511a" points="279.86,-116.82 280.71,-106.26 273.46,-113.98 279.86,-116.82"/>
<text xml:space="preserve" text-anchor="middle" x="260.13" y="-130.91" font-family="Helvetica,Arial,sans-serif" font-size="12.00" fill="#85511a">1.00</text>
</g>
</g>
</svg>
