<?xml version="1.0" encoding="UTF-8" standalone="no"?>
<!DOCTYPE svg PUBLIC "-//W3C//DTD SVG 1.1//EN"
 "http://www.w3.org/Graphics/SVG/1.1/DTD/svg11.dtd">
<!-- Generated by graphviz version 12.0.0 (0)
 -->
<!-- Pages: 1 -->
<svg width="504pt" height="152pt"
 viewBox="0.00 0.00 504.00 151.99" xmlns="http://www.w3.org/2000/svg" xmlns:xlink="http://www.w3.org/1999/xlink">
<g id="graph0" class="graph" transform="scale(0.703654 0.703654) rotate(0) translate(36 180)">
<!-- 0 -->
<g id="node1" class="node">
<title>0</title>
<ellipse fill="#eeeeee" stroke="black" cx="27" cy="-72" rx="27" ry="18"/>
<text text-anchor="middle" x="27" y="-66.97" font-family="Helvetica,Arial,sans-serif" font-size="12.00">S</text>
</g>
<!-- 1 -->
<g id="node2" class="node">
<title>1</title>
<ellipse fill="white" stroke="black" cx="163.78" cy="-72" rx="37.78" ry="18"/>
<text text-anchor="middle" x="163.78" y="-66.97" font-family="Helvetica,Arial,sans-serif" font-size="12.00">4,0,0,0,0</text>
</g>
<!-- 0&#45;&gt;1 -->
<g id="edge1" class="edge">
<title>0&#45;&gt;1</title>
<path fill="none" stroke="black" d="M54.31,-72C71.36,-72 94.08,-72 114.32,-72"/>
<polygon fill="black" stroke="black" points="114.06,-75.5 124.06,-72 114.06,-68.5 114.06,-75.5"/>
<text text-anchor="middle" x="78.33" y="-60.6" font-family="Helvetica,Arial,sans-serif" font-size="12.00">1.00</text>
</g>
<!-- 2 -->
<g id="node3" class="node">
<title>2</title>
<ellipse fill="white" stroke="black" cx="311.35" cy="-72" rx="37.78" ry="18"/>
<text text-anchor="middle" x="311.35" y="-66.97" font-family="Helvetica,Arial,sans-serif" font-size="12.00">2,1,0,0,0</text>
</g>
<!-- 1&#45;&gt;2 -->
<g id="edge2" class="edge">
<title>1&#45;&gt;2</title>
<path fill="none" stroke="black" d="M201.89,-72C220.11,-72 242.3,-72 261.85,-72"/>
<polygon fill="black" stroke="black" points="261.79,-75.5 271.79,-72 261.79,-68.5 261.79,-75.5"/>
<text text-anchor="middle" x="226.02" y="-60.6" font-family="Helvetica,Arial,sans-serif" font-size="12.00">6.00</text>
</g>
<!-- 3 -->
<g id="node4" class="node">
<title>3</title>
<ellipse fill="white" stroke="black" cx="458.91" cy="-126" rx="37.78" ry="18"/>
<text text-anchor="middle" x="458.91" y="-120.97" font-family="Helvetica,Arial,sans-serif" font-size="12.00">0,2,0,0,0</text>
</g>
<!-- 2&#45;&gt;3 -->
<g id="edge3" class="edge">
<title>2&#45;&gt;3</title>
<path fill="none" stroke="black" d="M341.81,-82.93C363.63,-91.03 393.64,-102.16 417.68,-111.07"/>
<polygon fill="black" stroke="black" points="416.24,-114.27 426.83,-114.47 418.67,-107.71 416.24,-114.27"/>
<text text-anchor="middle" x="373.5" y="-87.6" font-family="Helvetica,Arial,sans-serif" font-size="12.00">1.00</text>
</g>
<!-- 4 -->
<g id="node5" class="node">
<title>4</title>
<ellipse fill="white" stroke="black" cx="458.91" cy="-18" rx="37.78" ry="18"/>
<text text-anchor="middle" x="458.91" y="-12.97" font-family="Helvetica,Arial,sans-serif" font-size="12.00">1,0,1,0,0</text>
</g>
<!-- 2&#45;&gt;4 -->
<g id="edge4" class="edge">
<title>2&#45;&gt;4</title>
<path fill="none" stroke="black" d="M341.81,-61.07C363.63,-52.97 393.64,-41.84 417.68,-32.93"/>
<polygon fill="black" stroke="black" points="418.67,-36.29 426.83,-29.53 416.24,-29.73 418.67,-36.29"/>
<text text-anchor="middle" x="373.5" y="-33.6" font-family="Helvetica,Arial,sans-serif" font-size="12.00">2.00</text>
</g>
<!-- 5 -->
<g id="node6" class="node">
<title>5</title>
<ellipse fill="#eeeeee" stroke="black" cx="606.48" cy="-72" rx="37.78" ry="18"/>
<text text-anchor="middle" x="606.48" y="-66.97" font-family="Helvetica,Arial,sans-serif" font-size="12.00">0,0,0,1,0</text>
</g>
<!-- 3&#45;&gt;5 -->
<g id="edge5" class="edge">
<title>3&#45;&gt;5</title>
<path fill="none" stroke="black" d="M489.37,-115.07C511.2,-106.97 541.2,-95.84 565.24,-86.93"/>
<polygon fill="black" stroke="black" points="566.24,-90.29 574.4,-83.53 563.8,-83.73 566.24,-90.29"/>
<text text-anchor="middle" x="521.07" y="-87.6" font-family="Helvetica,Arial,sans-serif" font-size="12.00">1.00</text>
</g>
<!-- 4&#45;&gt;5 -->
<g id="edge6" class="edge">
<title>4&#45;&gt;5</title>
<path fill="none" stroke="black" d="M489.37,-28.93C511.2,-37.03 541.2,-48.16 565.24,-57.07"/>
<polygon fill="black" stroke="black" points="563.8,-60.27 574.4,-60.47 566.24,-53.71 563.8,-60.27"/>
<text text-anchor="middle" x="521.07" y="-33.6" font-family="Helvetica,Arial,sans-serif" font-size="12.00">1.00</text>
</g>
</g>
</svg>
