<?xml version="1.0" encoding="UTF-8" standalone="no"?>
<!DOCTYPE svg PUBLIC "-//W3C//DTD SVG 1.1//EN"
 "http://www.w3.org/Graphics/SVG/1.1/DTD/svg11.dtd">
<!-- Generated by graphviz version 12.0.0 (0)
 -->
<!-- Title: G Pages: 1 -->
<svg width="720pt" height="234pt"
 viewBox="0.00 0.00 720.00 234.17" xmlns="http://www.w3.org/2000/svg" xmlns:xlink="http://www.w3.org/1999/xlink">
<g id="graph0" class="graph" transform="scale(0.867295 0.867295) rotate(0) translate(36 234)">
<title>G</title>
<!-- Absorb -->
<g id="node1" class="node">
<title>Absorb</title>
<ellipse fill="white" stroke="lightgrey" cx="691.3" cy="-85" rx="45.72" ry="18"/>
<text text-anchor="middle" x="691.3" y="-78.05" font-family="Helvetica,Arial,sans-serif" font-size="16.00">Absorb</text>
</g>
<!-- IPV -->
<g id="node2" class="node">
<title>IPV</title>
<ellipse fill="white" stroke="lightgrey" cx="44.7" cy="-180" rx="28.32" ry="18"/>
<text text-anchor="middle" x="44.7" y="-173.05" font-family="Helvetica,Arial,sans-serif" font-size="16.00">IPV</text>
</g>
<!-- 2 -->
<g id="node4" class="node">
<title>2</title>
<ellipse fill="white" stroke="black" cx="206.09" cy="-126" rx="44.7" ry="18"/>
<text text-anchor="middle" x="206.09" y="-119.05" font-family="Helvetica,Arial,sans-serif" font-size="16.00">4,0,0,0</text>
</g>
<!-- IPV&#45;&gt;2 -->
<g id="edge1" class="edge">
<title>IPV&#45;&gt;2</title>
<path fill="none" stroke="#000000" d="M70.25,-171.68C94.18,-163.57 131.12,-151.06 160.28,-141.18"/>
<polygon fill="#000000" stroke="#000000" points="161.26,-144.55 169.6,-138.02 159.01,-137.92 161.26,-144.55"/>
<text text-anchor="middle" x="116.28" y="-139.36" font-family="Helvetica,Arial,sans-serif" font-size="16.00" fill="#000000">1</text>
</g>
<!-- 1 -->
<g id="node3" class="node">
<title>1</title>
<ellipse fill="white" stroke="black" cx="44.7" cy="-126" rx="44.7" ry="18"/>
<text text-anchor="middle" x="44.7" y="-119.05" font-family="Helvetica,Arial,sans-serif" font-size="16.00">0,0,0,0</text>
</g>
<!-- 1&#45;&gt;2 -->
<g id="edge2" class="edge">
<title>1&#45;&gt;2</title>
<path fill="none" stroke="#000000" d="M87.16,-119.99C107.01,-119.16 131,-119.03 152.15,-119.6"/>
<polygon fill="#000000" stroke="#000000" points="151.93,-123.09 162.05,-119.94 152.17,-116.1 151.93,-123.09"/>
<text text-anchor="middle" x="120.93" y="-104.05" font-family="Helvetica,Arial,sans-serif" font-size="16.00" fill="#000000">1</text>
</g>
<!-- 2&#45;&gt;1 -->
<g id="edge3" class="edge">
<title>2&#45;&gt;1</title>
<path fill="none" stroke="#000000" d="M163.56,-132.01C143.71,-132.84 119.71,-132.97 98.57,-132.4"/>
<polygon fill="#000000" stroke="#000000" points="98.79,-128.9 88.67,-132.06 98.55,-135.9 98.79,-128.9"/>
<text text-anchor="middle" x="157.15" y="-134.05" font-family="Helvetica,Arial,sans-serif" font-size="16.00" fill="#000000">4.00e&#45;01</text>
</g>
<!-- 5 -->
<g id="node7" class="node">
<title>5</title>
<ellipse fill="white" stroke="black" cx="367.49" cy="-72" rx="44.7" ry="18"/>
<text text-anchor="middle" x="367.49" y="-65.05" font-family="Helvetica,Arial,sans-serif" font-size="16.00">2,1,0,0</text>
</g>
<!-- 2&#45;&gt;5 -->
<g id="edge4" class="edge">
<title>2&#45;&gt;5</title>
<path fill="none" stroke="#000000" d="M241.29,-114.42C264.72,-106.48 296.03,-95.87 321.48,-87.25"/>
<polygon fill="#000000" stroke="#000000" points="322.57,-90.57 330.92,-84.05 320.32,-83.94 322.57,-90.57"/>
<text text-anchor="middle" x="318.39" y="-92.14" font-family="Helvetica,Arial,sans-serif" font-size="16.00" fill="#000000">6.00e&#45;01</text>
</g>
<!-- 3 -->
<g id="node5" class="node">
<title>3</title>
<ellipse fill="white" stroke="black" cx="206.09" cy="-72" rx="44.7" ry="18"/>
<text text-anchor="middle" x="206.09" y="-65.05" font-family="Helvetica,Arial,sans-serif" font-size="16.00">0,0,0,0</text>
</g>
<!-- 3&#45;&gt;5 -->
<g id="edge5" class="edge">
<title>3&#45;&gt;5</title>
<path fill="none" stroke="#000000" d="M248.56,-65.99C268.4,-65.16 292.4,-65.03 313.54,-65.6"/>
<polygon fill="#000000" stroke="#000000" points="313.33,-69.09 323.44,-65.94 313.57,-62.1 313.33,-69.09"/>
<text text-anchor="middle" x="291.33" y="-50.05" font-family="Helvetica,Arial,sans-serif" font-size="16.00" fill="#000000">1</text>
</g>
<!-- 4 -->
<g id="node6" class="node">
<title>4</title>
<ellipse fill="white" stroke="black" cx="206.09" cy="-18" rx="44.7" ry="18"/>
<text text-anchor="middle" x="206.09" y="-11.05" font-family="Helvetica,Arial,sans-serif" font-size="16.00">0,0,0,0</text>
</g>
<!-- 4&#45;&gt;5 -->
<g id="edge6" class="edge">
<title>4&#45;&gt;5</title>
<path fill="none" stroke="#000000" d="M246.9,-25.55C272.13,-32.97 304.53,-43.99 329.24,-53.57"/>
<polygon fill="#000000" stroke="#000000" points="327.67,-56.71 338.25,-57.15 330.25,-50.2 327.67,-56.71"/>
<text text-anchor="middle" x="289.14" y="-25.39" font-family="Helvetica,Arial,sans-serif" font-size="16.00" fill="#000000">1</text>
</g>
<!-- 5&#45;&gt;3 -->
<g id="edge7" class="edge">
<title>5&#45;&gt;3</title>
<path fill="none" stroke="#000000" d="M324.96,-78.01C305.1,-78.84 281.11,-78.97 259.97,-78.4"/>
<polygon fill="#000000" stroke="#000000" points="260.18,-74.9 250.07,-78.06 259.94,-81.9 260.18,-74.9"/>
<text text-anchor="middle" x="254.8" y="-80.05" font-family="Helvetica,Arial,sans-serif" font-size="16.00" fill="#000000">1.67e&#45;01</text>
</g>
<!-- 5&#45;&gt;4 -->
<g id="edge8" class="edge">
<title>5&#45;&gt;4</title>
<path fill="none" stroke="#000000" d="M326.44,-64.38C301.31,-56.98 269.13,-46.03 244.51,-36.5"/>
<polygon fill="#000000" stroke="#000000" points="246.13,-33.37 235.54,-32.94 243.54,-39.88 246.13,-33.37"/>
<text text-anchor="middle" x="311.81" y="-38.33" font-family="Helvetica,Arial,sans-serif" font-size="16.00" fill="#000000">3.33e&#45;01</text>
</g>
<!-- 7 -->
<g id="node9" class="node">
<title>7</title>
<ellipse fill="white" stroke="black" cx="528.89" cy="-45" rx="44.7" ry="18"/>
<text text-anchor="middle" x="528.89" y="-38.05" font-family="Helvetica,Arial,sans-serif" font-size="16.00">0,2,0,0</text>
</g>
<!-- 5&#45;&gt;7 -->
<g id="edge9" class="edge">
<title>5&#45;&gt;7</title>
<path fill="none" stroke="#000000" d="M409.12,-65.12C429.37,-61.69 454.09,-57.5 475.73,-53.84"/>
<polygon fill="#000000" stroke="#000000" points="476.28,-57.29 485.56,-52.17 475.11,-50.39 476.28,-57.29"/>
<text text-anchor="middle" x="415.93" y="-43.37" font-family="Helvetica,Arial,sans-serif" font-size="16.00" fill="#000000">1.67e&#45;01</text>
</g>
<!-- 10 -->
<g id="node12" class="node">
<title>10</title>
<ellipse fill="white" stroke="black" cx="528.89" cy="-126" rx="44.7" ry="18"/>
<text text-anchor="middle" x="528.89" y="-119.05" font-family="Helvetica,Arial,sans-serif" font-size="16.00">1,0,1,0</text>
</g>
<!-- 5&#45;&gt;10 -->
<g id="edge10" class="edge">
<title>5&#45;&gt;10</title>
<path fill="none" stroke="#000000" d="M402.68,-83.58C426.11,-91.52 457.43,-102.13 482.88,-110.75"/>
<polygon fill="#000000" stroke="#000000" points="481.72,-114.06 492.31,-113.95 483.97,-107.43 481.72,-114.06"/>
<text text-anchor="middle" x="479.79" y="-83.71" font-family="Helvetica,Arial,sans-serif" font-size="16.00" fill="#000000">3.33e&#45;01</text>
</g>
<!-- 6 -->
<g id="node8" class="node">
<title>6</title>
<ellipse fill="white" stroke="black" cx="367.49" cy="-18" rx="44.7" ry="18"/>
<text text-anchor="middle" x="367.49" y="-11.05" font-family="Helvetica,Arial,sans-serif" font-size="16.00">0,0,0,0</text>
</g>
<!-- 6&#45;&gt;7 -->
<g id="edge11" class="edge">
<title>6&#45;&gt;7</title>
<path fill="none" stroke="#000000" d="M412.47,-19.34C434.28,-22.2 460.6,-26.64 482.59,-31.17"/>
<polygon fill="#000000" stroke="#000000" points="481.66,-34.55 492.17,-33.22 483.13,-27.71 481.66,-34.55"/>
<text text-anchor="middle" x="448.61" y="-10.4" font-family="Helvetica,Arial,sans-serif" font-size="16.00" fill="#000000">1</text>
</g>
<!-- 7&#45;&gt;Absorb -->
<g id="edge17" class="edge">
<title>7&#45;&gt;Absorb</title>
<path fill="none" stroke="#000000" d="M567.5,-54.38C589.4,-59.84 617.28,-66.79 640.93,-72.69"/>
<polygon fill="#000000" stroke="#000000" points="639.8,-76.01 650.35,-75.04 641.49,-69.22 639.8,-76.01"/>
<text text-anchor="middle" x="683.76" y="-49.65" font-family="Helvetica,Arial,sans-serif" font-size="16.00" fill="#000000">0.333333333333333</text>
</g>
<!-- 7&#45;&gt;6 -->
<g id="edge12" class="edge">
<title>7&#45;&gt;6</title>
<path fill="none" stroke="#000000" d="M484.04,-43.67C462.19,-40.82 435.8,-36.37 413.77,-31.83"/>
<polygon fill="#000000" stroke="#000000" points="414.68,-28.44 404.16,-29.77 413.21,-35.29 414.68,-28.44"/>
<text text-anchor="middle" x="475.19" y="-22.21" font-family="Helvetica,Arial,sans-serif" font-size="16.00" fill="#000000">6.67e&#45;01</text>
</g>
<!-- 8 -->
<g id="node10" class="node">
<title>8</title>
<ellipse fill="white" stroke="black" cx="367.49" cy="-180" rx="44.7" ry="18"/>
<text text-anchor="middle" x="367.49" y="-173.05" font-family="Helvetica,Arial,sans-serif" font-size="16.00">0,0,0,0</text>
</g>
<!-- 8&#45;&gt;10 -->
<g id="edge13" class="edge">
<title>8&#45;&gt;10</title>
<path fill="none" stroke="#000000" d="M395.53,-165.62C417.78,-156.54 449.94,-145.27 476.98,-136.9"/>
<polygon fill="#000000" stroke="#000000" points="477.82,-140.31 486.38,-134.06 475.8,-133.6 477.82,-140.31"/>
<text text-anchor="middle" x="436.99" y="-133.34" font-family="Helvetica,Arial,sans-serif" font-size="16.00" fill="#000000">1</text>
</g>
<!-- 9 -->
<g id="node11" class="node">
<title>9</title>
<ellipse fill="white" stroke="black" cx="367.49" cy="-126" rx="44.7" ry="18"/>
<text text-anchor="middle" x="367.49" y="-119.05" font-family="Helvetica,Arial,sans-serif" font-size="16.00">0,0,0,0</text>
</g>
<!-- 9&#45;&gt;10 -->
<g id="edge14" class="edge">
<title>9&#45;&gt;10</title>
<path fill="none" stroke="#000000" d="M409.95,-119.99C429.8,-119.16 453.79,-119.03 474.94,-119.6"/>
<polygon fill="#000000" stroke="#000000" points="474.73,-123.09 484.84,-119.94 474.97,-116.1 474.73,-123.09"/>
<text text-anchor="middle" x="443.73" y="-104.05" font-family="Helvetica,Arial,sans-serif" font-size="16.00" fill="#000000">1</text>
</g>
<!-- 10&#45;&gt;Absorb -->
<g id="edge18" class="edge">
<title>10&#45;&gt;Absorb</title>
<path fill="none" stroke="#000000" d="M567.5,-116.39C589.48,-110.77 617.48,-103.61 641.19,-97.55"/>
<polygon fill="#000000" stroke="#000000" points="641.81,-101.01 650.63,-95.14 640.07,-94.23 641.81,-101.01"/>
<text text-anchor="middle" x="683.92" y="-106.91" font-family="Helvetica,Arial,sans-serif" font-size="16.00" fill="#000000">0.333333333333333</text>
</g>
<!-- 10&#45;&gt;8 -->
<g id="edge15" class="edge">
<title>10&#45;&gt;8</title>
<path fill="none" stroke="#000000" d="M501.06,-140.29C478.75,-149.41 446.37,-160.76 419.2,-169.16"/>
<polygon fill="#000000" stroke="#000000" points="418.31,-165.77 409.75,-172.01 420.33,-172.47 418.31,-165.77"/>
<text text-anchor="middle" x="486.76" y="-158.76" font-family="Helvetica,Arial,sans-serif" font-size="16.00" fill="#000000">3.33e&#45;01</text>
</g>
<!-- 10&#45;&gt;9 -->
<g id="edge16" class="edge">
<title>10&#45;&gt;9</title>
<path fill="none" stroke="#000000" d="M486.35,-132.01C466.5,-132.84 442.5,-132.97 421.36,-132.4"/>
<polygon fill="#000000" stroke="#000000" points="421.58,-128.9 411.47,-132.06 421.34,-135.9 421.58,-128.9"/>
<text text-anchor="middle" x="479.95" y="-134.05" font-family="Helvetica,Arial,sans-serif" font-size="16.00" fill="#000000">3.33e&#45;01</text>
</g>
</g>
</svg>
