<?xml version="1.0" encoding="UTF-8" standalone="no"?>
<!DOCTYPE svg PUBLIC "-//W3C//DTD SVG 1.1//EN"
 "http://www.w3.org/Graphics/SVG/1.1/DTD/svg11.dtd">
<!-- Generated by graphviz version 12.0.0 (0)
 -->
<!-- Pages: 1 -->
<svg width="504pt" height="118pt"
 viewBox="0.00 0.00 504.00 117.88" xmlns="http://www.w3.org/2000/svg" xmlns:xlink="http://www.w3.org/1999/xlink">
<g id="graph0" class="graph" transform="scale(0.54576 0.54576) rotate(0) translate(36 180)">
<polygon fill="#1f1f1f" stroke="none" points="-36,36 -36,-180 887.48,-180 887.48,36 -36,36"/>
<!-- 0 -->
<g id="node1" class="node">
<title>0</title>
<ellipse fill="#aaaaaa" stroke="black" cx="27" cy="-72" rx="27" ry="18"/>
<text text-anchor="middle" x="27" y="-66.97" font-family="Helvetica,Arial,sans-serif" font-size="12.00">S</text>
</g>
<!-- 1 -->
<g id="node2" class="node">
<title>1</title>
<ellipse fill="#dddddd" stroke="black" cx="169.75" cy="-72" rx="43.75" ry="18"/>
<text text-anchor="middle" x="169.75" y="-66.97" font-family="Helvetica,Arial,sans-serif" font-size="12.00">5,0,0,0,0,0</text>
</g>
<!-- 0&#45;&gt;1 -->
<g id="edge1" class="edge">
<title>0&#45;&gt;1</title>
<path fill="none" stroke="#3bbbb2" d="M54.47,-72C71.26,-72 93.59,-72 114.06,-72"/>
<polygon fill="#3bbbb2" stroke="#3bbbb2" points="114.01,-75.5 124.01,-72 114.01,-68.5 114.01,-75.5"/>
<text text-anchor="middle" x="78.53" y="-60.6" font-family="Helvetica,Arial,sans-serif" font-size="12.00" fill="#3bbbb2">1.00</text>
</g>
<!-- 2 -->
<g id="node3" class="node">
<title>2</title>
<ellipse fill="#dddddd" stroke="black" cx="329.24" cy="-72" rx="43.75" ry="18"/>
<text text-anchor="middle" x="329.24" y="-66.97" font-family="Helvetica,Arial,sans-serif" font-size="12.00">3,1,0,0,0,0</text>
</g>
<!-- 1&#45;&gt;2 -->
<g id="edge2" class="edge">
<title>1&#45;&gt;2</title>
<path fill="none" stroke="#3db7d6" d="M213.78,-72C232.36,-72 254.3,-72 273.98,-72"/>
<polygon fill="#3db7d6" stroke="#3db7d6" points="273.75,-75.5 283.75,-72 273.75,-68.5 273.75,-75.5"/>
<text text-anchor="middle" x="234.74" y="-60.6" font-family="Helvetica,Arial,sans-serif" font-size="12.00" fill="#3db7d6">10.00</text>
</g>
<!-- 3 -->
<g id="node4" class="node">
<title>3</title>
<ellipse fill="#dddddd" stroke="black" cx="488.74" cy="-126" rx="43.75" ry="18"/>
<text text-anchor="middle" x="488.74" y="-120.97" font-family="Helvetica,Arial,sans-serif" font-size="12.00">1,2,0,0,0,0</text>
</g>
<!-- 2&#45;&gt;3 -->
<g id="edge3" class="edge">
<title>2&#45;&gt;3</title>
<path fill="none" stroke="#86a8f6" d="M363.65,-83.45C386.93,-91.43 418.23,-102.17 443.57,-110.86"/>
<polygon fill="#86a8f6" stroke="#86a8f6" points="442.36,-114.14 452.96,-114.07 444.63,-107.52 442.36,-114.14"/>
<text text-anchor="middle" x="397.09" y="-87.5" font-family="Helvetica,Arial,sans-serif" font-size="12.00" fill="#86a8f6">3.00</text>
</g>
<!-- 4 -->
<g id="node5" class="node">
<title>4</title>
<ellipse fill="#dddddd" stroke="black" cx="488.74" cy="-18" rx="43.75" ry="18"/>
<text text-anchor="middle" x="488.74" y="-12.97" font-family="Helvetica,Arial,sans-serif" font-size="12.00">2,0,1,0,0,0</text>
</g>
<!-- 2&#45;&gt;4 -->
<g id="edge4" class="edge">
<title>2&#45;&gt;4</title>
<path fill="none" stroke="#d28ef6" d="M363.65,-60.55C386.93,-52.57 418.23,-41.83 443.57,-33.14"/>
<polygon fill="#d28ef6" stroke="#d28ef6" points="444.63,-36.48 452.96,-29.93 442.36,-29.86 444.63,-36.48"/>
<text text-anchor="middle" x="397.09" y="-33.7" font-family="Helvetica,Arial,sans-serif" font-size="12.00" fill="#d28ef6">3.00</text>
</g>
<!-- 5 -->
<g id="node6" class="node">
<title>5</title>
<ellipse fill="#dddddd" stroke="black" cx="648.24" cy="-126" rx="43.75" ry="18"/>
<text text-anchor="middle" x="648.24" y="-120.97" font-family="Helvetica,Arial,sans-serif" font-size="12.00">0,1,1,0,0,0</text>
</g>
<!-- 3&#45;&gt;5 -->
<g id="edge5" class="edge">
<title>3&#45;&gt;5</title>
<path fill="none" stroke="#f780d2" d="M532.78,-126C551.35,-126 573.3,-126 592.97,-126"/>
<polygon fill="#f780d2" stroke="#f780d2" points="592.74,-129.5 602.74,-126 592.74,-122.5 592.74,-129.5"/>
<text text-anchor="middle" x="557.11" y="-114.6" font-family="Helvetica,Arial,sans-serif" font-size="12.00" fill="#f780d2">2.00</text>
</g>
<!-- 6 -->
<g id="node7" class="node">
<title>6</title>
<ellipse fill="#dddddd" stroke="black" cx="648.24" cy="-18" rx="43.75" ry="18"/>
<text text-anchor="middle" x="648.24" y="-12.97" font-family="Helvetica,Arial,sans-serif" font-size="12.00">1,0,0,1,0,0</text>
</g>
<!-- 3&#45;&gt;6 -->
<g id="edge6" class="edge">
<title>3&#45;&gt;6</title>
<path fill="none" stroke="#f8889a" d="M512.31,-110.53C539.32,-92 584.75,-60.85 615.34,-39.87"/>
<polygon fill="#f8889a" stroke="#f8889a" points="617.2,-42.84 623.47,-34.3 613.24,-37.07 617.2,-42.84"/>
<text text-anchor="middle" x="556.96" y="-60.54" font-family="Helvetica,Arial,sans-serif" font-size="12.00" fill="#f8889a">1.00</text>
</g>
<!-- 4&#45;&gt;5 -->
<g id="edge7" class="edge">
<title>4&#45;&gt;5</title>
<path fill="none" stroke="#ee9537" d="M512.31,-33.47C539.32,-52 584.75,-83.15 615.34,-104.13"/>
<polygon fill="#ee9537" stroke="#ee9537" points="613.24,-106.93 623.47,-109.7 617.2,-101.16 613.24,-106.93"/>
<text text-anchor="middle" x="580.21" y="-60.66" font-family="Helvetica,Arial,sans-serif" font-size="12.00" fill="#ee9537">1.00</text>
</g>
<!-- 4&#45;&gt;6 -->
<g id="edge8" class="edge">
<title>4&#45;&gt;6</title>
<path fill="none" stroke="#bcaa36" d="M532.78,-18C551.35,-18 573.3,-18 592.97,-18"/>
<polygon fill="#bcaa36" stroke="#bcaa36" points="592.74,-21.5 602.74,-18 592.74,-14.5 592.74,-21.5"/>
<text text-anchor="middle" x="557.11" y="-6.6" font-family="Helvetica,Arial,sans-serif" font-size="12.00" fill="#bcaa36">2.00</text>
</g>
<!-- 7 -->
<g id="node8" class="node">
<title>7</title>
<ellipse fill="#9f9f9f" stroke="black" cx="807.73" cy="-72" rx="43.75" ry="18"/>
<text text-anchor="middle" x="807.73" y="-66.97" font-family="Helvetica,Arial,sans-serif" font-size="12.00">0,0,0,0,1,0</text>
</g>
<!-- 5&#45;&gt;7 -->
<g id="edge9" class="edge">
<title>5&#45;&gt;7</title>
<path fill="none" stroke="#82b936" d="M682.64,-114.55C705.92,-106.57 737.23,-95.83 762.57,-87.14"/>
<polygon fill="#82b936" stroke="#82b936" points="763.63,-90.48 771.95,-83.93 761.36,-83.86 763.63,-90.48"/>
<text text-anchor="middle" x="716.08" y="-87.7" font-family="Helvetica,Arial,sans-serif" font-size="12.00" fill="#82b936">1.00</text>
</g>
<!-- 6&#45;&gt;7 -->
<g id="edge10" class="edge">
<title>6&#45;&gt;7</title>
<path fill="none" stroke="#38bf85" d="M682.64,-29.45C705.92,-37.43 737.23,-48.17 762.57,-56.86"/>
<polygon fill="#38bf85" stroke="#38bf85" points="761.36,-60.14 771.95,-60.07 763.63,-53.52 761.36,-60.14"/>
<text text-anchor="middle" x="716.08" y="-33.5" font-family="Helvetica,Arial,sans-serif" font-size="12.00" fill="#38bf85">1.00</text>
</g>
</g>
</svg>
