<?xml version="1.0" encoding="UTF-8" standalone="no"?>
<!DOCTYPE svg PUBLIC "-//W3C//DTD SVG 1.1//EN"
 "http://www.w3.org/Graphics/SVG/1.1/DTD/svg11.dtd">
<!-- Generated by graphviz version 12.0.0 (0)
 -->
<!-- Pages: 1 -->
<svg width="720pt" height="574pt"
 viewBox="0.00 0.00 720.00 574.28" xmlns="http://www.w3.org/2000/svg" xmlns:xlink="http://www.w3.org/1999/xlink">
<g id="graph0" class="graph" transform="scale(0.648349 0.648349) rotate(0) translate(36 849.75)">
<polygon fill="#1f1f1f" stroke="none" points="-36,36 -36,-849.75 1074.51,-849.75 1074.51,36 -36,36"/>
<!-- 0 -->
<g id="node1" class="node">
<title>0</title>
<ellipse fill="#aaaaaa" stroke="black" cx="27" cy="-39.75" rx="27" ry="18"/>
<text text-anchor="middle" x="27" y="-34.72" font-family="Helvetica,Arial,sans-serif" font-size="12.00">S</text>
</g>
<!-- 1 -->
<g id="node2" class="node">
<title>1</title>
<ellipse fill="#dddddd" stroke="black" cx="169.75" cy="-39.75" rx="43.75" ry="18"/>
<text text-anchor="middle" x="169.75" y="-34.72" font-family="Helvetica,Arial,sans-serif" font-size="12.00">5,0,0,0,0,0</text>
</g>
<!-- 0&#45;&gt;1 -->
<g id="edge1" class="edge">
<title>0&#45;&gt;1</title>
<path fill="none" stroke="#3bbbb2" d="M54.47,-39.75C71.26,-39.75 93.59,-39.75 114.06,-39.75"/>
<polygon fill="#3bbbb2" stroke="#3bbbb2" points="114.01,-43.25 124.01,-39.75 114.01,-36.25 114.01,-43.25"/>
<text text-anchor="middle" x="78.53" y="-28.35" font-family="Helvetica,Arial,sans-serif" font-size="12.00" fill="#3bbbb2">1.00</text>
</g>
<!-- 2 -->
<g id="node3" class="node">
<title>2</title>
<ellipse fill="#dddddd" stroke="black" cx="329.24" cy="-147.75" rx="43.75" ry="18"/>
<text text-anchor="middle" x="329.24" y="-142.72" font-family="Helvetica,Arial,sans-serif" font-size="12.00">3,1,0,0,0,0</text>
</g>
<!-- 1&#45;&gt;2 -->
<g id="edge2" class="edge">
<title>1&#45;&gt;2</title>
<path fill="none" stroke="#3db7d6" d="M193.31,-55.22C220.33,-73.75 265.75,-104.9 296.35,-125.88"/>
<polygon fill="#3db7d6" stroke="#3db7d6" points="294.25,-128.68 304.47,-131.45 298.21,-122.91 294.25,-128.68"/>
<text text-anchor="middle" x="225.96" y="-82.41" font-family="Helvetica,Arial,sans-serif" font-size="12.00" fill="#3db7d6">6.67e&#45;01</text>
</g>
<!-- 10 -->
<g id="node4" class="node">
<title>10</title>
<ellipse fill="#dddddd" stroke="black" cx="329.24" cy="-39.75" rx="43.75" ry="18"/>
<text text-anchor="middle" x="329.24" y="-34.72" font-family="Helvetica,Arial,sans-serif" font-size="12.00">0,0,0,0,0,0</text>
</g>
<!-- 1&#45;&gt;10 -->
<g id="edge3" class="edge">
<title>1&#45;&gt;10</title>
<path fill="none" stroke="#86a8f6" d="M186.43,-22.78C213.43,-10.81 268.99,-9.55 301.99,-19.01"/>
<polygon fill="#86a8f6" stroke="#86a8f6" points="300.61,-22.24 311.21,-22.3 302.96,-15.64 300.61,-22.24"/>
<text text-anchor="middle" x="225.88" y="-1.35" font-family="Helvetica,Arial,sans-serif" font-size="12.00" fill="#86a8f6">3.33e&#45;01</text>
</g>
<!-- 3 -->
<g id="node5" class="node">
<title>3</title>
<ellipse fill="#dddddd" stroke="black" cx="488.74" cy="-255.75" rx="43.75" ry="18"/>
<text text-anchor="middle" x="488.74" y="-250.72" font-family="Helvetica,Arial,sans-serif" font-size="12.00">1,2,0,0,0,0</text>
</g>
<!-- 2&#45;&gt;3 -->
<g id="edge4" class="edge">
<title>2&#45;&gt;3</title>
<path fill="none" stroke="#d28ef6" d="M352.81,-163.22C379.83,-181.75 425.25,-212.9 455.85,-233.88"/>
<polygon fill="#d28ef6" stroke="#d28ef6" points="453.74,-236.68 463.97,-239.45 457.7,-230.91 453.74,-236.68"/>
<text text-anchor="middle" x="385.46" y="-190.41" font-family="Helvetica,Arial,sans-serif" font-size="12.00" fill="#d28ef6">3.00e&#45;01</text>
</g>
<!-- 4 -->
<g id="node6" class="node">
<title>4</title>
<ellipse fill="#dddddd" stroke="black" cx="488.74" cy="-687.75" rx="43.75" ry="18"/>
<text text-anchor="middle" x="488.74" y="-682.72" font-family="Helvetica,Arial,sans-serif" font-size="12.00">2,0,1,0,0,0</text>
</g>
<!-- 2&#45;&gt;4 -->
<g id="edge5" class="edge">
<title>2&#45;&gt;4</title>
<path fill="none" stroke="#f780d2" d="M335.58,-166.03C358.73,-245.43 450.72,-560.83 479.26,-658.66"/>
<polygon fill="#f780d2" stroke="#f780d2" points="475.83,-659.41 481.99,-668.03 482.55,-657.45 475.83,-659.41"/>
<text text-anchor="middle" x="385.4" y="-406.47" font-family="Helvetica,Arial,sans-serif" font-size="12.00" fill="#f780d2">3.00e&#45;01</text>
</g>
<!-- 11 -->
<g id="node7" class="node">
<title>11</title>
<ellipse fill="#dddddd" stroke="black" cx="488.74" cy="-147.75" rx="43.75" ry="18"/>
<text text-anchor="middle" x="488.74" y="-142.72" font-family="Helvetica,Arial,sans-serif" font-size="12.00">0,0,0,0,0,0</text>
</g>
<!-- 2&#45;&gt;11 -->
<g id="edge6" class="edge">
<title>2&#45;&gt;11</title>
<path fill="none" stroke="#f8889a" d="M345.92,-130.78C372.93,-118.81 428.49,-117.55 461.48,-127.01"/>
<polygon fill="#f8889a" stroke="#f8889a" points="460.11,-130.24 470.7,-130.3 462.46,-123.64 460.11,-130.24"/>
<text text-anchor="middle" x="385.37" y="-109.35" font-family="Helvetica,Arial,sans-serif" font-size="12.00" fill="#f8889a">3.00e&#45;01</text>
</g>
<!-- 12 -->
<g id="node8" class="node">
<title>12</title>
<ellipse fill="#dddddd" stroke="black" cx="488.74" cy="-39.75" rx="43.75" ry="18"/>
<text text-anchor="middle" x="488.74" y="-34.72" font-family="Helvetica,Arial,sans-serif" font-size="12.00">0,0,0,0,0,0</text>
</g>
<!-- 2&#45;&gt;12 -->
<g id="edge7" class="edge">
<title>2&#45;&gt;12</title>
<path fill="none" stroke="#ee9537" d="M338.06,-129.8C355.76,-104.99 400.18,-70.22 436.06,-49.66"/>
<polygon fill="#ee9537" stroke="#ee9537" points="437.51,-52.86 444.6,-44.98 434.15,-46.72 437.51,-52.86"/>
<text text-anchor="middle" x="364.68" y="-70.38" font-family="Helvetica,Arial,sans-serif" font-size="12.00" fill="#ee9537">1.00e&#45;01</text>
</g>
<!-- 10&#45;&gt;1 -->
<g id="edge24" class="edge">
<title>10&#45;&gt;1</title>
<path fill="none" stroke="#d28ef6" d="M312.63,-56.7C285.67,-68.68 230.11,-69.95 197.08,-60.51"/>
<polygon fill="#d28ef6" stroke="#d28ef6" points="198.45,-57.28 187.85,-57.23 196.1,-63.88 198.45,-57.28"/>
<text text-anchor="middle" x="237.97" y="-55.35" font-family="Helvetica,Arial,sans-serif" font-size="12.00" fill="#d28ef6">1.00</text>
</g>
<!-- 8 -->
<g id="node9" class="node">
<title>8</title>
<ellipse fill="#dddddd" stroke="black" cx="662" cy="-471.75" rx="57.52" ry="18"/>
<text text-anchor="middle" x="662" y="-466.72" font-family="Helvetica,Arial,sans-serif" font-size="12.00">&#45;3,&#45;3,&#45;3,&#45;3,&#45;3,&#45;3</text>
</g>
<!-- 3&#45;&gt;8 -->
<g id="edge8" class="edge">
<title>3&#45;&gt;8</title>
<path fill="none" stroke="#bcaa36" d="M500.46,-273.1C519.66,-303.64 561.92,-368.44 604.49,-417.75 613.18,-427.82 623.5,-438.09 632.93,-446.93"/>
<polygon fill="#bcaa36" stroke="#bcaa36" points="630.42,-449.39 640.15,-453.59 635.16,-444.24 630.42,-449.39"/>
<text text-anchor="middle" x="541.51" y="-356.79" font-family="Helvetica,Arial,sans-serif" font-size="12.00" fill="#bcaa36">3.33e&#45;01</text>
</g>
<!-- 6 -->
<g id="node10" class="node">
<title>6</title>
<ellipse fill="#dddddd" stroke="black" cx="662" cy="-363.75" rx="43.75" ry="18"/>
<text text-anchor="middle" x="662" y="-358.72" font-family="Helvetica,Arial,sans-serif" font-size="12.00">1,0,0,1,0,0</text>
</g>
<!-- 3&#45;&gt;6 -->
<g id="edge9" class="edge">
<title>3&#45;&gt;6</title>
<path fill="none" stroke="#82b936" d="M513.55,-270.77C543.25,-289.49 594.19,-321.62 627.73,-342.77"/>
<polygon fill="#82b936" stroke="#82b936" points="625.51,-345.51 635.84,-347.88 629.25,-339.58 625.51,-345.51"/>
<text text-anchor="middle" x="551.87" y="-298.43" font-family="Helvetica,Arial,sans-serif" font-size="12.00" fill="#82b936">1.67e&#45;01</text>
</g>
<!-- 13 -->
<g id="node11" class="node">
<title>13</title>
<ellipse fill="#dddddd" stroke="black" cx="662" cy="-147.75" rx="43.75" ry="18"/>
<text text-anchor="middle" x="662" y="-142.72" font-family="Helvetica,Arial,sans-serif" font-size="12.00">0,0,0,0,0,0</text>
</g>
<!-- 3&#45;&gt;13 -->
<g id="edge10" class="edge">
<title>3&#45;&gt;13</title>
<path fill="none" stroke="#38bf85" d="M498.23,-237.8C518.06,-212.24 568.72,-176.12 608.3,-155.85"/>
<polygon fill="#38bf85" stroke="#38bf85" points="609.8,-159.01 617.25,-151.47 606.73,-152.71 609.8,-159.01"/>
<text text-anchor="middle" x="530.84" y="-177.26" font-family="Helvetica,Arial,sans-serif" font-size="12.00" fill="#38bf85">1.67e&#45;01</text>
</g>
<!-- 14 -->
<g id="node12" class="node">
<title>14</title>
<ellipse fill="#dddddd" stroke="black" cx="662" cy="-255.75" rx="43.75" ry="18"/>
<text text-anchor="middle" x="662" y="-250.72" font-family="Helvetica,Arial,sans-serif" font-size="12.00">0,0,0,0,0,0</text>
</g>
<!-- 3&#45;&gt;14 -->
<g id="edge11" class="edge">
<title>3&#45;&gt;14</title>
<path fill="none" stroke="#3bbbb2" d="M506.47,-238.91C536.02,-226.7 597.68,-225.5 633.54,-235.31"/>
<polygon fill="#3bbbb2" stroke="#3bbbb2" points="632.17,-238.54 642.77,-238.4 634.4,-231.9 632.17,-238.54"/>
<text text-anchor="middle" x="551.78" y="-217.35" font-family="Helvetica,Arial,sans-serif" font-size="12.00" fill="#3bbbb2">3.33e&#45;01</text>
</g>
<!-- 4&#45;&gt;6 -->
<g id="edge13" class="edge">
<title>4&#45;&gt;6</title>
<path fill="none" stroke="#86a8f6" d="M494.71,-669.43C507.62,-623.92 545.39,-503.21 604.49,-417.75 612.11,-406.73 622.27,-396.17 631.86,-387.36"/>
<polygon fill="#86a8f6" stroke="#86a8f6" points="634.11,-390.05 639.29,-380.8 629.48,-384.8 634.11,-390.05"/>
<text text-anchor="middle" x="526.34" y="-505.32" font-family="Helvetica,Arial,sans-serif" font-size="12.00" fill="#86a8f6">3.33e&#45;01</text>
</g>
<!-- 9 -->
<g id="node13" class="node">
<title>9</title>
<ellipse fill="#dddddd" stroke="black" cx="662" cy="-579.75" rx="57.52" ry="18"/>
<text text-anchor="middle" x="662" y="-574.72" font-family="Helvetica,Arial,sans-serif" font-size="12.00">&#45;4,&#45;4,&#45;4,&#45;4,&#45;4,&#45;4</text>
</g>
<!-- 4&#45;&gt;9 -->
<g id="edge12" class="edge">
<title>4&#45;&gt;9</title>
<path fill="none" stroke="#3db7d6" d="M513.55,-672.73C542.67,-654.38 592.19,-623.15 625.73,-602"/>
<polygon fill="#3db7d6" stroke="#3db7d6" points="627.28,-605.15 633.88,-596.86 623.55,-599.23 627.28,-605.15"/>
<text text-anchor="middle" x="550.53" y="-623.12" font-family="Helvetica,Arial,sans-serif" font-size="12.00" fill="#3db7d6">1.67e&#45;01</text>
</g>
<!-- 15 -->
<g id="node14" class="node">
<title>15</title>
<ellipse fill="#dddddd" stroke="black" cx="662" cy="-687.75" rx="43.75" ry="18"/>
<text text-anchor="middle" x="662" y="-682.72" font-family="Helvetica,Arial,sans-serif" font-size="12.00">0,0,0,0,0,0</text>
</g>
<!-- 4&#45;&gt;15 -->
<g id="edge14" class="edge">
<title>4&#45;&gt;15</title>
<path fill="none" stroke="#d28ef6" d="M506.47,-670.91C536.02,-658.7 597.68,-657.5 633.54,-667.31"/>
<polygon fill="#d28ef6" stroke="#d28ef6" points="632.17,-670.54 642.77,-670.4 634.4,-663.9 632.17,-670.54"/>
<text text-anchor="middle" x="551.78" y="-649.35" font-family="Helvetica,Arial,sans-serif" font-size="12.00" fill="#d28ef6">3.33e&#45;01</text>
</g>
<!-- 16 -->
<g id="node15" class="node">
<title>16</title>
<ellipse fill="#dddddd" stroke="black" cx="662" cy="-795.75" rx="43.75" ry="18"/>
<text text-anchor="middle" x="662" y="-790.72" font-family="Helvetica,Arial,sans-serif" font-size="12.00">0,0,0,0,0,0</text>
</g>
<!-- 4&#45;&gt;16 -->
<g id="edge15" class="edge">
<title>4&#45;&gt;16</title>
<path fill="none" stroke="#f780d2" d="M532.08,-690.78C568.72,-707.71 619.73,-742.28 645.2,-769.33"/>
<polygon fill="#f780d2" stroke="#f780d2" points="642.36,-771.39 651.54,-776.68 647.66,-766.82 642.36,-771.39"/>
<text text-anchor="middle" x="572.56" y="-717.19" font-family="Helvetica,Arial,sans-serif" font-size="12.00" fill="#f780d2">1.67e&#45;01</text>
</g>
<!-- 11&#45;&gt;2 -->
<g id="edge25" class="edge">
<title>11&#45;&gt;2</title>
<path fill="none" stroke="#f780d2" d="M472.13,-164.7C445.17,-176.68 389.61,-177.95 356.58,-168.51"/>
<polygon fill="#f780d2" stroke="#f780d2" points="357.94,-165.28 347.35,-165.23 355.6,-171.88 357.94,-165.28"/>
<text text-anchor="middle" x="397.46" y="-163.35" font-family="Helvetica,Arial,sans-serif" font-size="12.00" fill="#f780d2">1.00</text>
</g>
<!-- 12&#45;&gt;2 -->
<g id="edge26" class="edge">
<title>12&#45;&gt;2</title>
<path fill="none" stroke="#f8889a" d="M479.96,-57.66C462.28,-82.47 417.82,-117.28 381.91,-137.85"/>
<polygon fill="#f8889a" stroke="#f8889a" points="380.46,-134.65 373.37,-142.53 383.82,-140.8 380.46,-134.65"/>
<text text-anchor="middle" x="418.07" y="-94.3" font-family="Helvetica,Arial,sans-serif" font-size="12.00" fill="#f8889a">1.00</text>
</g>
<!-- 5 -->
<g id="node16" class="node">
<title>5</title>
<ellipse fill="#dddddd" stroke="black" cx="835.27" cy="-579.75" rx="43.75" ry="18"/>
<text text-anchor="middle" x="835.27" y="-574.72" font-family="Helvetica,Arial,sans-serif" font-size="12.00">0,1,1,0,0,0</text>
</g>
<!-- 8&#45;&gt;5 -->
<g id="edge22" class="edge">
<title>8&#45;&gt;5</title>
<path fill="none" stroke="#3db7d6" d="M688.64,-487.92C718.5,-506.74 767.9,-537.89 800.76,-558.62"/>
<polygon fill="#3db7d6" stroke="#3db7d6" points="798.78,-561.51 809.11,-563.88 802.52,-555.59 798.78,-561.51"/>
<text text-anchor="middle" x="738.11" y="-515.04" font-family="Helvetica,Arial,sans-serif" font-size="12.00" fill="#3db7d6">1.00</text>
</g>
<!-- 7 -->
<g id="node17" class="node">
<title>7</title>
<ellipse fill="#9f9f9f" stroke="black" cx="994.76" cy="-354.75" rx="43.75" ry="18"/>
<text text-anchor="middle" x="994.76" y="-349.72" font-family="Helvetica,Arial,sans-serif" font-size="12.00">0,0,0,0,1,0</text>
</g>
<!-- 6&#45;&gt;7 -->
<g id="edge19" class="edge">
<title>6&#45;&gt;7</title>
<path fill="none" stroke="#82b936" d="M689.09,-349.14C714.38,-335.87 754.27,-317.26 791.52,-309.75 829.64,-302.07 840.81,-302.53 879.02,-309.75 905.76,-314.81 934.25,-325.95 956.16,-335.88"/>
<polygon fill="#82b936" stroke="#82b936" points="954.43,-338.93 964.97,-339.98 957.38,-332.59 954.43,-338.93"/>
<text text-anchor="middle" x="801.06" y="-293.16" font-family="Helvetica,Arial,sans-serif" font-size="12.00" fill="#82b936">3.33e&#45;01</text>
</g>
<!-- 19 -->
<g id="node20" class="node">
<title>19</title>
<ellipse fill="#dddddd" stroke="black" cx="835.27" cy="-363.75" rx="43.75" ry="18"/>
<text text-anchor="middle" x="835.27" y="-358.72" font-family="Helvetica,Arial,sans-serif" font-size="12.00">0,0,0,0,0,0</text>
</g>
<!-- 6&#45;&gt;19 -->
<g id="edge20" class="edge">
<title>6&#45;&gt;19</title>
<path fill="none" stroke="#38bf85" d="M679.74,-346.91C709.28,-334.7 770.95,-333.5 806.81,-343.31"/>
<polygon fill="#38bf85" stroke="#38bf85" points="805.44,-346.54 816.03,-346.4 807.66,-339.9 805.44,-346.54"/>
<text text-anchor="middle" x="725.04" y="-325.35" font-family="Helvetica,Arial,sans-serif" font-size="12.00" fill="#38bf85">3.33e&#45;01</text>
</g>
<!-- 20 -->
<g id="node21" class="node">
<title>20</title>
<ellipse fill="#dddddd" stroke="black" cx="835.27" cy="-471.75" rx="43.75" ry="18"/>
<text text-anchor="middle" x="835.27" y="-466.72" font-family="Helvetica,Arial,sans-serif" font-size="12.00">0,0,0,0,0,0</text>
</g>
<!-- 6&#45;&gt;20 -->
<g id="edge21" class="edge">
<title>6&#45;&gt;20</title>
<path fill="none" stroke="#3bbbb2" d="M705.34,-366.78C741.99,-383.71 792.99,-418.28 818.47,-445.33"/>
<polygon fill="#3bbbb2" stroke="#3bbbb2" points="815.62,-447.39 824.8,-452.68 820.92,-442.82 815.62,-447.39"/>
<text text-anchor="middle" x="745.82" y="-393.19" font-family="Helvetica,Arial,sans-serif" font-size="12.00" fill="#3bbbb2">3.33e&#45;01</text>
</g>
<!-- 13&#45;&gt;3 -->
<g id="edge27" class="edge">
<title>13&#45;&gt;3</title>
<path fill="none" stroke="#ee9537" d="M652.53,-165.68C632.7,-191.25 582,-227.41 542.4,-247.68"/>
<polygon fill="#ee9537" stroke="#ee9537" points="540.89,-244.52 533.44,-252.05 543.96,-250.81 540.89,-244.52"/>
<text text-anchor="middle" x="584.64" y="-203.45" font-family="Helvetica,Arial,sans-serif" font-size="12.00" fill="#ee9537">1.00</text>
</g>
<!-- 14&#45;&gt;3 -->
<g id="edge28" class="edge">
<title>14&#45;&gt;3</title>
<path fill="none" stroke="#bcaa36" d="M644.2,-272.62C614.61,-284.82 552.94,-286 517.12,-276.17"/>
<polygon fill="#bcaa36" stroke="#bcaa36" points="518.5,-272.94 507.91,-273.08 516.27,-279.58 518.5,-272.94"/>
<text text-anchor="middle" x="563.61" y="-271.35" font-family="Helvetica,Arial,sans-serif" font-size="12.00" fill="#bcaa36">1.00</text>
</g>
<!-- 9&#45;&gt;5 -->
<g id="edge23" class="edge">
<title>9&#45;&gt;5</title>
<path fill="none" stroke="#86a8f6" d="M719.56,-579.75C738.93,-579.75 760.56,-579.75 779.77,-579.75"/>
<polygon fill="#86a8f6" stroke="#86a8f6" points="779.56,-583.25 789.56,-579.75 779.56,-576.25 779.56,-583.25"/>
<text text-anchor="middle" x="743.37" y="-568.35" font-family="Helvetica,Arial,sans-serif" font-size="12.00" fill="#86a8f6">1.00</text>
</g>
<!-- 15&#45;&gt;4 -->
<g id="edge29" class="edge">
<title>15&#45;&gt;4</title>
<path fill="none" stroke="#82b936" d="M644.2,-704.62C614.61,-716.82 552.94,-718 517.12,-708.17"/>
<polygon fill="#82b936" stroke="#82b936" points="518.5,-704.94 507.91,-705.08 516.27,-711.58 518.5,-704.94"/>
<text text-anchor="middle" x="563.61" y="-703.35" font-family="Helvetica,Arial,sans-serif" font-size="12.00" fill="#82b936">1.00</text>
</g>
<!-- 16&#45;&gt;4 -->
<g id="edge30" class="edge">
<title>16&#45;&gt;4</title>
<path fill="none" stroke="#38bf85" d="M618.61,-792.69C581.98,-775.76 531.03,-741.22 505.56,-714.18"/>
<polygon fill="#38bf85" stroke="#38bf85" points="508.41,-712.13 499.22,-706.84 503.11,-716.7 508.41,-712.13"/>
<text text-anchor="middle" x="542.92" y="-743.5" font-family="Helvetica,Arial,sans-serif" font-size="12.00" fill="#38bf85">1.00</text>
</g>
<!-- 5&#45;&gt;7 -->
<g id="edge16" class="edge">
<title>5&#45;&gt;7</title>
<path fill="none" stroke="#f8889a" d="M850.48,-562.51C858.97,-552.04 869.85,-538.31 879.02,-525.75 915.46,-475.8 955.03,-415.31 976.87,-381.3"/>
<polygon fill="#f8889a" stroke="#f8889a" points="979.54,-383.63 981.98,-373.32 973.64,-379.85 979.54,-383.63"/>
<text text-anchor="middle" x="942.59" y="-457.52" font-family="Helvetica,Arial,sans-serif" font-size="12.00" fill="#f8889a">3.33e&#45;01</text>
</g>
<!-- 17 -->
<g id="node18" class="node">
<title>17</title>
<ellipse fill="#dddddd" stroke="black" cx="994.76" cy="-525.75" rx="43.75" ry="18"/>
<text text-anchor="middle" x="994.76" y="-520.72" font-family="Helvetica,Arial,sans-serif" font-size="12.00">0,0,0,0,0,0</text>
</g>
<!-- 5&#45;&gt;17 -->
<g id="edge17" class="edge">
<title>5&#45;&gt;17</title>
<path fill="none" stroke="#ee9537" d="M846.6,-561.97C866.86,-542.95 912.87,-523.67 948.09,-516.65"/>
<polygon fill="#ee9537" stroke="#ee9537" points="948.32,-520.16 957.61,-515.06 947.17,-513.25 948.32,-520.16"/>
<text text-anchor="middle" x="876.43" y="-519.92" font-family="Helvetica,Arial,sans-serif" font-size="12.00" fill="#ee9537">3.33e&#45;01</text>
</g>
<!-- 18 -->
<g id="node19" class="node">
<title>18</title>
<ellipse fill="#dddddd" stroke="black" cx="994.76" cy="-633.75" rx="43.75" ry="18"/>
<text text-anchor="middle" x="994.76" y="-628.72" font-family="Helvetica,Arial,sans-serif" font-size="12.00">0,0,0,0,0,0</text>
</g>
<!-- 5&#45;&gt;18 -->
<g id="edge18" class="edge">
<title>5&#45;&gt;18</title>
<path fill="none" stroke="#bcaa36" d="M870.83,-568.8C902.79,-572.93 949.1,-590.3 974.79,-608.92"/>
<polygon fill="#bcaa36" stroke="#bcaa36" points="972.43,-611.5 982.38,-615.13 976.86,-606.09 972.43,-611.5"/>
<text text-anchor="middle" x="906.36" y="-573.92" font-family="Helvetica,Arial,sans-serif" font-size="12.00" fill="#bcaa36">3.33e&#45;01</text>
</g>
<!-- 17&#45;&gt;5 -->
<g id="edge31" class="edge">
<title>17&#45;&gt;5</title>
<path fill="none" stroke="#3bbbb2" d="M983.56,-543.41C963.35,-562.48 917.17,-581.84 881.87,-588.87"/>
<polygon fill="#3bbbb2" stroke="#3bbbb2" points="881.62,-585.36 872.32,-590.45 882.76,-592.27 881.62,-585.36"/>
<text text-anchor="middle" x="941.66" y="-562.76" font-family="Helvetica,Arial,sans-serif" font-size="12.00" fill="#3bbbb2">1.00</text>
</g>
<!-- 18&#45;&gt;5 -->
<g id="edge32" class="edge">
<title>18&#45;&gt;5</title>
<path fill="none" stroke="#3db7d6" d="M959.1,-644.68C927.21,-640.54 881.07,-623.24 855.38,-604.68"/>
<polygon fill="#3db7d6" stroke="#3db7d6" points="857.74,-602.09 847.78,-598.49 853.32,-607.52 857.74,-602.09"/>
<text text-anchor="middle" x="888.48" y="-616.8" font-family="Helvetica,Arial,sans-serif" font-size="12.00" fill="#3db7d6">1.00</text>
</g>
<!-- 19&#45;&gt;6 -->
<g id="edge33" class="edge">
<title>19&#45;&gt;6</title>
<path fill="none" stroke="#86a8f6" d="M817.47,-380.62C787.87,-392.82 726.2,-394 690.39,-384.17"/>
<polygon fill="#86a8f6" stroke="#86a8f6" points="691.77,-380.94 681.17,-381.08 689.54,-387.58 691.77,-380.94"/>
<text text-anchor="middle" x="736.88" y="-379.35" font-family="Helvetica,Arial,sans-serif" font-size="12.00" fill="#86a8f6">1.00</text>
</g>
<!-- 20&#45;&gt;6 -->
<g id="edge34" class="edge">
<title>20&#45;&gt;6</title>
<path fill="none" stroke="#d28ef6" d="M791.88,-468.69C755.24,-451.76 704.29,-417.22 678.82,-390.18"/>
<polygon fill="#d28ef6" stroke="#d28ef6" points="681.67,-388.13 672.49,-382.84 676.37,-392.7 681.67,-388.13"/>
<text text-anchor="middle" x="716.19" y="-419.5" font-family="Helvetica,Arial,sans-serif" font-size="12.00" fill="#d28ef6">1.00</text>
</g>
</g>
</svg>
