<?xml version="1.0" encoding="UTF-8" standalone="no"?>
<!DOCTYPE svg PUBLIC "-//W3C//DTD SVG 1.1//EN"
 "http://www.w3.org/Graphics/SVG/1.1/DTD/svg11.dtd">
<!-- Generated by graphviz version 13.1.2 (0)
 -->
<!-- Pages: 1 -->
<svg width="378pt" height="216pt"
 viewBox="0.00 0.00 378.00 216.00" xmlns="http://www.w3.org/2000/svg" xmlns:xlink="http://www.w3.org/1999/xlink">
<g id="graph0" class="graph" transform="scale(1 1) rotate(0) translate(36 180)">
<!-- 0 -->
<g id="node1" class="node">
<title>0</title>
<ellipse fill="#eeeeee" stroke="black" cx="27" cy="-72" rx="27" ry="18"/>
<text xml:space="preserve" text-anchor="middle" x="27" y="-66.97" font-family="Helvetica,Arial,sans-serif" font-size="12.00">S</text>
</g>
<!-- 1 -->
<g id="node2" class="node">
<title>1</title>
<ellipse fill="#eeeeee" stroke="black" cx="153" cy="-126" rx="27" ry="18"/>
<text xml:space="preserve" text-anchor="middle" x="153" y="-120.97" font-family="Helvetica,Arial,sans-serif" font-size="12.00">1</text>
</g>
<!-- 0&#45;&gt;1 -->
<g id="edge1" class="edge">
<title>0&#45;&gt;1</title>
<path fill="none" stroke="#b41c46" d="M50.17,-81.65C69.48,-90.06 97.72,-102.36 119.57,-111.88"/>
<polygon fill="#b41c46" stroke="#b41c46" points="118.07,-115.04 128.64,-115.83 120.86,-108.62 118.07,-115.04"/>
<text xml:space="preserve" text-anchor="middle" x="113.85" y="-87.7" font-family="Helvetica,Arial,sans-serif" font-size="12.00" fill="#b41c46">7.50e&#45;01</text>
</g>
<!-- 2 -->
<g id="node3" class="node">
<title>2</title>
<ellipse fill="#eeeeee" stroke="black" cx="153" cy="-18" rx="27" ry="18"/>
<text xml:space="preserve" text-anchor="middle" x="153" y="-12.97" font-family="Helvetica,Arial,sans-serif" font-size="12.00">2</text>
</g>
<!-- 0&#45;&gt;2 -->
<g id="edge2" class="edge">
<title>0&#45;&gt;2</title>
<path fill="none" stroke="#85511a" d="M50.17,-62.35C69.48,-53.94 97.72,-41.64 119.57,-32.12"/>
<polygon fill="#85511a" stroke="#85511a" points="120.86,-35.38 128.64,-28.17 118.07,-28.96 120.86,-35.38"/>
<text xml:space="preserve" text-anchor="middle" x="66.6" y="-33.5" font-family="Helvetica,Arial,sans-serif" font-size="12.00" fill="#85511a">2.50e&#45;01</text>
</g>
<!-- 3 -->
<g id="node4" class="node">
<title>3</title>
<ellipse fill="#eeeeee" stroke="black" cx="279" cy="-72" rx="27" ry="18"/>
<text xml:space="preserve" text-anchor="middle" x="279" y="-66.97" font-family="Helvetica,Arial,sans-serif" font-size="12.00">3</text>
</g>
<!-- 1&#45;&gt;3 -->
<g id="edge3" class="edge">
<title>1&#45;&gt;3</title>
<path fill="none" stroke="#685e1a" d="M176.17,-116.35C195.48,-107.94 223.72,-95.64 245.57,-86.12"/>
<polygon fill="#685e1a" stroke="#685e1a" points="246.86,-89.38 254.64,-82.17 244.07,-82.96 246.86,-89.38"/>
<text xml:space="preserve" text-anchor="middle" x="204.6" y="-87.5" font-family="Helvetica,Arial,sans-serif" font-size="12.00" fill="#685e1a">5.00</text>
</g>
<!-- 2&#45;&gt;3 -->
<g id="edge4" class="edge">
<title>2&#45;&gt;3</title>
<path fill="none" stroke="#46671a" d="M176.17,-27.65C195.48,-36.06 223.72,-48.36 245.57,-57.88"/>
<polygon fill="#46671a" stroke="#46671a" points="244.07,-61.04 254.64,-61.83 246.86,-54.62 244.07,-61.04"/>
<text xml:space="preserve" text-anchor="middle" x="204.6" y="-33.7" font-family="Helvetica,Arial,sans-serif" font-size="12.00" fill="#46671a">1.00</text>
</g>
</g>
</svg>
