<?xml version="1.0" encoding="UTF-8" standalone="no"?>
<!DOCTYPE svg PUBLIC "-//W3C//DTD SVG 1.1//EN"
 "http://www.w3.org/Graphics/SVG/1.1/DTD/svg11.dtd">
<!-- Generated by graphviz version 12.0.0 (0)
 -->
<!-- Pages: 1 -->
<svg width="504pt" height="346pt"
 viewBox="0.00 0.00 504.00 345.75" xmlns="http://www.w3.org/2000/svg" xmlns:xlink="http://www.w3.org/1999/xlink">
<g id="graph0" class="graph" transform="scale(1 1) rotate(0) translate(36 309.75)">
<polygon fill="#1f1f1f" stroke="none" points="-36,36 -36,-309.75 468,-309.75 468,36 -36,36"/>
<!-- 0 -->
<g id="node1" class="node">
<title>0</title>
<ellipse fill="#aaaaaa" stroke="black" cx="27" cy="-39.75" rx="27" ry="18"/>
<text text-anchor="middle" x="27" y="-34.72" font-family="Helvetica,Arial,sans-serif" font-size="12.00">S</text>
</g>
<!-- 1 -->
<g id="node2" class="node">
<title>1</title>
<ellipse fill="#dddddd" stroke="black" cx="153" cy="-39.75" rx="27" ry="18"/>
<text text-anchor="middle" x="153" y="-34.72" font-family="Helvetica,Arial,sans-serif" font-size="12.00">1</text>
</g>
<!-- 0&#45;&gt;1 -->
<g id="edge1" class="edge">
<title>0&#45;&gt;1</title>
<path fill="none" stroke="#f8889a" d="M54.3,-39.75C71.72,-39.75 94.86,-39.75 114.24,-39.75"/>
<polygon fill="#f8889a" stroke="#f8889a" points="114.23,-43.25 124.23,-39.75 114.23,-36.25 114.23,-43.25"/>
<text text-anchor="middle" x="78.26" y="-28.35" font-family="Helvetica,Arial,sans-serif" font-size="12.00" fill="#f8889a">1.00</text>
</g>
<!-- 2 -->
<g id="node3" class="node">
<title>2</title>
<ellipse fill="#dddddd" stroke="black" cx="279" cy="-147.75" rx="27" ry="18"/>
<text text-anchor="middle" x="279" y="-142.72" font-family="Helvetica,Arial,sans-serif" font-size="12.00">2</text>
</g>
<!-- 1&#45;&gt;2 -->
<g id="edge2" class="edge">
<title>1&#45;&gt;2</title>
<path fill="none" stroke="#ee9537" d="M170.21,-53.87C191.38,-72.3 228.63,-104.75 253.31,-126.25"/>
<polygon fill="#ee9537" stroke="#ee9537" points="250.8,-128.7 260.64,-132.63 255.4,-123.43 250.8,-128.7"/>
<text text-anchor="middle" x="192.12" y="-82.13" font-family="Helvetica,Arial,sans-serif" font-size="12.00" fill="#ee9537">8.00e&#45;01</text>
</g>
<!-- 4 -->
<g id="node4" class="node">
<title>4</title>
<ellipse fill="#dddddd" stroke="black" cx="279" cy="-39.75" rx="27" ry="18"/>
<text text-anchor="middle" x="279" y="-34.72" font-family="Helvetica,Arial,sans-serif" font-size="12.00">0</text>
</g>
<!-- 1&#45;&gt;4 -->
<g id="edge3" class="edge">
<title>1&#45;&gt;4</title>
<path fill="none" stroke="#bcaa36" d="M165.44,-23.3C186.11,-10.99 229.98,-9.45 256.43,-18.69"/>
<polygon fill="#bcaa36" stroke="#bcaa36" points="254.66,-21.73 265.21,-22.69 257.55,-15.36 254.66,-21.73"/>
<text text-anchor="middle" x="192.28" y="-1.35" font-family="Helvetica,Arial,sans-serif" font-size="12.00" fill="#bcaa36">2.00e&#45;01</text>
</g>
<!-- 3 -->
<g id="node5" class="node">
<title>3</title>
<ellipse fill="#9f9f9f" stroke="black" cx="405" cy="-255.75" rx="27" ry="18"/>
<text text-anchor="middle" x="405" y="-250.72" font-family="Helvetica,Arial,sans-serif" font-size="12.00">3</text>
</g>
<!-- 2&#45;&gt;3 -->
<g id="edge4" class="edge">
<title>2&#45;&gt;3</title>
<path fill="none" stroke="#82b936" d="M296.21,-161.87C317.38,-180.3 354.63,-212.75 379.31,-234.25"/>
<polygon fill="#82b936" stroke="#82b936" points="376.8,-236.7 386.64,-240.63 381.4,-231.43 376.8,-236.7"/>
<text text-anchor="middle" x="318.12" y="-190.13" font-family="Helvetica,Arial,sans-serif" font-size="12.00" fill="#82b936">6.67e&#45;01</text>
</g>
<!-- 5 -->
<g id="node6" class="node">
<title>5</title>
<ellipse fill="#dddddd" stroke="black" cx="405" cy="-147.75" rx="27" ry="18"/>
<text text-anchor="middle" x="405" y="-142.72" font-family="Helvetica,Arial,sans-serif" font-size="12.00">0</text>
</g>
<!-- 2&#45;&gt;5 -->
<g id="edge5" class="edge">
<title>2&#45;&gt;5</title>
<path fill="none" stroke="#38bf85" d="M291.44,-131.3C312.11,-118.99 355.98,-117.45 382.43,-126.69"/>
<polygon fill="#38bf85" stroke="#38bf85" points="380.66,-129.73 391.21,-130.69 383.55,-123.36 380.66,-129.73"/>
<text text-anchor="middle" x="318.28" y="-109.35" font-family="Helvetica,Arial,sans-serif" font-size="12.00" fill="#38bf85">3.33e&#45;01</text>
</g>
<!-- 4&#45;&gt;1 -->
<g id="edge6" class="edge">
<title>4&#45;&gt;1</title>
<path fill="none" stroke="#3bbbb2" d="M266.58,-56.19C245.94,-68.51 202.07,-70.05 175.6,-60.82"/>
<polygon fill="#3bbbb2" stroke="#3bbbb2" points="177.37,-57.78 166.82,-56.83 174.48,-64.15 177.37,-57.78"/>
<text text-anchor="middle" x="204.51" y="-55.35" font-family="Helvetica,Arial,sans-serif" font-size="12.00" fill="#3bbbb2">1.00</text>
</g>
<!-- 5&#45;&gt;2 -->
<g id="edge7" class="edge">
<title>5&#45;&gt;2</title>
<path fill="none" stroke="#3db7d6" d="M392.58,-164.19C371.94,-176.51 328.07,-178.05 301.6,-168.82"/>
<polygon fill="#3db7d6" stroke="#3db7d6" points="303.37,-165.78 292.82,-164.83 300.48,-172.15 303.37,-165.78"/>
<text text-anchor="middle" x="330.51" y="-163.35" font-family="Helvetica,Arial,sans-serif" font-size="12.00" fill="#3db7d6">1.00</text>
</g>
</g>
</svg>
