<?xml version="1.0" encoding="UTF-8" standalone="no"?>
<!DOCTYPE svg PUBLIC "-//W3C//DTD SVG 1.1//EN"
 "http://www.w3.org/Graphics/SVG/1.1/DTD/svg11.dtd">
<!-- Generated by graphviz version 13.1.2 (0)
 -->
<!-- Pages: 1 -->
<svg width="504pt" height="172pt"
 viewBox="0.00 0.00 504.00 172.00" xmlns="http://www.w3.org/2000/svg" xmlns:xlink="http://www.w3.org/1999/xlink">
<g id="graph0" class="graph" transform="scale(1 1) rotate(0) translate(36 136)">
<polygon fill="#1f1f1f" stroke="none" points="-36,36 -36,-136 468,-136 468,36 -36,36"/>
<!-- 0 -->
<g id="node1" class="node">
<title>0</title>
<ellipse fill="#777777" stroke="black" cx="27" cy="-81" rx="27" ry="18"/>
<text xml:space="preserve" text-anchor="middle" x="27" y="-75.97" font-family="Helvetica,Arial,sans-serif" font-size="12.00">S</text>
</g>
<!-- 1 -->
<g id="node2" class="node">
<title>1</title>
<ellipse fill="#c6c6c6" stroke="black" cx="153" cy="-18" rx="27" ry="18"/>
<text xml:space="preserve" text-anchor="middle" x="153" y="-12.97" font-family="Helvetica,Arial,sans-serif" font-size="12.00">1,0</text>
</g>
<!-- 0&#45;&gt;1 -->
<g id="edge1" class="edge">
<title>0&#45;&gt;1</title>
<path fill="none" stroke="#f8889a" d="M49.03,-70.31C68.72,-60.31 98.38,-45.24 120.81,-33.84"/>
<polygon fill="#f8889a" stroke="#f8889a" points="122.18,-37.08 129.51,-29.43 119.01,-30.83 122.18,-37.08"/>
<text xml:space="preserve" text-anchor="middle" x="66.23" y="-38.18" font-family="Helvetica,Arial,sans-serif" font-size="12.00" fill="#f8889a">5.00e&#45;01</text>
</g>
<!-- 2 -->
<g id="node3" class="node">
<title>2</title>
<ellipse fill="#c6c6c6" stroke="black" cx="279" cy="-82" rx="27" ry="18"/>
<text xml:space="preserve" text-anchor="middle" x="279" y="-76.97" font-family="Helvetica,Arial,sans-serif" font-size="12.00">0,1</text>
</g>
<!-- 0&#45;&gt;2 -->
<g id="edge2" class="edge">
<title>0&#45;&gt;2</title>
<path fill="none" stroke="#ee9537" d="M54.28,-81.11C98.83,-81.28 189.29,-81.65 240.49,-81.85"/>
<polygon fill="#ee9537" stroke="#ee9537" points="240.17,-85.35 250.18,-81.89 240.2,-78.35 240.17,-85.35"/>
<text xml:space="preserve" text-anchor="middle" x="129.38" y="-70.1" font-family="Helvetica,Arial,sans-serif" font-size="12.00" fill="#ee9537">5.00e&#45;01</text>
</g>
<!-- 1&#45;&gt;2 -->
<g id="edge3" class="edge">
<title>1&#45;&gt;2</title>
<path fill="none" stroke="#bcaa36" d="M176.17,-8.18C201.26,-12.6 241.44,-34.32 263.07,-55.97"/>
<polygon fill="#bcaa36" stroke="#bcaa36" points="260.38,-58.22 269.62,-63.41 265.64,-53.59 260.38,-58.22"/>
<text xml:space="preserve" text-anchor="middle" x="215.96" y="-18" font-family="Helvetica,Arial,sans-serif" font-size="12.00" fill="#bcaa36">1.00</text>
</g>
<!-- 3 -->
<g id="node4" class="node">
<title>3</title>
<ellipse fill="#777777" stroke="black" cx="405" cy="-18" rx="27" ry="18"/>
<text xml:space="preserve" text-anchor="middle" x="405" y="-12.97" font-family="Helvetica,Arial,sans-serif" font-size="12.00">9,9</text>
</g>
<!-- 1&#45;&gt;3 -->
<g id="edge4" class="edge">
<title>1&#45;&gt;3</title>
<path fill="none" stroke="#82b936" d="M180.28,-18C224.83,-18 315.29,-18 366.49,-18"/>
<polygon fill="#82b936" stroke="#82b936" points="366.18,-21.5 376.18,-18 366.18,-14.5 366.18,-21.5"/>
<text xml:space="preserve" text-anchor="middle" x="267.38" y="-6.6" font-family="Helvetica,Arial,sans-serif" font-size="12.00" fill="#82b936">1.00</text>
</g>
<!-- 2&#45;&gt;1 -->
<g id="edge5" class="edge">
<title>2&#45;&gt;1</title>
<path fill="none" stroke="#38bf85" d="M255.84,-91.82C230.76,-87.41 190.57,-65.69 168.94,-44.04"/>
<polygon fill="#38bf85" stroke="#38bf85" points="171.62,-41.79 162.39,-36.6 166.37,-46.42 171.62,-41.79"/>
<text xml:space="preserve" text-anchor="middle" x="192.81" y="-59.21" font-family="Helvetica,Arial,sans-serif" font-size="12.00" fill="#38bf85">1.00</text>
</g>
<!-- 2&#45;&gt;3 -->
<g id="edge6" class="edge">
<title>2&#45;&gt;3</title>
<path fill="none" stroke="#3bbbb2" d="M301.03,-71.14C320.72,-60.98 350.38,-45.68 372.81,-34.1"/>
<polygon fill="#3bbbb2" stroke="#3bbbb2" points="374.24,-37.3 381.52,-29.6 371.03,-31.08 374.24,-37.3"/>
<text xml:space="preserve" text-anchor="middle" x="330.23" y="-38.68" font-family="Helvetica,Arial,sans-serif" font-size="12.00" fill="#3bbbb2">1.00</text>
</g>
</g>
</svg>
