<?xml version="1.0" encoding="UTF-8" standalone="no"?>
<!DOCTYPE svg PUBLIC "-//W3C//DTD SVG 1.1//EN"
 "http://www.w3.org/Graphics/SVG/1.1/DTD/svg11.dtd">
<!-- Generated by graphviz version 12.0.0 (0)
 -->
<!-- Pages: 1 -->
<svg width="504pt" height="62pt"
 viewBox="0.00 0.00 504.00 61.71" xmlns="http://www.w3.org/2000/svg" xmlns:xlink="http://www.w3.org/1999/xlink">
<g id="graph0" class="graph" transform="scale(0.571429 0.571429) rotate(0) translate(36 72)">
<polygon fill="#1f1f1f" stroke="none" points="-36,36 -36,-72 846,-72 846,36 -36,36"/>
<!-- 0 -->
<g id="node1" class="node">
<title>0</title>
<ellipse fill="#aaaaaa" stroke="black" cx="27" cy="-18" rx="27" ry="18"/>
<text text-anchor="middle" x="27" y="-12.97" font-family="Helvetica,Arial,sans-serif" font-size="12.00">S</text>
</g>
<!-- 1 -->
<g id="node2" class="node">
<title>1</title>
<ellipse fill="#dddddd" stroke="black" cx="153" cy="-18" rx="27" ry="18"/>
<text text-anchor="middle" x="153" y="-12.97" font-family="Helvetica,Arial,sans-serif" font-size="12.00">1,0,0</text>
</g>
<!-- 0&#45;&gt;1 -->
<g id="edge1" class="edge">
<title>0&#45;&gt;1</title>
<path fill="none" stroke="#f780d2" d="M54.3,-18C71.72,-18 94.86,-18 114.24,-18"/>
<polygon fill="#f780d2" stroke="#f780d2" points="114.23,-21.5 124.23,-18 114.23,-14.5 114.23,-21.5"/>
<text text-anchor="middle" x="78.26" y="-6.6" font-family="Helvetica,Arial,sans-serif" font-size="12.00" fill="#f780d2">1.00</text>
</g>
<!-- 2 -->
<g id="node3" class="node">
<title>2</title>
<ellipse fill="#dddddd" stroke="black" cx="279" cy="-18" rx="27" ry="18"/>
<text text-anchor="middle" x="279" y="-12.97" font-family="Helvetica,Arial,sans-serif" font-size="12.00">0,1,1</text>
</g>
<!-- 1&#45;&gt;2 -->
<g id="edge2" class="edge">
<title>1&#45;&gt;2</title>
<path fill="none" stroke="#f8889a" d="M180.3,-18C197.72,-18 220.86,-18 240.24,-18"/>
<polygon fill="#f8889a" stroke="#f8889a" points="240.23,-21.5 250.23,-18 240.23,-14.5 240.23,-21.5"/>
<text text-anchor="middle" x="204.26" y="-6.6" font-family="Helvetica,Arial,sans-serif" font-size="12.00" fill="#f8889a">1.00</text>
</g>
<!-- 3 -->
<g id="node4" class="node">
<title>3</title>
<ellipse fill="#dddddd" stroke="black" cx="405" cy="-18" rx="27" ry="18"/>
<text text-anchor="middle" x="405" y="-12.97" font-family="Helvetica,Arial,sans-serif" font-size="12.00">1,0,2</text>
</g>
<!-- 2&#45;&gt;3 -->
<g id="edge3" class="edge">
<title>2&#45;&gt;3</title>
<path fill="none" stroke="#ee9537" d="M306.3,-18C323.72,-18 346.86,-18 366.24,-18"/>
<polygon fill="#ee9537" stroke="#ee9537" points="366.23,-21.5 376.23,-18 366.23,-14.5 366.23,-21.5"/>
<text text-anchor="middle" x="330.26" y="-6.6" font-family="Helvetica,Arial,sans-serif" font-size="12.00" fill="#ee9537">1.00</text>
</g>
<!-- 4 -->
<g id="node5" class="node">
<title>4</title>
<ellipse fill="#dddddd" stroke="black" cx="531" cy="-18" rx="27" ry="18"/>
<text text-anchor="middle" x="531" y="-12.97" font-family="Helvetica,Arial,sans-serif" font-size="12.00">0,1,3</text>
</g>
<!-- 3&#45;&gt;4 -->
<g id="edge4" class="edge">
<title>3&#45;&gt;4</title>
<path fill="none" stroke="#bcaa36" d="M432.3,-18C449.72,-18 472.86,-18 492.24,-18"/>
<polygon fill="#bcaa36" stroke="#bcaa36" points="492.23,-21.5 502.23,-18 492.23,-14.5 492.23,-21.5"/>
<text text-anchor="middle" x="456.26" y="-6.6" font-family="Helvetica,Arial,sans-serif" font-size="12.00" fill="#bcaa36">1.00</text>
</g>
<!-- 5 -->
<g id="node6" class="node">
<title>5</title>
<ellipse fill="#dddddd" stroke="black" cx="657" cy="-18" rx="27" ry="18"/>
<text text-anchor="middle" x="657" y="-12.97" font-family="Helvetica,Arial,sans-serif" font-size="12.00">1,0,4</text>
</g>
<!-- 4&#45;&gt;5 -->
<g id="edge5" class="edge">
<title>4&#45;&gt;5</title>
<path fill="none" stroke="#82b936" d="M558.3,-18C575.72,-18 598.86,-18 618.24,-18"/>
<polygon fill="#82b936" stroke="#82b936" points="618.23,-21.5 628.23,-18 618.23,-14.5 618.23,-21.5"/>
<text text-anchor="middle" x="582.26" y="-6.6" font-family="Helvetica,Arial,sans-serif" font-size="12.00" fill="#82b936">1.00</text>
</g>
<!-- 6 -->
<g id="node7" class="node">
<title>6</title>
<ellipse fill="#9f9f9f" stroke="black" cx="783" cy="-18" rx="27" ry="18"/>
<text text-anchor="middle" x="783" y="-12.97" font-family="Helvetica,Arial,sans-serif" font-size="12.00">0,1,5</text>
</g>
<!-- 5&#45;&gt;6 -->
<g id="edge6" class="edge">
<title>5&#45;&gt;6</title>
<path fill="none" stroke="#38bf85" d="M684.3,-18C701.72,-18 724.86,-18 744.24,-18"/>
<polygon fill="#38bf85" stroke="#38bf85" points="744.23,-21.5 754.23,-18 744.23,-14.5 744.23,-21.5"/>
<text text-anchor="middle" x="708.26" y="-6.6" font-family="Helvetica,Arial,sans-serif" font-size="12.00" fill="#38bf85">1.00</text>
</g>
</g>
</svg>
