<?xml version="1.0" encoding="UTF-8" standalone="no"?>
<!DOCTYPE svg PUBLIC "-//W3C//DTD SVG 1.1//EN"
 "http://www.w3.org/Graphics/SVG/1.1/DTD/svg11.dtd">
<!-- Generated by graphviz version 13.1.2 (0)
 -->
<!-- Pages: 1 -->
<svg width="504pt" height="327pt"
 viewBox="0.00 0.00 504.00 327.00" xmlns="http://www.w3.org/2000/svg" xmlns:xlink="http://www.w3.org/1999/xlink">
<g id="graph0" class="graph" transform="scale(0.945766 0.945766) rotate(0) translate(36 309.75)">
<polygon fill="#1f1f1f" stroke="none" points="-36,36 -36,-309.75 496.9,-309.75 496.9,36 -36,36"/>
<!-- 0 -->
<g id="node1" class="node">
<title>0</title>
<ellipse fill="#777777" stroke="black" cx="27" cy="-39.75" rx="27" ry="18"/>
<text xml:space="preserve" text-anchor="middle" x="27" y="-34.72" font-family="Helvetica,Arial,sans-serif" font-size="12.00">S</text>
</g>
<!-- 1 -->
<g id="node2" class="node">
<title>1</title>
<ellipse fill="#c6c6c6" stroke="black" cx="157.82" cy="-39.75" rx="31.82" ry="18"/>
<text xml:space="preserve" text-anchor="middle" x="157.82" y="-34.72" font-family="Helvetica,Arial,sans-serif" font-size="12.00">3,0,0,0</text>
</g>
<!-- 0&#45;&gt;1 -->
<g id="edge1" class="edge">
<title>0&#45;&gt;1</title>
<path fill="none" stroke="#f8889a" d="M54.38,-39.75C71.73,-39.75 94.82,-39.75 114.68,-39.75"/>
<polygon fill="#f8889a" stroke="#f8889a" points="114.43,-43.25 124.43,-39.75 114.43,-36.25 114.43,-43.25"/>
<text xml:space="preserve" text-anchor="middle" x="78.35" y="-28.35" font-family="Helvetica,Arial,sans-serif" font-size="12.00" fill="#f8889a">1.00</text>
</g>
<!-- 2 -->
<g id="node3" class="node">
<title>2</title>
<ellipse fill="#c6c6c6" stroke="black" cx="293.45" cy="-147.75" rx="31.82" ry="18"/>
<text xml:space="preserve" text-anchor="middle" x="293.45" y="-142.72" font-family="Helvetica,Arial,sans-serif" font-size="12.00">1,1,0,0</text>
</g>
<!-- 1&#45;&gt;2 -->
<g id="edge2" class="edge">
<title>1&#45;&gt;2</title>
<path fill="none" stroke="#ee9537" d="M177.12,-54.54C200.01,-73.04 239.39,-104.86 265.67,-126.1"/>
<polygon fill="#ee9537" stroke="#ee9537" points="263.22,-128.62 273.19,-132.19 267.62,-123.18 263.22,-128.62"/>
<text xml:space="preserve" text-anchor="middle" x="202.13" y="-82.45" font-family="Helvetica,Arial,sans-serif" font-size="12.00" fill="#ee9537">9.09e&#45;01</text>
</g>
<!-- 4 -->
<g id="node4" class="node">
<title>4</title>
<ellipse fill="#c6c6c6" stroke="black" cx="293.45" cy="-39.75" rx="31.82" ry="18"/>
<text xml:space="preserve" text-anchor="middle" x="293.45" y="-34.72" font-family="Helvetica,Arial,sans-serif" font-size="12.00">0,0,0,0</text>
</g>
<!-- 1&#45;&gt;4 -->
<g id="edge3" class="edge">
<title>1&#45;&gt;4</title>
<path fill="none" stroke="#bcaa36" d="M171.63,-23.03C194.14,-10.95 241.06,-9.51 269.35,-18.74"/>
<polygon fill="#bcaa36" stroke="#bcaa36" points="267.9,-21.93 278.48,-22.57 270.61,-15.47 267.9,-21.93"/>
<text xml:space="preserve" text-anchor="middle" x="202.35" y="-1.35" font-family="Helvetica,Arial,sans-serif" font-size="12.00" fill="#bcaa36">9.09e&#45;02</text>
</g>
<!-- 3 -->
<g id="node5" class="node">
<title>3</title>
<ellipse fill="#777777" stroke="black" cx="429.08" cy="-255.75" rx="31.82" ry="18"/>
<text xml:space="preserve" text-anchor="middle" x="429.08" y="-250.72" font-family="Helvetica,Arial,sans-serif" font-size="12.00">0,0,1,0</text>
</g>
<!-- 2&#45;&gt;3 -->
<g id="edge4" class="edge">
<title>2&#45;&gt;3</title>
<path fill="none" stroke="#82b936" d="M312.75,-162.54C335.64,-181.04 375.02,-212.86 401.3,-234.1"/>
<polygon fill="#82b936" stroke="#82b936" points="398.85,-236.62 408.83,-240.19 403.25,-231.18 398.85,-236.62"/>
<text xml:space="preserve" text-anchor="middle" x="337.76" y="-190.45" font-family="Helvetica,Arial,sans-serif" font-size="12.00" fill="#82b936">8.33e&#45;01</text>
</g>
<!-- 5 -->
<g id="node6" class="node">
<title>5</title>
<ellipse fill="#c6c6c6" stroke="black" cx="429.08" cy="-147.75" rx="31.82" ry="18"/>
<text xml:space="preserve" text-anchor="middle" x="429.08" y="-142.72" font-family="Helvetica,Arial,sans-serif" font-size="12.00">0,0,0,0</text>
</g>
<!-- 2&#45;&gt;5 -->
<g id="edge5" class="edge">
<title>2&#45;&gt;5</title>
<path fill="none" stroke="#38bf85" d="M307.26,-131.03C329.77,-118.95 376.7,-117.51 404.99,-126.74"/>
<polygon fill="#38bf85" stroke="#38bf85" points="403.53,-129.93 414.11,-130.57 406.25,-123.47 403.53,-129.93"/>
<text xml:space="preserve" text-anchor="middle" x="337.99" y="-109.35" font-family="Helvetica,Arial,sans-serif" font-size="12.00" fill="#38bf85">8.33e&#45;02</text>
</g>
<!-- 6 -->
<g id="node7" class="node">
<title>6</title>
<ellipse fill="#c6c6c6" stroke="black" cx="429.08" cy="-39.75" rx="31.82" ry="18"/>
<text xml:space="preserve" text-anchor="middle" x="429.08" y="-34.72" font-family="Helvetica,Arial,sans-serif" font-size="12.00">0,0,0,0</text>
</g>
<!-- 2&#45;&gt;6 -->
<g id="edge6" class="edge">
<title>2&#45;&gt;6</title>
<path fill="none" stroke="#3bbbb2" d="M301.08,-129.8C316.62,-104.13 356.43,-67.79 387.37,-47.57"/>
<polygon fill="#3bbbb2" stroke="#3bbbb2" points="389.1,-50.62 395.78,-42.4 385.43,-44.66 389.1,-50.62"/>
<text xml:space="preserve" text-anchor="middle" x="321.2" y="-69.38" font-family="Helvetica,Arial,sans-serif" font-size="12.00" fill="#3bbbb2">8.33e&#45;02</text>
</g>
<!-- 4&#45;&gt;1 -->
<g id="edge7" class="edge">
<title>4&#45;&gt;1</title>
<path fill="none" stroke="#3db7d6" d="M279.87,-56.34C257.53,-68.5 210.63,-70.01 182.21,-60.85"/>
<polygon fill="#3db7d6" stroke="#3db7d6" points="183.61,-57.64 173.03,-57.04 180.92,-64.11 183.61,-57.64"/>
<text xml:space="preserve" text-anchor="middle" x="214.04" y="-55.35" font-family="Helvetica,Arial,sans-serif" font-size="12.00" fill="#3db7d6">1.00</text>
</g>
<!-- 5&#45;&gt;2 -->
<g id="edge8" class="edge">
<title>5&#45;&gt;2</title>
<path fill="none" stroke="#86a8f6" d="M415.51,-164.34C393.17,-176.5 346.26,-178.01 317.85,-168.85"/>
<polygon fill="#86a8f6" stroke="#86a8f6" points="319.24,-165.64 308.66,-165.04 316.56,-172.11 319.24,-165.64"/>
<text xml:space="preserve" text-anchor="middle" x="349.68" y="-163.35" font-family="Helvetica,Arial,sans-serif" font-size="12.00" fill="#86a8f6">1.00</text>
</g>
<!-- 6&#45;&gt;2 -->
<g id="edge9" class="edge">
<title>6&#45;&gt;2</title>
<path fill="none" stroke="#d28ef6" d="M421.5,-57.62C405.99,-83.3 366.13,-119.7 335.15,-139.93"/>
<polygon fill="#d28ef6" stroke="#d28ef6" points="333.42,-136.89 326.73,-145.11 337.09,-142.85 333.42,-136.89"/>
<text xml:space="preserve" text-anchor="middle" x="366.12" y="-95.29" font-family="Helvetica,Arial,sans-serif" font-size="12.00" fill="#d28ef6">1.00</text>
</g>
</g>
</svg>
