<?xml version="1.0" encoding="UTF-8" standalone="no"?>
<!DOCTYPE svg PUBLIC "-//W3C//DTD SVG 1.1//EN"
 "http://www.w3.org/Graphics/SVG/1.1/DTD/svg11.dtd">
<!-- Generated by graphviz version 12.0.0 (0)
 -->
<!-- Pages: 1 -->
<svg width="720pt" height="321pt"
 viewBox="0.00 0.00 720.00 320.56" xmlns="http://www.w3.org/2000/svg" xmlns:xlink="http://www.w3.org/1999/xlink">
<g id="graph0" class="graph" transform="scale(0.698393 0.698393) rotate(0) translate(36 423)">
<polygon fill="#1f1f1f" stroke="none" points="-36,36 -36,-423 994.94,-423 994.94,36 -36,36"/>
<!-- 0 -->
<g id="node1" class="node">
<title>0</title>
<ellipse fill="#aaaaaa" stroke="black" cx="27" cy="-195" rx="27" ry="18"/>
<text text-anchor="middle" x="27" y="-189.97" font-family="Helvetica,Arial,sans-serif" font-size="12.00">S</text>
</g>
<!-- 1 -->
<g id="node2" class="node">
<title>1</title>
<ellipse fill="#dddddd" stroke="black" cx="153" cy="-195" rx="27" ry="18"/>
<text text-anchor="middle" x="153" y="-189.97" font-family="Helvetica,Arial,sans-serif" font-size="12.00">1,0,0</text>
</g>
<!-- 0&#45;&gt;1 -->
<g id="edge1" class="edge">
<title>0&#45;&gt;1</title>
<path fill="none" stroke="#bcaa36" d="M54.3,-195C71.72,-195 94.86,-195 114.24,-195"/>
<polygon fill="#bcaa36" stroke="#bcaa36" points="114.23,-198.5 124.23,-195 114.23,-191.5 114.23,-198.5"/>
<text text-anchor="middle" x="78.26" y="-183.6" font-family="Helvetica,Arial,sans-serif" font-size="12.00" fill="#bcaa36">1.00</text>
</g>
<!-- 2 -->
<g id="node3" class="node">
<title>2</title>
<ellipse fill="#dddddd" stroke="black" cx="279" cy="-224" rx="27" ry="18"/>
<text text-anchor="middle" x="279" y="-218.97" font-family="Helvetica,Arial,sans-serif" font-size="12.00">1,0,1</text>
</g>
<!-- 1&#45;&gt;2 -->
<g id="edge2" class="edge">
<title>1&#45;&gt;2</title>
<path fill="none" stroke="#82b936" d="M178.8,-200.8C196.96,-205.05 221.88,-210.88 242.2,-215.63"/>
<polygon fill="#82b936" stroke="#82b936" points="241.24,-219 251.77,-217.87 242.83,-212.18 241.24,-219"/>
<text text-anchor="middle" x="239.54" y="-198.08" font-family="Helvetica,Arial,sans-serif" font-size="12.00" fill="#82b936">5.00e&#45;01</text>
</g>
<!-- 3 -->
<g id="node4" class="node">
<title>3</title>
<ellipse fill="#dddddd" stroke="black" cx="279" cy="-166" rx="27" ry="18"/>
<text text-anchor="middle" x="279" y="-160.97" font-family="Helvetica,Arial,sans-serif" font-size="12.00">1,1,1</text>
</g>
<!-- 1&#45;&gt;3 -->
<g id="edge3" class="edge">
<title>1&#45;&gt;3</title>
<path fill="none" stroke="#38bf85" d="M178.8,-189.2C196.96,-184.95 221.88,-179.12 242.2,-174.37"/>
<polygon fill="#38bf85" stroke="#38bf85" points="242.83,-177.82 251.77,-172.13 241.24,-171 242.83,-177.82"/>
<text text-anchor="middle" x="192.29" y="-169.12" font-family="Helvetica,Arial,sans-serif" font-size="12.00" fill="#38bf85">5.00e&#45;01</text>
</g>
<!-- 4 -->
<g id="node5" class="node">
<title>4</title>
<ellipse fill="#dddddd" stroke="black" cx="405" cy="-195" rx="27" ry="18"/>
<text text-anchor="middle" x="405" y="-189.97" font-family="Helvetica,Arial,sans-serif" font-size="12.00">1,0,2</text>
</g>
<!-- 2&#45;&gt;4 -->
<g id="edge4" class="edge">
<title>2&#45;&gt;4</title>
<path fill="none" stroke="#3bbbb2" d="M304.8,-218.2C322.96,-213.95 347.88,-208.12 368.2,-203.37"/>
<polygon fill="#3bbbb2" stroke="#3bbbb2" points="368.83,-206.82 377.77,-201.13 367.24,-200 368.83,-206.82"/>
<text text-anchor="middle" x="318.29" y="-198.12" font-family="Helvetica,Arial,sans-serif" font-size="12.00" fill="#3bbbb2">5.00e&#45;01</text>
</g>
<!-- 5 -->
<g id="node6" class="node">
<title>5</title>
<ellipse fill="#dddddd" stroke="black" cx="405" cy="-253" rx="27" ry="18"/>
<text text-anchor="middle" x="405" y="-247.97" font-family="Helvetica,Arial,sans-serif" font-size="12.00">1,1,2</text>
</g>
<!-- 2&#45;&gt;5 -->
<g id="edge5" class="edge">
<title>2&#45;&gt;5</title>
<path fill="none" stroke="#3db7d6" d="M304.8,-229.8C322.96,-234.05 347.88,-239.88 368.2,-244.63"/>
<polygon fill="#3db7d6" stroke="#3db7d6" points="367.24,-248 377.77,-246.87 368.83,-241.18 367.24,-248"/>
<text text-anchor="middle" x="365.54" y="-227.08" font-family="Helvetica,Arial,sans-serif" font-size="12.00" fill="#3db7d6">5.00e&#45;01</text>
</g>
<!-- 3&#45;&gt;4 -->
<g id="edge7" class="edge">
<title>3&#45;&gt;4</title>
<path fill="none" stroke="#d28ef6" d="M304.8,-171.8C322.96,-176.05 347.88,-181.88 368.2,-186.63"/>
<polygon fill="#d28ef6" stroke="#d28ef6" points="367.24,-190 377.77,-188.87 368.83,-183.18 367.24,-190"/>
<text text-anchor="middle" x="365.54" y="-169.08" font-family="Helvetica,Arial,sans-serif" font-size="12.00" fill="#d28ef6">5.00e&#45;01</text>
</g>
<!-- 6 -->
<g id="node7" class="node">
<title>6</title>
<ellipse fill="#dddddd" stroke="black" cx="405" cy="-137" rx="27" ry="18"/>
<text text-anchor="middle" x="405" y="-131.97" font-family="Helvetica,Arial,sans-serif" font-size="12.00">1,2,2</text>
</g>
<!-- 3&#45;&gt;6 -->
<g id="edge6" class="edge">
<title>3&#45;&gt;6</title>
<path fill="none" stroke="#86a8f6" d="M304.8,-160.2C322.96,-155.95 347.88,-150.12 368.2,-145.37"/>
<polygon fill="#86a8f6" stroke="#86a8f6" points="368.83,-148.82 377.77,-143.13 367.24,-142 368.83,-148.82"/>
<text text-anchor="middle" x="318.29" y="-140.12" font-family="Helvetica,Arial,sans-serif" font-size="12.00" fill="#86a8f6">5.00e&#45;01</text>
</g>
<!-- 7 -->
<g id="node8" class="node">
<title>7</title>
<ellipse fill="#dddddd" stroke="black" cx="531" cy="-253" rx="27" ry="18"/>
<text text-anchor="middle" x="531" y="-247.97" font-family="Helvetica,Arial,sans-serif" font-size="12.00">1,0,3</text>
</g>
<!-- 4&#45;&gt;7 -->
<g id="edge8" class="edge">
<title>4&#45;&gt;7</title>
<path fill="none" stroke="#f780d2" d="M427.88,-205.24C447.36,-214.35 476.1,-227.79 498.13,-238.09"/>
<polygon fill="#f780d2" stroke="#f780d2" points="496.42,-241.16 506.96,-242.23 499.39,-234.82 496.42,-241.16"/>
<text text-anchor="middle" x="492.07" y="-222.37" font-family="Helvetica,Arial,sans-serif" font-size="12.00" fill="#f780d2">5.00e&#45;01</text>
</g>
<!-- 8 -->
<g id="node9" class="node">
<title>8</title>
<ellipse fill="#dddddd" stroke="black" cx="531" cy="-195" rx="27" ry="18"/>
<text text-anchor="middle" x="531" y="-189.97" font-family="Helvetica,Arial,sans-serif" font-size="12.00">1,1,3</text>
</g>
<!-- 4&#45;&gt;8 -->
<g id="edge9" class="edge">
<title>4&#45;&gt;8</title>
<path fill="none" stroke="#f8889a" d="M432.3,-195C449.72,-195 472.86,-195 492.24,-195"/>
<polygon fill="#f8889a" stroke="#f8889a" points="492.23,-198.5 502.23,-195 492.23,-191.5 492.23,-198.5"/>
<text text-anchor="middle" x="491.51" y="-196.35" font-family="Helvetica,Arial,sans-serif" font-size="12.00" fill="#f8889a">5.00e&#45;01</text>
</g>
<!-- 5&#45;&gt;7 -->
<g id="edge11" class="edge">
<title>5&#45;&gt;7</title>
<path fill="none" stroke="#bcaa36" d="M432.3,-253C449.72,-253 472.86,-253 492.24,-253"/>
<polygon fill="#bcaa36" stroke="#bcaa36" points="492.23,-256.5 502.23,-253 492.23,-249.5 492.23,-256.5"/>
<text text-anchor="middle" x="491.51" y="-254.35" font-family="Helvetica,Arial,sans-serif" font-size="12.00" fill="#bcaa36">5.00e&#45;01</text>
</g>
<!-- 9 -->
<g id="node10" class="node">
<title>9</title>
<ellipse fill="#dddddd" stroke="black" cx="531" cy="-79" rx="27" ry="18"/>
<text text-anchor="middle" x="531" y="-73.97" font-family="Helvetica,Arial,sans-serif" font-size="12.00">1,2,3</text>
</g>
<!-- 5&#45;&gt;9 -->
<g id="edge10" class="edge">
<title>5&#45;&gt;9</title>
<path fill="none" stroke="#ee9537" d="M420.55,-237.78C424.43,-233.45 428.51,-228.65 432,-224 468.39,-175.45 467.61,-156.55 504,-108 505.31,-106.26 506.7,-104.49 508.13,-102.74"/>
<polygon fill="#ee9537" stroke="#ee9537" points="510.6,-105.24 514.46,-95.37 505.29,-100.68 510.6,-105.24"/>
<text text-anchor="middle" x="491.62" y="-164.16" font-family="Helvetica,Arial,sans-serif" font-size="12.00" fill="#ee9537">5.00e&#45;01</text>
</g>
<!-- 10 -->
<g id="node11" class="node">
<title>10</title>
<ellipse fill="#dddddd" stroke="black" cx="788.73" cy="-21" rx="32.73" ry="18"/>
<text text-anchor="middle" x="788.73" y="-15.97" font-family="Helvetica,Arial,sans-serif" font-size="12.00">&#45;1,&#45;1,&#45;1</text>
</g>
<!-- 6&#45;&gt;10 -->
<g id="edge12" class="edge">
<title>6&#45;&gt;10</title>
<path fill="none" stroke="#82b936" d="M418.65,-121.02C435.68,-100.77 468.02,-66.5 504,-50 583.16,-13.69 687.48,-13.58 745.02,-17.07"/>
<polygon fill="#82b936" stroke="#82b936" points="744.5,-20.55 754.71,-17.73 744.97,-13.56 744.5,-20.55"/>
<text text-anchor="middle" x="555.13" y="-15.08" font-family="Helvetica,Arial,sans-serif" font-size="12.00" fill="#82b936">5.00e&#45;01</text>
</g>
<!-- 11 -->
<g id="node12" class="node">
<title>11</title>
<ellipse fill="#dddddd" stroke="black" cx="531" cy="-137" rx="27" ry="18"/>
<text text-anchor="middle" x="531" y="-131.97" font-family="Helvetica,Arial,sans-serif" font-size="12.00">2,0,3</text>
</g>
<!-- 6&#45;&gt;11 -->
<g id="edge13" class="edge">
<title>6&#45;&gt;11</title>
<path fill="none" stroke="#38bf85" d="M432.3,-137C449.72,-137 472.86,-137 492.24,-137"/>
<polygon fill="#38bf85" stroke="#38bf85" points="492.23,-140.5 502.23,-137 492.23,-133.5 492.23,-140.5"/>
<text text-anchor="middle" x="491.51" y="-138.35" font-family="Helvetica,Arial,sans-serif" font-size="12.00" fill="#38bf85">5.00e&#45;01</text>
</g>
<!-- 12 -->
<g id="node13" class="node">
<title>12</title>
<ellipse fill="#dddddd" stroke="black" cx="657" cy="-253" rx="27" ry="18"/>
<text text-anchor="middle" x="657" y="-247.97" font-family="Helvetica,Arial,sans-serif" font-size="12.00">1,0,4</text>
</g>
<!-- 7&#45;&gt;12 -->
<g id="edge14" class="edge">
<title>7&#45;&gt;12</title>
<path fill="none" stroke="#3bbbb2" d="M558.3,-253C575.72,-253 598.86,-253 618.24,-253"/>
<polygon fill="#3bbbb2" stroke="#3bbbb2" points="618.23,-256.5 628.23,-253 618.23,-249.5 618.23,-256.5"/>
<text text-anchor="middle" x="617.51" y="-254.35" font-family="Helvetica,Arial,sans-serif" font-size="12.00" fill="#3bbbb2">5.00e&#45;01</text>
</g>
<!-- 13 -->
<g id="node14" class="node">
<title>13</title>
<ellipse fill="#dddddd" stroke="black" cx="657" cy="-311" rx="27" ry="18"/>
<text text-anchor="middle" x="657" y="-305.97" font-family="Helvetica,Arial,sans-serif" font-size="12.00">1,1,4</text>
</g>
<!-- 7&#45;&gt;13 -->
<g id="edge15" class="edge">
<title>7&#45;&gt;13</title>
<path fill="none" stroke="#3db7d6" d="M553.88,-263.24C573.36,-272.35 602.1,-285.79 624.13,-296.09"/>
<polygon fill="#3db7d6" stroke="#3db7d6" points="622.42,-299.16 632.96,-300.23 625.39,-292.82 622.42,-299.16"/>
<text text-anchor="middle" x="570.82" y="-283.56" font-family="Helvetica,Arial,sans-serif" font-size="12.00" fill="#3db7d6">5.00e&#45;01</text>
</g>
<!-- 8&#45;&gt;12 -->
<g id="edge17" class="edge">
<title>8&#45;&gt;12</title>
<path fill="none" stroke="#d28ef6" d="M553.88,-205.24C573.36,-214.35 602.1,-227.79 624.13,-238.09"/>
<polygon fill="#d28ef6" stroke="#d28ef6" points="622.42,-241.16 632.96,-242.23 625.39,-234.82 622.42,-241.16"/>
<text text-anchor="middle" x="618.07" y="-222.37" font-family="Helvetica,Arial,sans-serif" font-size="12.00" fill="#d28ef6">5.00e&#45;01</text>
</g>
<!-- 14 -->
<g id="node15" class="node">
<title>14</title>
<ellipse fill="#dddddd" stroke="black" cx="657" cy="-79" rx="27" ry="18"/>
<text text-anchor="middle" x="657" y="-73.97" font-family="Helvetica,Arial,sans-serif" font-size="12.00">1,2,4</text>
</g>
<!-- 8&#45;&gt;14 -->
<g id="edge16" class="edge">
<title>8&#45;&gt;14</title>
<path fill="none" stroke="#86a8f6" d="M547.7,-180.31C569.04,-160.35 607.37,-124.49 632.24,-101.23"/>
<polygon fill="#86a8f6" stroke="#86a8f6" points="634.41,-103.99 639.32,-94.61 629.62,-98.88 634.41,-103.99"/>
<text text-anchor="middle" x="617.68" y="-125.54" font-family="Helvetica,Arial,sans-serif" font-size="12.00" fill="#86a8f6">5.00e&#45;01</text>
</g>
<!-- 9&#45;&gt;10 -->
<g id="edge18" class="edge">
<title>9&#45;&gt;10</title>
<path fill="none" stroke="#f780d2" d="M555.57,-71.26C575.31,-64.96 604.29,-56.15 630,-50 668.83,-40.71 713.65,-32.73 745.56,-27.51"/>
<polygon fill="#f780d2" stroke="#f780d2" points="745.89,-31 755.21,-25.95 744.78,-24.09 745.89,-31"/>
<text text-anchor="middle" x="631.57" y="-32.91" font-family="Helvetica,Arial,sans-serif" font-size="12.00" fill="#f780d2">5.00e&#45;01</text>
</g>
<!-- 15 -->
<g id="node16" class="node">
<title>15</title>
<ellipse fill="#dddddd" stroke="black" cx="657" cy="-137" rx="27" ry="18"/>
<text text-anchor="middle" x="657" y="-131.97" font-family="Helvetica,Arial,sans-serif" font-size="12.00">2,0,4</text>
</g>
<!-- 9&#45;&gt;15 -->
<g id="edge19" class="edge">
<title>9&#45;&gt;15</title>
<path fill="none" stroke="#f8889a" d="M553.88,-89.24C573.36,-98.35 602.1,-111.79 624.13,-122.09"/>
<polygon fill="#f8889a" stroke="#f8889a" points="622.42,-125.16 632.96,-126.23 625.39,-118.82 622.42,-125.16"/>
<text text-anchor="middle" x="618.07" y="-106.37" font-family="Helvetica,Arial,sans-serif" font-size="12.00" fill="#f8889a">5.00e&#45;01</text>
</g>
<!-- 16 -->
<g id="node17" class="node">
<title>16</title>
<ellipse fill="#dddddd" stroke="black" cx="926.2" cy="-21" rx="32.73" ry="18"/>
<text text-anchor="middle" x="926.2" y="-15.97" font-family="Helvetica,Arial,sans-serif" font-size="12.00">&#45;2,&#45;2,&#45;2</text>
</g>
<!-- 10&#45;&gt;16 -->
<g id="edge20" class="edge">
<title>10&#45;&gt;16</title>
<path fill="none" stroke="#ee9537" d="M819.46,-14.03C838.43,-12.59 863.28,-12.37 884.13,-13.35"/>
<polygon fill="#ee9537" stroke="#ee9537" points="883.84,-16.84 894.03,-13.95 884.26,-9.85 883.84,-16.84"/>
<text text-anchor="middle" x="845.78" y="-1.35" font-family="Helvetica,Arial,sans-serif" font-size="12.00" fill="#ee9537">1.00</text>
</g>
<!-- 11&#45;&gt;15 -->
<g id="edge21" class="edge">
<title>11&#45;&gt;15</title>
<path fill="none" stroke="#bcaa36" d="M558.3,-137C575.72,-137 598.86,-137 618.24,-137"/>
<polygon fill="#bcaa36" stroke="#bcaa36" points="618.23,-140.5 628.23,-137 618.23,-133.5 618.23,-140.5"/>
<text text-anchor="middle" x="617.51" y="-138.35" font-family="Helvetica,Arial,sans-serif" font-size="12.00" fill="#bcaa36">5.00e&#45;01</text>
</g>
<!-- 17 -->
<g id="node18" class="node">
<title>17</title>
<ellipse fill="#dddddd" stroke="black" cx="657" cy="-195" rx="27" ry="18"/>
<text text-anchor="middle" x="657" y="-189.97" font-family="Helvetica,Arial,sans-serif" font-size="12.00">2,1,4</text>
</g>
<!-- 11&#45;&gt;17 -->
<g id="edge22" class="edge">
<title>11&#45;&gt;17</title>
<path fill="none" stroke="#82b936" d="M553.88,-147.24C573.36,-156.35 602.1,-169.79 624.13,-180.09"/>
<polygon fill="#82b936" stroke="#82b936" points="622.42,-183.16 632.96,-184.23 625.39,-176.82 622.42,-183.16"/>
<text text-anchor="middle" x="618.07" y="-164.37" font-family="Helvetica,Arial,sans-serif" font-size="12.00" fill="#82b936">5.00e&#45;01</text>
</g>
<!-- 18 -->
<g id="node19" class="node">
<title>18</title>
<ellipse fill="#dddddd" stroke="black" cx="788.73" cy="-311" rx="27" ry="18"/>
<text text-anchor="middle" x="788.73" y="-305.97" font-family="Helvetica,Arial,sans-serif" font-size="12.00">1,0,5</text>
</g>
<!-- 12&#45;&gt;18 -->
<g id="edge23" class="edge">
<title>12&#45;&gt;18</title>
<path fill="none" stroke="#38bf85" d="M680.01,-262.84C700.7,-272.09 731.91,-286.04 755.42,-296.55"/>
<polygon fill="#38bf85" stroke="#38bf85" points="753.68,-299.61 764.24,-300.5 756.54,-293.22 753.68,-299.61"/>
<text text-anchor="middle" x="746.55" y="-280.19" font-family="Helvetica,Arial,sans-serif" font-size="12.00" fill="#38bf85">5.00e&#45;01</text>
</g>
<!-- 19 -->
<g id="node20" class="node">
<title>19</title>
<ellipse fill="#dddddd" stroke="black" cx="788.73" cy="-253" rx="27" ry="18"/>
<text text-anchor="middle" x="788.73" y="-247.97" font-family="Helvetica,Arial,sans-serif" font-size="12.00">1,1,5</text>
</g>
<!-- 12&#45;&gt;19 -->
<g id="edge24" class="edge">
<title>12&#45;&gt;19</title>
<path fill="none" stroke="#3bbbb2" d="M684.25,-253C703.16,-253 728.94,-253 750.04,-253"/>
<polygon fill="#3bbbb2" stroke="#3bbbb2" points="750.01,-256.5 760.01,-253 750.01,-249.5 750.01,-256.5"/>
<text text-anchor="middle" x="699.16" y="-254.35" font-family="Helvetica,Arial,sans-serif" font-size="12.00" fill="#3bbbb2">5.00e&#45;01</text>
</g>
<!-- 13&#45;&gt;18 -->
<g id="edge26" class="edge">
<title>13&#45;&gt;18</title>
<path fill="none" stroke="#86a8f6" d="M684.25,-311C703.16,-311 728.94,-311 750.04,-311"/>
<polygon fill="#86a8f6" stroke="#86a8f6" points="750.01,-314.5 760.01,-311 750.01,-307.5 750.01,-314.5"/>
<text text-anchor="middle" x="699.16" y="-312.35" font-family="Helvetica,Arial,sans-serif" font-size="12.00" fill="#86a8f6">5.00e&#45;01</text>
</g>
<!-- 20 -->
<g id="node21" class="node">
<title>20</title>
<ellipse fill="#dddddd" stroke="black" cx="788.73" cy="-369" rx="27" ry="18"/>
<text text-anchor="middle" x="788.73" y="-363.97" font-family="Helvetica,Arial,sans-serif" font-size="12.00">1,2,5</text>
</g>
<!-- 13&#45;&gt;20 -->
<g id="edge25" class="edge">
<title>13&#45;&gt;20</title>
<path fill="none" stroke="#3db7d6" d="M680.01,-320.84C700.7,-330.09 731.91,-344.04 755.42,-354.55"/>
<polygon fill="#3db7d6" stroke="#3db7d6" points="753.68,-357.61 764.24,-358.5 756.54,-351.22 753.68,-357.61"/>
<text text-anchor="middle" x="699.3" y="-341.37" font-family="Helvetica,Arial,sans-serif" font-size="12.00" fill="#3db7d6">5.00e&#45;01</text>
</g>
<!-- 14&#45;&gt;10 -->
<g id="edge27" class="edge">
<title>14&#45;&gt;10</title>
<path fill="none" stroke="#d28ef6" d="M680.01,-69.16C699.73,-60.34 729.02,-47.25 752.08,-36.94"/>
<polygon fill="#d28ef6" stroke="#d28ef6" points="753.42,-40.17 761.12,-32.9 750.56,-33.78 753.42,-40.17"/>
<text text-anchor="middle" x="697.73" y="-39.28" font-family="Helvetica,Arial,sans-serif" font-size="12.00" fill="#d28ef6">5.00e&#45;01</text>
</g>
<!-- 21 -->
<g id="node22" class="node">
<title>21</title>
<ellipse fill="#dddddd" stroke="black" cx="788.73" cy="-79" rx="27" ry="18"/>
<text text-anchor="middle" x="788.73" y="-73.97" font-family="Helvetica,Arial,sans-serif" font-size="12.00">2,0,5</text>
</g>
<!-- 14&#45;&gt;21 -->
<g id="edge28" class="edge">
<title>14&#45;&gt;21</title>
<path fill="none" stroke="#f780d2" d="M684.25,-79C703.16,-79 728.94,-79 750.04,-79"/>
<polygon fill="#f780d2" stroke="#f780d2" points="750.01,-82.5 760.01,-79 750.01,-75.5 750.01,-82.5"/>
<text text-anchor="middle" x="699.16" y="-80.35" font-family="Helvetica,Arial,sans-serif" font-size="12.00" fill="#f780d2">5.00e&#45;01</text>
</g>
<!-- 15&#45;&gt;21 -->
<g id="edge29" class="edge">
<title>15&#45;&gt;21</title>
<path fill="none" stroke="#f8889a" d="M680.01,-127.16C700.7,-117.91 731.91,-103.96 755.42,-93.45"/>
<polygon fill="#f8889a" stroke="#f8889a" points="756.54,-96.78 764.24,-89.5 753.68,-90.39 756.54,-96.78"/>
<text text-anchor="middle" x="746.55" y="-106.14" font-family="Helvetica,Arial,sans-serif" font-size="12.00" fill="#f8889a">5.00e&#45;01</text>
</g>
<!-- 22 -->
<g id="node23" class="node">
<title>22</title>
<ellipse fill="#dddddd" stroke="black" cx="788.73" cy="-137" rx="27" ry="18"/>
<text text-anchor="middle" x="788.73" y="-131.97" font-family="Helvetica,Arial,sans-serif" font-size="12.00">2,1,5</text>
</g>
<!-- 15&#45;&gt;22 -->
<g id="edge30" class="edge">
<title>15&#45;&gt;22</title>
<path fill="none" stroke="#ee9537" d="M684.25,-137C703.16,-137 728.94,-137 750.04,-137"/>
<polygon fill="#ee9537" stroke="#ee9537" points="750.01,-140.5 760.01,-137 750.01,-133.5 750.01,-140.5"/>
<text text-anchor="middle" x="699.16" y="-138.35" font-family="Helvetica,Arial,sans-serif" font-size="12.00" fill="#ee9537">5.00e&#45;01</text>
</g>
<!-- 16&#45;&gt;10 -->
<g id="edge31" class="edge">
<title>16&#45;&gt;10</title>
<path fill="none" stroke="#bcaa36" d="M895.54,-27.96C876.59,-29.4 851.74,-29.64 830.89,-28.66"/>
<polygon fill="#bcaa36" stroke="#bcaa36" points="831.17,-25.17 820.97,-28.06 830.75,-32.16 831.17,-25.17"/>
<text text-anchor="middle" x="845.99" y="-17.85" font-family="Helvetica,Arial,sans-serif" font-size="12.00" fill="#bcaa36">1.00</text>
</g>
<!-- 17&#45;&gt;18 -->
<g id="edge33" class="edge">
<title>17&#45;&gt;18</title>
<path fill="none" stroke="#38bf85" d="M673.91,-209.22C696.28,-229.23 737.22,-265.84 763.42,-289.26"/>
<polygon fill="#38bf85" stroke="#38bf85" points="760.78,-291.59 770.57,-295.65 765.45,-286.38 760.78,-291.59"/>
<text text-anchor="middle" x="746.6" y="-254.45" font-family="Helvetica,Arial,sans-serif" font-size="12.00" fill="#38bf85">5.00e&#45;01</text>
</g>
<!-- 23 -->
<g id="node24" class="node">
<title>23</title>
<ellipse fill="#dddddd" stroke="black" cx="788.73" cy="-195" rx="27" ry="18"/>
<text text-anchor="middle" x="788.73" y="-189.97" font-family="Helvetica,Arial,sans-serif" font-size="12.00">2,2,5</text>
</g>
<!-- 17&#45;&gt;23 -->
<g id="edge32" class="edge">
<title>17&#45;&gt;23</title>
<path fill="none" stroke="#82b936" d="M684.25,-195C703.16,-195 728.94,-195 750.04,-195"/>
<polygon fill="#82b936" stroke="#82b936" points="750.01,-198.5 760.01,-195 750.01,-191.5 750.01,-198.5"/>
<text text-anchor="middle" x="699.16" y="-196.35" font-family="Helvetica,Arial,sans-serif" font-size="12.00" fill="#82b936">5.00e&#45;01</text>
</g>
<!-- 24 -->
<g id="node25" class="node">
<title>24</title>
<ellipse fill="#9f9f9f" stroke="black" cx="926.2" cy="-224" rx="27" ry="18"/>
<text text-anchor="middle" x="926.2" y="-218.97" font-family="Helvetica,Arial,sans-serif" font-size="12.00">0,2,6</text>
</g>
<!-- 18&#45;&gt;24 -->
<g id="edge34" class="edge">
<title>18&#45;&gt;24</title>
<path fill="none" stroke="#3bbbb2" d="M808.86,-298.72C831.75,-284.02 870.3,-259.26 896.71,-242.3"/>
<polygon fill="#3bbbb2" stroke="#3bbbb2" points="898.38,-245.38 904.91,-237.04 894.6,-239.49 898.38,-245.38"/>
<text text-anchor="middle" x="846.15" y="-255.9" font-family="Helvetica,Arial,sans-serif" font-size="12.00" fill="#3bbbb2">1.00</text>
</g>
<!-- 19&#45;&gt;24 -->
<g id="edge35" class="edge">
<title>19&#45;&gt;24</title>
<path fill="none" stroke="#3db7d6" d="M814.9,-247.61C835.71,-243.16 865.55,-236.77 888.94,-231.76"/>
<polygon fill="#3db7d6" stroke="#3db7d6" points="889.65,-235.19 898.7,-229.67 888.18,-228.35 889.65,-235.19"/>
<text text-anchor="middle" x="846.04" y="-227.06" font-family="Helvetica,Arial,sans-serif" font-size="12.00" fill="#3db7d6">1.00</text>
</g>
<!-- 20&#45;&gt;24 -->
<g id="edge36" class="edge">
<title>20&#45;&gt;24</title>
<path fill="none" stroke="#86a8f6" d="M805.85,-354.85C810.95,-350.22 816.54,-344.99 821.47,-340 851.8,-309.34 884.63,-271.82 905.06,-247.91"/>
<polygon fill="#86a8f6" stroke="#86a8f6" points="907.45,-250.5 911.27,-240.61 902.12,-245.96 907.45,-250.5"/>
<text text-anchor="middle" x="848.79" y="-287.29" font-family="Helvetica,Arial,sans-serif" font-size="12.00" fill="#86a8f6">1.00</text>
</g>
<!-- 21&#45;&gt;24 -->
<g id="edge37" class="edge">
<title>21&#45;&gt;24</title>
<path fill="none" stroke="#d28ef6" d="M805.85,-93.15C810.95,-97.78 816.54,-103.01 821.47,-108 851.8,-138.66 884.63,-176.18 905.06,-200.09"/>
<polygon fill="#d28ef6" stroke="#d28ef6" points="902.12,-202.04 911.27,-207.39 907.45,-197.5 902.12,-202.04"/>
<text text-anchor="middle" x="848.79" y="-137.91" font-family="Helvetica,Arial,sans-serif" font-size="12.00" fill="#d28ef6">1.00</text>
</g>
<!-- 22&#45;&gt;24 -->
<g id="edge38" class="edge">
<title>22&#45;&gt;24</title>
<path fill="none" stroke="#f780d2" d="M808.86,-149.28C831.75,-163.98 870.3,-188.74 896.71,-205.7"/>
<polygon fill="#f780d2" stroke="#f780d2" points="894.6,-208.51 904.91,-210.96 898.38,-202.62 894.6,-208.51"/>
<text text-anchor="middle" x="846.15" y="-169.3" font-family="Helvetica,Arial,sans-serif" font-size="12.00" fill="#f780d2">1.00</text>
</g>
<!-- 23&#45;&gt;24 -->
<g id="edge39" class="edge">
<title>23&#45;&gt;24</title>
<path fill="none" stroke="#f8889a" d="M814.9,-200.39C835.71,-204.84 865.55,-211.23 888.94,-216.24"/>
<polygon fill="#f8889a" stroke="#f8889a" points="888.18,-219.65 898.7,-218.33 889.65,-212.81 888.18,-219.65"/>
<text text-anchor="middle" x="846.04" y="-198.14" font-family="Helvetica,Arial,sans-serif" font-size="12.00" fill="#f8889a">1.00</text>
</g>
</g>
</svg>
