<?xml version="1.0" encoding="UTF-8" standalone="no"?>
<!DOCTYPE svg PUBLIC "-//W3C//DTD SVG 1.1//EN"
 "http://www.w3.org/Graphics/SVG/1.1/DTD/svg11.dtd">
<!-- Generated by graphviz version 12.0.0 (0)
 -->
<!-- Pages: 1 -->
<svg width="378pt" height="139pt"
 viewBox="0.00 0.00 378.00 138.97" xmlns="http://www.w3.org/2000/svg" xmlns:xlink="http://www.w3.org/1999/xlink">
<g id="graph0" class="graph" transform="scale(1 1) rotate(0) translate(36 102.97)">
<polygon fill="#1f1f1f" stroke="none" points="-36,36 -36,-102.97 342,-102.97 342,36 -36,36"/>
<!-- 0 -->
<g id="node1" class="node">
<title>0</title>
<ellipse fill="#aaaaaa" stroke="black" cx="27" cy="-39.75" rx="27" ry="18"/>
<text text-anchor="middle" x="27" y="-34.72" font-family="Helvetica,Arial,sans-serif" font-size="12.00">S</text>
</g>
<!-- 1 -->
<g id="node2" class="node">
<title>1</title>
<ellipse fill="#e6e6e6" stroke="black" cx="153" cy="-39.75" rx="27" ry="18"/>
<text text-anchor="middle" x="153" y="-34.72" font-family="Helvetica,Arial,sans-serif" font-size="12.00">1,0</text>
</g>
<!-- 0&#45;&gt;1 -->
<g id="edge1" class="edge">
<title>0&#45;&gt;1</title>
<path fill="none" stroke="#bcaa36" d="M54.3,-39.75C71.72,-39.75 94.86,-39.75 114.24,-39.75"/>
<polygon fill="#bcaa36" stroke="#bcaa36" points="114.23,-43.25 124.23,-39.75 114.23,-36.25 114.23,-43.25"/>
<text text-anchor="middle" x="78.26" y="-28.35" font-family="Helvetica,Arial,sans-serif" font-size="12.00" fill="#bcaa36">1.00</text>
</g>
<!-- 2 -->
<g id="node3" class="node">
<title>2</title>
<ellipse fill="#e6e6e6" stroke="black" cx="279" cy="-39.75" rx="27" ry="18"/>
<text text-anchor="middle" x="279" y="-34.72" font-family="Helvetica,Arial,sans-serif" font-size="12.00">0,1</text>
</g>
<!-- 1&#45;&gt;2 -->
<g id="edge2" class="edge">
<title>1&#45;&gt;2</title>
<path fill="none" stroke="#82b936" d="M165.44,-23.3C186.11,-10.99 229.98,-9.45 256.43,-18.69"/>
<polygon fill="#82b936" stroke="#82b936" points="254.66,-21.73 265.21,-22.69 257.55,-15.36 254.66,-21.73"/>
<text text-anchor="middle" x="204.28" y="-1.35" font-family="Helvetica,Arial,sans-serif" font-size="12.00" fill="#82b936">1.00</text>
</g>
<!-- 2&#45;&gt;1 -->
<g id="edge3" class="edge">
<title>2&#45;&gt;1</title>
<path fill="none" stroke="#38bf85" d="M266.58,-56.19C245.94,-68.51 202.07,-70.05 175.6,-60.82"/>
<polygon fill="#38bf85" stroke="#38bf85" points="177.37,-57.78 166.82,-56.83 174.48,-64.15 177.37,-57.78"/>
<text text-anchor="middle" x="204.51" y="-55.35" font-family="Helvetica,Arial,sans-serif" font-size="12.00" fill="#38bf85">1.00</text>
</g>
</g>
</svg>
