<?xml version="1.0" encoding="UTF-8" standalone="no"?>
<!DOCTYPE svg PUBLIC "-//W3C//DTD SVG 1.1//EN"
 "http://www.w3.org/Graphics/SVG/1.1/DTD/svg11.dtd">
<!-- Generated by graphviz version 13.1.2 (0)
 -->
<!-- Pages: 1 -->
<svg width="504pt" height="265pt"
 viewBox="0.00 0.00 504.00 265.00" xmlns="http://www.w3.org/2000/svg" xmlns:xlink="http://www.w3.org/1999/xlink">
<g id="graph0" class="graph" transform="scale(0.864027 0.864027) rotate(0) translate(36 271)">
<polygon fill="#1f1f1f" stroke="none" points="-36,36 -36,-271 547.32,-271 547.32,36 -36,36"/>
<g id="clust1" class="cluster">
<title>cluster_has singletons</title>
<polygon fill="#3f3f3f" stroke="#3f3f3f" points="118,-8 118,-227 220.25,-227 220.25,-8 118,-8"/>
<text xml:space="preserve" text-anchor="middle" x="169.12" y="-209.7" font-family="Helvetica,Arial,sans-serif" font-size="14.00" fill="#e6e6e6">has singletons</text>
</g>
<g id="clust2" class="cluster">
<title>cluster_no singletons</title>
<polygon fill="#3f3f3f" stroke="#3f3f3f" points="276.25,-152 276.25,-227 371.75,-227 371.75,-152 276.25,-152"/>
<text xml:space="preserve" text-anchor="middle" x="324" y="-209.7" font-family="Helvetica,Arial,sans-serif" font-size="14.00" fill="#e6e6e6">no singletons</text>
</g>
<!-- 0 -->
<g id="node1" class="node">
<title>0</title>
<ellipse fill="#777777" stroke="black" cx="27" cy="-34" rx="27" ry="18"/>
<text xml:space="preserve" text-anchor="middle" x="27" y="-28.98" font-family="Helvetica,Arial,sans-serif" font-size="12.00">S</text>
</g>
<!-- 1 -->
<g id="node2" class="node">
<title>1</title>
<ellipse fill="#c6c6c6" stroke="black" cx="168.62" cy="-34" rx="37.78" ry="18"/>
<text xml:space="preserve" text-anchor="middle" x="168.62" y="-28.98" font-family="Helvetica,Arial,sans-serif" font-size="12.00">4,0,0,0,0</text>
</g>
<!-- 0&#45;&gt;1 -->
<g id="edge1" class="edge">
<title>0&#45;&gt;1</title>
<path fill="none" stroke="#f8889a" d="M54.26,-34C72.48,-34 97.27,-34 119.03,-34"/>
<polygon fill="#f8889a" stroke="#f8889a" points="118.9,-37.5 128.9,-34 118.9,-30.5 118.9,-37.5"/>
<text xml:space="preserve" text-anchor="middle" x="80.56" y="-22.6" font-family="Helvetica,Arial,sans-serif" font-size="12.00" fill="#f8889a">1.00</text>
</g>
<!-- 2 -->
<g id="node3" class="node">
<title>2</title>
<ellipse fill="#c6c6c6" stroke="black" cx="168.62" cy="-178" rx="37.78" ry="18"/>
<text xml:space="preserve" text-anchor="middle" x="168.62" y="-172.97" font-family="Helvetica,Arial,sans-serif" font-size="12.00">2,1,0,0,0</text>
</g>
<!-- 1&#45;&gt;2 -->
<g id="edge2" class="edge">
<title>1&#45;&gt;2</title>
<path fill="none" stroke="#ee9537" d="M138.49,-44.96C119.72,-53.54 97.09,-67.5 86,-88 78.39,-102.07 78.39,-109.93 86,-124 95.18,-140.97 112.28,-153.47 128.55,-162.13"/>
<polygon fill="#ee9537" stroke="#ee9537" points="126.62,-165.08 137.13,-166.37 129.72,-158.81 126.62,-165.08"/>
<text xml:space="preserve" text-anchor="middle" x="92.64" y="-134.48" font-family="Helvetica,Arial,sans-serif" font-size="12.00" fill="#ee9537">6.00</text>
</g>
<!-- 3 -->
<g id="node4" class="node">
<title>3</title>
<ellipse fill="#c6c6c6" stroke="black" cx="323.5" cy="-178" rx="37.78" ry="18"/>
<text xml:space="preserve" text-anchor="middle" x="323.5" y="-172.97" font-family="Helvetica,Arial,sans-serif" font-size="12.00">0,2,0,0,0</text>
</g>
<!-- 2&#45;&gt;3 -->
<g id="edge3" class="edge">
<title>2&#45;&gt;3</title>
<path fill="none" stroke="#bcaa36" d="M206.63,-178C226.86,-178 252.15,-178 273.94,-178"/>
<polygon fill="#bcaa36" stroke="#bcaa36" points="273.79,-181.5 283.79,-178 273.79,-174.5 273.79,-181.5"/>
<text xml:space="preserve" text-anchor="middle" x="234.06" y="-166.6" font-family="Helvetica,Arial,sans-serif" font-size="12.00" fill="#bcaa36">1.00</text>
</g>
<!-- 4 -->
<g id="node5" class="node">
<title>4</title>
<ellipse fill="#c6c6c6" stroke="black" cx="168.62" cy="-106" rx="37.78" ry="18"/>
<text xml:space="preserve" text-anchor="middle" x="168.62" y="-100.97" font-family="Helvetica,Arial,sans-serif" font-size="12.00">1,0,1,0,0</text>
</g>
<!-- 2&#45;&gt;4 -->
<g id="edge4" class="edge">
<title>2&#45;&gt;4</title>
<path fill="none" stroke="#82b936" d="M168.62,-159.53C168.62,-151.55 168.62,-143.56 168.62,-135.57"/>
<polygon fill="#82b936" stroke="#82b936" points="172.13,-135.79 168.63,-125.79 165.13,-135.79 172.13,-135.79"/>
<text xml:space="preserve" text-anchor="middle" x="157" y="-130.54" font-family="Helvetica,Arial,sans-serif" font-size="12.00" fill="#82b936">2.00</text>
</g>
<!-- 5 -->
<g id="node6" class="node">
<title>5</title>
<ellipse fill="#777777" stroke="black" cx="473.53" cy="-141" rx="37.78" ry="18"/>
<text xml:space="preserve" text-anchor="middle" x="473.53" y="-135.97" font-family="Helvetica,Arial,sans-serif" font-size="12.00">0,0,0,1,0</text>
</g>
<!-- 3&#45;&gt;5 -->
<g id="edge5" class="edge">
<title>3&#45;&gt;5</title>
<path fill="none" stroke="#38bf85" d="M357.35,-169.79C378.27,-164.56 405.61,-157.73 428.4,-152.03"/>
<polygon fill="#38bf85" stroke="#38bf85" points="429.19,-155.44 438.05,-149.62 427.5,-148.65 429.19,-155.44"/>
<text xml:space="preserve" text-anchor="middle" x="386.9" y="-148.1" font-family="Helvetica,Arial,sans-serif" font-size="12.00" fill="#38bf85">1.00</text>
</g>
<!-- 4&#45;&gt;5 -->
<g id="edge6" class="edge">
<title>4&#45;&gt;5</title>
<path fill="none" stroke="#3bbbb2" d="M205.86,-110.19C260.59,-116.51 364.39,-128.5 425.08,-135.52"/>
<polygon fill="#3bbbb2" stroke="#3bbbb2" points="424.41,-138.96 434.75,-136.63 425.22,-132.01 424.41,-138.96"/>
<text xml:space="preserve" text-anchor="middle" x="309.66" y="-112.12" font-family="Helvetica,Arial,sans-serif" font-size="12.00" fill="#3bbbb2">1.00</text>
</g>
</g>
</svg>
